<?xml version="1.0" encoding="utf-8"?>
<!-- Generator: Adobe Illustrator 28.1.0, SVG Export Plug-In . SVG Version: 6.00 Build 0)  -->
<svg version="1.1" id="Layer_1" xmlns="http://www.w3.org/2000/svg" xmlns:xlink="http://www.w3.org/1999/xlink" x="0px" y="0px"
	 viewBox="0 0 216 56" style="enable-background:new 0 0 216 56;" xml:space="preserve">
<text transform="matrix(1.2926 0 0 1 -289.2978 -140.1826)"><tspan x="0" y="0" style="font-family:'Galvji-Bold'; font-size:36.1589px; letter-spacing:-0.77;">C</tspan><tspan x="25.36" y="0" style="font-family:'Galvji-Bold'; font-size:36.1589px; letter-spacing:-1.55;">on</tspan><tspan x="66.11" y="0" style="font-family:'Galvji-Bold'; font-size:36.1589px; letter-spacing:-0.77;">t</tspan><tspan x="79.58" y="0" style="font-family:'Galvji-Bold'; font-size:36.1589px; letter-spacing:-1.55;">a</tspan><tspan x="98.74" y="0" style="font-family:'Galvji-Bold'; font-size:36.1589px; letter-spacing:-0.77;">c</tspan><tspan x="118.53" y="0" style="font-family:'Galvji-Bold'; font-size:36.1589px;">t</tspan></text>
<g>
	<path d="M41.44,45.42c-2.25,0-4.27-0.38-6.07-1.13c-1.8-0.75-3.33-1.83-4.58-3.24c-1.25-1.4-2.22-3.12-2.89-5.14
		c-0.67-2.02-1.01-4.29-1.01-6.82c0-2.52,0.34-4.79,1.01-6.8c0.67-2.01,1.64-3.72,2.89-5.13c1.25-1.4,2.78-2.48,4.58-3.24
		c1.8-0.75,3.82-1.13,6.07-1.13c1.83,0,3.55,0.29,5.14,0.87c1.59,0.58,2.98,1.39,4.17,2.42c1.19,1.03,2.15,2.26,2.88,3.68
		c0.73,1.42,1.15,2.97,1.27,4.67h-6.32c-0.16-0.89-0.44-1.7-0.86-2.43c-0.42-0.73-0.94-1.35-1.56-1.87s-1.34-0.91-2.14-1.19
		c-0.8-0.28-1.66-0.42-2.58-0.42c-1.22,0-2.31,0.24-3.29,0.73s-1.81,1.19-2.49,2.11c-0.69,0.92-1.21,2.03-1.58,3.33
		c-0.37,1.3-0.55,2.77-0.55,4.41s0.18,3.11,0.55,4.42c0.37,1.31,0.89,2.42,1.58,3.33s1.52,1.61,2.49,2.11s2.08,0.74,3.31,0.74
		c0.93,0,1.8-0.13,2.6-0.4c0.8-0.26,1.51-0.64,2.13-1.13s1.13-1.08,1.55-1.76c0.42-0.69,0.7-1.46,0.86-2.32h6.32
		c-0.13,1.68-0.56,3.21-1.28,4.6c-0.72,1.39-1.68,2.58-2.86,3.58c-1.18,1-2.57,1.77-4.16,2.32C45.03,45.15,43.3,45.42,41.44,45.42z"
		/>
	<path d="M69.02,45.14c-1.82,0-3.45-0.28-4.9-0.84c-1.45-0.56-2.67-1.37-3.68-2.44c-1-1.07-1.77-2.37-2.3-3.9
		c-0.53-1.53-0.8-3.27-0.8-5.2c0-1.92,0.27-3.64,0.81-5.17c0.54-1.53,1.31-2.82,2.32-3.89c1.01-1.07,2.24-1.88,3.68-2.45
		c1.44-0.57,3.06-0.85,4.87-0.85c1.81,0,3.43,0.28,4.87,0.85c1.44,0.57,2.67,1.38,3.68,2.45c1.01,1.07,1.78,2.36,2.32,3.89
		c0.54,1.53,0.81,3.25,0.81,5.17c0,1.94-0.27,3.67-0.8,5.2c-0.53,1.53-1.3,2.83-2.3,3.9c-1,1.07-2.23,1.88-3.68,2.44
		C72.48,44.86,70.84,45.14,69.02,45.14z M69.02,40.03c1.68,0,2.97-0.63,3.88-1.9s1.37-3.06,1.37-5.36c0-1.13-0.12-2.15-0.35-3.05
		c-0.24-0.9-0.58-1.66-1.03-2.28c-0.45-0.62-1-1.09-1.64-1.42c-0.65-0.33-1.38-0.49-2.21-0.49c-0.83,0-1.57,0.17-2.23,0.49
		c-0.65,0.33-1.2,0.8-1.64,1.42c-0.44,0.62-0.78,1.38-1.02,2.28c-0.24,0.9-0.35,1.92-0.35,3.05c0,2.32,0.45,4.11,1.35,5.38
		S67.33,40.03,69.02,40.03z"/>
	<path d="M83.15,20.91h6.06v3.81h0.39c0.54-1.35,1.41-2.4,2.59-3.17c1.18-0.77,2.66-1.15,4.42-1.15c2.64,0,4.65,0.77,6.03,2.32
		s2.07,3.74,2.07,6.58v15.33h-6.26V30.78c0-1.65-0.35-2.89-1.06-3.73s-1.81-1.26-3.3-1.26c-0.73,0-1.38,0.12-1.96,0.37
		s-1.06,0.59-1.47,1.04c-0.41,0.45-0.72,1-0.94,1.63c-0.21,0.64-0.32,1.34-0.32,2.12v13.67h-6.26V20.91z"/>
	<path d="M116.18,15.28v5.87h4.92v4.92h-4.92v10.66c0,1.03,0.24,1.79,0.73,2.28s1.27,0.73,2.34,0.73c0.42,0,0.75-0.01,1.01-0.02
		c0.26-0.01,0.54-0.04,0.84-0.06v4.77c-0.39,0.07-0.86,0.14-1.41,0.19s-1.13,0.09-1.73,0.09c-1.45,0-2.68-0.12-3.7-0.37
		s-1.85-0.63-2.49-1.15c-0.65-0.52-1.11-1.19-1.41-2.01c-0.29-0.82-0.44-1.81-0.44-2.97V26.07h-3.7v-4.92h3.7v-5.87H116.18z"/>
	<path d="M131.03,44.99c-1.15,0-2.19-0.17-3.14-0.51c-0.95-0.34-1.76-0.82-2.45-1.44s-1.22-1.37-1.6-2.25
		c-0.38-0.87-0.57-1.86-0.57-2.95c0-2.16,0.79-3.85,2.36-5.06c1.58-1.21,3.85-1.9,6.82-2.07l5.74-0.34v-1.94
		c0-0.99-0.34-1.75-1.02-2.29c-0.68-0.54-1.67-0.81-2.98-0.81c-1.13,0-2.06,0.19-2.79,0.56c-0.73,0.37-1.23,0.92-1.48,1.63h-5.76
		c0.1-1.09,0.42-2.07,0.96-2.96c0.54-0.88,1.26-1.63,2.16-2.26c0.9-0.62,1.97-1.1,3.19-1.43c1.23-0.33,2.58-0.49,4.07-0.49
		c1.56,0,2.96,0.18,4.18,0.55c1.23,0.37,2.25,0.89,3.08,1.58s1.46,1.53,1.9,2.53c0.44,1,0.66,2.12,0.66,3.39v16.19h-6.06v-3.1h-0.39
		c-0.62,1.09-1.53,1.94-2.74,2.55C133.96,44.69,132.58,44.99,131.03,44.99z M133.1,40.28c0.73,0,1.4-0.11,2.02-0.32
		c0.62-0.21,1.15-0.52,1.61-0.9s0.82-0.84,1.08-1.35c0.26-0.52,0.39-1.07,0.39-1.68v-1.74l-4.79,0.3c-2.67,0.19-4,1.14-4,2.86
		c0,0.89,0.34,1.58,1.03,2.09C131.12,40.03,132.01,40.28,133.1,40.28z"/>
	<path d="M163.01,29.28c-0.21-1.13-0.72-2.04-1.5-2.72c-0.79-0.68-1.86-1.02-3.2-1.02c-1.69,0-2.99,0.61-3.9,1.83
		c-0.91,1.22-1.37,3-1.37,5.35c0,2.38,0.46,4.19,1.37,5.43s2.21,1.86,3.9,1.86c1.29,0,2.34-0.3,3.14-0.91
		c0.8-0.61,1.33-1.5,1.57-2.68h5.85c-0.13,1.33-0.46,2.54-1,3.61c-0.54,1.08-1.26,1.99-2.16,2.75c-0.9,0.76-1.97,1.34-3.21,1.75
		c-1.24,0.41-2.63,0.61-4.18,0.61c-1.85,0-3.49-0.28-4.93-0.83c-1.44-0.55-2.65-1.35-3.63-2.41c-0.98-1.05-1.73-2.35-2.25-3.89
		c-0.52-1.54-0.77-3.31-0.77-5.3c0-1.96,0.25-3.71,0.76-5.25s1.26-2.82,2.25-3.87c0.99-1.05,2.2-1.84,3.64-2.39
		c1.44-0.54,3.08-0.82,4.93-0.82c1.56,0,2.97,0.21,4.22,0.62c1.25,0.42,2.33,1.01,3.21,1.78s1.6,1.71,2.13,2.81
		c0.53,1.1,0.86,2.32,0.99,3.67H163.01z"/>
	<path d="M180.01,15.28v5.87h4.92v4.92h-4.92v10.66c0,1.03,0.24,1.79,0.73,2.28c0.49,0.49,1.27,0.73,2.34,0.73
		c0.42,0,0.75-0.01,1.01-0.02c0.26-0.01,0.54-0.04,0.84-0.06v4.77c-0.39,0.07-0.86,0.14-1.41,0.19s-1.13,0.09-1.73,0.09
		c-1.45,0-2.68-0.12-3.7-0.37c-1.02-0.24-1.85-0.63-2.49-1.15c-0.65-0.52-1.12-1.19-1.41-2.01c-0.29-0.82-0.44-1.81-0.44-2.97V26.07
		h-3.7v-4.92h3.7v-5.87H180.01z"/>
</g>
</svg>
