<?xml version="1.0" encoding="utf-8"?>
<!-- Generator: Adobe Illustrator 28.3.0, SVG Export Plug-In . SVG Version: 6.00 Build 0)  -->
<svg version="1.1" id="Layer_1" xmlns="http://www.w3.org/2000/svg" xmlns:xlink="http://www.w3.org/1999/xlink" x="0px" y="0px"
	 viewBox="0 0 640 117" style="enable-background:new 0 0 640 117;" xml:space="preserve">
<g>
	<g>
		<path d="M9.7,14.7h13v3.9h-8.8v3.6h8.3V26h-8.3v3.9h9.3v3.9H9.7V14.7z"/>
		<path d="M26,20.7h3.9v1.8h0.1c0.1-0.3,0.3-0.5,0.5-0.8c0.2-0.3,0.5-0.5,0.8-0.7c0.3-0.2,0.7-0.4,1.1-0.5s0.9-0.2,1.4-0.2
			c0.9,0,1.7,0.2,2.4,0.6s1.2,1,1.6,1.8c0.5-0.8,1-1.4,1.7-1.8c0.7-0.4,1.5-0.5,2.5-0.5c0.9,0,1.6,0.1,2.2,0.4
			c0.6,0.3,1.1,0.7,1.4,1.2c0.4,0.5,0.6,1.1,0.8,1.8c0.2,0.7,0.2,1.4,0.2,2.2v7.7h-4.1v-7.6c0-0.6-0.1-1.1-0.4-1.6
			c-0.3-0.4-0.7-0.7-1.4-0.7c-0.5,0-0.9,0.1-1.2,0.2c-0.3,0.2-0.6,0.4-0.8,0.6s-0.3,0.6-0.4,0.9c-0.1,0.4-0.1,0.7-0.1,1.1v6.9h-4
			v-6.9c0-0.2,0-0.5,0-0.9c0-0.3-0.1-0.7-0.2-1s-0.3-0.6-0.5-0.8c-0.2-0.2-0.6-0.3-1.1-0.3c-0.5,0-0.9,0.1-1.3,0.3
			c-0.3,0.2-0.6,0.4-0.7,0.8c-0.2,0.3-0.3,0.7-0.3,1.1S30,26.8,30,27.3v6.5h-4V20.7z"/>
		<path d="M57.7,32.2L57.7,32.2c-0.5,0.7-1.1,1.2-1.8,1.5c-0.7,0.3-1.5,0.5-2.4,0.5c-0.6,0-1.2-0.1-1.8-0.3s-1.1-0.4-1.5-0.8
			c-0.4-0.3-0.8-0.8-1-1.3c-0.3-0.5-0.4-1.1-0.4-1.8c0-0.8,0.1-1.4,0.4-1.9c0.3-0.5,0.7-1,1.1-1.3c0.5-0.3,1-0.6,1.6-0.8
			c0.6-0.2,1.2-0.3,1.9-0.4c0.7-0.1,1.3-0.1,2-0.2c0.7,0,1.3,0,1.8,0c0-0.7-0.3-1.3-0.8-1.7c-0.5-0.4-1.1-0.6-1.8-0.6
			c-0.7,0-1.3,0.1-1.8,0.4c-0.5,0.3-1,0.7-1.5,1.1l-2.2-2.2c0.8-0.7,1.6-1.2,2.6-1.6c1-0.4,2.1-0.5,3.1-0.5c1.2,0,2.2,0.1,2.9,0.4
			c0.8,0.3,1.4,0.7,1.8,1.3s0.8,1.3,1,2.1c0.2,0.8,0.3,1.8,0.3,2.9v6.7h-3.7V32.2z M56.7,28c-0.3,0-0.7,0-1.1,0s-0.9,0.1-1.3,0.2
			s-0.8,0.3-1.1,0.6c-0.3,0.3-0.4,0.6-0.4,1.1c0,0.5,0.2,0.8,0.6,1.1s0.8,0.4,1.3,0.4c0.4,0,0.8-0.1,1.1-0.2c0.4-0.1,0.7-0.3,1-0.5
			c0.3-0.2,0.5-0.4,0.7-0.8c0.2-0.3,0.3-0.7,0.3-1.1V28H56.7z"/>
		<path d="M63.7,16.5c0-0.6,0.2-1.2,0.7-1.7s1-0.7,1.7-0.7c0.6,0,1.2,0.2,1.7,0.7s0.7,1,0.7,1.7s-0.2,1.2-0.7,1.7s-1,0.7-1.7,0.7
			c-0.6,0-1.2-0.2-1.7-0.7S63.7,17.2,63.7,16.5z M64,20.7h4.1v13.1H64V20.7z"/>
		<path d="M71.1,13.4h4.1v20.4h-4.1V13.4z"/>
		<path d="M78.1,22.8c0-0.3,0.1-0.7,0.2-1c0.1-0.3,0.3-0.6,0.5-0.8c0.2-0.2,0.5-0.4,0.8-0.5s0.6-0.2,1-0.2c0.3,0,0.7,0.1,1,0.2
			s0.6,0.3,0.8,0.5c0.2,0.2,0.4,0.5,0.5,0.8c0.1,0.3,0.2,0.6,0.2,1c0,0.3-0.1,0.7-0.2,1c-0.1,0.3-0.3,0.6-0.5,0.8
			c-0.2,0.2-0.5,0.4-0.8,0.5c-0.3,0.1-0.6,0.2-1,0.2c-0.3,0-0.7-0.1-1-0.2c-0.3-0.1-0.6-0.3-0.8-0.5c-0.2-0.2-0.4-0.5-0.5-0.8
			C78.2,23.5,78.1,23.2,78.1,22.8z M78.1,31.5c0-0.3,0.1-0.7,0.2-1c0.1-0.3,0.3-0.6,0.5-0.8c0.2-0.2,0.5-0.4,0.8-0.5
			c0.3-0.1,0.6-0.2,1-0.2c0.3,0,0.7,0.1,1,0.2c0.3,0.1,0.6,0.3,0.8,0.5c0.2,0.2,0.4,0.5,0.5,0.8c0.1,0.3,0.2,0.6,0.2,1
			s-0.1,0.7-0.2,1c-0.1,0.3-0.3,0.6-0.5,0.8c-0.2,0.2-0.5,0.4-0.8,0.5c-0.3,0.1-0.6,0.2-1,0.2c-0.3,0-0.7-0.1-1-0.2
			c-0.3-0.1-0.6-0.3-0.8-0.5c-0.2-0.2-0.4-0.5-0.5-0.8C78.2,32.1,78.1,31.8,78.1,31.5z"/>
		<path d="M94,20.7h4v2.1h0.1c0.4-0.8,0.9-1.4,1.5-1.8c0.6-0.4,1.3-0.6,2.2-0.6c0.2,0,0.5,0,0.7,0c0.2,0,0.4,0.1,0.6,0.1v3.7
			c-0.3-0.1-0.6-0.2-0.9-0.2c-0.3,0-0.6-0.1-0.9-0.1c-0.8,0-1.4,0.1-1.8,0.3c-0.5,0.2-0.8,0.5-1,0.9s-0.4,0.9-0.5,1.4
			s-0.1,1.1-0.1,1.8v5.5h-4V20.7z"/>
		<path d="M104.7,16.5c0-0.6,0.2-1.2,0.7-1.7s1-0.7,1.7-0.7c0.6,0,1.2,0.2,1.7,0.7s0.7,1,0.7,1.7s-0.2,1.2-0.7,1.7s-1,0.7-1.7,0.7
			c-0.6,0-1.2-0.2-1.7-0.7S104.7,17.2,104.7,16.5z M105,20.7h4.1v13.1H105V20.7z"/>
		<path d="M120.9,24.9c-0.2-0.3-0.5-0.5-0.8-0.7c-0.4-0.2-0.7-0.3-1.2-0.3c-1,0-1.8,0.3-2.4,0.9c-0.6,0.6-0.9,1.4-0.9,2.4
			c0,1,0.3,1.8,0.9,2.4c0.6,0.6,1.4,0.9,2.4,0.9c0.4,0,0.8-0.1,1.2-0.3c0.3-0.2,0.6-0.4,0.8-0.7l2.7,2.8c-0.6,0.6-1.4,1.1-2.2,1.4
			s-1.7,0.4-2.4,0.4c-1,0-2-0.2-2.8-0.5c-0.9-0.3-1.7-0.8-2.3-1.4c-0.7-0.6-1.2-1.3-1.6-2.2c-0.4-0.8-0.6-1.8-0.6-2.8
			c0-1,0.2-2,0.6-2.8c0.4-0.8,0.9-1.6,1.6-2.2c0.7-0.6,1.4-1.1,2.3-1.4c0.9-0.3,1.8-0.5,2.8-0.5c0.8,0,1.6,0.1,2.4,0.4
			c0.9,0.3,1.6,0.7,2.2,1.4L120.9,24.9z"/>
		<path d="M125,13.4h4v12.5l4.5-5.2h5l-5.2,5.9l5.3,7.2h-5.1l-4.4-6.6h-0.1v6.6h-4V13.4z"/>
		<path d="M153.8,33.8h-3.7v-1.7H150c-0.2,0.2-0.4,0.5-0.6,0.7c-0.3,0.2-0.6,0.5-0.9,0.7c-0.4,0.2-0.7,0.4-1.2,0.5
			c-0.4,0.1-0.9,0.2-1.3,0.2c-1,0-1.9-0.2-2.6-0.5c-0.8-0.3-1.5-0.8-2-1.4c-0.6-0.6-1-1.3-1.3-2.1c-0.3-0.8-0.5-1.7-0.5-2.7
			c0-0.9,0.1-1.8,0.4-2.6s0.7-1.6,1.2-2.2c0.5-0.6,1.1-1.2,1.9-1.6c0.7-0.4,1.6-0.6,2.5-0.6c0.8,0,1.6,0.1,2.4,0.4
			c0.7,0.3,1.3,0.7,1.8,1.3h0.1v-8.7h4.1V33.8z M150.1,27.2c0-1-0.3-1.8-0.9-2.4s-1.4-0.9-2.4-0.9c-1,0-1.8,0.3-2.4,0.9
			c-0.6,0.6-0.9,1.4-0.9,2.4c0,1,0.3,1.8,0.9,2.4c0.6,0.6,1.4,0.9,2.4,0.9c1,0,1.8-0.3,2.4-0.9C149.8,29,150.1,28.2,150.1,27.2z"/>
		<path d="M169.5,31.5c-0.6,0.8-1.5,1.5-2.5,1.9c-1,0.4-2,0.7-3.1,0.7c-1,0-2-0.2-2.8-0.5c-0.9-0.3-1.7-0.8-2.3-1.4
			c-0.7-0.6-1.2-1.3-1.6-2.2c-0.4-0.8-0.6-1.8-0.6-2.8c0-1,0.2-2,0.6-2.8c0.4-0.8,0.9-1.6,1.6-2.2c0.7-0.6,1.4-1.1,2.3-1.4
			c0.9-0.3,1.8-0.5,2.8-0.5c0.9,0,1.8,0.2,2.6,0.5c0.8,0.3,1.4,0.8,1.9,1.4c0.5,0.6,0.9,1.3,1.2,2.2c0.3,0.8,0.4,1.8,0.4,2.8v1.3
			h-9.4c0.2,0.8,0.5,1.4,1.1,1.8s1.2,0.7,2,0.7c0.7,0,1.2-0.1,1.7-0.4c0.5-0.3,0.9-0.7,1.2-1.1L169.5,31.5z M166,25.8
			c0-0.7-0.2-1.3-0.7-1.8c-0.5-0.5-1.1-0.7-1.8-0.7c-0.5,0-0.8,0.1-1.2,0.2c-0.3,0.1-0.6,0.3-0.9,0.6c-0.2,0.2-0.4,0.5-0.6,0.8
			c-0.1,0.3-0.2,0.6-0.2,0.9H166z"/>
		<path d="M180.8,32.2L180.8,32.2c-0.5,0.7-1.1,1.2-1.8,1.5c-0.7,0.3-1.5,0.5-2.4,0.5c-0.6,0-1.2-0.1-1.8-0.3s-1.1-0.4-1.5-0.8
			c-0.4-0.3-0.8-0.8-1-1.3c-0.3-0.5-0.4-1.1-0.4-1.8c0-0.8,0.1-1.4,0.4-1.9c0.3-0.5,0.7-1,1.1-1.3c0.5-0.3,1-0.6,1.6-0.8
			c0.6-0.2,1.2-0.3,1.9-0.4c0.7-0.1,1.3-0.1,2-0.2c0.7,0,1.3,0,1.8,0c0-0.7-0.3-1.3-0.8-1.7c-0.5-0.4-1.1-0.6-1.8-0.6
			c-0.7,0-1.3,0.1-1.8,0.4c-0.5,0.3-1,0.7-1.5,1.1l-2.2-2.2c0.8-0.7,1.6-1.2,2.6-1.6c1-0.4,2.1-0.5,3.1-0.5c1.2,0,2.2,0.1,2.9,0.4
			c0.8,0.3,1.4,0.7,1.8,1.3s0.8,1.3,1,2.1c0.2,0.8,0.3,1.8,0.3,2.9v6.7h-3.7V32.2z M179.8,28c-0.3,0-0.7,0-1.1,0s-0.9,0.1-1.3,0.2
			s-0.8,0.3-1.1,0.6c-0.3,0.3-0.4,0.6-0.4,1.1c0,0.5,0.2,0.8,0.6,1.1s0.8,0.4,1.3,0.4c0.4,0,0.8-0.1,1.1-0.2c0.4-0.1,0.7-0.3,1-0.5
			c0.3-0.2,0.5-0.4,0.7-0.8c0.2-0.3,0.3-0.7,0.3-1.1V28H179.8z"/>
		<path d="M187,13.4h4v12.5l4.5-5.2h5l-5.2,5.9l5.3,7.2h-5.1l-4.4-6.6h-0.1v6.6h-4V13.4z"/>
		<path d="M201.8,16.5c0-0.6,0.2-1.2,0.7-1.7s1-0.7,1.7-0.7c0.6,0,1.2,0.2,1.7,0.7s0.7,1,0.7,1.7s-0.2,1.2-0.7,1.7s-1,0.7-1.7,0.7
			c-0.6,0-1.2-0.2-1.7-0.7S201.8,17.2,201.8,16.5z M202.1,20.7h4.1v13.1h-4.1V20.7z"/>
		<path d="M209.1,20.7h3.9v1.8h0.1c0.1-0.3,0.3-0.5,0.5-0.8c0.2-0.3,0.5-0.5,0.8-0.7c0.3-0.2,0.7-0.4,1.1-0.5s0.9-0.2,1.4-0.2
			c1,0,1.9,0.2,2.5,0.5c0.6,0.3,1.1,0.8,1.5,1.3c0.4,0.6,0.6,1.2,0.7,2c0.1,0.8,0.2,1.6,0.2,2.5v7.2h-4v-6.4c0-0.4,0-0.8,0-1.2
			c0-0.4-0.1-0.8-0.2-1.1c-0.1-0.3-0.3-0.6-0.6-0.8c-0.3-0.2-0.7-0.3-1.2-0.3c-0.5,0-0.9,0.1-1.3,0.3c-0.3,0.2-0.6,0.4-0.7,0.8
			c-0.2,0.3-0.3,0.7-0.3,1.1s-0.1,0.8-0.1,1.2v6.5h-4V20.7z"/>
		<path d="M232,24.5c-0.6-0.7-1.4-1.1-2.3-1.1c-0.3,0-0.7,0.1-1,0.2c-0.3,0.2-0.5,0.4-0.5,0.8c0,0.3,0.2,0.6,0.5,0.7
			c0.3,0.2,0.8,0.3,1.3,0.4c0.5,0.1,1.1,0.2,1.6,0.4c0.6,0.1,1.1,0.3,1.6,0.6s0.9,0.7,1.3,1.2c0.3,0.5,0.5,1.2,0.5,2
			c0,0.8-0.2,1.5-0.6,2.1c-0.4,0.5-0.8,1-1.4,1.3c-0.6,0.3-1.2,0.6-1.9,0.7c-0.7,0.1-1.4,0.2-2.1,0.2c-0.9,0-1.8-0.1-2.8-0.4
			s-1.7-0.7-2.4-1.4l2.5-2.7c0.4,0.5,0.8,0.8,1.3,1.1c0.5,0.2,1,0.4,1.6,0.4c0.5,0,0.9-0.1,1.3-0.2c0.4-0.1,0.6-0.4,0.6-0.7
			c0-0.3-0.2-0.6-0.5-0.8c-0.3-0.2-0.8-0.3-1.3-0.4c-0.5-0.1-1.1-0.2-1.6-0.4c-0.6-0.1-1.1-0.3-1.6-0.6c-0.5-0.3-0.9-0.7-1.3-1.1
			c-0.3-0.5-0.5-1.2-0.5-2c0-0.8,0.2-1.4,0.5-2c0.3-0.6,0.7-1,1.2-1.4c0.5-0.4,1.1-0.6,1.8-0.8c0.7-0.2,1.3-0.3,2-0.3
			c0.9,0,1.7,0.1,2.6,0.4c0.9,0.3,1.6,0.7,2.2,1.4L232,24.5z"/>
		<path d="M241.2,34.8c0,0.8-0.1,1.6-0.2,2.3c-0.2,0.7-0.4,1.3-0.8,1.7c-0.4,0.5-0.9,0.8-1.5,1.1c-0.6,0.3-1.4,0.4-2.3,0.4
			c-0.3,0-0.6,0-0.9,0s-0.6-0.1-0.9-0.2l0.2-3.6c0.3,0.2,0.7,0.2,1.1,0.2c0.3,0,0.6-0.1,0.8-0.3c0.2-0.2,0.3-0.4,0.4-0.7
			c0.1-0.3,0.1-0.6,0.2-0.9c0-0.3,0-0.6,0-0.8V20.7h4.1V34.8z M236.8,16.5c0-0.6,0.2-1.2,0.7-1.7s1-0.7,1.7-0.7
			c0.6,0,1.2,0.2,1.7,0.7s0.7,1,0.7,1.7s-0.2,1.2-0.7,1.7s-1,0.7-1.7,0.7c-0.6,0-1.2-0.2-1.7-0.7S236.8,17.2,236.8,16.5z"/>
		<path d="M244.1,20.7h4v2.1h0.1c0.4-0.8,0.9-1.4,1.5-1.8c0.6-0.4,1.3-0.6,2.2-0.6c0.2,0,0.5,0,0.7,0c0.2,0,0.4,0.1,0.6,0.1v3.7
			c-0.3-0.1-0.6-0.2-0.9-0.2c-0.3,0-0.6-0.1-0.9-0.1c-0.8,0-1.4,0.1-1.8,0.3c-0.5,0.2-0.8,0.5-1,0.9s-0.4,0.9-0.5,1.4
			s-0.1,1.1-0.1,1.8v5.5h-4V20.7z"/>
		<path d="M269,24.7c-0.1,0.3-0.1,0.5-0.2,0.9c-0.1,0.3-0.1,0.6-0.1,0.9c0,0.2,0,0.4,0.1,0.5c0.1,0.2,0.3,0.2,0.6,0.2
			s0.6-0.1,0.9-0.2c0.3-0.2,0.5-0.4,0.7-0.7c0.2-0.3,0.4-0.8,0.5-1.3c0.1-0.5,0.2-1.1,0.2-1.8c0-1.1-0.2-2-0.5-2.8
			c-0.4-0.8-0.8-1.5-1.5-2.1c-0.6-0.6-1.4-1-2.2-1.3c-0.9-0.3-1.8-0.4-2.8-0.4c-1.1,0-2.1,0.2-3.1,0.6s-1.7,0.9-2.4,1.6
			c-0.7,0.7-1.2,1.5-1.5,2.4c-0.4,0.9-0.5,2-0.5,3.1c0,1.2,0.2,2.2,0.6,3.2c0.4,0.9,0.9,1.7,1.7,2.4c0.7,0.6,1.6,1.1,2.5,1.5
			c1,0.4,2,0.5,3.2,0.5c1,0,2-0.1,2.8-0.4c0.9-0.3,1.6-0.7,2.3-1.2h3c-1,1.3-2.2,2.3-3.6,3c-1.4,0.7-3,1-4.7,1
			c-1.4,0-2.8-0.2-4.1-0.7c-1.3-0.5-2.4-1.2-3.3-2.1s-1.7-1.9-2.3-3.2c-0.5-1.2-0.8-2.6-0.8-4c0-1.4,0.3-2.8,0.8-4s1.3-2.3,2.2-3.2
			c0.9-0.9,2-1.6,3.3-2.1c1.3-0.5,2.6-0.8,4-0.8c1.2,0,2.4,0.2,3.5,0.6c1.1,0.4,2.2,1,3.1,1.7c0.9,0.8,1.6,1.7,2.2,2.8
			c0.5,1.1,0.8,2.4,0.8,3.8c0,1-0.1,1.8-0.3,2.5c-0.2,0.7-0.5,1.3-0.9,1.8c-0.4,0.5-0.7,0.9-1.2,1.2c-0.4,0.3-0.9,0.5-1.3,0.7
			c-0.4,0.2-0.9,0.3-1.3,0.3c-0.4,0.1-0.7,0.1-1,0.1c-0.8,0-1.3-0.2-1.6-0.5c-0.3-0.3-0.5-0.6-0.5-1h-0.1c-0.4,0.4-0.8,0.7-1.4,1
			s-1.2,0.5-2.1,0.5c-0.6,0-1.1-0.1-1.6-0.3c-0.5-0.2-0.9-0.5-1.2-0.9c-0.3-0.4-0.6-0.9-0.8-1.4c-0.2-0.6-0.3-1.2-0.3-1.8
			c0-0.8,0.1-1.6,0.4-2.3s0.6-1.4,1.1-1.9s1-1,1.7-1.4c0.7-0.3,1.4-0.5,2.3-0.5c0.7,0,1.3,0.1,1.8,0.4c0.5,0.2,0.9,0.6,1.1,1.2h0.1
			l0.2-1.2h2.5L269,24.7z M266.5,24c0-0.7-0.2-1.3-0.5-1.8c-0.3-0.5-0.8-0.7-1.5-0.7c-0.8,0-1.5,0.3-2,1s-0.7,1.4-0.7,2.4
			c0,0.3,0,0.6,0.1,0.9c0.1,0.3,0.1,0.5,0.3,0.8c0.1,0.2,0.3,0.4,0.6,0.6c0.2,0.1,0.6,0.2,0.9,0.2c0.6,0,1-0.1,1.4-0.3
			c0.4-0.2,0.7-0.5,0.9-0.8c0.2-0.3,0.4-0.7,0.4-1.1C266.4,24.7,266.5,24.3,266.5,24z"/>
		<path d="M290.5,32.7c0,2.5-0.6,4.4-1.9,5.7c-1.3,1.3-3.2,1.9-5.7,1.9c-1.2,0-2.3-0.1-3.5-0.4c-1.1-0.3-2.2-0.8-3.1-1.5l2.2-3.3
			c0.6,0.5,1.3,0.9,2,1.2c0.7,0.3,1.5,0.5,2.3,0.5c1.2,0,2.2-0.3,2.7-0.9c0.6-0.6,0.9-1.4,0.9-2.3v-1.3h-0.1c-0.5,0.6-1,1.1-1.7,1.3
			s-1.3,0.4-2,0.4c-1,0-1.9-0.2-2.6-0.5s-1.5-0.8-2-1.4c-0.6-0.6-1-1.3-1.3-2.1c-0.3-0.8-0.5-1.7-0.5-2.7c0-0.9,0.1-1.7,0.4-2.5
			s0.7-1.6,1.2-2.2c0.5-0.6,1.1-1.1,1.9-1.5c0.7-0.4,1.6-0.6,2.5-0.6c0.6,0,1.1,0.1,1.6,0.2c0.5,0.1,0.9,0.3,1.3,0.5
			c0.4,0.2,0.7,0.4,1,0.7c0.3,0.2,0.5,0.5,0.6,0.7h0.1v-1.7h3.7V32.7z M280.2,27.2c0,0.4,0.1,0.8,0.2,1.2c0.2,0.4,0.4,0.7,0.7,1
			c0.3,0.3,0.6,0.5,1,0.7c0.4,0.2,0.8,0.3,1.3,0.3c0.4,0,0.9-0.1,1.3-0.3c0.4-0.2,0.7-0.4,1-0.7c0.3-0.3,0.5-0.6,0.7-1
			c0.2-0.4,0.2-0.8,0.2-1.2s-0.1-0.8-0.2-1.2c-0.2-0.4-0.4-0.7-0.7-1s-0.6-0.5-1-0.7c-0.4-0.2-0.8-0.3-1.3-0.3
			c-0.5,0-0.9,0.1-1.3,0.3c-0.4,0.2-0.7,0.4-1,0.7c-0.3,0.3-0.5,0.6-0.7,1C280.3,26.3,280.2,26.7,280.2,27.2z"/>
		<path d="M293.7,20.7h3.9v1.8h0.1c0.1-0.3,0.3-0.5,0.5-0.8c0.2-0.3,0.5-0.5,0.8-0.7c0.3-0.2,0.7-0.4,1.1-0.5s0.9-0.2,1.4-0.2
			c0.9,0,1.7,0.2,2.4,0.6s1.2,1,1.6,1.8c0.5-0.8,1-1.4,1.7-1.8c0.7-0.4,1.5-0.5,2.5-0.5c0.9,0,1.6,0.1,2.2,0.4
			c0.6,0.3,1.1,0.7,1.4,1.2c0.4,0.5,0.6,1.1,0.8,1.8c0.2,0.7,0.2,1.4,0.2,2.2v7.7h-4.1v-7.6c0-0.6-0.1-1.1-0.4-1.6
			c-0.3-0.4-0.7-0.7-1.4-0.7c-0.5,0-0.9,0.1-1.2,0.2c-0.3,0.2-0.6,0.4-0.8,0.6s-0.3,0.6-0.4,0.9c-0.1,0.4-0.1,0.7-0.1,1.1v6.9h-4
			v-6.9c0-0.2,0-0.5,0-0.9c0-0.3-0.1-0.7-0.2-1s-0.3-0.6-0.5-0.8c-0.2-0.2-0.6-0.3-1.1-0.3c-0.5,0-0.9,0.1-1.3,0.3
			c-0.3,0.2-0.6,0.4-0.7,0.8c-0.2,0.3-0.3,0.7-0.3,1.1s-0.1,0.8-0.1,1.2v6.5h-4V20.7z"/>
		<path d="M325.4,32.2L325.4,32.2c-0.5,0.7-1.1,1.2-1.8,1.5c-0.7,0.3-1.5,0.5-2.4,0.5c-0.6,0-1.2-0.1-1.8-0.3s-1.1-0.4-1.5-0.8
			c-0.4-0.3-0.8-0.8-1-1.3c-0.3-0.5-0.4-1.1-0.4-1.8c0-0.8,0.1-1.4,0.4-1.9c0.3-0.5,0.7-1,1.1-1.3c0.5-0.3,1-0.6,1.6-0.8
			c0.6-0.2,1.2-0.3,1.9-0.4c0.7-0.1,1.3-0.1,2-0.2c0.7,0,1.3,0,1.8,0c0-0.7-0.3-1.3-0.8-1.7c-0.5-0.4-1.1-0.6-1.8-0.6
			c-0.7,0-1.3,0.1-1.8,0.4c-0.5,0.3-1,0.7-1.5,1.1l-2.2-2.2c0.8-0.7,1.6-1.2,2.6-1.6c1-0.4,2.1-0.5,3.1-0.5c1.2,0,2.2,0.1,2.9,0.4
			c0.8,0.3,1.4,0.7,1.8,1.3s0.8,1.3,1,2.1c0.2,0.8,0.3,1.8,0.3,2.9v6.7h-3.7V32.2z M324.4,28c-0.3,0-0.7,0-1.1,0s-0.9,0.1-1.3,0.2
			c-0.4,0.1-0.8,0.3-1.1,0.6c-0.3,0.3-0.4,0.6-0.4,1.1c0,0.5,0.2,0.8,0.6,1.1c0.4,0.2,0.8,0.4,1.3,0.4c0.4,0,0.8-0.1,1.1-0.2
			c0.4-0.1,0.7-0.3,1-0.5c0.3-0.2,0.5-0.4,0.7-0.8c0.2-0.3,0.3-0.7,0.3-1.1V28H324.4z"/>
		<path d="M331.4,16.5c0-0.6,0.2-1.2,0.7-1.7s1-0.7,1.7-0.7c0.6,0,1.2,0.2,1.7,0.7s0.7,1,0.7,1.7s-0.2,1.2-0.7,1.7s-1,0.7-1.7,0.7
			c-0.6,0-1.2-0.2-1.7-0.7S331.4,17.2,331.4,16.5z M331.7,20.7h4v13.1h-4V20.7z"/>
		<path d="M338.8,13.4h4v20.4h-4V13.4z"/>
		<path d="M345.8,31.5c0-0.3,0.1-0.7,0.2-1s0.3-0.6,0.5-0.8c0.2-0.2,0.5-0.4,0.8-0.5c0.3-0.1,0.6-0.2,1-0.2s0.7,0.1,1,0.2
			c0.3,0.1,0.6,0.3,0.8,0.5c0.2,0.2,0.4,0.5,0.5,0.8s0.2,0.6,0.2,1s-0.1,0.7-0.2,1c-0.1,0.3-0.3,0.6-0.5,0.8
			c-0.2,0.2-0.5,0.4-0.8,0.5c-0.3,0.1-0.6,0.2-1,0.2s-0.7-0.1-1-0.2c-0.3-0.1-0.6-0.3-0.8-0.5c-0.2-0.2-0.4-0.5-0.5-0.8
			C345.9,32.1,345.8,31.8,345.8,31.5z"/>
		<path d="M362.6,24.9c-0.2-0.3-0.5-0.5-0.8-0.7c-0.4-0.2-0.7-0.3-1.2-0.3c-1,0-1.8,0.3-2.4,0.9c-0.6,0.6-0.9,1.4-0.9,2.4
			c0,1,0.3,1.8,0.9,2.4c0.6,0.6,1.4,0.9,2.4,0.9c0.4,0,0.8-0.1,1.2-0.3c0.3-0.2,0.6-0.4,0.8-0.7l2.7,2.8c-0.6,0.6-1.4,1.1-2.2,1.4
			c-0.9,0.3-1.7,0.4-2.4,0.4c-1,0-2-0.2-2.8-0.5c-0.9-0.3-1.7-0.8-2.3-1.4c-0.7-0.6-1.2-1.3-1.6-2.2c-0.4-0.8-0.6-1.8-0.6-2.8
			c0-1,0.2-2,0.6-2.8c0.4-0.8,0.9-1.6,1.6-2.2s1.4-1.1,2.3-1.4c0.9-0.3,1.8-0.5,2.8-0.5c0.8,0,1.6,0.1,2.4,0.4
			c0.9,0.3,1.6,0.7,2.2,1.4L362.6,24.9z"/>
		<path d="M366.2,27.2c0-1,0.2-2,0.6-2.8c0.4-0.8,0.9-1.6,1.6-2.2s1.4-1.1,2.3-1.4c0.9-0.3,1.8-0.5,2.8-0.5c1,0,2,0.2,2.8,0.5
			c0.9,0.3,1.7,0.8,2.3,1.4s1.2,1.3,1.6,2.2c0.4,0.8,0.6,1.8,0.6,2.8c0,1-0.2,2-0.6,2.8c-0.4,0.8-0.9,1.6-1.6,2.2
			c-0.7,0.6-1.4,1.1-2.3,1.4c-0.9,0.3-1.8,0.5-2.8,0.5c-1,0-2-0.2-2.8-0.5c-0.9-0.3-1.7-0.8-2.3-1.4c-0.7-0.6-1.2-1.3-1.6-2.2
			C366.4,29.2,366.2,28.3,366.2,27.2z M370.3,27.2c0,1,0.3,1.8,0.9,2.4c0.6,0.6,1.4,0.9,2.4,0.9c1,0,1.8-0.3,2.4-0.9
			c0.6-0.6,0.9-1.4,0.9-2.4c0-1-0.3-1.8-0.9-2.4c-0.6-0.6-1.4-0.9-2.4-0.9c-1,0-1.8,0.3-2.4,0.9C370.6,25.4,370.3,26.2,370.3,27.2z"
			/>
		<path d="M383.2,20.7h3.9v1.8h0.1c0.1-0.3,0.3-0.5,0.5-0.8c0.2-0.3,0.5-0.5,0.8-0.7c0.3-0.2,0.7-0.4,1.1-0.5
			c0.4-0.1,0.9-0.2,1.3-0.2c0.9,0,1.7,0.2,2.4,0.6s1.2,1,1.6,1.8c0.5-0.8,1-1.4,1.7-1.8s1.5-0.5,2.5-0.5c0.9,0,1.6,0.1,2.2,0.4
			c0.6,0.3,1.1,0.7,1.4,1.2c0.4,0.5,0.6,1.1,0.8,1.8c0.2,0.7,0.2,1.4,0.2,2.2v7.7h-4v-7.6c0-0.6-0.1-1.1-0.4-1.6
			c-0.3-0.4-0.7-0.7-1.4-0.7c-0.5,0-0.9,0.1-1.2,0.2c-0.3,0.2-0.6,0.4-0.8,0.6c-0.2,0.3-0.3,0.6-0.4,0.9c-0.1,0.4-0.1,0.7-0.1,1.1
			v6.9h-4v-6.9c0-0.2,0-0.5,0-0.9c0-0.3-0.1-0.7-0.2-1c-0.1-0.3-0.3-0.6-0.5-0.8c-0.2-0.2-0.6-0.3-1.1-0.3c-0.5,0-0.9,0.1-1.3,0.3
			c-0.3,0.2-0.6,0.4-0.7,0.8s-0.3,0.7-0.3,1.1c-0.1,0.4-0.1,0.8-0.1,1.2v6.5h-4.1V20.7z"/>
		<path d="M26.8,64.8c-1.2,0.6-2.5,1.1-3.9,1.4c-1.3,0.3-2.7,0.4-4.1,0.4c-1.5,0-2.9-0.2-4.1-0.7c-1.3-0.5-2.3-1.1-3.3-2
			c-0.9-0.9-1.6-1.9-2.1-3.2c-0.5-1.2-0.8-2.6-0.8-4.2c0-1.5,0.3-2.9,0.8-4.2c0.5-1.2,1.2-2.3,2.1-3.2c0.9-0.9,2-1.5,3.3-2
			c1.3-0.5,2.6-0.7,4.1-0.7c1.5,0,2.9,0.2,4.2,0.6c1.3,0.4,2.4,1,3.4,1.9l-3,3.2c-0.6-0.6-1.2-1-1.9-1.4c-0.7-0.3-1.6-0.5-2.7-0.5
			c-0.9,0-1.7,0.2-2.4,0.5s-1.4,0.7-1.9,1.3c-0.5,0.5-0.9,1.2-1.2,2c-0.3,0.8-0.4,1.6-0.4,2.5c0,0.9,0.1,1.7,0.4,2.5
			c0.3,0.7,0.7,1.4,1.2,1.9c0.5,0.5,1.1,1,1.9,1.3s1.5,0.5,2.4,0.5c0.9,0,1.7-0.1,2.4-0.3s1.2-0.4,1.6-0.6v-3.1h-3.4v-3.9h7.5V64.8z
			"/>
		<path d="M29.7,48.9c0-0.6,0.2-1.2,0.7-1.7s1-0.7,1.7-0.7c0.6,0,1.2,0.2,1.7,0.7s0.7,1,0.7,1.7s-0.2,1.2-0.7,1.7s-1,0.7-1.7,0.7
			c-0.6,0-1.2-0.2-1.7-0.7S29.7,49.6,29.7,48.9z M30,53.1h4.1v13.1H30V53.1z"/>
		<path d="M45.4,56.3h-3.6v4.4c0,0.4,0,0.7,0.1,1s0.1,0.6,0.2,0.8c0.1,0.2,0.3,0.4,0.6,0.5c0.3,0.1,0.6,0.2,1,0.2
			c0.2,0,0.5,0,0.9-0.1c0.4,0,0.6-0.1,0.8-0.3v3.4c-0.5,0.2-0.9,0.3-1.4,0.3c-0.5,0.1-1,0.1-1.4,0.1c-0.7,0-1.3-0.1-1.9-0.2
			c-0.6-0.1-1.1-0.4-1.5-0.7c-0.4-0.3-0.8-0.7-1-1.2c-0.2-0.5-0.4-1.1-0.4-1.8v-6.2h-2.6v-3.2h2.6v-3.9h4.1v3.9h3.6V56.3z"/>
		<path d="M51,45.8v9.1H51c0.1-0.3,0.2-0.5,0.5-0.8c0.2-0.3,0.5-0.5,0.8-0.7c0.3-0.2,0.7-0.4,1.1-0.5s0.9-0.2,1.4-0.2
			c1,0,1.9,0.2,2.5,0.5c0.6,0.3,1.1,0.8,1.5,1.3c0.4,0.6,0.6,1.2,0.7,2c0.1,0.8,0.2,1.6,0.2,2.5v7.2h-4v-6.4c0-0.4,0-0.8,0-1.2
			c0-0.4-0.1-0.8-0.2-1.1c-0.1-0.3-0.3-0.6-0.6-0.8c-0.3-0.2-0.7-0.3-1.2-0.3c-0.5,0-0.9,0.1-1.3,0.3c-0.3,0.2-0.6,0.4-0.7,0.8
			c-0.2,0.3-0.3,0.7-0.3,1.1S51,59.2,51,59.7v6.5h-4V45.8H51z"/>
		<path d="M74.5,66.2h-3.9v-1.8h-0.1c-0.1,0.3-0.3,0.5-0.6,0.8s-0.5,0.5-0.8,0.7c-0.3,0.2-0.7,0.4-1.1,0.5c-0.4,0.1-0.9,0.2-1.4,0.2
			c-1,0-1.9-0.2-2.5-0.5c-0.6-0.3-1.1-0.8-1.5-1.3c-0.4-0.6-0.6-1.2-0.7-2c-0.1-0.8-0.2-1.6-0.2-2.5v-7.2h4v6.4c0,0.4,0,0.8,0,1.2
			s0.1,0.8,0.2,1.1c0.1,0.3,0.3,0.6,0.6,0.8c0.3,0.2,0.7,0.3,1.2,0.3s0.9-0.1,1.3-0.3c0.3-0.2,0.6-0.4,0.7-0.8
			c0.2-0.3,0.3-0.7,0.3-1.1c0.1-0.4,0.1-0.8,0.1-1.2v-6.5h4V66.2z"/>
		<path d="M77.2,45.8h4v8.7h0.1c0.5-0.6,1.1-1.1,1.8-1.3c0.7-0.3,1.5-0.4,2.4-0.4c0.9,0,1.8,0.2,2.5,0.6c0.7,0.4,1.4,0.9,1.9,1.6
			s0.9,1.4,1.2,2.2c0.3,0.8,0.4,1.7,0.4,2.6c0,1-0.2,1.9-0.5,2.7c-0.3,0.8-0.7,1.5-1.3,2.1c-0.6,0.6-1.2,1.1-2,1.4
			c-0.8,0.3-1.7,0.5-2.6,0.5c-0.5,0-0.9-0.1-1.3-0.2c-0.4-0.1-0.8-0.3-1.1-0.5c-0.4-0.2-0.7-0.4-0.9-0.7c-0.3-0.2-0.5-0.5-0.6-0.7
			h-0.1v1.7h-3.7V45.8z M80.9,59.6c0,1,0.3,1.8,0.9,2.4c0.6,0.6,1.4,0.9,2.4,0.9s1.8-0.3,2.4-0.9c0.6-0.6,0.9-1.4,0.9-2.4
			c0-1-0.3-1.8-0.9-2.4s-1.4-0.9-2.4-0.9s-1.8,0.3-2.4,0.9C81.2,57.8,80.9,58.6,80.9,59.6z"/>
		<path d="M93.4,55.2c0-0.3,0.1-0.7,0.2-1c0.1-0.3,0.3-0.6,0.5-0.8c0.2-0.2,0.5-0.4,0.8-0.5s0.6-0.2,1-0.2c0.3,0,0.7,0.1,1,0.2
			s0.6,0.3,0.8,0.5c0.2,0.2,0.4,0.5,0.5,0.8c0.1,0.3,0.2,0.6,0.2,1c0,0.3-0.1,0.7-0.2,1c-0.1,0.3-0.3,0.6-0.5,0.8
			c-0.2,0.2-0.5,0.4-0.8,0.5c-0.3,0.1-0.6,0.2-1,0.2c-0.3,0-0.7-0.1-1-0.2c-0.3-0.1-0.6-0.3-0.8-0.5c-0.2-0.2-0.4-0.5-0.5-0.8
			C93.4,55.9,93.4,55.6,93.4,55.2z M93.4,63.9c0-0.3,0.1-0.7,0.2-1c0.1-0.3,0.3-0.6,0.5-0.8c0.2-0.2,0.5-0.4,0.8-0.5
			c0.3-0.1,0.6-0.2,1-0.2c0.3,0,0.7,0.1,1,0.2c0.3,0.1,0.6,0.3,0.8,0.5c0.2,0.2,0.4,0.5,0.5,0.8c0.1,0.3,0.2,0.6,0.2,1
			s-0.1,0.7-0.2,1c-0.1,0.3-0.3,0.6-0.5,0.8c-0.2,0.2-0.5,0.4-0.8,0.5c-0.3,0.1-0.6,0.2-1,0.2c-0.3,0-0.7-0.1-1-0.2
			c-0.3-0.1-0.6-0.3-0.8-0.5c-0.2-0.2-0.4-0.5-0.5-0.8C93.4,64.5,93.4,64.2,93.4,63.9z"/>
		<path d="M123.1,65.1c0,2.5-0.6,4.4-1.9,5.7c-1.3,1.3-3.2,1.9-5.7,1.9c-1.2,0-2.3-0.1-3.5-0.4c-1.1-0.3-2.2-0.8-3.1-1.5l2.2-3.3
			c0.6,0.5,1.3,0.9,2,1.2c0.7,0.3,1.5,0.5,2.3,0.5c1.2,0,2.2-0.3,2.7-0.9c0.6-0.6,0.9-1.4,0.9-2.3v-1.3H119c-0.5,0.6-1,1.1-1.7,1.3
			s-1.3,0.4-2,0.4c-1,0-1.9-0.2-2.6-0.5s-1.5-0.8-2-1.4c-0.6-0.6-1-1.3-1.3-2.1c-0.3-0.8-0.5-1.7-0.5-2.7c0-0.9,0.1-1.7,0.4-2.5
			s0.7-1.6,1.2-2.2c0.5-0.6,1.1-1.1,1.9-1.5c0.7-0.4,1.6-0.6,2.5-0.6c0.6,0,1.1,0.1,1.6,0.2c0.5,0.1,0.9,0.3,1.3,0.5
			c0.4,0.2,0.7,0.4,1,0.7c0.3,0.2,0.5,0.5,0.6,0.7h0.1v-1.7h3.7V65.1z M112.8,59.6c0,0.4,0.1,0.8,0.2,1.2c0.2,0.4,0.4,0.7,0.7,1
			c0.3,0.3,0.6,0.5,1,0.7c0.4,0.2,0.8,0.3,1.3,0.3c0.4,0,0.9-0.1,1.3-0.3c0.4-0.2,0.7-0.4,1-0.7c0.3-0.3,0.5-0.6,0.7-1
			c0.2-0.4,0.2-0.8,0.2-1.2s-0.1-0.8-0.2-1.2c-0.2-0.4-0.4-0.7-0.7-1s-0.6-0.5-1-0.7c-0.4-0.2-0.8-0.3-1.3-0.3
			c-0.5,0-0.9,0.1-1.3,0.3c-0.4,0.2-0.7,0.4-1,0.7c-0.3,0.3-0.5,0.6-0.7,1C112.9,58.7,112.8,59.1,112.8,59.6z"/>
		<path d="M126,48.9c0-0.6,0.2-1.2,0.7-1.7s1-0.7,1.7-0.7c0.6,0,1.2,0.2,1.7,0.7s0.7,1,0.7,1.7s-0.2,1.2-0.7,1.7s-1,0.7-1.7,0.7
			c-0.6,0-1.2-0.2-1.7-0.7S126,49.6,126,48.9z M126.3,53.1h4.1v13.1h-4.1V53.1z"/>
		<path d="M142.3,56.3h-3.6v4.4c0,0.4,0,0.7,0.1,1s0.1,0.6,0.2,0.8c0.1,0.2,0.3,0.4,0.6,0.5c0.3,0.1,0.6,0.2,1,0.2
			c0.2,0,0.5,0,0.9-0.1c0.4,0,0.6-0.1,0.8-0.3v3.4c-0.5,0.2-0.9,0.3-1.4,0.3c-0.5,0.1-1,0.1-1.4,0.1c-0.7,0-1.3-0.1-1.9-0.2
			c-0.6-0.1-1.1-0.4-1.5-0.7c-0.4-0.3-0.8-0.7-1-1.2c-0.2-0.5-0.4-1.1-0.4-1.8v-6.2H132v-3.2h2.6v-3.9h4.1v3.9h3.6V56.3z"/>
		<path d="M148.4,45.8v9.1h0.1c0.1-0.3,0.2-0.5,0.5-0.8c0.2-0.3,0.5-0.5,0.8-0.7c0.3-0.2,0.7-0.4,1.1-0.5s0.9-0.2,1.4-0.2
			c1,0,1.9,0.2,2.5,0.5c0.6,0.3,1.1,0.8,1.5,1.3c0.4,0.6,0.6,1.2,0.7,2c0.1,0.8,0.2,1.6,0.2,2.5v7.2h-4v-6.4c0-0.4,0-0.8,0-1.2
			c0-0.4-0.1-0.8-0.2-1.1c-0.1-0.3-0.3-0.6-0.6-0.8c-0.3-0.2-0.7-0.3-1.2-0.3c-0.5,0-0.9,0.1-1.3,0.3c-0.3,0.2-0.6,0.4-0.7,0.8
			c-0.2,0.3-0.3,0.7-0.3,1.1s-0.1,0.8-0.1,1.2v6.5h-4V45.8H148.4z"/>
		<path d="M172.4,66.2h-3.9v-1.8h-0.1c-0.1,0.3-0.3,0.5-0.6,0.8s-0.5,0.5-0.8,0.7c-0.3,0.2-0.7,0.4-1.1,0.5
			c-0.4,0.1-0.9,0.2-1.4,0.2c-1,0-1.9-0.2-2.5-0.5c-0.6-0.3-1.1-0.8-1.5-1.3c-0.4-0.6-0.6-1.2-0.7-2c-0.1-0.8-0.2-1.6-0.2-2.5v-7.2
			h4v6.4c0,0.4,0,0.8,0,1.2s0.1,0.8,0.2,1.1c0.1,0.3,0.3,0.6,0.6,0.8c0.3,0.2,0.7,0.3,1.2,0.3s0.9-0.1,1.3-0.3
			c0.3-0.2,0.6-0.4,0.7-0.8c0.2-0.3,0.3-0.7,0.3-1.1c0.1-0.4,0.1-0.8,0.1-1.2v-6.5h4V66.2z"/>
		<path d="M175.7,45.8h4v8.7h0.1c0.5-0.6,1.1-1.1,1.8-1.3c0.7-0.3,1.5-0.4,2.4-0.4c0.9,0,1.8,0.2,2.5,0.6c0.7,0.4,1.4,0.9,1.9,1.6
			s0.9,1.4,1.2,2.2c0.3,0.8,0.4,1.7,0.4,2.6c0,1-0.2,1.9-0.5,2.7c-0.3,0.8-0.7,1.5-1.3,2.1c-0.6,0.6-1.2,1.1-2,1.4
			c-0.8,0.3-1.7,0.5-2.6,0.5c-0.5,0-0.9-0.1-1.3-0.2c-0.4-0.1-0.8-0.3-1.1-0.5c-0.4-0.2-0.7-0.4-0.9-0.7c-0.3-0.2-0.5-0.5-0.6-0.7
			h-0.1v1.7h-3.7V45.8z M179.4,59.6c0,1,0.3,1.8,0.9,2.4c0.6,0.6,1.4,0.9,2.4,0.9s1.8-0.3,2.4-0.9c0.6-0.6,0.9-1.4,0.9-2.4
			c0-1-0.3-1.8-0.9-2.4s-1.4-0.9-2.4-0.9s-1.8,0.3-2.4,0.9C179.7,57.8,179.4,58.6,179.4,59.6z"/>
		<path d="M192.4,63.9c0-0.3,0.1-0.7,0.2-1c0.1-0.3,0.3-0.6,0.5-0.8c0.2-0.2,0.5-0.4,0.8-0.5c0.3-0.1,0.6-0.2,1-0.2
			c0.3,0,0.7,0.1,1,0.2c0.3,0.1,0.6,0.3,0.8,0.5c0.2,0.2,0.4,0.5,0.5,0.8c0.1,0.3,0.2,0.6,0.2,1s-0.1,0.7-0.2,1
			c-0.1,0.3-0.3,0.6-0.5,0.8c-0.2,0.2-0.5,0.4-0.8,0.5c-0.3,0.1-0.6,0.2-1,0.2c-0.3,0-0.7-0.1-1-0.2c-0.3-0.1-0.6-0.3-0.8-0.5
			c-0.2-0.2-0.4-0.5-0.5-0.8C192.5,64.5,192.4,64.2,192.4,63.9z"/>
		<path d="M209.2,57.3c-0.2-0.3-0.5-0.5-0.8-0.7c-0.4-0.2-0.7-0.3-1.2-0.3c-1,0-1.8,0.3-2.4,0.9c-0.6,0.6-0.9,1.4-0.9,2.4
			c0,1,0.3,1.8,0.9,2.4c0.6,0.6,1.4,0.9,2.4,0.9c0.4,0,0.8-0.1,1.2-0.3c0.3-0.2,0.6-0.4,0.8-0.7l2.7,2.8c-0.6,0.6-1.4,1.1-2.2,1.4
			s-1.7,0.4-2.4,0.4c-1,0-2-0.2-2.8-0.5c-0.9-0.3-1.7-0.8-2.3-1.4c-0.7-0.6-1.2-1.3-1.6-2.2c-0.4-0.8-0.6-1.8-0.6-2.8
			c0-1,0.2-2,0.6-2.8c0.4-0.8,0.9-1.6,1.6-2.2c0.7-0.6,1.4-1.1,2.3-1.4c0.9-0.3,1.8-0.5,2.8-0.5c0.8,0,1.6,0.1,2.4,0.4
			c0.9,0.3,1.6,0.7,2.2,1.4L209.2,57.3z"/>
		<path d="M212.8,59.6c0-1,0.2-2,0.6-2.8c0.4-0.8,0.9-1.6,1.6-2.2c0.7-0.6,1.4-1.1,2.3-1.4c0.9-0.3,1.8-0.5,2.8-0.5
			c1,0,2,0.2,2.8,0.5c0.9,0.3,1.7,0.8,2.3,1.4s1.2,1.3,1.6,2.2c0.4,0.8,0.6,1.8,0.6,2.8c0,1-0.2,2-0.6,2.8c-0.4,0.8-0.9,1.6-1.6,2.2
			c-0.7,0.6-1.4,1.1-2.3,1.4c-0.9,0.3-1.8,0.5-2.8,0.5c-1,0-2-0.2-2.8-0.5c-0.9-0.3-1.7-0.8-2.3-1.4c-0.7-0.6-1.2-1.3-1.6-2.2
			C213,61.6,212.8,60.7,212.8,59.6z M216.9,59.6c0,1,0.3,1.8,0.9,2.4c0.6,0.6,1.4,0.9,2.4,0.9c1,0,1.8-0.3,2.4-0.9
			c0.6-0.6,0.9-1.4,0.9-2.4c0-1-0.3-1.8-0.9-2.4s-1.4-0.9-2.4-0.9c-1,0-1.8,0.3-2.4,0.9C217.2,57.8,216.9,58.6,216.9,59.6z"/>
		<path d="M229.8,53.1h3.9v1.8h0.1c0.1-0.3,0.3-0.5,0.5-0.8c0.2-0.3,0.5-0.5,0.8-0.7c0.3-0.2,0.7-0.4,1.1-0.5s0.9-0.2,1.4-0.2
			c0.9,0,1.7,0.2,2.4,0.6s1.2,1,1.6,1.8c0.5-0.8,1-1.4,1.7-1.8c0.7-0.4,1.5-0.5,2.5-0.5c0.9,0,1.6,0.1,2.2,0.4
			c0.6,0.3,1.1,0.7,1.4,1.2c0.4,0.5,0.6,1.1,0.8,1.8c0.2,0.7,0.2,1.4,0.2,2.2v7.7h-4.1v-7.6c0-0.6-0.1-1.1-0.4-1.6
			c-0.3-0.4-0.7-0.7-1.4-0.7c-0.5,0-0.9,0.1-1.2,0.2c-0.3,0.2-0.6,0.4-0.8,0.6s-0.3,0.6-0.4,0.9c-0.1,0.4-0.1,0.7-0.1,1.1v6.9h-4
			v-6.9c0-0.2,0-0.5,0-0.9c0-0.3-0.1-0.7-0.2-1s-0.3-0.6-0.5-0.8c-0.2-0.2-0.6-0.3-1.1-0.3c-0.5,0-0.9,0.1-1.3,0.3
			c-0.3,0.2-0.6,0.4-0.7,0.8c-0.2,0.3-0.3,0.7-0.3,1.1s-0.1,0.8-0.1,1.2v6.5h-4V53.1z"/>
		<path d="M259.8,45.7l3.1,0.9l-8.1,21l-3.1-0.9L259.8,45.7z"/>
		<path d="M264.3,53.1h4v2.1h0.1c0.4-0.8,0.9-1.4,1.5-1.8c0.6-0.4,1.3-0.6,2.2-0.6c0.2,0,0.5,0,0.7,0c0.2,0,0.4,0.1,0.6,0.1v3.7
			c-0.3-0.1-0.6-0.2-0.9-0.2c-0.3,0-0.6-0.1-0.9-0.1c-0.8,0-1.4,0.1-1.8,0.3c-0.5,0.2-0.8,0.5-1,0.9s-0.4,0.9-0.5,1.4
			s-0.1,1.1-0.1,1.8v5.5h-4V53.1z"/>
		<path d="M275,48.9c0-0.6,0.2-1.2,0.7-1.7s1-0.7,1.7-0.7c0.6,0,1.2,0.2,1.7,0.7s0.7,1,0.7,1.7s-0.2,1.2-0.7,1.7s-1,0.7-1.7,0.7
			c-0.6,0-1.2-0.2-1.7-0.7S275,49.6,275,48.9z M275.3,53.1h4.1v13.1h-4.1V53.1z"/>
		<path d="M291.2,57.3c-0.2-0.3-0.5-0.5-0.8-0.7c-0.4-0.2-0.7-0.3-1.2-0.3c-1,0-1.8,0.3-2.4,0.9c-0.6,0.6-0.9,1.4-0.9,2.4
			c0,1,0.3,1.8,0.9,2.4c0.6,0.6,1.4,0.9,2.4,0.9c0.4,0,0.8-0.1,1.2-0.3c0.3-0.2,0.6-0.4,0.8-0.7l2.7,2.8c-0.6,0.6-1.4,1.1-2.2,1.4
			s-1.7,0.4-2.4,0.4c-1,0-2-0.2-2.8-0.5c-0.9-0.3-1.7-0.8-2.3-1.4c-0.7-0.6-1.2-1.3-1.6-2.2c-0.4-0.8-0.6-1.8-0.6-2.8
			c0-1,0.2-2,0.6-2.8c0.4-0.8,0.9-1.6,1.6-2.2c0.7-0.6,1.4-1.1,2.3-1.4c0.9-0.3,1.8-0.5,2.8-0.5c0.8,0,1.6,0.1,2.4,0.4
			c0.9,0.3,1.6,0.7,2.2,1.4L291.2,57.3z"/>
		<path d="M295.3,45.8h4v12.5l4.5-5.2h5l-5.2,5.9l5.3,7.2h-5.1l-4.4-6.6h-0.1v6.6h-4V45.8z"/>
		<path d="M324.1,66.2h-3.7v-1.7h-0.1c-0.2,0.2-0.4,0.5-0.6,0.7c-0.3,0.2-0.6,0.5-0.9,0.7c-0.4,0.2-0.7,0.4-1.2,0.5
			c-0.4,0.1-0.9,0.2-1.3,0.2c-1,0-1.9-0.2-2.6-0.5c-0.8-0.3-1.5-0.8-2-1.4c-0.6-0.6-1-1.3-1.3-2.1c-0.3-0.8-0.5-1.7-0.5-2.7
			c0-0.9,0.1-1.8,0.4-2.6s0.7-1.6,1.2-2.2c0.5-0.6,1.1-1.2,1.9-1.6c0.7-0.4,1.6-0.6,2.5-0.6c0.8,0,1.6,0.1,2.4,0.4
			c0.7,0.3,1.3,0.7,1.8,1.3h0.1v-8.7h4.1V66.2z M320.3,59.6c0-1-0.3-1.8-0.9-2.4s-1.4-0.9-2.4-0.9c-1,0-1.8,0.3-2.4,0.9
			c-0.6,0.6-0.9,1.4-0.9,2.4c0,1,0.3,1.8,0.9,2.4c0.6,0.6,1.4,0.9,2.4,0.9c1,0,1.8-0.3,2.4-0.9C320.1,61.4,320.3,60.6,320.3,59.6z"
			/>
		<path d="M339.7,63.9c-0.6,0.8-1.5,1.5-2.5,1.9c-1,0.4-2,0.7-3.1,0.7c-1,0-2-0.2-2.8-0.5c-0.9-0.3-1.7-0.8-2.3-1.4
			c-0.7-0.6-1.2-1.3-1.6-2.2c-0.4-0.8-0.6-1.8-0.6-2.8c0-1,0.2-2,0.6-2.8c0.4-0.8,0.9-1.6,1.6-2.2s1.4-1.1,2.3-1.4
			c0.9-0.3,1.8-0.5,2.8-0.5c0.9,0,1.8,0.2,2.6,0.5c0.8,0.3,1.4,0.8,1.9,1.4c0.5,0.6,0.9,1.3,1.2,2.2c0.3,0.8,0.4,1.8,0.4,2.8v1.3
			H331c0.2,0.8,0.5,1.4,1.1,1.8s1.2,0.7,2,0.7c0.7,0,1.2-0.1,1.7-0.4c0.5-0.3,0.9-0.7,1.2-1.1L339.7,63.9z M336.3,58.2
			c0-0.7-0.2-1.3-0.7-1.8c-0.5-0.5-1.1-0.7-1.8-0.7c-0.5,0-0.8,0.1-1.2,0.2s-0.6,0.3-0.9,0.6c-0.2,0.2-0.4,0.5-0.6,0.8
			s-0.2,0.6-0.2,0.9H336.3z"/>
		<path d="M351,64.6L351,64.6c-0.5,0.7-1.1,1.2-1.8,1.5c-0.7,0.3-1.5,0.5-2.4,0.5c-0.6,0-1.2-0.1-1.8-0.3s-1.1-0.4-1.5-0.8
			c-0.4-0.3-0.8-0.8-1-1.3c-0.3-0.5-0.4-1.1-0.4-1.8c0-0.8,0.1-1.4,0.4-1.9c0.3-0.5,0.7-1,1.1-1.3c0.5-0.3,1-0.6,1.6-0.8
			s1.2-0.3,1.9-0.4c0.7-0.1,1.3-0.1,2-0.2c0.7,0,1.3,0,1.8,0c0-0.7-0.3-1.3-0.8-1.7c-0.5-0.4-1.1-0.6-1.8-0.6
			c-0.7,0-1.3,0.1-1.8,0.4c-0.5,0.3-1,0.7-1.5,1.1l-2.2-2.2c0.8-0.7,1.6-1.2,2.6-1.6s2.1-0.5,3.1-0.5c1.2,0,2.2,0.1,2.9,0.4
			c0.8,0.3,1.4,0.7,1.8,1.3s0.8,1.3,1,2.1c0.2,0.8,0.3,1.8,0.3,2.9v6.7H351V64.6z M350,60.4c-0.3,0-0.7,0-1.1,0s-0.9,0.1-1.3,0.2
			s-0.8,0.3-1.1,0.6c-0.3,0.3-0.4,0.6-0.4,1.1c0,0.5,0.2,0.8,0.6,1.1s0.8,0.4,1.3,0.4c0.4,0,0.8-0.1,1.1-0.2c0.4-0.1,0.7-0.3,1-0.5
			s0.5-0.4,0.7-0.8c0.2-0.3,0.3-0.7,0.3-1.1v-0.9H350z"/>
		<path d="M357.3,45.8h4.1v12.5l4.5-5.2h5l-5.2,5.9l5.3,7.2h-5.1l-4.4-6.6h-0.1v6.6h-4.1V45.8z"/>
		<path d="M372,48.9c0-0.6,0.2-1.2,0.7-1.7s1-0.7,1.7-0.7c0.6,0,1.2,0.2,1.7,0.7s0.7,1,0.7,1.7s-0.2,1.2-0.7,1.7s-1,0.7-1.7,0.7
			c-0.6,0-1.2-0.2-1.7-0.7S372,49.6,372,48.9z M372.4,53.1h4v13.1h-4V53.1z"/>
		<path d="M379.3,53.1h3.9v1.8h0.1c0.1-0.3,0.3-0.5,0.5-0.8c0.2-0.3,0.5-0.5,0.8-0.7c0.3-0.2,0.7-0.4,1.1-0.5
			c0.4-0.1,0.9-0.2,1.3-0.2c1,0,1.9,0.2,2.5,0.5c0.6,0.3,1.1,0.8,1.5,1.3c0.4,0.6,0.6,1.2,0.7,2c0.1,0.8,0.2,1.6,0.2,2.5v7.2h-4.1
			v-6.4c0-0.4,0-0.8,0-1.2c0-0.4-0.1-0.8-0.2-1.1c-0.1-0.3-0.3-0.6-0.6-0.8c-0.3-0.2-0.7-0.3-1.2-0.3c-0.5,0-0.9,0.1-1.3,0.3
			c-0.3,0.2-0.6,0.4-0.7,0.8s-0.3,0.7-0.3,1.1c-0.1,0.4-0.1,0.8-0.1,1.2v6.5h-4.1V53.1z"/>
		<path d="M402.3,56.9c-0.6-0.7-1.4-1.1-2.3-1.1c-0.3,0-0.7,0.1-1,0.2s-0.5,0.4-0.5,0.8c0,0.3,0.2,0.6,0.5,0.7s0.8,0.3,1.3,0.4
			c0.5,0.1,1.1,0.2,1.6,0.4c0.6,0.1,1.1,0.3,1.6,0.6c0.5,0.3,0.9,0.7,1.3,1.2s0.5,1.2,0.5,2c0,0.8-0.2,1.5-0.6,2.1
			c-0.4,0.5-0.8,1-1.4,1.3c-0.6,0.3-1.2,0.6-1.9,0.7c-0.7,0.1-1.4,0.2-2.1,0.2c-0.9,0-1.8-0.1-2.8-0.4c-0.9-0.3-1.7-0.7-2.4-1.4
			l2.5-2.7c0.4,0.5,0.8,0.8,1.3,1.1c0.5,0.2,1,0.4,1.6,0.4c0.5,0,0.9-0.1,1.3-0.2c0.4-0.1,0.6-0.4,0.6-0.7c0-0.3-0.2-0.6-0.5-0.8
			s-0.8-0.3-1.3-0.4c-0.5-0.1-1.1-0.2-1.6-0.4c-0.6-0.1-1.1-0.3-1.6-0.6c-0.5-0.3-0.9-0.7-1.3-1.1c-0.3-0.5-0.5-1.2-0.5-2
			c0-0.8,0.2-1.4,0.5-2c0.3-0.6,0.7-1,1.2-1.4c0.5-0.4,1.1-0.6,1.8-0.8c0.7-0.2,1.3-0.3,2-0.3c0.9,0,1.7,0.1,2.6,0.4
			s1.6,0.7,2.2,1.4L402.3,56.9z"/>
		<path d="M9.7,79.5h4.2v15.2h7.8v3.9h-12V79.5z"/>
		<path d="M23.2,81.3c0-0.6,0.2-1.2,0.7-1.7s1-0.7,1.7-0.7c0.6,0,1.2,0.2,1.7,0.7s0.7,1,0.7,1.7s-0.2,1.2-0.7,1.7s-1,0.7-1.7,0.7
			c-0.6,0-1.2-0.2-1.7-0.7S23.2,82,23.2,81.3z M23.5,85.5h4.1v13.1h-4.1V85.5z"/>
		<path d="M30.5,85.5h3.9v1.8h0.1c0.1-0.3,0.3-0.5,0.5-0.8c0.2-0.3,0.5-0.5,0.8-0.7c0.3-0.2,0.7-0.4,1.1-0.5s0.9-0.2,1.4-0.2
			c1,0,1.9,0.2,2.5,0.5c0.6,0.3,1.1,0.8,1.5,1.3c0.4,0.6,0.6,1.2,0.7,2c0.1,0.8,0.2,1.6,0.2,2.5v7.2h-4v-6.4c0-0.4,0-0.8,0-1.2
			c0-0.4-0.1-0.8-0.2-1.1c-0.1-0.3-0.3-0.6-0.6-0.8c-0.3-0.2-0.7-0.3-1.2-0.3c-0.5,0-0.9,0.1-1.3,0.3c-0.3,0.2-0.6,0.4-0.7,0.8
			c-0.2,0.3-0.3,0.7-0.3,1.1s-0.1,0.8-0.1,1.2v6.5h-4V85.5z"/>
		<path d="M46,78.2h4v12.5l4.5-5.2h5l-5.2,5.9l5.3,7.2h-5.1L50.1,92H50v6.6h-4V78.2z"/>
		<path d="M73.4,96.3c-0.6,0.8-1.5,1.5-2.5,1.9c-1,0.4-2,0.7-3.1,0.7c-1,0-2-0.2-2.8-0.5c-0.9-0.3-1.7-0.8-2.3-1.4
			c-0.7-0.6-1.2-1.3-1.6-2.2c-0.4-0.8-0.6-1.8-0.6-2.8c0-1,0.2-2,0.6-2.8c0.4-0.8,0.9-1.6,1.6-2.2c0.7-0.6,1.4-1.1,2.3-1.4
			c0.9-0.3,1.8-0.5,2.8-0.5c0.9,0,1.8,0.2,2.6,0.5c0.8,0.3,1.4,0.8,1.9,1.4c0.5,0.6,0.9,1.3,1.2,2.2c0.3,0.8,0.4,1.8,0.4,2.8v1.3
			h-9.4c0.2,0.8,0.5,1.4,1.1,1.8s1.2,0.7,2,0.7c0.7,0,1.2-0.1,1.7-0.4c0.5-0.3,0.9-0.7,1.2-1.1L73.4,96.3z M70,90.6
			c0-0.7-0.2-1.3-0.7-1.8c-0.5-0.5-1.1-0.7-1.8-0.7c-0.5,0-0.8,0.1-1.2,0.2c-0.3,0.1-0.6,0.3-0.9,0.6c-0.2,0.2-0.4,0.5-0.6,0.8
			c-0.1,0.3-0.2,0.6-0.2,0.9H70z"/>
		<path d="M90.3,98.6h-3.7v-1.7h-0.1c-0.2,0.2-0.4,0.5-0.6,0.7c-0.3,0.2-0.6,0.5-0.9,0.7c-0.4,0.2-0.7,0.4-1.2,0.5
			c-0.4,0.1-0.9,0.2-1.3,0.2c-1,0-1.9-0.2-2.6-0.5c-0.8-0.3-1.5-0.8-2-1.4c-0.6-0.6-1-1.3-1.3-2.1C76.2,94,76,93.1,76,92.1
			c0-0.9,0.1-1.8,0.4-2.6s0.7-1.6,1.2-2.2c0.5-0.6,1.1-1.2,1.9-1.6c0.7-0.4,1.6-0.6,2.5-0.6c0.8,0,1.6,0.1,2.4,0.4
			c0.7,0.3,1.3,0.7,1.8,1.3h0.1v-8.7h4.1V98.6z M86.6,92c0-1-0.3-1.8-0.9-2.4s-1.4-0.9-2.4-0.9c-1,0-1.8,0.3-2.4,0.9
			c-0.6,0.6-0.9,1.4-0.9,2.4c0,1,0.3,1.8,0.9,2.4c0.6,0.6,1.4,0.9,2.4,0.9c1,0,1.8-0.3,2.4-0.9C86.3,93.8,86.6,93,86.6,92z"/>
		<path d="M94,79.5h4.2v19.1H94V79.5z"/>
		<path d="M101.5,85.5h3.9v1.8h0.1c0.1-0.3,0.3-0.5,0.5-0.8c0.2-0.3,0.5-0.5,0.8-0.7c0.3-0.2,0.7-0.4,1.1-0.5s0.9-0.2,1.4-0.2
			c1,0,1.9,0.2,2.5,0.5c0.6,0.3,1.1,0.8,1.5,1.3c0.4,0.6,0.6,1.2,0.7,2c0.1,0.8,0.2,1.6,0.2,2.5v7.2h-4v-6.4c0-0.4,0-0.8,0-1.2
			c0-0.4-0.1-0.8-0.2-1.1c-0.1-0.3-0.3-0.6-0.6-0.8c-0.3-0.2-0.7-0.3-1.2-0.3c-0.5,0-0.9,0.1-1.3,0.3c-0.3,0.2-0.6,0.4-0.7,0.8
			c-0.2,0.3-0.3,0.7-0.3,1.1s-0.1,0.8-0.1,1.2v6.5h-4V85.5z"/>
		<path d="M117.1,87.6c0-0.3,0.1-0.7,0.2-1c0.1-0.3,0.3-0.6,0.5-0.8c0.2-0.2,0.5-0.4,0.8-0.5s0.6-0.2,1-0.2c0.3,0,0.7,0.1,1,0.2
			s0.6,0.3,0.8,0.5c0.2,0.2,0.4,0.5,0.5,0.8c0.1,0.3,0.2,0.6,0.2,1c0,0.3-0.1,0.7-0.2,1c-0.1,0.3-0.3,0.6-0.5,0.8
			c-0.2,0.2-0.5,0.4-0.8,0.5c-0.3,0.1-0.6,0.2-1,0.2c-0.3,0-0.7-0.1-1-0.2c-0.3-0.1-0.6-0.3-0.8-0.5c-0.2-0.2-0.4-0.5-0.5-0.8
			C117.2,88.3,117.1,88,117.1,87.6z M117.1,96.3c0-0.3,0.1-0.7,0.2-1c0.1-0.3,0.3-0.6,0.5-0.8c0.2-0.2,0.5-0.4,0.8-0.5
			c0.3-0.1,0.6-0.2,1-0.2c0.3,0,0.7,0.1,1,0.2c0.3,0.1,0.6,0.3,0.8,0.5c0.2,0.2,0.4,0.5,0.5,0.8c0.1,0.3,0.2,0.6,0.2,1
			s-0.1,0.7-0.2,1c-0.1,0.3-0.3,0.6-0.5,0.8c-0.2,0.2-0.5,0.4-0.8,0.5c-0.3,0.1-0.6,0.2-1,0.2c-0.3,0-0.7-0.1-1-0.2
			c-0.3-0.1-0.6-0.3-0.8-0.5c-0.2-0.2-0.4-0.5-0.5-0.8C117.2,96.9,117.1,96.6,117.1,96.3z"/>
		<path d="M132,78.2h4.1v20.4H132V78.2z"/>
		<path d="M138.7,81.3c0-0.6,0.2-1.2,0.7-1.7s1-0.7,1.7-0.7c0.6,0,1.2,0.2,1.7,0.7s0.7,1,0.7,1.7s-0.2,1.2-0.7,1.7s-1,0.7-1.7,0.7
			c-0.6,0-1.2-0.2-1.7-0.7S138.7,82,138.7,81.3z M139,85.5h4.1v13.1H139V85.5z"/>
		<path d="M146,85.5h3.9v1.8h0.1c0.1-0.3,0.3-0.5,0.5-0.8c0.2-0.3,0.5-0.5,0.8-0.7c0.3-0.2,0.7-0.4,1.1-0.5s0.9-0.2,1.4-0.2
			c1,0,1.9,0.2,2.5,0.5c0.6,0.3,1.1,0.8,1.5,1.3c0.4,0.6,0.6,1.2,0.7,2c0.1,0.8,0.2,1.6,0.2,2.5v7.2h-4v-6.4c0-0.4,0-0.8,0-1.2
			c0-0.4-0.1-0.8-0.2-1.1c-0.1-0.3-0.3-0.6-0.6-0.8c-0.3-0.2-0.7-0.3-1.2-0.3c-0.5,0-0.9,0.1-1.3,0.3c-0.3,0.2-0.6,0.4-0.7,0.8
			c-0.2,0.3-0.3,0.7-0.3,1.1s-0.1,0.8-0.1,1.2v6.5h-4V85.5z"/>
		<path d="M161.4,78.2h4v12.5l4.5-5.2h5l-5.2,5.9l5.3,7.2H170l-4.4-6.6h-0.1v6.6h-4V78.2z"/>
		<path d="M188.9,96.3c-0.6,0.8-1.5,1.5-2.5,1.9c-1,0.4-2,0.7-3.1,0.7c-1,0-2-0.2-2.8-0.5c-0.9-0.3-1.7-0.8-2.3-1.4
			c-0.7-0.6-1.2-1.3-1.6-2.2c-0.4-0.8-0.6-1.8-0.6-2.8c0-1,0.2-2,0.6-2.8c0.4-0.8,0.9-1.6,1.6-2.2c0.7-0.6,1.4-1.1,2.3-1.4
			c0.9-0.3,1.8-0.5,2.8-0.5c0.9,0,1.8,0.2,2.6,0.5c0.8,0.3,1.4,0.8,1.9,1.4c0.5,0.6,0.9,1.3,1.2,2.2c0.3,0.8,0.4,1.8,0.4,2.8v1.3
			h-9.4c0.2,0.8,0.5,1.4,1.1,1.8s1.2,0.7,2,0.7c0.7,0,1.2-0.1,1.7-0.4c0.5-0.3,0.9-0.7,1.2-1.1L188.9,96.3z M185.5,90.6
			c0-0.7-0.2-1.3-0.7-1.8c-0.5-0.5-1.1-0.7-1.8-0.7c-0.5,0-0.8,0.1-1.2,0.2c-0.3,0.1-0.6,0.3-0.9,0.6c-0.2,0.2-0.4,0.5-0.6,0.8
			c-0.1,0.3-0.2,0.6-0.2,0.9H185.5z"/>
		<path d="M205.7,98.6H202v-1.7h-0.1c-0.2,0.2-0.4,0.5-0.6,0.7c-0.3,0.2-0.6,0.5-0.9,0.7c-0.4,0.2-0.7,0.4-1.2,0.5
			c-0.4,0.1-0.9,0.2-1.3,0.2c-1,0-1.9-0.2-2.6-0.5c-0.8-0.3-1.5-0.8-2-1.4c-0.6-0.6-1-1.3-1.3-2.1c-0.3-0.8-0.5-1.7-0.5-2.7
			c0-0.9,0.1-1.8,0.4-2.6s0.7-1.6,1.2-2.2c0.5-0.6,1.1-1.2,1.9-1.6c0.7-0.4,1.6-0.6,2.5-0.6c0.8,0,1.6,0.1,2.4,0.4
			c0.7,0.3,1.3,0.7,1.8,1.3h0.1v-8.7h4.1V98.6z M202,92c0-1-0.3-1.8-0.9-2.4s-1.4-0.9-2.4-0.9c-1,0-1.8,0.3-2.4,0.9
			c-0.6,0.6-0.9,1.4-0.9,2.4c0,1,0.3,1.8,0.9,2.4c0.6,0.6,1.4,0.9,2.4,0.9c1,0,1.8-0.3,2.4-0.9C201.7,93.8,202,93,202,92z"/>
		<path d="M208.7,81.3c0-0.6,0.2-1.2,0.7-1.7s1-0.7,1.7-0.7c0.6,0,1.2,0.2,1.7,0.7s0.7,1,0.7,1.7s-0.2,1.2-0.7,1.7s-1,0.7-1.7,0.7
			c-0.6,0-1.2-0.2-1.7-0.7S208.7,82,208.7,81.3z M209,85.5h4.1v13.1H209V85.5z"/>
		<path d="M216,85.5h3.9v1.8h0.1c0.1-0.3,0.3-0.5,0.5-0.8c0.2-0.3,0.5-0.5,0.8-0.7c0.3-0.2,0.7-0.4,1.1-0.5s0.9-0.2,1.4-0.2
			c1,0,1.9,0.2,2.5,0.5c0.6,0.3,1.1,0.8,1.5,1.3c0.4,0.6,0.6,1.2,0.7,2c0.1,0.8,0.2,1.6,0.2,2.5v7.2h-4v-6.4c0-0.4,0-0.8,0-1.2
			c0-0.4-0.1-0.8-0.2-1.1c-0.1-0.3-0.3-0.6-0.6-0.8c-0.3-0.2-0.7-0.3-1.2-0.3c-0.5,0-0.9,0.1-1.3,0.3c-0.3,0.2-0.6,0.4-0.7,0.8
			c-0.2,0.3-0.3,0.7-0.3,1.1s-0.1,0.8-0.1,1.2v6.5h-4V85.5z"/>
		<path d="M231.6,96.3c0-0.3,0.1-0.7,0.2-1c0.1-0.3,0.3-0.6,0.5-0.8c0.2-0.2,0.5-0.4,0.8-0.5c0.3-0.1,0.6-0.2,1-0.2
			c0.3,0,0.7,0.1,1,0.2c0.3,0.1,0.6,0.3,0.8,0.5c0.2,0.2,0.4,0.5,0.5,0.8c0.1,0.3,0.2,0.6,0.2,1s-0.1,0.7-0.2,1
			c-0.1,0.3-0.3,0.6-0.5,0.8c-0.2,0.2-0.5,0.4-0.8,0.5c-0.3,0.1-0.6,0.2-1,0.2c-0.3,0-0.7-0.1-1-0.2c-0.3-0.1-0.6-0.3-0.8-0.5
			c-0.2-0.2-0.4-0.5-0.5-0.8C231.6,96.9,231.6,96.6,231.6,96.3z"/>
		<path d="M248.4,89.7c-0.2-0.3-0.5-0.5-0.8-0.7c-0.4-0.2-0.7-0.3-1.2-0.3c-1,0-1.8,0.3-2.4,0.9c-0.6,0.6-0.9,1.4-0.9,2.4
			c0,1,0.3,1.8,0.9,2.4c0.6,0.6,1.4,0.9,2.4,0.9c0.4,0,0.8-0.1,1.2-0.3c0.3-0.2,0.6-0.4,0.8-0.7l2.7,2.8c-0.6,0.6-1.4,1.1-2.2,1.4
			s-1.7,0.4-2.4,0.4c-1,0-2-0.2-2.8-0.5c-0.9-0.3-1.7-0.8-2.3-1.4c-0.7-0.6-1.2-1.3-1.6-2.2c-0.4-0.8-0.6-1.8-0.6-2.8
			c0-1,0.2-2,0.6-2.8c0.4-0.8,0.9-1.6,1.6-2.2c0.7-0.6,1.4-1.1,2.3-1.4c0.9-0.3,1.8-0.5,2.8-0.5c0.8,0,1.6,0.1,2.4,0.4
			c0.9,0.3,1.6,0.7,2.2,1.4L248.4,89.7z"/>
		<path d="M252,92c0-1,0.2-2,0.6-2.8c0.4-0.8,0.9-1.6,1.6-2.2c0.7-0.6,1.4-1.1,2.3-1.4c0.9-0.3,1.8-0.5,2.8-0.5c1,0,2,0.2,2.8,0.5
			c0.9,0.3,1.7,0.8,2.3,1.4s1.2,1.3,1.6,2.2c0.4,0.8,0.6,1.8,0.6,2.8c0,1-0.2,2-0.6,2.8c-0.4,0.8-0.9,1.6-1.6,2.2
			c-0.7,0.6-1.4,1.1-2.3,1.4c-0.9,0.3-1.8,0.5-2.8,0.5c-1,0-2-0.2-2.8-0.5c-0.9-0.3-1.7-0.8-2.3-1.4c-0.7-0.6-1.2-1.3-1.6-2.2
			C252.2,94,252,93.1,252,92z M256.1,92c0,1,0.3,1.8,0.9,2.4c0.6,0.6,1.4,0.9,2.4,0.9c1,0,1.8-0.3,2.4-0.9c0.6-0.6,0.9-1.4,0.9-2.4
			c0-1-0.3-1.8-0.9-2.4s-1.4-0.9-2.4-0.9c-1,0-1.8,0.3-2.4,0.9C256.3,90.2,256.1,91,256.1,92z"/>
		<path d="M269,85.5h3.9v1.8h0.1c0.1-0.3,0.3-0.5,0.5-0.8c0.2-0.3,0.5-0.5,0.8-0.7c0.3-0.2,0.7-0.4,1.1-0.5s0.9-0.2,1.4-0.2
			c0.9,0,1.7,0.2,2.4,0.6s1.2,1,1.6,1.8c0.5-0.8,1-1.4,1.7-1.8c0.7-0.4,1.5-0.5,2.5-0.5c0.9,0,1.6,0.1,2.2,0.4
			c0.6,0.3,1.1,0.7,1.4,1.2c0.4,0.5,0.6,1.1,0.8,1.8c0.2,0.7,0.2,1.4,0.2,2.2v7.7h-4.1V91c0-0.6-0.1-1.1-0.4-1.6
			c-0.3-0.4-0.7-0.7-1.4-0.7c-0.5,0-0.9,0.1-1.2,0.2c-0.3,0.2-0.6,0.4-0.8,0.6s-0.3,0.6-0.4,0.9c-0.1,0.4-0.1,0.7-0.1,1.1v6.9h-4
			v-6.9c0-0.2,0-0.5,0-0.9c0-0.3-0.1-0.7-0.2-1s-0.3-0.6-0.5-0.8c-0.2-0.2-0.6-0.3-1.1-0.3c-0.5,0-0.9,0.1-1.3,0.3
			c-0.3,0.2-0.6,0.4-0.7,0.8c-0.2,0.3-0.3,0.7-0.3,1.1s-0.1,0.8-0.1,1.2v6.5h-4V85.5z"/>
		<path d="M299,78.1l3.1,0.9l-8.1,21l-3.1-0.9L299,78.1z"/>
		<path d="M303.2,81.3c0-0.6,0.2-1.2,0.7-1.7s1-0.7,1.7-0.7c0.6,0,1.2,0.2,1.7,0.7s0.7,1,0.7,1.7s-0.2,1.2-0.7,1.7s-1,0.7-1.7,0.7
			c-0.6,0-1.2-0.2-1.7-0.7S303.2,82,303.2,81.3z M303.5,85.5h4.1v13.1h-4.1V85.5z"/>
		<path d="M310.5,85.5h3.9v1.8h0.1c0.1-0.3,0.3-0.5,0.5-0.8c0.2-0.3,0.5-0.5,0.8-0.7c0.3-0.2,0.7-0.4,1.1-0.5s0.9-0.2,1.4-0.2
			c1,0,1.9,0.2,2.5,0.5c0.6,0.3,1.1,0.8,1.5,1.3c0.4,0.6,0.6,1.2,0.7,2c0.1,0.8,0.2,1.6,0.2,2.5v7.2H319v-6.4c0-0.4,0-0.8,0-1.2
			c0-0.4-0.1-0.8-0.2-1.1c-0.1-0.3-0.3-0.6-0.6-0.8c-0.3-0.2-0.7-0.3-1.2-0.3c-0.5,0-0.9,0.1-1.3,0.3c-0.3,0.2-0.6,0.4-0.7,0.8
			c-0.2,0.3-0.3,0.7-0.3,1.1s-0.1,0.8-0.1,1.2v6.5h-4V85.5z"/>
		<path d="M332.5,78.1l3.1,0.9l-8.1,21l-3.1-0.9L332.5,78.1z"/>
		<path d="M335.9,85.5h4.1v2.1h0.1c0.4-0.8,0.9-1.4,1.5-1.8c0.6-0.4,1.3-0.6,2.2-0.6c0.2,0,0.5,0,0.7,0c0.2,0,0.5,0.1,0.6,0.1V89
			c-0.3-0.1-0.6-0.2-0.9-0.2s-0.6-0.1-0.9-0.1c-0.8,0-1.4,0.1-1.8,0.3c-0.5,0.2-0.8,0.5-1,0.9s-0.4,0.9-0.5,1.4s-0.1,1.1-0.1,1.8
			v5.5h-4.1V85.5z"/>
		<path d="M346.6,81.3c0-0.6,0.2-1.2,0.7-1.7s1-0.7,1.7-0.7c0.6,0,1.2,0.2,1.7,0.7s0.7,1,0.7,1.7s-0.2,1.2-0.7,1.7s-1,0.7-1.7,0.7
			c-0.6,0-1.2-0.2-1.7-0.7S346.6,82,346.6,81.3z M346.9,85.5h4v13.1h-4V85.5z"/>
		<path d="M362.8,89.7c-0.2-0.3-0.5-0.5-0.8-0.7c-0.4-0.2-0.7-0.3-1.2-0.3c-1,0-1.8,0.3-2.4,0.9c-0.6,0.6-0.9,1.4-0.9,2.4
			c0,1,0.3,1.8,0.9,2.4c0.6,0.6,1.4,0.9,2.4,0.9c0.4,0,0.8-0.1,1.2-0.3c0.3-0.2,0.6-0.4,0.8-0.7l2.7,2.8c-0.6,0.6-1.4,1.1-2.2,1.4
			c-0.9,0.3-1.7,0.4-2.4,0.4c-1,0-2-0.2-2.8-0.5c-0.9-0.3-1.7-0.8-2.3-1.4c-0.7-0.6-1.2-1.3-1.6-2.2c-0.4-0.8-0.6-1.8-0.6-2.8
			c0-1,0.2-2,0.6-2.8c0.4-0.8,0.9-1.6,1.6-2.2s1.4-1.1,2.3-1.4c0.9-0.3,1.8-0.5,2.8-0.5c0.8,0,1.6,0.1,2.4,0.4
			c0.9,0.3,1.6,0.7,2.2,1.4L362.8,89.7z"/>
		<path d="M366.9,78.2h4.1v12.5l4.5-5.2h5l-5.2,5.9l5.3,7.2h-5.1L371,92h-0.1v6.6h-4.1V78.2z"/>
		<path d="M387.8,93.5h-6.6v-3.2h6.6V93.5z"/>
		<path d="M403.7,98.6h-3.7v-1.7h-0.1c-0.2,0.2-0.4,0.5-0.6,0.7c-0.3,0.2-0.6,0.5-0.9,0.7c-0.4,0.2-0.7,0.4-1.2,0.5
			s-0.9,0.2-1.3,0.2c-1,0-1.9-0.2-2.6-0.5c-0.8-0.3-1.5-0.8-2-1.4c-0.6-0.6-1-1.3-1.3-2.1c-0.3-0.8-0.5-1.7-0.5-2.7
			c0-0.9,0.1-1.8,0.4-2.6s0.7-1.6,1.2-2.2c0.5-0.6,1.1-1.2,1.9-1.6c0.7-0.4,1.6-0.6,2.5-0.6c0.8,0,1.6,0.1,2.4,0.4
			c0.7,0.3,1.3,0.7,1.8,1.3h0.1v-8.7h4V98.6z M399.9,92c0-1-0.3-1.8-0.9-2.4c-0.6-0.6-1.4-0.9-2.4-0.9c-1,0-1.8,0.3-2.4,0.9
			c-0.6,0.6-0.9,1.4-0.9,2.4c0,1,0.3,1.8,0.9,2.4c0.6,0.6,1.4,0.9,2.4,0.9c1,0,1.8-0.3,2.4-0.9C399.7,93.8,399.9,93,399.9,92z"/>
		<path d="M419.3,96.3c-0.6,0.8-1.5,1.5-2.5,1.9c-1,0.4-2,0.7-3.1,0.7c-1,0-2-0.2-2.8-0.5c-0.9-0.3-1.7-0.8-2.3-1.4
			c-0.7-0.6-1.2-1.3-1.6-2.2c-0.4-0.8-0.6-1.8-0.6-2.8c0-1,0.2-2,0.6-2.8c0.4-0.8,0.9-1.6,1.6-2.2s1.4-1.1,2.3-1.4
			c0.9-0.3,1.8-0.5,2.8-0.5c0.9,0,1.8,0.2,2.6,0.5c0.8,0.3,1.4,0.8,1.9,1.4c0.5,0.6,0.9,1.3,1.2,2.2c0.3,0.8,0.4,1.8,0.4,2.8v1.3
			h-9.4c0.2,0.8,0.5,1.4,1.1,1.8s1.2,0.7,2,0.7c0.7,0,1.2-0.1,1.7-0.4c0.5-0.3,0.9-0.7,1.2-1.1L419.3,96.3z M415.9,90.6
			c0-0.7-0.2-1.3-0.7-1.8c-0.5-0.5-1.1-0.7-1.8-0.7c-0.5,0-0.8,0.1-1.2,0.2s-0.6,0.3-0.9,0.6c-0.2,0.2-0.4,0.5-0.6,0.8
			s-0.2,0.6-0.2,0.9H415.9z"/>
		<path d="M430.6,97L430.6,97c-0.5,0.7-1.1,1.2-1.8,1.5c-0.7,0.3-1.5,0.5-2.4,0.5c-0.6,0-1.2-0.1-1.8-0.3s-1.1-0.4-1.5-0.8
			c-0.4-0.3-0.8-0.8-1-1.3c-0.3-0.5-0.4-1.1-0.4-1.8c0-0.8,0.1-1.4,0.4-1.9c0.3-0.5,0.7-1,1.1-1.3c0.5-0.3,1-0.6,1.6-0.8
			s1.2-0.3,1.9-0.4c0.7-0.1,1.3-0.1,2-0.2c0.7,0,1.3,0,1.8,0c0-0.7-0.3-1.3-0.8-1.7c-0.5-0.4-1.1-0.6-1.8-0.6
			c-0.7,0-1.3,0.1-1.8,0.4c-0.5,0.3-1,0.7-1.5,1.1l-2.2-2.2c0.8-0.7,1.6-1.2,2.6-1.6s2.1-0.5,3.1-0.5c1.2,0,2.2,0.1,2.9,0.4
			c0.8,0.3,1.4,0.7,1.8,1.3s0.8,1.3,1,2.1c0.2,0.8,0.3,1.8,0.3,2.9v6.7h-3.7V97z M429.6,92.8c-0.3,0-0.7,0-1.1,0s-0.9,0.1-1.3,0.2
			s-0.8,0.3-1.1,0.6c-0.3,0.3-0.4,0.6-0.4,1.1c0,0.5,0.2,0.8,0.6,1.1s0.8,0.4,1.3,0.4c0.4,0,0.8-0.1,1.1-0.2c0.4-0.1,0.7-0.3,1-0.5
			s0.5-0.4,0.7-0.8c0.2-0.3,0.3-0.7,0.3-1.1v-0.9H429.6z"/>
		<path d="M436.9,78.2h4.1v12.5l4.5-5.2h5l-5.2,5.9l5.3,7.2h-5.1L441,92h-0.1v6.6h-4.1V78.2z"/>
		<path d="M451.6,81.3c0-0.6,0.2-1.2,0.7-1.7s1-0.7,1.7-0.7c0.6,0,1.2,0.2,1.7,0.7s0.7,1,0.7,1.7s-0.2,1.2-0.7,1.7s-1,0.7-1.7,0.7
			c-0.6,0-1.2-0.2-1.7-0.7S451.6,82,451.6,81.3z M452,85.5h4v13.1h-4V85.5z"/>
		<path d="M458.9,85.5h3.9v1.8h0.1c0.1-0.3,0.3-0.5,0.5-0.8c0.2-0.3,0.5-0.5,0.8-0.7c0.3-0.2,0.7-0.4,1.1-0.5
			c0.4-0.1,0.9-0.2,1.3-0.2c1,0,1.9,0.2,2.5,0.5c0.6,0.3,1.1,0.8,1.5,1.3c0.4,0.6,0.6,1.2,0.7,2c0.1,0.8,0.2,1.6,0.2,2.5v7.2h-4.1
			v-6.4c0-0.4,0-0.8,0-1.2c0-0.4-0.1-0.8-0.2-1.1c-0.1-0.3-0.3-0.6-0.6-0.8c-0.3-0.2-0.7-0.3-1.2-0.3c-0.5,0-0.9,0.1-1.3,0.3
			c-0.3,0.2-0.6,0.4-0.7,0.8s-0.3,0.7-0.3,1.1c-0.1,0.4-0.1,0.8-0.1,1.2v6.5h-4.1V85.5z"/>
		<path d="M481.9,89.3c-0.6-0.7-1.4-1.1-2.3-1.1c-0.3,0-0.7,0.1-1,0.2s-0.5,0.4-0.5,0.8c0,0.3,0.2,0.6,0.5,0.7s0.8,0.3,1.3,0.4
			c0.5,0.1,1.1,0.2,1.6,0.4c0.6,0.1,1.1,0.3,1.6,0.6c0.5,0.3,0.9,0.7,1.3,1.2s0.5,1.2,0.5,2c0,0.8-0.2,1.5-0.6,2.1
			c-0.4,0.5-0.8,1-1.4,1.3c-0.6,0.3-1.2,0.6-1.9,0.7c-0.7,0.1-1.4,0.2-2.1,0.2c-0.9,0-1.8-0.1-2.8-0.4c-0.9-0.3-1.7-0.7-2.4-1.4
			l2.5-2.7c0.4,0.5,0.8,0.8,1.3,1.1c0.5,0.2,1,0.4,1.6,0.4c0.5,0,0.9-0.1,1.3-0.2c0.4-0.1,0.6-0.4,0.6-0.7c0-0.3-0.2-0.6-0.5-0.8
			s-0.8-0.3-1.3-0.4c-0.5-0.1-1.1-0.2-1.6-0.4c-0.6-0.1-1.1-0.3-1.6-0.6c-0.5-0.3-0.9-0.7-1.3-1.1c-0.3-0.5-0.5-1.2-0.5-2
			c0-0.8,0.2-1.4,0.5-2c0.3-0.6,0.7-1,1.2-1.4c0.5-0.4,1.1-0.6,1.8-0.8c0.7-0.2,1.3-0.3,2-0.3c0.9,0,1.7,0.1,2.6,0.4
			s1.6,0.7,2.2,1.4L481.9,89.3z"/>
		<path d="M492.8,93.5h-6.6v-3.2h6.6V93.5z"/>
		<path d="M501.3,84l-3.8,3.4l-2.3-2.6l6.2-5.3h3.8v19.1h-3.9V84z"/>
		<path d="M517.9,94.8h-8.3v-3.4l7.8-11.9h4.4v11.9h2.5v3.4h-2.5v3.8h-3.9V94.8z M517.9,84.8L517.9,84.8l-4.3,6.6h4.3V84.8z"/>
		<path d="M532.6,91.8c-0.2,0.1-0.4,0.1-0.6,0.1s-0.4,0.1-0.7,0.1c-0.9,0-1.7-0.2-2.5-0.5c-0.7-0.3-1.4-0.8-1.9-1.3
			c-0.5-0.6-0.9-1.2-1.2-2c-0.3-0.8-0.4-1.6-0.4-2.4c0-1,0.2-1.9,0.6-2.7c0.4-0.8,0.9-1.5,1.5-2.1s1.4-1,2.3-1.3
			c0.9-0.3,1.8-0.5,2.8-0.5c1,0,1.9,0.2,2.8,0.5c0.9,0.3,1.6,0.8,2.3,1.3s1.1,1.3,1.5,2.1c0.4,0.8,0.6,1.7,0.6,2.7
			c0,0.7-0.1,1.3-0.2,1.9c-0.1,0.6-0.3,1.1-0.5,1.6s-0.5,1-0.7,1.4c-0.3,0.5-0.6,0.9-0.9,1.4l-4.2,6.5h-4.9L532.6,91.8z M529.3,85.9
			c0,0.9,0.3,1.6,0.9,2.1c0.6,0.6,1.3,0.9,2.2,0.9s1.7-0.3,2.2-0.9c0.6-0.6,0.9-1.3,0.9-2.1c0-0.9-0.3-1.6-0.9-2.1
			c-0.6-0.6-1.3-0.9-2.2-0.9s-1.7,0.3-2.2,0.9C529.6,84.3,529.3,85,529.3,85.9z"/>
		<path d="M549.4,94.8H541v-3.4l7.8-11.9h4.4v11.9h2.5v3.4h-2.5v3.8h-3.9V94.8z M549.4,84.8L549.4,84.8l-4.3,6.6h4.3V84.8z"/>
		<path d="M557.2,89c0-1.1,0.1-2.3,0.3-3.5c0.2-1.2,0.6-2.2,1.1-3.2c0.5-1,1.3-1.7,2.2-2.3c0.9-0.6,2.1-0.9,3.5-0.9s2.6,0.3,3.5,0.9
			c0.9,0.6,1.6,1.4,2.2,2.3c0.5,1,0.9,2,1.1,3.2c0.2,1.2,0.3,2.3,0.3,3.5c0,1.1-0.1,2.3-0.3,3.5c-0.2,1.2-0.6,2.2-1.1,3.2
			c-0.5,1-1.3,1.7-2.2,2.3s-2.1,0.9-3.5,0.9s-2.6-0.3-3.5-0.9s-1.6-1.4-2.2-2.3c-0.5-1-0.9-2-1.1-3.2
			C557.3,91.3,557.2,90.2,557.2,89z M561.3,89c0,0.5,0,1.1,0.1,1.8c0,0.7,0.2,1.4,0.4,2s0.5,1.2,0.9,1.6c0.4,0.5,1,0.7,1.7,0.7
			c0.7,0,1.3-0.2,1.7-0.7c0.4-0.4,0.7-1,0.9-1.6c0.2-0.6,0.3-1.3,0.4-2s0.1-1.3,0.1-1.8c0-0.5,0-1.1-0.1-1.8c0-0.7-0.2-1.4-0.4-2
			c-0.2-0.6-0.5-1.2-0.9-1.6c-0.4-0.4-1-0.7-1.7-0.7c-0.7,0-1.3,0.2-1.7,0.7c-0.4,0.5-0.7,1-0.9,1.6s-0.3,1.3-0.4,2
			C561.3,87.9,561.3,88.5,561.3,89z"/>
		<path d="M577.6,87h1.3c0.4,0,0.7,0,1.1-0.1c0.4-0.1,0.7-0.2,1-0.3c0.3-0.2,0.5-0.4,0.7-0.6c0.2-0.3,0.3-0.6,0.3-1.1
			c0-0.6-0.2-1.1-0.7-1.4s-1-0.6-1.7-0.6c-0.6,0-1.2,0.2-1.6,0.5c-0.4,0.3-0.7,0.8-0.8,1.3l-4.5-0.9c0.2-0.8,0.5-1.5,1-2.1
			c0.4-0.6,0.9-1.1,1.5-1.4c0.6-0.4,1.3-0.6,2-0.8c0.7-0.2,1.5-0.3,2.3-0.3c0.8,0,1.7,0.1,2.4,0.3s1.5,0.5,2.1,1
			c0.6,0.4,1.1,1,1.4,1.7c0.4,0.7,0.5,1.5,0.5,2.4c0,1.1-0.3,2-0.8,2.7c-0.6,0.8-1.4,1.2-2.4,1.5v0.1c0.6,0.1,1.1,0.2,1.5,0.5
			c0.4,0.3,0.8,0.6,1.1,1c0.3,0.4,0.5,0.8,0.7,1.3c0.2,0.5,0.2,1,0.2,1.6c0,1-0.2,1.8-0.6,2.5c-0.4,0.7-0.9,1.3-1.5,1.8
			s-1.3,0.8-2.2,1.1c-0.8,0.2-1.7,0.4-2.7,0.4c-1.7,0-3.2-0.4-4.4-1.2c-1.2-0.8-2-2-2.4-3.8l4.3-1c0.1,0.7,0.4,1.2,0.9,1.6
			c0.4,0.4,1.1,0.6,2,0.6c0.9,0,1.5-0.2,2-0.7c0.4-0.5,0.6-1,0.6-1.8c0-0.5-0.1-1-0.3-1.3c-0.2-0.3-0.5-0.5-0.9-0.7
			s-0.8-0.2-1.2-0.3c-0.5,0-0.9,0-1.3,0h-0.9V87z"/>
		<path d="M594.5,84l-3.8,3.4l-2.3-2.6l6.2-5.3h3.8v19.1h-3.9V84z"/>
		<path d="M616.6,83H609L609,86c0.4-0.1,1-0.2,1.7-0.2c1,0,1.9,0.1,2.7,0.4c0.8,0.3,1.5,0.7,2.1,1.3c0.6,0.5,1,1.2,1.4,2
			c0.3,0.8,0.5,1.7,0.5,2.6c0,1.1-0.2,2-0.6,2.9c-0.4,0.8-0.9,1.6-1.5,2.1c-0.6,0.6-1.4,1-2.3,1.3c-0.9,0.3-1.9,0.5-2.9,0.5
			c-1.7,0-3-0.4-4.2-1.2c-1.1-0.8-1.9-2-2.3-3.7l4.2-1c0.1,0.7,0.4,1.2,0.9,1.7c0.5,0.4,1.1,0.6,1.8,0.6c0.9,0,1.6-0.3,2.1-0.8
			c0.5-0.5,0.8-1.2,0.8-2.1c0-0.6-0.1-1.1-0.4-1.6c-0.3-0.4-0.6-0.7-1-1s-0.9-0.4-1.4-0.5c-0.5-0.1-1-0.1-1.6-0.1
			c-0.7,0-1.3,0.1-2,0.2s-1.3,0.3-2,0.5l0.2-10.6h11.6V83z"/>
		<path d="M627.8,97L627.8,97c-0.5,0.7-1.1,1.2-1.8,1.5c-0.7,0.3-1.5,0.5-2.4,0.5c-0.6,0-1.2-0.1-1.8-0.3s-1.1-0.4-1.5-0.8
			c-0.4-0.3-0.8-0.8-1-1.3c-0.3-0.5-0.4-1.1-0.4-1.8c0-0.8,0.1-1.4,0.4-1.9c0.3-0.5,0.7-1,1.1-1.3c0.5-0.3,1-0.6,1.6-0.8
			s1.2-0.3,1.9-0.4c0.7-0.1,1.3-0.1,2-0.2c0.7,0,1.3,0,1.8,0c0-0.7-0.3-1.3-0.8-1.7c-0.5-0.4-1.1-0.6-1.8-0.6
			c-0.7,0-1.3,0.1-1.8,0.4c-0.5,0.3-1,0.7-1.5,1.1l-2.2-2.2c0.8-0.7,1.6-1.2,2.6-1.6s2.1-0.5,3.1-0.5c1.2,0,2.2,0.1,2.9,0.4
			c0.8,0.3,1.4,0.7,1.8,1.3s0.8,1.3,1,2.1c0.2,0.8,0.3,1.8,0.3,2.9v6.7h-3.7V97z M626.8,92.8c-0.3,0-0.7,0-1.1,0s-0.9,0.1-1.3,0.2
			s-0.8,0.3-1.1,0.6c-0.3,0.3-0.4,0.6-0.4,1.1c0,0.5,0.2,0.8,0.6,1.1s0.8,0.4,1.3,0.4c0.4,0,0.8-0.1,1.1-0.2c0.4-0.1,0.7-0.3,1-0.5
			s0.5-0.4,0.7-0.8c0.2-0.3,0.3-0.7,0.3-1.1v-0.9H626.8z"/>
	</g>
</g>
</svg>
