<?xml version="1.0" encoding="UTF-8"?>
<svg id="Layer_1" xmlns="http://www.w3.org/2000/svg" version="1.1" viewBox="0 0 479 432">
  <!-- Generator: Adobe Illustrator 29.8.6, SVG Export Plug-In . SVG Version: 2.1.1 Build 1)  -->
  <defs>
    <style>
      .st0 {
        isolation: isolate;
      }

      .st1, .st2 {
        fill: none;
        stroke: #000;
        stroke-miterlimit: 10;
      }

      .st2 {
        stroke-width: 2px;
      }
    </style>
  </defs>
  <g class="st0">
    <g class="st0">
      <path d="M7,64v-24.3h3.2v21.5h12v2.9H7Z"/>
      <path d="M37.7,58.3l3.1.4c-.5,1.8-1.4,3.2-2.7,4.2-1.3,1-3,1.5-5,1.5s-4.6-.8-6.1-2.4c-1.5-1.6-2.3-3.8-2.3-6.7s.8-5.3,2.3-6.9,3.5-2.5,5.9-2.5,4.3.8,5.8,2.4,2.2,3.9,2.2,6.8,0,.4,0,.8h-13.1c.1,1.9.7,3.4,1.6,4.4,1,1,2.2,1.5,3.7,1.5s2-.3,2.8-.9c.8-.6,1.4-1.5,1.8-2.8ZM27.9,53.5h9.8c-.1-1.5-.5-2.6-1.1-3.3-1-1.2-2.2-1.7-3.7-1.7s-2.5.5-3.5,1.4c-.9.9-1.5,2.1-1.6,3.7Z"/>
      <path d="M51.1,61.3l.4,2.6c-.8.2-1.6.3-2.3.3-1.1,0-1.9-.2-2.5-.5s-1-.8-1.3-1.4c-.2-.6-.4-1.7-.4-3.5v-10.1h-2.2v-2.3h2.2v-4.4l3-1.8v6.2h3v2.3h-3v10.3c0,.9,0,1.4.2,1.6.1.2.3.4.5.6.2.1.6.2,1,.2s.8,0,1.3-.1Z"/>
      <path d="M53.8,42.9v-3.5h3.2v2.7c0,1.5-.2,2.6-.5,3.2-.5.9-1.2,1.6-2.2,2l-.7-1.2c.6-.2,1-.6,1.3-1.2.3-.5.5-1.2.5-2.2h-1.6Z"/>
      <path d="M59.8,58.7l3-.5c.2,1.2.6,2.1,1.4,2.7.8.6,1.8.9,3.2.9s2.4-.3,3.1-.8c.7-.6,1-1.2,1-2s-.3-1.2-.9-1.6c-.4-.3-1.4-.6-3.1-1-2.2-.6-3.7-1-4.6-1.4-.8-.4-1.5-1-1.9-1.7-.4-.7-.7-1.5-.7-2.4s.2-1.5.5-2.2c.4-.7.8-1.2,1.5-1.7.5-.3,1.1-.6,1.9-.9.8-.2,1.7-.4,2.6-.4,1.4,0,2.6.2,3.6.6s1.8.9,2.3,1.6c.5.7.8,1.6,1,2.7l-2.9.4c-.1-.9-.5-1.6-1.2-2.1-.6-.5-1.5-.8-2.7-.8s-2.4.2-2.9.7c-.6.5-.9,1-.9,1.6s.1.7.4,1c.2.3.6.6,1.1.8.3.1,1.2.4,2.6.8,2.1.6,3.6,1,4.4,1.4.8.4,1.5.9,2,1.6.5.7.7,1.5.7,2.6s-.3,1.9-.9,2.8c-.6.9-1.4,1.6-2.5,2-1.1.5-2.3.7-3.7.7-2.3,0-4-.5-5.2-1.4-1.2-1-2-2.4-2.3-4.2Z"/>
      <path d="M87.8,64v-24.3h8.4c1.9,0,3.3.1,4.3.3,1.4.3,2.6.9,3.6,1.7,1.3,1.1,2.2,2.5,2.9,4.2.6,1.7,1,3.6,1,5.8s-.2,3.5-.6,4.9-1,2.6-1.7,3.5c-.7.9-1.4,1.7-2.2,2.2-.8.5-1.8.9-2.9,1.2-1.1.3-2.4.4-3.9.4h-8.8ZM91,61.1h5.2c1.6,0,2.9-.1,3.8-.4s1.6-.7,2.2-1.3c.8-.8,1.4-1.8,1.8-3.1.4-1.3.6-2.9.6-4.7s-.4-4.5-1.3-5.9c-.8-1.4-1.9-2.3-3-2.7-.9-.3-2.3-.5-4.2-.5h-5.1v18.6Z"/>
      <path d="M112,43.1v-3.4h3v3.4h-3ZM112,64v-17.6h3v17.6h-3Z"/>
      <path d="M118.3,58.7l3-.5c.2,1.2.6,2.1,1.4,2.7.8.6,1.8.9,3.2.9s2.4-.3,3.1-.8c.7-.6,1-1.2,1-2s-.3-1.2-.9-1.6c-.4-.3-1.4-.6-3.1-1-2.2-.6-3.7-1-4.6-1.4-.8-.4-1.5-1-1.9-1.7-.4-.7-.7-1.5-.7-2.4s.2-1.5.5-2.2c.4-.7.8-1.2,1.5-1.7.5-.3,1.1-.6,1.9-.9.8-.2,1.7-.4,2.6-.4,1.4,0,2.6.2,3.6.6s1.8.9,2.3,1.6c.5.7.8,1.6,1,2.7l-2.9.4c-.1-.9-.5-1.6-1.2-2.1-.6-.5-1.5-.8-2.7-.8s-2.4.2-2.9.7c-.6.5-.9,1-.9,1.6s.1.7.4,1c.2.3.6.6,1.1.8.3.1,1.2.4,2.6.8,2.1.6,3.6,1,4.4,1.4.8.4,1.5.9,2,1.6.5.7.7,1.5.7,2.6s-.3,1.9-.9,2.8c-.6.9-1.4,1.6-2.5,2-1.1.5-2.3.7-3.7.7-2.3,0-4-.5-5.2-1.4-1.2-1-2-2.4-2.3-4.2Z"/>
      <path d="M148,57.5l2.9.4c-.3,2-1.1,3.6-2.5,4.8-1.3,1.1-2.9,1.7-4.9,1.7s-4.4-.8-5.8-2.4c-1.5-1.6-2.2-3.8-2.2-6.8s.3-3.6.9-5,1.6-2.5,2.9-3.2c1.3-.7,2.7-1.1,4.2-1.1s3.5.5,4.7,1.5c1.2,1,2,2.3,2.3,4.1l-2.9.4c-.3-1.2-.8-2.1-1.5-2.7-.7-.6-1.6-.9-2.5-.9-1.5,0-2.7.5-3.7,1.6-.9,1.1-1.4,2.8-1.4,5.1s.5,4.1,1.4,5.2c.9,1.1,2.1,1.6,3.6,1.6s2.2-.4,2.9-1.1c.8-.7,1.3-1.8,1.5-3.3Z"/>
      <path d="M165.1,64v-2.6c-1.4,2-3.2,3-5.6,3s-2-.2-2.9-.6c-.9-.4-1.6-.9-2-1.5-.4-.6-.7-1.3-.9-2.2-.1-.6-.2-1.5-.2-2.8v-10.9h3v9.8c0,1.6,0,2.6.2,3.2.2.8.6,1.4,1.2,1.9.6.4,1.4.7,2.3.7s1.7-.2,2.5-.7c.8-.5,1.3-1.1,1.7-1.9.3-.8.5-1.9.5-3.4v-9.4h3v17.6h-2.7Z"/>
      <path d="M171.2,58.7l3-.5c.2,1.2.6,2.1,1.4,2.7.8.6,1.8.9,3.2.9s2.4-.3,3.1-.8c.7-.6,1-1.2,1-2s-.3-1.2-.9-1.6c-.4-.3-1.4-.6-3.1-1-2.2-.6-3.7-1-4.6-1.4-.8-.4-1.5-1-1.9-1.7-.4-.7-.7-1.5-.7-2.4s.2-1.5.5-2.2c.4-.7.8-1.2,1.5-1.7.5-.3,1.1-.6,1.9-.9.8-.2,1.7-.4,2.6-.4,1.4,0,2.6.2,3.6.6,1,.4,1.8.9,2.3,1.6.5.7.8,1.6,1,2.7l-2.9.4c-.1-.9-.5-1.6-1.2-2.1-.6-.5-1.5-.8-2.7-.8s-2.4.2-2.9.7-.9,1-.9,1.6.1.7.4,1c.2.3.6.6,1.1.8.3.1,1.2.4,2.6.8,2.1.6,3.6,1,4.4,1.4.8.4,1.5.9,2,1.6s.7,1.5.7,2.6-.3,1.9-.9,2.8c-.6.9-1.4,1.6-2.5,2-1.1.5-2.3.7-3.7.7-2.3,0-4-.5-5.2-1.4-1.2-1-2-2.4-2.3-4.2Z"/>
      <path d="M188.2,58.7l3-.5c.2,1.2.6,2.1,1.4,2.7.8.6,1.8.9,3.2.9s2.4-.3,3.1-.8c.7-.6,1-1.2,1-2s-.3-1.2-.9-1.6c-.4-.3-1.4-.6-3.1-1-2.2-.6-3.7-1-4.6-1.4-.8-.4-1.5-1-1.9-1.7-.4-.7-.7-1.5-.7-2.4s.2-1.5.5-2.2c.4-.7.8-1.2,1.5-1.7.5-.3,1.1-.6,1.9-.9.8-.2,1.7-.4,2.6-.4,1.4,0,2.6.2,3.6.6,1,.4,1.8.9,2.3,1.6.5.7.8,1.6,1,2.7l-2.9.4c-.1-.9-.5-1.6-1.2-2.1-.6-.5-1.5-.8-2.7-.8s-2.4.2-2.9.7-.9,1-.9,1.6.1.7.4,1c.2.3.6.6,1.1.8.3.1,1.2.4,2.6.8,2.1.6,3.6,1,4.4,1.4.8.4,1.5.9,2,1.6s.7,1.5.7,2.6-.3,1.9-.9,2.8c-.6.9-1.4,1.6-2.5,2-1.1.5-2.3.7-3.7.7-2.3,0-4-.5-5.2-1.4-1.2-1-2-2.4-2.3-4.2Z"/>
      <path d="M213.6,64v-10.3l-9.4-14h3.9l4.8,7.3c.9,1.4,1.7,2.7,2.5,4.1.7-1.3,1.6-2.7,2.7-4.3l4.7-7.2h3.8l-9.7,14v10.3h-3.2Z"/>
      <path d="M224.9,55.2c0-3.3.9-5.7,2.7-7.3,1.5-1.3,3.4-2,5.5-2s4.4.8,5.9,2.4c1.5,1.6,2.3,3.8,2.3,6.6s-.3,4.1-1,5.4c-.7,1.3-1.7,2.3-3,3-1.3.7-2.7,1.1-4.3,1.1-2.5,0-4.5-.8-6-2.4-1.5-1.6-2.3-3.9-2.3-6.8ZM227.9,55.2c0,2.3.5,3.9,1.5,5.1,1,1.1,2.2,1.7,3.7,1.7s2.7-.6,3.7-1.7,1.5-2.8,1.5-5.2-.5-3.8-1.5-5c-1-1.1-2.2-1.7-3.7-1.7s-2.7.6-3.7,1.7-1.5,2.8-1.5,5.1Z"/>
      <path d="M256.4,64v-2.6c-1.4,2-3.2,3-5.6,3s-2-.2-2.9-.6c-.9-.4-1.6-.9-2-1.5-.4-.6-.7-1.3-.9-2.2-.1-.6-.2-1.5-.2-2.8v-10.9h3v9.8c0,1.6,0,2.6.2,3.2.2.8.6,1.4,1.2,1.9.6.4,1.4.7,2.3.7s1.7-.2,2.5-.7c.8-.5,1.3-1.1,1.7-1.9.3-.8.5-1.9.5-3.4v-9.4h3v17.6h-2.7Z"/>
      <path d="M263.8,64v-17.6h2.7v2.7c.7-1.3,1.3-2.1,1.9-2.5.6-.4,1.2-.6,1.9-.6,1,0,2,.3,3.1,1l-1,2.8c-.7-.4-1.5-.6-2.2-.6s-1.2.2-1.8.6c-.5.4-.9.9-1.1,1.6-.3,1.1-.5,2.2-.5,3.5v9.2h-3Z"/>
      <path d="M284.9,64v-24.3h3.3l12.8,19.1v-19.1h3.1v24.3h-3.3l-12.8-19.1v19.1h-3.1Z"/>
      <path d="M321.2,58.3l3.1.4c-.5,1.8-1.4,3.2-2.7,4.2s-3,1.5-5,1.5-4.6-.8-6.1-2.4c-1.5-1.6-2.3-3.8-2.3-6.7s.8-5.3,2.3-6.9,3.5-2.5,5.9-2.5,4.3.8,5.8,2.4,2.2,3.9,2.2,6.8,0,.4,0,.8h-13.1c.1,1.9.7,3.4,1.6,4.4s2.2,1.5,3.7,1.5,2-.3,2.8-.9,1.4-1.5,1.8-2.8ZM311.4,53.5h9.8c-.1-1.5-.5-2.6-1.1-3.3-1-1.2-2.2-1.7-3.7-1.7s-2.5.5-3.5,1.4c-.9.9-1.5,2.1-1.6,3.7Z"/>
      <path d="M326,64l6.4-9.2-6-8.5h3.7l2.7,4.1c.5.8.9,1.4,1.2,2,.5-.7.9-1.4,1.3-1.9l3-4.2h3.6l-6.1,8.3,6.6,9.3h-3.7l-3.6-5.5-1-1.5-4.6,7h-3.6Z"/>
      <path d="M351.5,61.3l.4,2.6c-.8.2-1.6.3-2.3.3-1.1,0-1.9-.2-2.5-.5s-1-.8-1.3-1.4c-.2-.6-.4-1.7-.4-3.5v-10.1h-2.2v-2.3h2.2v-4.4l3-1.8v6.2h3v2.3h-3v10.3c0,.9,0,1.4.2,1.6.1.2.3.4.5.6.2.1.6.2,1,.2s.8,0,1.3-.1Z"/>
      <path d="M364.3,64v-24.3h9.2c1.6,0,2.8,0,3.7.2,1.2.2,2.2.6,3,1.1.8.6,1.5,1.3,2,2.3.5,1,.7,2.1.7,3.3,0,2.1-.7,3.8-2,5.3-1.3,1.4-3.7,2.2-7.1,2.2h-6.2v9.9h-3.2ZM367.5,51.2h6.3c2.1,0,3.6-.4,4.4-1.2s1.3-1.9,1.3-3.3-.3-1.9-.8-2.6c-.5-.7-1.2-1.2-2-1.4-.5-.1-1.5-.2-3-.2h-6.2v8.7Z"/>
      <path d="M386.6,64v-17.6h2.7v2.7c.7-1.3,1.3-2.1,1.9-2.5.6-.4,1.2-.6,1.9-.6,1,0,2,.3,3.1,1l-1,2.8c-.7-.4-1.5-.6-2.2-.6s-1.2.2-1.8.6c-.5.4-.9.9-1.1,1.6-.3,1.1-.5,2.2-.5,3.5v9.2h-3Z"/>
      <path d="M396.8,55.2c0-3.3.9-5.7,2.7-7.3,1.5-1.3,3.4-2,5.5-2s4.4.8,5.9,2.4c1.5,1.6,2.3,3.8,2.3,6.6s-.3,4.1-1,5.4c-.7,1.3-1.7,2.3-3,3-1.3.7-2.7,1.1-4.3,1.1-2.5,0-4.5-.8-6-2.4-1.5-1.6-2.3-3.9-2.3-6.8ZM399.9,55.2c0,2.3.5,3.9,1.5,5.1,1,1.1,2.2,1.7,3.7,1.7s2.7-.6,3.7-1.7,1.5-2.8,1.5-5.2-.5-3.8-1.5-5c-1-1.1-2.2-1.7-3.7-1.7s-2.7.6-3.7,1.7-1.5,2.8-1.5,5.1Z"/>
      <path d="M413,70.8l.6-2.5c.6.2,1.1.2,1.4.2.6,0,1.1-.2,1.4-.6.3-.4.4-1.4.4-3v-18.5h3v18.6c0,2.2-.3,3.7-.8,4.5-.7,1.1-1.9,1.7-3.6,1.7s-1.6-.1-2.3-.3ZM416.8,43.1v-3.5h3v3.5h-3Z"/>
      <path d="M436.4,58.3l3.1.4c-.5,1.8-1.4,3.2-2.7,4.2s-3,1.5-5,1.5-4.6-.8-6.1-2.4c-1.5-1.6-2.3-3.8-2.3-6.7s.8-5.3,2.3-6.9,3.5-2.5,5.9-2.5,4.3.8,5.8,2.4,2.2,3.9,2.2,6.8,0,.4,0,.8h-13.1c.1,1.9.7,3.4,1.6,4.4s2.2,1.5,3.7,1.5,2-.3,2.8-.9,1.4-1.5,1.8-2.8ZM426.6,53.5h9.8c-.1-1.5-.5-2.6-1.1-3.3-1-1.2-2.2-1.7-3.7-1.7s-2.5.5-3.5,1.4c-.9.9-1.5,2.1-1.6,3.7Z"/>
      <path d="M454.8,57.5l2.9.4c-.3,2-1.1,3.6-2.5,4.8-1.3,1.1-2.9,1.7-4.9,1.7s-4.4-.8-5.8-2.4c-1.5-1.6-2.2-3.8-2.2-6.8s.3-3.6.9-5,1.6-2.5,2.9-3.2c1.3-.7,2.7-1.1,4.2-1.1s3.5.5,4.7,1.5c1.2,1,2,2.3,2.3,4.1l-2.9.4c-.3-1.2-.8-2.1-1.5-2.7-.7-.6-1.6-.9-2.5-.9-1.5,0-2.7.5-3.7,1.6-.9,1.1-1.4,2.8-1.4,5.1s.5,4.1,1.4,5.2,2.1,1.6,3.6,1.6,2.2-.4,2.9-1.1,1.3-1.8,1.5-3.3Z"/>
      <path d="M466.8,61.3l.4,2.6c-.8.2-1.6.3-2.3.3-1.1,0-1.9-.2-2.5-.5s-1-.8-1.3-1.4c-.2-.6-.4-1.7-.4-3.5v-10.1h-2.2v-2.3h2.2v-4.4l3-1.8v6.2h3v2.3h-3v10.3c0,.9,0,1.4.2,1.6.1.2.3.4.5.6.2.1.6.2,1,.2s.8,0,1.3-.1Z"/>
      <path d="M471.3,58l-.9-12.9v-5.4h3.7v5.4l-.9,12.9h-1.9ZM470.5,64v-3.4h3.4v3.4h-3.4Z"/>
    </g>
    <g class="st0">
      <path class="st2" d="M7,64v-24.3h3.2v21.5h12v2.9H7Z"/>
      <path class="st2" d="M37.7,58.3l3.1.4c-.5,1.8-1.4,3.2-2.7,4.2-1.3,1-3,1.5-5,1.5s-4.6-.8-6.1-2.4c-1.5-1.6-2.3-3.8-2.3-6.7s.8-5.3,2.3-6.9,3.5-2.5,5.9-2.5,4.3.8,5.8,2.4,2.2,3.9,2.2,6.8,0,.4,0,.8h-13.1c.1,1.9.7,3.4,1.6,4.4,1,1,2.2,1.5,3.7,1.5s2-.3,2.8-.9c.8-.6,1.4-1.5,1.8-2.8ZM27.9,53.5h9.8c-.1-1.5-.5-2.6-1.1-3.3-1-1.2-2.2-1.7-3.7-1.7s-2.5.5-3.5,1.4c-.9.9-1.5,2.1-1.6,3.7Z"/>
      <path class="st2" d="M51.1,61.3l.4,2.6c-.8.2-1.6.3-2.3.3-1.1,0-1.9-.2-2.5-.5s-1-.8-1.3-1.4c-.2-.6-.4-1.7-.4-3.5v-10.1h-2.2v-2.3h2.2v-4.4l3-1.8v6.2h3v2.3h-3v10.3c0,.9,0,1.4.2,1.6.1.2.3.4.5.6.2.1.6.2,1,.2s.8,0,1.3-.1Z"/>
      <path class="st2" d="M53.8,42.9v-3.5h3.2v2.7c0,1.5-.2,2.6-.5,3.2-.5.9-1.2,1.6-2.2,2l-.7-1.2c.6-.2,1-.6,1.3-1.2.3-.5.5-1.2.5-2.2h-1.6Z"/>
      <path class="st2" d="M59.8,58.7l3-.5c.2,1.2.6,2.1,1.4,2.7.8.6,1.8.9,3.2.9s2.4-.3,3.1-.8c.7-.6,1-1.2,1-2s-.3-1.2-.9-1.6c-.4-.3-1.4-.6-3.1-1-2.2-.6-3.7-1-4.6-1.4-.8-.4-1.5-1-1.9-1.7-.4-.7-.7-1.5-.7-2.4s.2-1.5.5-2.2c.4-.7.8-1.2,1.5-1.7.5-.3,1.1-.6,1.9-.9.8-.2,1.7-.4,2.6-.4,1.4,0,2.6.2,3.6.6s1.8.9,2.3,1.6c.5.7.8,1.6,1,2.7l-2.9.4c-.1-.9-.5-1.6-1.2-2.1-.6-.5-1.5-.8-2.7-.8s-2.4.2-2.9.7c-.6.5-.9,1-.9,1.6s.1.7.4,1c.2.3.6.6,1.1.8.3.1,1.2.4,2.6.8,2.1.6,3.6,1,4.4,1.4.8.4,1.5.9,2,1.6.5.7.7,1.5.7,2.6s-.3,1.9-.9,2.8c-.6.9-1.4,1.6-2.5,2-1.1.5-2.3.7-3.7.7-2.3,0-4-.5-5.2-1.4-1.2-1-2-2.4-2.3-4.2Z"/>
      <path class="st2" d="M87.8,64v-24.3h8.4c1.9,0,3.3.1,4.3.3,1.4.3,2.6.9,3.6,1.7,1.3,1.1,2.2,2.5,2.9,4.2.6,1.7,1,3.6,1,5.8s-.2,3.5-.6,4.9-1,2.6-1.7,3.5c-.7.9-1.4,1.7-2.2,2.2-.8.5-1.8.9-2.9,1.2-1.1.3-2.4.4-3.9.4h-8.8ZM91,61.1h5.2c1.6,0,2.9-.1,3.8-.4s1.6-.7,2.2-1.3c.8-.8,1.4-1.8,1.8-3.1.4-1.3.6-2.9.6-4.7s-.4-4.5-1.3-5.9c-.8-1.4-1.9-2.3-3-2.7-.9-.3-2.3-.5-4.2-.5h-5.1v18.6Z"/>
      <path class="st2" d="M112,43.1v-3.4h3v3.4h-3ZM112,64v-17.6h3v17.6h-3Z"/>
      <path class="st2" d="M118.3,58.7l3-.5c.2,1.2.6,2.1,1.4,2.7.8.6,1.8.9,3.2.9s2.4-.3,3.1-.8c.7-.6,1-1.2,1-2s-.3-1.2-.9-1.6c-.4-.3-1.4-.6-3.1-1-2.2-.6-3.7-1-4.6-1.4-.8-.4-1.5-1-1.9-1.7-.4-.7-.7-1.5-.7-2.4s.2-1.5.5-2.2c.4-.7.8-1.2,1.5-1.7.5-.3,1.1-.6,1.9-.9.8-.2,1.7-.4,2.6-.4,1.4,0,2.6.2,3.6.6s1.8.9,2.3,1.6c.5.7.8,1.6,1,2.7l-2.9.4c-.1-.9-.5-1.6-1.2-2.1-.6-.5-1.5-.8-2.7-.8s-2.4.2-2.9.7c-.6.5-.9,1-.9,1.6s.1.7.4,1c.2.3.6.6,1.1.8.3.1,1.2.4,2.6.8,2.1.6,3.6,1,4.4,1.4.8.4,1.5.9,2,1.6.5.7.7,1.5.7,2.6s-.3,1.9-.9,2.8c-.6.9-1.4,1.6-2.5,2-1.1.5-2.3.7-3.7.7-2.3,0-4-.5-5.2-1.4-1.2-1-2-2.4-2.3-4.2Z"/>
      <path class="st2" d="M148,57.5l2.9.4c-.3,2-1.1,3.6-2.5,4.8-1.3,1.1-2.9,1.7-4.9,1.7s-4.4-.8-5.8-2.4c-1.5-1.6-2.2-3.8-2.2-6.8s.3-3.6.9-5,1.6-2.5,2.9-3.2c1.3-.7,2.7-1.1,4.2-1.1s3.5.5,4.7,1.5c1.2,1,2,2.3,2.3,4.1l-2.9.4c-.3-1.2-.8-2.1-1.5-2.7-.7-.6-1.6-.9-2.5-.9-1.5,0-2.7.5-3.7,1.6-.9,1.1-1.4,2.8-1.4,5.1s.5,4.1,1.4,5.2c.9,1.1,2.1,1.6,3.6,1.6s2.2-.4,2.9-1.1c.8-.7,1.3-1.8,1.5-3.3Z"/>
      <path class="st2" d="M165.1,64v-2.6c-1.4,2-3.2,3-5.6,3s-2-.2-2.9-.6c-.9-.4-1.6-.9-2-1.5-.4-.6-.7-1.3-.9-2.2-.1-.6-.2-1.5-.2-2.8v-10.9h3v9.8c0,1.6,0,2.6.2,3.2.2.8.6,1.4,1.2,1.9.6.4,1.4.7,2.3.7s1.7-.2,2.5-.7c.8-.5,1.3-1.1,1.7-1.9.3-.8.5-1.9.5-3.4v-9.4h3v17.6h-2.7Z"/>
      <path class="st2" d="M171.2,58.7l3-.5c.2,1.2.6,2.1,1.4,2.7.8.6,1.8.9,3.2.9s2.4-.3,3.1-.8c.7-.6,1-1.2,1-2s-.3-1.2-.9-1.6c-.4-.3-1.4-.6-3.1-1-2.2-.6-3.7-1-4.6-1.4-.8-.4-1.5-1-1.9-1.7-.4-.7-.7-1.5-.7-2.4s.2-1.5.5-2.2c.4-.7.8-1.2,1.5-1.7.5-.3,1.1-.6,1.9-.9.8-.2,1.7-.4,2.6-.4,1.4,0,2.6.2,3.6.6,1,.4,1.8.9,2.3,1.6.5.7.8,1.6,1,2.7l-2.9.4c-.1-.9-.5-1.6-1.2-2.1-.6-.5-1.5-.8-2.7-.8s-2.4.2-2.9.7-.9,1-.9,1.6.1.7.4,1c.2.3.6.6,1.1.8.3.1,1.2.4,2.6.8,2.1.6,3.6,1,4.4,1.4.8.4,1.5.9,2,1.6s.7,1.5.7,2.6-.3,1.9-.9,2.8c-.6.9-1.4,1.6-2.5,2-1.1.5-2.3.7-3.7.7-2.3,0-4-.5-5.2-1.4-1.2-1-2-2.4-2.3-4.2Z"/>
      <path class="st2" d="M188.2,58.7l3-.5c.2,1.2.6,2.1,1.4,2.7.8.6,1.8.9,3.2.9s2.4-.3,3.1-.8c.7-.6,1-1.2,1-2s-.3-1.2-.9-1.6c-.4-.3-1.4-.6-3.1-1-2.2-.6-3.7-1-4.6-1.4-.8-.4-1.5-1-1.9-1.7-.4-.7-.7-1.5-.7-2.4s.2-1.5.5-2.2c.4-.7.8-1.2,1.5-1.7.5-.3,1.1-.6,1.9-.9.8-.2,1.7-.4,2.6-.4,1.4,0,2.6.2,3.6.6,1,.4,1.8.9,2.3,1.6.5.7.8,1.6,1,2.7l-2.9.4c-.1-.9-.5-1.6-1.2-2.1-.6-.5-1.5-.8-2.7-.8s-2.4.2-2.9.7-.9,1-.9,1.6.1.7.4,1c.2.3.6.6,1.1.8.3.1,1.2.4,2.6.8,2.1.6,3.6,1,4.4,1.4.8.4,1.5.9,2,1.6s.7,1.5.7,2.6-.3,1.9-.9,2.8c-.6.9-1.4,1.6-2.5,2-1.1.5-2.3.7-3.7.7-2.3,0-4-.5-5.2-1.4-1.2-1-2-2.4-2.3-4.2Z"/>
      <path class="st2" d="M213.6,64v-10.3l-9.4-14h3.9l4.8,7.3c.9,1.4,1.7,2.7,2.5,4.1.7-1.3,1.6-2.7,2.7-4.3l4.7-7.2h3.8l-9.7,14v10.3h-3.2Z"/>
      <path class="st2" d="M224.9,55.2c0-3.3.9-5.7,2.7-7.3,1.5-1.3,3.4-2,5.5-2s4.4.8,5.9,2.4c1.5,1.6,2.3,3.8,2.3,6.6s-.3,4.1-1,5.4c-.7,1.3-1.7,2.3-3,3-1.3.7-2.7,1.1-4.3,1.1-2.5,0-4.5-.8-6-2.4-1.5-1.6-2.3-3.9-2.3-6.8ZM227.9,55.2c0,2.3.5,3.9,1.5,5.1,1,1.1,2.2,1.7,3.7,1.7s2.7-.6,3.7-1.7,1.5-2.8,1.5-5.2-.5-3.8-1.5-5c-1-1.1-2.2-1.7-3.7-1.7s-2.7.6-3.7,1.7-1.5,2.8-1.5,5.1Z"/>
      <path class="st2" d="M256.4,64v-2.6c-1.4,2-3.2,3-5.6,3s-2-.2-2.9-.6c-.9-.4-1.6-.9-2-1.5-.4-.6-.7-1.3-.9-2.2-.1-.6-.2-1.5-.2-2.8v-10.9h3v9.8c0,1.6,0,2.6.2,3.2.2.8.6,1.4,1.2,1.9.6.4,1.4.7,2.3.7s1.7-.2,2.5-.7c.8-.5,1.3-1.1,1.7-1.9.3-.8.5-1.9.5-3.4v-9.4h3v17.6h-2.7Z"/>
      <path class="st2" d="M263.8,64v-17.6h2.7v2.7c.7-1.3,1.3-2.1,1.9-2.5.6-.4,1.2-.6,1.9-.6,1,0,2,.3,3.1,1l-1,2.8c-.7-.4-1.5-.6-2.2-.6s-1.2.2-1.8.6c-.5.4-.9.9-1.1,1.6-.3,1.1-.5,2.2-.5,3.5v9.2h-3Z"/>
      <path class="st2" d="M284.9,64v-24.3h3.3l12.8,19.1v-19.1h3.1v24.3h-3.3l-12.8-19.1v19.1h-3.1Z"/>
      <path class="st2" d="M321.2,58.3l3.1.4c-.5,1.8-1.4,3.2-2.7,4.2s-3,1.5-5,1.5-4.6-.8-6.1-2.4c-1.5-1.6-2.3-3.8-2.3-6.7s.8-5.3,2.3-6.9,3.5-2.5,5.9-2.5,4.3.8,5.8,2.4,2.2,3.9,2.2,6.8,0,.4,0,.8h-13.1c.1,1.9.7,3.4,1.6,4.4s2.2,1.5,3.7,1.5,2-.3,2.8-.9,1.4-1.5,1.8-2.8ZM311.4,53.5h9.8c-.1-1.5-.5-2.6-1.1-3.3-1-1.2-2.2-1.7-3.7-1.7s-2.5.5-3.5,1.4c-.9.9-1.5,2.1-1.6,3.7Z"/>
      <path class="st2" d="M326,64l6.4-9.2-6-8.5h3.7l2.7,4.1c.5.8.9,1.4,1.2,2,.5-.7.9-1.4,1.3-1.9l3-4.2h3.6l-6.1,8.3,6.6,9.3h-3.7l-3.6-5.5-1-1.5-4.6,7h-3.6Z"/>
      <path class="st2" d="M351.5,61.3l.4,2.6c-.8.2-1.6.3-2.3.3-1.1,0-1.9-.2-2.5-.5s-1-.8-1.3-1.4c-.2-.6-.4-1.7-.4-3.5v-10.1h-2.2v-2.3h2.2v-4.4l3-1.8v6.2h3v2.3h-3v10.3c0,.9,0,1.4.2,1.6.1.2.3.4.5.6.2.1.6.2,1,.2s.8,0,1.3-.1Z"/>
      <path class="st2" d="M364.3,64v-24.3h9.2c1.6,0,2.8,0,3.7.2,1.2.2,2.2.6,3,1.1.8.6,1.5,1.3,2,2.3.5,1,.7,2.1.7,3.3,0,2.1-.7,3.8-2,5.3-1.3,1.4-3.7,2.2-7.1,2.2h-6.2v9.9h-3.2ZM367.5,51.2h6.3c2.1,0,3.6-.4,4.4-1.2s1.3-1.9,1.3-3.3-.3-1.9-.8-2.6c-.5-.7-1.2-1.2-2-1.4-.5-.1-1.5-.2-3-.2h-6.2v8.7Z"/>
      <path class="st2" d="M386.6,64v-17.6h2.7v2.7c.7-1.3,1.3-2.1,1.9-2.5.6-.4,1.2-.6,1.9-.6,1,0,2,.3,3.1,1l-1,2.8c-.7-.4-1.5-.6-2.2-.6s-1.2.2-1.8.6c-.5.4-.9.9-1.1,1.6-.3,1.1-.5,2.2-.5,3.5v9.2h-3Z"/>
      <path class="st2" d="M396.8,55.2c0-3.3.9-5.7,2.7-7.3,1.5-1.3,3.4-2,5.5-2s4.4.8,5.9,2.4c1.5,1.6,2.3,3.8,2.3,6.6s-.3,4.1-1,5.4c-.7,1.3-1.7,2.3-3,3-1.3.7-2.7,1.1-4.3,1.1-2.5,0-4.5-.8-6-2.4-1.5-1.6-2.3-3.9-2.3-6.8ZM399.9,55.2c0,2.3.5,3.9,1.5,5.1,1,1.1,2.2,1.7,3.7,1.7s2.7-.6,3.7-1.7,1.5-2.8,1.5-5.2-.5-3.8-1.5-5c-1-1.1-2.2-1.7-3.7-1.7s-2.7.6-3.7,1.7-1.5,2.8-1.5,5.1Z"/>
      <path class="st2" d="M413,70.8l.6-2.5c.6.2,1.1.2,1.4.2.6,0,1.1-.2,1.4-.6.3-.4.4-1.4.4-3v-18.5h3v18.6c0,2.2-.3,3.7-.8,4.5-.7,1.1-1.9,1.7-3.6,1.7s-1.6-.1-2.3-.3ZM416.8,43.1v-3.5h3v3.5h-3Z"/>
      <path class="st2" d="M436.4,58.3l3.1.4c-.5,1.8-1.4,3.2-2.7,4.2s-3,1.5-5,1.5-4.6-.8-6.1-2.4c-1.5-1.6-2.3-3.8-2.3-6.7s.8-5.3,2.3-6.9,3.5-2.5,5.9-2.5,4.3.8,5.8,2.4,2.2,3.9,2.2,6.8,0,.4,0,.8h-13.1c.1,1.9.7,3.4,1.6,4.4s2.2,1.5,3.7,1.5,2-.3,2.8-.9,1.4-1.5,1.8-2.8ZM426.6,53.5h9.8c-.1-1.5-.5-2.6-1.1-3.3-1-1.2-2.2-1.7-3.7-1.7s-2.5.5-3.5,1.4c-.9.9-1.5,2.1-1.6,3.7Z"/>
      <path class="st2" d="M454.8,57.5l2.9.4c-.3,2-1.1,3.6-2.5,4.8-1.3,1.1-2.9,1.7-4.9,1.7s-4.4-.8-5.8-2.4c-1.5-1.6-2.2-3.8-2.2-6.8s.3-3.6.9-5,1.6-2.5,2.9-3.2c1.3-.7,2.7-1.1,4.2-1.1s3.5.5,4.7,1.5c1.2,1,2,2.3,2.3,4.1l-2.9.4c-.3-1.2-.8-2.1-1.5-2.7-.7-.6-1.6-.9-2.5-.9-1.5,0-2.7.5-3.7,1.6-.9,1.1-1.4,2.8-1.4,5.1s.5,4.1,1.4,5.2,2.1,1.6,3.6,1.6,2.2-.4,2.9-1.1,1.3-1.8,1.5-3.3Z"/>
      <path class="st2" d="M466.8,61.3l.4,2.6c-.8.2-1.6.3-2.3.3-1.1,0-1.9-.2-2.5-.5s-1-.8-1.3-1.4c-.2-.6-.4-1.7-.4-3.5v-10.1h-2.2v-2.3h2.2v-4.4l3-1.8v6.2h3v2.3h-3v10.3c0,.9,0,1.4.2,1.6.1.2.3.4.5.6.2.1.6.2,1,.2s.8,0,1.3-.1Z"/>
      <path class="st2" d="M471.3,58l-.9-12.9v-5.4h3.7v5.4l-.9,12.9h-1.9ZM470.5,64v-3.4h3.4v3.4h-3.4Z"/>
    </g>
    <g class="st0">
      <path d="M6.7,133.6v-17.2h2.3v17.2h-2.3Z"/>
      <path d="M12.8,133.6v-12.4h1.9v1.8c.9-1.4,2.2-2.1,4-2.1s1.4.1,2.1.4,1.1.6,1.4,1.1.5,1,.7,1.6c0,.4.1,1.1.1,2.1v7.7h-2.1v-7.6c0-.9,0-1.5-.2-1.9s-.5-.8-.9-1-.9-.4-1.5-.4c-.9,0-1.7.3-2.3.9s-1,1.7-1,3.2v6.8h-2.1Z"/>
      <path d="M34,138.4v-6.1c-.3.5-.8.8-1.4,1.1s-1.2.5-1.9.5c-1.5,0-2.7-.6-3.8-1.8s-1.6-2.8-1.6-4.9.2-2.4.7-3.4,1.1-1.7,1.9-2.3,1.7-.8,2.7-.8c1.5,0,2.8.6,3.6,1.9v-1.7h1.9v17.2h-2.1ZM27.5,127.3c0,1.6.3,2.8,1,3.6s1.5,1.2,2.4,1.2,1.7-.4,2.3-1.1,1-1.9,1-3.5-.3-2.9-1-3.7-1.5-1.3-2.4-1.3-1.7.4-2.3,1.2-1,2-1,3.6Z"/>
      <path d="M47.6,133.6v-1.8c-1,1.4-2.3,2.1-3.9,2.1s-1.4-.1-2.1-.4-1.1-.6-1.4-1.1-.5-.9-.7-1.6c0-.4-.1-1.1-.1-2v-7.7h2.1v6.9c0,1.1,0,1.8.1,2.2.1.6.4,1,.8,1.3s1,.5,1.6.5,1.2-.2,1.8-.5.9-.8,1.2-1.3.3-1.4.3-2.4v-6.7h2.1v12.4h-1.9Z"/>
      <path d="M52.8,118.8v-2.4h2.1v2.4h-2.1ZM52.8,133.6v-12.4h2.1v12.4h-2.1Z"/>
      <path d="M58.1,133.6v-12.4h1.9v1.9c.5-.9.9-1.5,1.3-1.7s.9-.4,1.4-.4c.7,0,1.4.2,2.2.7l-.7,2c-.5-.3-1-.5-1.5-.5s-.9.1-1.2.4-.6.7-.8,1.2c-.2.8-.4,1.6-.4,2.5v6.5h-2.1Z"/>
      <path d="M66.1,118.8v-2.4h2.1v2.4h-2.1ZM66.1,133.6v-12.4h2.1v12.4h-2.1Z"/>
      <path d="M80,129.6l2.2.3c-.3,1.3-1,2.3-1.9,3s-2.1,1.1-3.6,1.1-3.3-.6-4.3-1.7-1.6-2.7-1.6-4.7.5-3.7,1.6-4.9,2.5-1.7,4.2-1.7,3,.6,4.1,1.7,1.6,2.7,1.6,4.8,0,.3,0,.6h-9.3c0,1.4.5,2.4,1.2,3.1s1.6,1.1,2.6,1.1,1.4-.2,2-.6,1-1.1,1.3-1.9ZM73,126.2h6.9c0-1-.4-1.8-.8-2.4-.7-.8-1.5-1.2-2.6-1.2s-1.8.3-2.4,1-1,1.5-1.1,2.6Z"/>
      <path d="M84,129.9l2.1-.3c.1.8.4,1.5,1,1.9s1.3.7,2.2.7,1.7-.2,2.2-.6.7-.9.7-1.4-.2-.9-.6-1.1c-.3-.2-1-.4-2.2-.7-1.5-.4-2.6-.7-3.2-1s-1.1-.7-1.4-1.2-.5-1.1-.5-1.7.1-1.1.4-1.5.6-.9,1-1.2c.3-.2.8-.4,1.3-.6s1.2-.3,1.8-.3c1,0,1.8.1,2.6.4s1.3.7,1.6,1.1.6,1.1.7,1.9l-2.1.3c0-.6-.4-1.1-.8-1.5s-1.1-.5-1.9-.5-1.7.2-2.1.5-.6.7-.6,1.1,0,.5.3.7c.2.2.4.4.8.6.2,0,.8.3,1.9.5,1.5.4,2.5.7,3.1,1s1.1.6,1.4,1.1.5,1.1.5,1.8-.2,1.4-.6,2-1,1.1-1.8,1.4-1.6.5-2.6.5c-1.6,0-2.8-.3-3.7-1s-1.4-1.7-1.6-3Z"/>
      <path d="M97.4,123.6v-2.4h2.4v2.4h-2.4ZM97.4,133.6v-2.4h2.4v2.4h-2.4Z"/>
      <path d="M110.4,133.6v-17.2h7.6c1.5,0,2.7.2,3.5.5s1.4.9,1.9,1.6.7,1.6.7,2.6-.4,2.2-1.2,3.1-2,1.4-3.7,1.6c.6.3,1.1.6,1.4.9.7.6,1.3,1.4,1.9,2.3l3,4.7h-2.9l-2.3-3.6c-.7-1-1.2-1.8-1.6-2.4s-.8-.9-1.2-1.1-.7-.4-1-.5c-.3,0-.7,0-1.3,0h-2.6v7.6h-2.3ZM112.7,124h4.9c1,0,1.9-.1,2.4-.3s1-.6,1.3-1,.5-1,.5-1.5c0-.8-.3-1.5-.9-2s-1.5-.8-2.8-.8h-5.4v5.7Z"/>
      <path d="M127.7,133.6v-17.2h5.9c1.3,0,2.4,0,3.1.2,1,.2,1.8.6,2.5,1.2.9.8,1.6,1.7,2,2.9s.7,2.6.7,4.1-.2,2.5-.5,3.5-.7,1.8-1.2,2.5-1,1.2-1.6,1.6-1.2.7-2.1.9-1.7.3-2.8.3h-6.2ZM130,131.6h3.7c1.1,0,2-.1,2.7-.3s1.2-.5,1.5-.9,1-1.3,1.3-2.2.5-2,.5-3.3-.3-3.2-.9-4.1-1.3-1.6-2.2-1.9c-.6-.2-1.6-.4-2.9-.4h-3.6v13.1Z"/>
      <path d="M153.3,129.6l2.2.3c-.3,1.3-1,2.3-1.9,3s-2.1,1.1-3.6,1.1-3.3-.6-4.3-1.7-1.6-2.7-1.6-4.7.5-3.7,1.6-4.9,2.5-1.7,4.2-1.7,3,.6,4.1,1.7,1.6,2.7,1.6,4.8,0,.3,0,.6h-9.3c0,1.4.5,2.4,1.2,3.1s1.6,1.1,2.6,1.1,1.4-.2,2-.6,1-1.1,1.3-1.9ZM146.4,126.2h6.9c0-1-.4-1.8-.8-2.4-.7-.8-1.5-1.2-2.6-1.2s-1.8.3-2.4,1-1,1.5-1.1,2.6Z"/>
      <path d="M166.3,132.1c-.8.7-1.5,1.1-2.3,1.4s-1.5.4-2.3.4c-1.4,0-2.4-.3-3.2-1s-1.1-1.5-1.1-2.6.1-1.2.4-1.7.6-.9,1.1-1.2,1-.5,1.5-.7c.4-.1,1-.2,1.9-.3,1.7-.2,3-.4,3.8-.7,0-.3,0-.5,0-.6,0-.9-.2-1.5-.6-1.8-.5-.5-1.3-.7-2.4-.7s-1.7.2-2.2.5-.8,1-1,1.8l-2.1-.3c.2-.9.5-1.6.9-2.1s1.1-1,1.9-1.3,1.8-.4,2.8-.4,1.9.1,2.6.4,1.2.6,1.5.9.5.9.7,1.4c0,.4.1,1,.1,1.9v2.8c0,2,0,3.2.1,3.7s.3,1,.5,1.5h-2.2c-.2-.4-.4-.9-.4-1.5ZM166.1,127.4c-.8.3-1.9.6-3.4.8-.9.1-1.5.3-1.8.4s-.6.4-.8.7-.3.6-.3,1c0,.6.2,1,.6,1.4s1,.6,1.9.6,1.5-.2,2.2-.5,1.1-.8,1.4-1.5c.2-.5.3-1.2.3-2.1v-.8Z"/>
      <path d="M171.5,133.6v-17.2h2.1v9.8l5-5.1h2.7l-4.8,4.6,5.2,7.8h-2.6l-4.1-6.4-1.5,1.4v4.9h-2.1Z"/>
      <path d="M183.5,118.8v-2.4h2.1v2.4h-2.1ZM183.5,133.6v-12.4h2.1v12.4h-2.1Z"/>
      <path d="M188.8,133.6v-12.4h1.9v1.8c.9-1.4,2.2-2.1,4-2.1s1.4.1,2.1.4,1.1.6,1.4,1.1.5,1,.7,1.6c0,.4.1,1.1.1,2.1v7.7h-2.1v-7.6c0-.9,0-1.5-.2-1.9s-.5-.8-.9-1-.9-.4-1.5-.4c-.9,0-1.7.3-2.3.9s-1,1.7-1,3.2v6.8h-2.1Z"/>
      <path d="M201.3,129.9l2.1-.3c.1.8.4,1.5,1,1.9s1.3.7,2.2.7,1.7-.2,2.2-.6.7-.9.7-1.4-.2-.9-.6-1.1c-.3-.2-1-.4-2.2-.7-1.5-.4-2.6-.7-3.2-1s-1.1-.7-1.4-1.2-.5-1.1-.5-1.7.1-1.1.4-1.5.6-.9,1-1.2c.3-.2.8-.4,1.3-.6s1.2-.3,1.8-.3c1,0,1.8.1,2.6.4s1.3.7,1.6,1.1.6,1.1.7,1.9l-2.1.3c0-.6-.4-1.1-.8-1.5s-1.1-.5-1.9-.5-1.7.2-2.1.5-.6.7-.6,1.1,0,.5.3.7c.2.2.4.4.8.6.2,0,.8.3,1.9.5,1.5.4,2.5.7,3.1,1s1.1.6,1.4,1.1.5,1.1.5,1.8-.2,1.4-.6,2-1,1.1-1.8,1.4-1.6.5-2.6.5c-1.6,0-2.8-.3-3.7-1s-1.4-1.7-1.6-3Z"/>
      <path d="M226.7,127.6l2.3.6c-.5,1.9-1.3,3.3-2.6,4.3s-2.8,1.5-4.5,1.5-3.4-.4-4.5-1.1-2-1.8-2.6-3.3-.9-3-.9-4.6.3-3.3,1-4.7,1.7-2.3,2.9-3,2.7-1,4.2-1,3.2.4,4.3,1.3,2,2.1,2.4,3.7l-2.2.5c-.4-1.2-1-2.2-1.7-2.7s-1.7-.9-2.9-.9-2.4.3-3.3.9-1.5,1.5-1.9,2.5-.5,2.2-.5,3.3.2,2.7.6,3.8,1.1,1.9,2,2.4,1.9.8,2.9.8,2.4-.4,3.2-1.1,1.5-1.8,1.8-3.3Z"/>
      <path d="M230.7,127.4c0-2.3.6-4,1.9-5.1,1.1-.9,2.4-1.4,3.9-1.4s3.1.6,4.2,1.7,1.6,2.7,1.6,4.6-.2,2.9-.7,3.8-1.2,1.6-2.1,2.1-1.9.8-3,.8c-1.7,0-3.2-.6-4.2-1.7s-1.6-2.7-1.6-4.8ZM232.9,127.4c0,1.6.3,2.8,1,3.6s1.6,1.2,2.6,1.2,1.9-.4,2.6-1.2,1-2,1-3.6-.3-2.7-1-3.5-1.6-1.2-2.6-1.2-1.9.4-2.6,1.2-1,2-1,3.6Z"/>
      <path d="M244.9,133.6v-12.4h1.9v1.8c.9-1.4,2.2-2.1,4-2.1s1.4.1,2.1.4,1.1.6,1.4,1.1.5,1,.7,1.6c0,.4.1,1.1.1,2.1v7.7h-2.1v-7.6c0-.9,0-1.5-.2-1.9s-.5-.8-.9-1-.9-.4-1.5-.4c-.9,0-1.7.3-2.3.9s-1,1.7-1,3.2v6.8h-2.1Z"/>
      <path d="M257.4,129.9l2.1-.3c.1.8.4,1.5,1,1.9s1.3.7,2.2.7,1.7-.2,2.2-.6.7-.9.7-1.4-.2-.9-.6-1.1c-.3-.2-1-.4-2.2-.7-1.5-.4-2.6-.7-3.2-1s-1.1-.7-1.4-1.2-.5-1.1-.5-1.7.1-1.1.4-1.5.6-.9,1-1.2c.3-.2.8-.4,1.3-.6s1.2-.3,1.8-.3c1,0,1.8.1,2.6.4s1.3.7,1.6,1.1.6,1.1.7,1.9l-2.1.3c0-.6-.4-1.1-.8-1.5s-1.1-.5-1.9-.5-1.7.2-2.1.5-.6.7-.6,1.1,0,.5.3.7c.2.2.4.4.8.6.2,0,.8.3,1.9.5,1.5.4,2.5.7,3.1,1s1.1.6,1.4,1.1.5,1.1.5,1.8-.2,1.4-.6,2-1,1.1-1.8,1.4-1.6.5-2.6.5c-1.6,0-2.8-.3-3.7-1s-1.4-1.7-1.6-3Z"/>
      <path d="M278.4,133.6v-1.8c-1,1.4-2.3,2.1-3.9,2.1s-1.4-.1-2.1-.4-1.1-.6-1.4-1.1-.5-.9-.7-1.6c0-.4-.1-1.1-.1-2v-7.7h2.1v6.9c0,1.1,0,1.8.1,2.2.1.6.4,1,.8,1.3s1,.5,1.6.5,1.2-.2,1.8-.5.9-.8,1.2-1.3.3-1.4.3-2.4v-6.7h2.1v12.4h-1.9Z"/>
      <path d="M283.5,133.6v-17.2h2.1v17.2h-2.1Z"/>
      <path d="M293.5,131.7l.3,1.9c-.6.1-1.1.2-1.6.2-.8,0-1.4-.1-1.8-.4s-.7-.6-.9-1-.3-1.2-.3-2.5v-7.2h-1.5v-1.6h1.5v-3.1l2.1-1.3v4.3h2.1v1.6h-2.1v7.3c0,.6,0,1,.1,1.2s.2.3.4.4.4.2.7.2.5,0,.9,0Z"/>
      <path d="M295.6,118.8v-2.4h2.1v2.4h-2.1ZM295.6,133.6v-12.4h2.1v12.4h-2.1Z"/>
      <path d="M300.9,133.6v-12.4h1.9v1.8c.9-1.4,2.2-2.1,4-2.1s1.4.1,2.1.4,1.1.6,1.4,1.1.5,1,.7,1.6c0,.4.1,1.1.1,2.1v7.7h-2.1v-7.6c0-.9,0-1.5-.2-1.9s-.5-.8-.9-1-.9-.4-1.5-.4c-.9,0-1.7.3-2.3.9s-1,1.7-1,3.2v6.8h-2.1Z"/>
      <path d="M313.8,134.6l2.1.3c0,.6.3,1.1.7,1.4.5.4,1.2.6,2.1.6s1.7-.2,2.3-.6.9-.9,1.1-1.6c.1-.4.2-1.3.2-2.7-.9,1.1-2.1,1.6-3.4,1.6s-3-.6-4-1.9-1.4-2.7-1.4-4.4.2-2.3.6-3.3,1.1-1.8,1.9-2.3,1.8-.8,2.9-.8,2.7.6,3.6,1.8v-1.5h1.9v10.8c0,1.9-.2,3.3-.6,4.1s-1,1.4-1.9,1.9-1.9.7-3.2.7-2.7-.3-3.6-1-1.4-1.7-1.3-3ZM315.6,127.2c0,1.6.3,2.8,1,3.6s1.5,1.1,2.4,1.1,1.8-.4,2.4-1.1,1-1.9,1-3.5-.3-2.7-1-3.4-1.5-1.2-2.4-1.2-1.7.4-2.4,1.1-1,1.9-1,3.4Z"/>
      <path d="M339.6,131.7c-.5.6-1.1,1.1-1.7,1.4s-1.3.5-1.9.5-1.4-.2-2-.6-1.2-1-1.6-1.9-.6-1.8-.6-2.8.3-2.5,1-3.7,1.4-2.2,2.4-2.8,1.9-.9,2.8-.9,1.3.2,1.9.5,1.1.9,1.6,1.6l.4-1.8h2.1l-1.7,7.9c-.2,1.1-.4,1.7-.4,1.8,0,.2,0,.4.2.5s.4.2.6.2c.4,0,1-.2,1.6-.7.9-.6,1.6-1.5,2.1-2.5s.8-2.1.8-3.3-.3-2.5-1-3.7-1.7-2-3-2.7-2.8-1-4.4-1-3.5.4-5,1.3-2.7,2.1-3.5,3.7-1.2,3.3-1.2,5.1.4,3.6,1.2,4.9,2,2.4,3.6,3.1,3.3,1,5.2,1,3.8-.3,5.1-1,2.4-1.5,3.1-2.5h2.1c-.4.8-1.1,1.7-2.1,2.5s-2.1,1.5-3.5,2-2.9.7-4.8.7-3.3-.2-4.8-.7-2.7-1.1-3.7-2-1.8-1.9-2.3-3.1c-.7-1.5-1-3.1-1-4.8s.4-3.7,1.2-5.4c1-2.1,2.3-3.7,4.1-4.9s3.9-1.7,6.4-1.7,3.7.4,5.2,1.2,2.8,2,3.7,3.5c.8,1.4,1.1,2.8,1.1,4.4,0,2.3-.8,4.3-2.4,6-1.4,1.6-3,2.4-4.7,2.4s-1,0-1.3-.2-.6-.4-.7-.7c-.1-.2-.2-.5-.2-1ZM333.9,128.5c0,1.1.3,1.9.8,2.5s1.1.9,1.7.9.9-.1,1.4-.4.9-.7,1.4-1.2.8-1.2,1.1-2,.4-1.6.4-2.4-.3-1.9-.8-2.5-1.2-.9-1.9-.9-1,.1-1.4.4-.9.7-1.3,1.2-.7,1.2-1,2.1-.4,1.5-.4,2.2Z"/>
      <path d="M351.9,138.4v-17.2h1.9v1.6c.5-.6,1-1.1,1.5-1.4s1.3-.5,2.1-.5,2,.3,2.8.8,1.4,1.3,1.8,2.3.6,2.1.6,3.3-.2,2.4-.7,3.4-1.1,1.8-2,2.3-1.8.8-2.7.8-1.3-.1-1.9-.4-1-.7-1.4-1.1v6.1h-2.1ZM353.8,127.4c0,1.6.3,2.8,1,3.6s1.4,1.1,2.4,1.1,1.7-.4,2.4-1.2,1-2,1-3.7-.3-2.8-1-3.6-1.4-1.2-2.3-1.2-1.7.4-2.4,1.3-1,2.1-1,3.7Z"/>
      <path d="M365.3,133.6v-12.4h1.9v1.9c.5-.9.9-1.5,1.3-1.7s.9-.4,1.4-.4c.7,0,1.4.2,2.2.7l-.7,2c-.5-.3-1-.5-1.5-.5s-.9.1-1.2.4-.6.7-.8,1.2c-.2.8-.4,1.6-.4,2.5v6.5h-2.1Z"/>
      <path d="M372.5,127.4c0-2.3.6-4,1.9-5.1,1.1-.9,2.4-1.4,3.9-1.4s3.1.6,4.2,1.7,1.6,2.7,1.6,4.6-.2,2.9-.7,3.8-1.2,1.6-2.1,2.1-1.9.8-3,.8c-1.7,0-3.2-.6-4.2-1.7s-1.6-2.7-1.6-4.8ZM374.7,127.4c0,1.6.3,2.8,1,3.6s1.6,1.2,2.6,1.2,1.9-.4,2.6-1.2,1-2,1-3.6-.3-2.7-1-3.5-1.6-1.2-2.6-1.2-1.9.4-2.6,1.2-1,2-1,3.6Z"/>
      <path d="M391.2,131.7l.3,1.9c-.6.1-1.1.2-1.6.2-.8,0-1.4-.1-1.8-.4s-.7-.6-.9-1-.3-1.2-.3-2.5v-7.2h-1.5v-1.6h1.5v-3.1l2.1-1.3v4.3h2.1v1.6h-2.1v7.3c0,.6,0,1,.1,1.2s.2.3.4.4.4.2.7.2.5,0,.9,0Z"/>
      <path d="M392.5,127.4c0-2.3.6-4,1.9-5.1,1.1-.9,2.4-1.4,3.9-1.4s3.1.6,4.2,1.7,1.6,2.7,1.6,4.6-.2,2.9-.7,3.8-1.2,1.6-2.1,2.1-1.9.8-3,.8c-1.7,0-3.2-.6-4.2-1.7s-1.6-2.7-1.6-4.8ZM394.7,127.4c0,1.6.3,2.8,1,3.6s1.6,1.2,2.6,1.2,1.9-.4,2.6-1.2,1-2,1-3.6-.3-2.7-1-3.5-1.6-1.2-2.6-1.2-1.9.4-2.6,1.2-1,2-1,3.6Z"/>
      <path d="M406.6,133.6v-12.4h1.9v1.8c.9-1.4,2.2-2.1,4-2.1s1.4.1,2.1.4,1.1.6,1.4,1.1.5,1,.7,1.6c0,.4.1,1.1.1,2.1v7.7h-2.1v-7.6c0-.9,0-1.5-.2-1.9s-.5-.8-.9-1-.9-.4-1.5-.4c-.9,0-1.7.3-2.3.9s-1,1.7-1,3.2v6.8h-2.1Z"/>
      <path d="M420.6,133.6v-2.4h2.4v2.4h-2.4Z"/>
      <path d="M426.7,133.6v-12.4h1.9v1.7c.4-.6.9-1.1,1.6-1.5s1.4-.6,2.2-.6,1.7.2,2.3.6,1,.9,1.2,1.6c1-1.5,2.3-2.2,3.8-2.2s2.2.3,2.8,1,1,1.7,1,3.2v8.5h-2.1v-7.8c0-.8,0-1.5-.2-1.8s-.4-.7-.7-.9-.8-.3-1.3-.3c-.9,0-1.6.3-2.2.9s-.9,1.5-.9,2.8v7.2h-2.1v-8.1c0-.9-.2-1.6-.5-2.1s-.9-.7-1.7-.7-1.1.2-1.6.5-.9.8-1.1,1.4-.3,1.5-.3,2.6v6.5h-2.1Z"/>
      <path d="M455.2,129.6l2.2.3c-.3,1.3-1,2.3-1.9,3s-2.1,1.1-3.6,1.1-3.3-.6-4.3-1.7-1.6-2.7-1.6-4.7.5-3.7,1.6-4.9,2.5-1.7,4.2-1.7,3,.6,4.1,1.7,1.6,2.7,1.6,4.8,0,.3,0,.6h-9.3c0,1.4.5,2.4,1.2,3.1s1.6,1.1,2.6,1.1,1.4-.2,2-.6,1-1.1,1.3-1.9ZM448.2,126.2h6.9c0-1-.4-1.8-.8-2.4-.7-.8-1.5-1.2-2.6-1.2s-1.8.3-2.4,1-1,1.5-1.1,2.6Z"/>
    </g>
    <g class="st0">
      <path class="st1" d="M6.7,133.6v-17.2h2.3v17.2h-2.3Z"/>
      <path class="st1" d="M12.8,133.6v-12.4h1.9v1.8c.9-1.4,2.2-2.1,4-2.1s1.4.1,2.1.4,1.1.6,1.4,1.1.5,1,.7,1.6c0,.4.1,1.1.1,2.1v7.7h-2.1v-7.6c0-.9,0-1.5-.2-1.9s-.5-.8-.9-1-.9-.4-1.5-.4c-.9,0-1.7.3-2.3.9s-1,1.7-1,3.2v6.8h-2.1Z"/>
      <path class="st1" d="M34,138.4v-6.1c-.3.5-.8.8-1.4,1.1s-1.2.5-1.9.5c-1.5,0-2.7-.6-3.8-1.8s-1.6-2.8-1.6-4.9.2-2.4.7-3.4,1.1-1.7,1.9-2.3,1.7-.8,2.7-.8c1.5,0,2.8.6,3.6,1.9v-1.7h1.9v17.2h-2.1ZM27.5,127.3c0,1.6.3,2.8,1,3.6s1.5,1.2,2.4,1.2,1.7-.4,2.3-1.1,1-1.9,1-3.5-.3-2.9-1-3.7-1.5-1.3-2.4-1.3-1.7.4-2.3,1.2-1,2-1,3.6Z"/>
      <path class="st1" d="M47.6,133.6v-1.8c-1,1.4-2.3,2.1-3.9,2.1s-1.4-.1-2.1-.4-1.1-.6-1.4-1.1-.5-.9-.7-1.6c0-.4-.1-1.1-.1-2v-7.7h2.1v6.9c0,1.1,0,1.8.1,2.2.1.6.4,1,.8,1.3s1,.5,1.6.5,1.2-.2,1.8-.5.9-.8,1.2-1.3.3-1.4.3-2.4v-6.7h2.1v12.4h-1.9Z"/>
      <path class="st1" d="M52.8,118.8v-2.4h2.1v2.4h-2.1ZM52.8,133.6v-12.4h2.1v12.4h-2.1Z"/>
      <path class="st1" d="M58.1,133.6v-12.4h1.9v1.9c.5-.9.9-1.5,1.3-1.7s.9-.4,1.4-.4c.7,0,1.4.2,2.2.7l-.7,2c-.5-.3-1-.5-1.5-.5s-.9.1-1.2.4-.6.7-.8,1.2c-.2.8-.4,1.6-.4,2.5v6.5h-2.1Z"/>
      <path class="st1" d="M66.1,118.8v-2.4h2.1v2.4h-2.1ZM66.1,133.6v-12.4h2.1v12.4h-2.1Z"/>
      <path class="st1" d="M80,129.6l2.2.3c-.3,1.3-1,2.3-1.9,3s-2.1,1.1-3.6,1.1-3.3-.6-4.3-1.7-1.6-2.7-1.6-4.7.5-3.7,1.6-4.9,2.5-1.7,4.2-1.7,3,.6,4.1,1.7,1.6,2.7,1.6,4.8,0,.3,0,.6h-9.3c0,1.4.5,2.4,1.2,3.1s1.6,1.1,2.6,1.1,1.4-.2,2-.6,1-1.1,1.3-1.9ZM73,126.2h6.9c0-1-.4-1.8-.8-2.4-.7-.8-1.5-1.2-2.6-1.2s-1.8.3-2.4,1-1,1.5-1.1,2.6Z"/>
      <path class="st1" d="M84,129.9l2.1-.3c.1.8.4,1.5,1,1.9s1.3.7,2.2.7,1.7-.2,2.2-.6.7-.9.7-1.4-.2-.9-.6-1.1c-.3-.2-1-.4-2.2-.7-1.5-.4-2.6-.7-3.2-1s-1.1-.7-1.4-1.2-.5-1.1-.5-1.7.1-1.1.4-1.5.6-.9,1-1.2c.3-.2.8-.4,1.3-.6s1.2-.3,1.8-.3c1,0,1.8.1,2.6.4s1.3.7,1.6,1.1.6,1.1.7,1.9l-2.1.3c0-.6-.4-1.1-.8-1.5s-1.1-.5-1.9-.5-1.7.2-2.1.5-.6.7-.6,1.1,0,.5.3.7c.2.2.4.4.8.6.2,0,.8.3,1.9.5,1.5.4,2.5.7,3.1,1s1.1.6,1.4,1.1.5,1.1.5,1.8-.2,1.4-.6,2-1,1.1-1.8,1.4-1.6.5-2.6.5c-1.6,0-2.8-.3-3.7-1s-1.4-1.7-1.6-3Z"/>
      <path class="st1" d="M97.4,123.6v-2.4h2.4v2.4h-2.4ZM97.4,133.6v-2.4h2.4v2.4h-2.4Z"/>
      <path class="st1" d="M110.4,133.6v-17.2h7.6c1.5,0,2.7.2,3.5.5s1.4.9,1.9,1.6.7,1.6.7,2.6-.4,2.2-1.2,3.1-2,1.4-3.7,1.6c.6.3,1.1.6,1.4.9.7.6,1.3,1.4,1.9,2.3l3,4.7h-2.9l-2.3-3.6c-.7-1-1.2-1.8-1.6-2.4s-.8-.9-1.2-1.1-.7-.4-1-.5c-.3,0-.7,0-1.3,0h-2.6v7.6h-2.3ZM112.7,124h4.9c1,0,1.9-.1,2.4-.3s1-.6,1.3-1,.5-1,.5-1.5c0-.8-.3-1.5-.9-2s-1.5-.8-2.8-.8h-5.4v5.7Z"/>
      <path class="st1" d="M127.7,133.6v-17.2h5.9c1.3,0,2.4,0,3.1.2,1,.2,1.8.6,2.5,1.2.9.8,1.6,1.7,2,2.9s.7,2.6.7,4.1-.2,2.5-.5,3.5-.7,1.8-1.2,2.5-1,1.2-1.6,1.6-1.2.7-2.1.9-1.7.3-2.8.3h-6.2ZM130,131.6h3.7c1.1,0,2-.1,2.7-.3s1.2-.5,1.5-.9,1-1.3,1.3-2.2.5-2,.5-3.3-.3-3.2-.9-4.1-1.3-1.6-2.2-1.9c-.6-.2-1.6-.4-2.9-.4h-3.6v13.1Z"/>
      <path class="st1" d="M153.3,129.6l2.2.3c-.3,1.3-1,2.3-1.9,3s-2.1,1.1-3.6,1.1-3.3-.6-4.3-1.7-1.6-2.7-1.6-4.7.5-3.7,1.6-4.9,2.5-1.7,4.2-1.7,3,.6,4.1,1.7,1.6,2.7,1.6,4.8,0,.3,0,.6h-9.3c0,1.4.5,2.4,1.2,3.1s1.6,1.1,2.6,1.1,1.4-.2,2-.6,1-1.1,1.3-1.9ZM146.4,126.2h6.9c0-1-.4-1.8-.8-2.4-.7-.8-1.5-1.2-2.6-1.2s-1.8.3-2.4,1-1,1.5-1.1,2.6Z"/>
      <path class="st1" d="M166.3,132.1c-.8.7-1.5,1.1-2.3,1.4s-1.5.4-2.3.4c-1.4,0-2.4-.3-3.2-1s-1.1-1.5-1.1-2.6.1-1.2.4-1.7.6-.9,1.1-1.2,1-.5,1.5-.7c.4-.1,1-.2,1.9-.3,1.7-.2,3-.4,3.8-.7,0-.3,0-.5,0-.6,0-.9-.2-1.5-.6-1.8-.5-.5-1.3-.7-2.4-.7s-1.7.2-2.2.5-.8,1-1,1.8l-2.1-.3c.2-.9.5-1.6.9-2.1s1.1-1,1.9-1.3,1.8-.4,2.8-.4,1.9.1,2.6.4,1.2.6,1.5.9.5.9.7,1.4c0,.4.1,1,.1,1.9v2.8c0,2,0,3.2.1,3.7s.3,1,.5,1.5h-2.2c-.2-.4-.4-.9-.4-1.5ZM166.1,127.4c-.8.3-1.9.6-3.4.8-.9.1-1.5.3-1.8.4s-.6.4-.8.7-.3.6-.3,1c0,.6.2,1,.6,1.4s1,.6,1.9.6,1.5-.2,2.2-.5,1.1-.8,1.4-1.5c.2-.5.3-1.2.3-2.1v-.8Z"/>
      <path class="st1" d="M171.5,133.6v-17.2h2.1v9.8l5-5.1h2.7l-4.8,4.6,5.2,7.8h-2.6l-4.1-6.4-1.5,1.4v4.9h-2.1Z"/>
      <path class="st1" d="M183.5,118.8v-2.4h2.1v2.4h-2.1ZM183.5,133.6v-12.4h2.1v12.4h-2.1Z"/>
      <path class="st1" d="M188.8,133.6v-12.4h1.9v1.8c.9-1.4,2.2-2.1,4-2.1s1.4.1,2.1.4,1.1.6,1.4,1.1.5,1,.7,1.6c0,.4.1,1.1.1,2.1v7.7h-2.1v-7.6c0-.9,0-1.5-.2-1.9s-.5-.8-.9-1-.9-.4-1.5-.4c-.9,0-1.7.3-2.3.9s-1,1.7-1,3.2v6.8h-2.1Z"/>
      <path class="st1" d="M201.3,129.9l2.1-.3c.1.8.4,1.5,1,1.9s1.3.7,2.2.7,1.7-.2,2.2-.6.7-.9.7-1.4-.2-.9-.6-1.1c-.3-.2-1-.4-2.2-.7-1.5-.4-2.6-.7-3.2-1s-1.1-.7-1.4-1.2-.5-1.1-.5-1.7.1-1.1.4-1.5.6-.9,1-1.2c.3-.2.8-.4,1.3-.6s1.2-.3,1.8-.3c1,0,1.8.1,2.6.4s1.3.7,1.6,1.1.6,1.1.7,1.9l-2.1.3c0-.6-.4-1.1-.8-1.5s-1.1-.5-1.9-.5-1.7.2-2.1.5-.6.7-.6,1.1,0,.5.3.7c.2.2.4.4.8.6.2,0,.8.3,1.9.5,1.5.4,2.5.7,3.1,1s1.1.6,1.4,1.1.5,1.1.5,1.8-.2,1.4-.6,2-1,1.1-1.8,1.4-1.6.5-2.6.5c-1.6,0-2.8-.3-3.7-1s-1.4-1.7-1.6-3Z"/>
      <path class="st1" d="M226.7,127.6l2.3.6c-.5,1.9-1.3,3.3-2.6,4.3s-2.8,1.5-4.5,1.5-3.4-.4-4.5-1.1-2-1.8-2.6-3.3-.9-3-.9-4.6.3-3.3,1-4.7,1.7-2.3,2.9-3,2.7-1,4.2-1,3.2.4,4.3,1.3,2,2.1,2.4,3.7l-2.2.5c-.4-1.2-1-2.2-1.7-2.7s-1.7-.9-2.9-.9-2.4.3-3.3.9-1.5,1.5-1.9,2.5-.5,2.2-.5,3.3.2,2.7.6,3.8,1.1,1.9,2,2.4,1.9.8,2.9.8,2.4-.4,3.2-1.1,1.5-1.8,1.8-3.3Z"/>
      <path class="st1" d="M230.7,127.4c0-2.3.6-4,1.9-5.1,1.1-.9,2.4-1.4,3.9-1.4s3.1.6,4.2,1.7,1.6,2.7,1.6,4.6-.2,2.9-.7,3.8-1.2,1.6-2.1,2.1-1.9.8-3,.8c-1.7,0-3.2-.6-4.2-1.7s-1.6-2.7-1.6-4.8ZM232.9,127.4c0,1.6.3,2.8,1,3.6s1.6,1.2,2.6,1.2,1.9-.4,2.6-1.2,1-2,1-3.6-.3-2.7-1-3.5-1.6-1.2-2.6-1.2-1.9.4-2.6,1.2-1,2-1,3.6Z"/>
      <path class="st1" d="M244.9,133.6v-12.4h1.9v1.8c.9-1.4,2.2-2.1,4-2.1s1.4.1,2.1.4,1.1.6,1.4,1.1.5,1,.7,1.6c0,.4.1,1.1.1,2.1v7.7h-2.1v-7.6c0-.9,0-1.5-.2-1.9s-.5-.8-.9-1-.9-.4-1.5-.4c-.9,0-1.7.3-2.3.9s-1,1.7-1,3.2v6.8h-2.1Z"/>
      <path class="st1" d="M257.4,129.9l2.1-.3c.1.8.4,1.5,1,1.9s1.3.7,2.2.7,1.7-.2,2.2-.6.7-.9.7-1.4-.2-.9-.6-1.1c-.3-.2-1-.4-2.2-.7-1.5-.4-2.6-.7-3.2-1s-1.1-.7-1.4-1.2-.5-1.1-.5-1.7.1-1.1.4-1.5.6-.9,1-1.2c.3-.2.8-.4,1.3-.6s1.2-.3,1.8-.3c1,0,1.8.1,2.6.4s1.3.7,1.6,1.1.6,1.1.7,1.9l-2.1.3c0-.6-.4-1.1-.8-1.5s-1.1-.5-1.9-.5-1.7.2-2.1.5-.6.7-.6,1.1,0,.5.3.7c.2.2.4.4.8.6.2,0,.8.3,1.9.5,1.5.4,2.5.7,3.1,1s1.1.6,1.4,1.1.5,1.1.5,1.8-.2,1.4-.6,2-1,1.1-1.8,1.4-1.6.5-2.6.5c-1.6,0-2.8-.3-3.7-1s-1.4-1.7-1.6-3Z"/>
      <path class="st1" d="M278.4,133.6v-1.8c-1,1.4-2.3,2.1-3.9,2.1s-1.4-.1-2.1-.4-1.1-.6-1.4-1.1-.5-.9-.7-1.6c0-.4-.1-1.1-.1-2v-7.7h2.1v6.9c0,1.1,0,1.8.1,2.2.1.6.4,1,.8,1.3s1,.5,1.6.5,1.2-.2,1.8-.5.9-.8,1.2-1.3.3-1.4.3-2.4v-6.7h2.1v12.4h-1.9Z"/>
      <path class="st1" d="M283.5,133.6v-17.2h2.1v17.2h-2.1Z"/>
      <path class="st1" d="M293.5,131.7l.3,1.9c-.6.1-1.1.2-1.6.2-.8,0-1.4-.1-1.8-.4s-.7-.6-.9-1-.3-1.2-.3-2.5v-7.2h-1.5v-1.6h1.5v-3.1l2.1-1.3v4.3h2.1v1.6h-2.1v7.3c0,.6,0,1,.1,1.2s.2.3.4.4.4.2.7.2.5,0,.9,0Z"/>
      <path class="st1" d="M295.6,118.8v-2.4h2.1v2.4h-2.1ZM295.6,133.6v-12.4h2.1v12.4h-2.1Z"/>
      <path class="st1" d="M300.9,133.6v-12.4h1.9v1.8c.9-1.4,2.2-2.1,4-2.1s1.4.1,2.1.4,1.1.6,1.4,1.1.5,1,.7,1.6c0,.4.1,1.1.1,2.1v7.7h-2.1v-7.6c0-.9,0-1.5-.2-1.9s-.5-.8-.9-1-.9-.4-1.5-.4c-.9,0-1.7.3-2.3.9s-1,1.7-1,3.2v6.8h-2.1Z"/>
      <path class="st1" d="M313.8,134.6l2.1.3c0,.6.3,1.1.7,1.4.5.4,1.2.6,2.1.6s1.7-.2,2.3-.6.9-.9,1.1-1.6c.1-.4.2-1.3.2-2.7-.9,1.1-2.1,1.6-3.4,1.6s-3-.6-4-1.9-1.4-2.7-1.4-4.4.2-2.3.6-3.3,1.1-1.8,1.9-2.3,1.8-.8,2.9-.8,2.7.6,3.6,1.8v-1.5h1.9v10.8c0,1.9-.2,3.3-.6,4.1s-1,1.4-1.9,1.9-1.9.7-3.2.7-2.7-.3-3.6-1-1.4-1.7-1.3-3ZM315.6,127.2c0,1.6.3,2.8,1,3.6s1.5,1.1,2.4,1.1,1.8-.4,2.4-1.1,1-1.9,1-3.5-.3-2.7-1-3.4-1.5-1.2-2.4-1.2-1.7.4-2.4,1.1-1,1.9-1,3.4Z"/>
      <path class="st1" d="M339.6,131.7c-.5.6-1.1,1.1-1.7,1.4s-1.3.5-1.9.5-1.4-.2-2-.6-1.2-1-1.6-1.9-.6-1.8-.6-2.8.3-2.5,1-3.7,1.4-2.2,2.4-2.8,1.9-.9,2.8-.9,1.3.2,1.9.5,1.1.9,1.6,1.6l.4-1.8h2.1l-1.7,7.9c-.2,1.1-.4,1.7-.4,1.8,0,.2,0,.4.2.5s.4.2.6.2c.4,0,1-.2,1.6-.7.9-.6,1.6-1.5,2.1-2.5s.8-2.1.8-3.3-.3-2.5-1-3.7-1.7-2-3-2.7-2.8-1-4.4-1-3.5.4-5,1.3-2.7,2.1-3.5,3.7-1.2,3.3-1.2,5.1.4,3.6,1.2,4.9,2,2.4,3.6,3.1,3.3,1,5.2,1,3.8-.3,5.1-1,2.4-1.5,3.1-2.5h2.1c-.4.8-1.1,1.7-2.1,2.5s-2.1,1.5-3.5,2-2.9.7-4.8.7-3.3-.2-4.8-.7-2.7-1.1-3.7-2-1.8-1.9-2.3-3.1c-.7-1.5-1-3.1-1-4.8s.4-3.7,1.2-5.4c1-2.1,2.3-3.7,4.1-4.9s3.9-1.7,6.4-1.7,3.7.4,5.2,1.2,2.8,2,3.7,3.5c.8,1.4,1.1,2.8,1.1,4.4,0,2.3-.8,4.3-2.4,6-1.4,1.6-3,2.4-4.7,2.4s-1,0-1.3-.2-.6-.4-.7-.7c-.1-.2-.2-.5-.2-1ZM333.9,128.5c0,1.1.3,1.9.8,2.5s1.1.9,1.7.9.9-.1,1.4-.4.9-.7,1.4-1.2.8-1.2,1.1-2,.4-1.6.4-2.4-.3-1.9-.8-2.5-1.2-.9-1.9-.9-1,.1-1.4.4-.9.7-1.3,1.2-.7,1.2-1,2.1-.4,1.5-.4,2.2Z"/>
      <path class="st1" d="M351.9,138.4v-17.2h1.9v1.6c.5-.6,1-1.1,1.5-1.4s1.3-.5,2.1-.5,2,.3,2.8.8,1.4,1.3,1.8,2.3.6,2.1.6,3.3-.2,2.4-.7,3.4-1.1,1.8-2,2.3-1.8.8-2.7.8-1.3-.1-1.9-.4-1-.7-1.4-1.1v6.1h-2.1ZM353.8,127.4c0,1.6.3,2.8,1,3.6s1.4,1.1,2.4,1.1,1.7-.4,2.4-1.2,1-2,1-3.7-.3-2.8-1-3.6-1.4-1.2-2.3-1.2-1.7.4-2.4,1.3-1,2.1-1,3.7Z"/>
      <path class="st1" d="M365.3,133.6v-12.4h1.9v1.9c.5-.9.9-1.5,1.3-1.7s.9-.4,1.4-.4c.7,0,1.4.2,2.2.7l-.7,2c-.5-.3-1-.5-1.5-.5s-.9.1-1.2.4-.6.7-.8,1.2c-.2.8-.4,1.6-.4,2.5v6.5h-2.1Z"/>
      <path class="st1" d="M372.5,127.4c0-2.3.6-4,1.9-5.1,1.1-.9,2.4-1.4,3.9-1.4s3.1.6,4.2,1.7,1.6,2.7,1.6,4.6-.2,2.9-.7,3.8-1.2,1.6-2.1,2.1-1.9.8-3,.8c-1.7,0-3.2-.6-4.2-1.7s-1.6-2.7-1.6-4.8ZM374.7,127.4c0,1.6.3,2.8,1,3.6s1.6,1.2,2.6,1.2,1.9-.4,2.6-1.2,1-2,1-3.6-.3-2.7-1-3.5-1.6-1.2-2.6-1.2-1.9.4-2.6,1.2-1,2-1,3.6Z"/>
      <path class="st1" d="M391.2,131.7l.3,1.9c-.6.1-1.1.2-1.6.2-.8,0-1.4-.1-1.8-.4s-.7-.6-.9-1-.3-1.2-.3-2.5v-7.2h-1.5v-1.6h1.5v-3.1l2.1-1.3v4.3h2.1v1.6h-2.1v7.3c0,.6,0,1,.1,1.2s.2.3.4.4.4.2.7.2.5,0,.9,0Z"/>
      <path class="st1" d="M392.5,127.4c0-2.3.6-4,1.9-5.1,1.1-.9,2.4-1.4,3.9-1.4s3.1.6,4.2,1.7,1.6,2.7,1.6,4.6-.2,2.9-.7,3.8-1.2,1.6-2.1,2.1-1.9.8-3,.8c-1.7,0-3.2-.6-4.2-1.7s-1.6-2.7-1.6-4.8ZM394.7,127.4c0,1.6.3,2.8,1,3.6s1.6,1.2,2.6,1.2,1.9-.4,2.6-1.2,1-2,1-3.6-.3-2.7-1-3.5-1.6-1.2-2.6-1.2-1.9.4-2.6,1.2-1,2-1,3.6Z"/>
      <path class="st1" d="M406.6,133.6v-12.4h1.9v1.8c.9-1.4,2.2-2.1,4-2.1s1.4.1,2.1.4,1.1.6,1.4,1.1.5,1,.7,1.6c0,.4.1,1.1.1,2.1v7.7h-2.1v-7.6c0-.9,0-1.5-.2-1.9s-.5-.8-.9-1-.9-.4-1.5-.4c-.9,0-1.7.3-2.3.9s-1,1.7-1,3.2v6.8h-2.1Z"/>
      <path class="st1" d="M420.6,133.6v-2.4h2.4v2.4h-2.4Z"/>
      <path class="st1" d="M426.7,133.6v-12.4h1.9v1.7c.4-.6.9-1.1,1.6-1.5s1.4-.6,2.2-.6,1.7.2,2.3.6,1,.9,1.2,1.6c1-1.5,2.3-2.2,3.8-2.2s2.2.3,2.8,1,1,1.7,1,3.2v8.5h-2.1v-7.8c0-.8,0-1.5-.2-1.8s-.4-.7-.7-.9-.8-.3-1.3-.3c-.9,0-1.6.3-2.2.9s-.9,1.5-.9,2.8v7.2h-2.1v-8.1c0-.9-.2-1.6-.5-2.1s-.9-.7-1.7-.7-1.1.2-1.6.5-.9.8-1.1,1.4-.3,1.5-.3,2.6v6.5h-2.1Z"/>
      <path class="st1" d="M455.2,129.6l2.2.3c-.3,1.3-1,2.3-1.9,3s-2.1,1.1-3.6,1.1-3.3-.6-4.3-1.7-1.6-2.7-1.6-4.7.5-3.7,1.6-4.9,2.5-1.7,4.2-1.7,3,.6,4.1,1.7,1.6,2.7,1.6,4.8,0,.3,0,.6h-9.3c0,1.4.5,2.4,1.2,3.1s1.6,1.1,2.6,1.1,1.4-.2,2-.6,1-1.1,1.3-1.9ZM448.2,126.2h6.9c0-1-.4-1.8-.8-2.4-.7-.8-1.5-1.2-2.6-1.2s-1.8.3-2.4,1-1,1.5-1.1,2.6Z"/>
    </g>
  </g>
</svg>