<?xml version="1.0" encoding="utf-8"?>
<!-- Generator: Adobe Illustrator 28.3.0, SVG Export Plug-In . SVG Version: 6.00 Build 0)  -->
<svg version="1.1" id="Layer_1" xmlns="http://www.w3.org/2000/svg" xmlns:xlink="http://www.w3.org/1999/xlink" x="0px" y="0px"
	 viewBox="0 0 1413 363" style="enable-background:new 0 0 1413 363;" xml:space="preserve">
<g>
	<path d="M24.7,28h31.8v115.1h59v29.4H24.7V28z"/>
	<path d="M223.1,155.4c-4.9,6.3-11.1,11.1-18.6,14.5c-7.5,3.4-15.2,5.1-23.3,5.1c-7.6,0-14.8-1.2-21.5-3.7
		c-6.7-2.4-12.6-6-17.6-10.5c-5-4.6-8.9-10-11.7-16.4c-2.9-6.4-4.3-13.5-4.3-21.4c0-7.9,1.4-15,4.3-21.4c2.9-6.4,6.8-11.9,11.7-16.4
		c5-4.6,10.8-8.1,17.6-10.5c6.7-2.4,13.9-3.7,21.5-3.7c7.1,0,13.5,1.2,19.3,3.7c5.8,2.4,10.7,6,14.7,10.5c4,4.6,7.1,10,9.3,16.4
		c2.2,6.4,3.3,13.5,3.3,21.4v9.6h-71c1.2,5.9,3.9,10.5,8,14s9.1,5.2,15.1,5.2c5,0,9.3-1.1,12.8-3.4s6.5-5.1,9.1-8.7L223.1,155.4z
		 M197.2,111.7c0.1-5.2-1.6-9.6-5.1-13.3c-3.5-3.7-8.1-5.5-13.7-5.5c-3.4,0-6.4,0.5-9,1.6c-2.6,1.1-4.8,2.5-6.6,4.2
		c-1.8,1.7-3.3,3.7-4.3,5.9c-1,2.2-1.6,4.6-1.7,7H197.2z"/>
	<path d="M314,97.8H287v33.1c0,2.7,0.1,5.2,0.4,7.5c0.3,2.2,0.9,4.2,1.8,5.8c1,1.6,2.4,2.9,4.4,3.8c2,0.9,4.6,1.3,7.9,1.3
		c1.6,0,3.8-0.2,6.4-0.5c2.7-0.3,4.7-1.1,6-2.3v25.5c-3.4,1.2-6.9,2-10.6,2.4s-7.3,0.6-10.8,0.6c-5.2,0-9.9-0.5-14.3-1.6
		c-4.4-1.1-8.2-2.8-11.4-5.2c-3.3-2.4-5.8-5.5-7.7-9.3c-1.8-3.8-2.8-8.4-2.8-13.9V97.8h-19.6V73.3h19.6V43.9H287v29.4H314V97.8z"/>
	<path d="M352.8,85.6h-26.1L341.7,28h29.4L352.8,85.6z"/>
	<path d="M431,102.5c-4.5-5.6-10.4-8.4-17.8-8.4c-2.6,0-5.1,0.6-7.6,1.8c-2.4,1.2-3.7,3.3-3.7,6.3c0,2.4,1.3,4.3,3.8,5.4
		c2.5,1.2,5.7,2.2,9.6,3.1c3.9,0.9,8,1.8,12.5,2.9c4.4,1,8.6,2.6,12.5,4.8c3.9,2.2,7.1,5.1,9.6,8.9c2.5,3.7,3.8,8.7,3.8,15
		c0,6.4-1.4,11.7-4.2,15.8c-2.8,4.2-6.4,7.5-10.7,10c-4.4,2.5-9.3,4.3-14.7,5.3c-5.4,1-10.8,1.5-16.1,1.5c-6.9,0-14-1-21-3
		c-7.1-2-13.1-5.5-18-10.5l18.6-20.6c2.9,3.5,6,6.2,9.5,8.1s7.5,2.8,12.1,2.8c3.5,0,6.7-0.5,9.6-1.5c2.9-1,4.3-2.9,4.3-5.6
		c0-2.6-1.3-4.5-3.8-5.8c-2.5-1.3-5.7-2.4-9.6-3.3c-3.9-0.9-8-1.8-12.5-2.9c-4.4-1-8.6-2.6-12.5-4.6s-7.1-4.9-9.6-8.7
		c-2.5-3.7-3.8-8.7-3.8-15c0-5.9,1.2-10.9,3.6-15.1c2.4-4.2,5.5-7.7,9.4-10.4c3.9-2.7,8.3-4.7,13.4-6c5-1.3,10.1-1.9,15.3-1.9
		c6.5,0,13.1,1,19.8,2.9c6.7,1.9,12.3,5.3,16.9,10.2L431,102.5z"/>
	<path d="M628.2,65.6c-3.1-3.8-7-6.7-11.5-8.8c-4.6-2-9.8-3.1-15.8-3.1c-6,0-11.5,1.2-16.6,3.5c-5.1,2.3-9.5,5.5-13.3,9.7
		c-3.7,4.2-6.7,9.1-8.8,14.8c-2.1,5.7-3.2,11.9-3.2,18.6c0,6.8,1.1,13,3.2,18.7c2.1,5.6,5,10.5,8.7,14.7c3.7,4.2,8,7.4,13,9.7
		c5,2.3,10.3,3.5,16,3.5c6.5,0,12.3-1.4,17.4-4.1c5-2.7,9.2-6.5,12.5-11.4l26.5,19.8c-6.1,8.6-13.9,14.9-23.3,19
		c-9.4,4.1-19.1,6.1-29,6.1c-11.3,0-21.7-1.8-31.2-5.3c-9.5-3.5-17.8-8.6-24.7-15.2c-6.9-6.6-12.4-14.6-16.2-24s-5.8-19.9-5.8-31.4
		c0-11.6,1.9-22,5.8-31.4s9.3-17.4,16.2-24c6.9-6.6,15.2-11.7,24.7-15.2c9.5-3.5,19.9-5.3,31.2-5.3c4.1,0,8.3,0.4,12.8,1.1
		c4.4,0.8,8.8,1.9,13.1,3.6c4.3,1.6,8.4,3.8,12.4,6.5c3.9,2.7,7.5,6.1,10.6,10L628.2,65.6z"/>
	<path d="M665.9,122.9c0-7.9,1.4-15,4.3-21.4c2.9-6.4,6.8-11.9,11.7-16.4c5-4.6,10.8-8.1,17.6-10.5c6.7-2.4,13.9-3.7,21.5-3.7
		c7.6,0,14.8,1.2,21.5,3.7s12.6,6,17.6,10.5c5,4.6,8.9,10,11.7,16.4c2.9,6.4,4.3,13.5,4.3,21.4c0,7.9-1.4,15-4.3,21.4
		c-2.9,6.4-6.8,11.9-11.7,16.4c-5,4.6-10.8,8.1-17.6,10.5c-6.7,2.5-13.9,3.7-21.5,3.7c-7.6,0-14.8-1.2-21.5-3.7
		c-6.7-2.4-12.6-6-17.6-10.5c-5-4.6-8.9-10-11.7-16.4C667.4,138,665.9,130.8,665.9,122.9z M696.6,122.9c0,7.5,2.1,13.5,6.4,18.2
		c4.3,4.6,10.3,6.9,18.1,6.9s13.8-2.3,18.1-6.9c4.3-4.6,6.4-10.7,6.4-18.2c0-7.5-2.1-13.5-6.4-18.2c-4.3-4.6-10.3-6.9-18.1-6.9
		s-13.8,2.3-18.1,6.9C698.7,109.4,696.6,115.4,696.6,122.9z"/>
	<path d="M794.1,73.3h29.4v13.5h0.4c1-1.9,2.3-3.8,4.1-5.7c1.8-1.9,3.9-3.6,6.3-5.1c2.4-1.5,5.2-2.7,8.4-3.7c3.1-1,6.5-1.4,10.2-1.4
		c7.8,0,14,1.2,18.8,3.6c4.8,2.4,8.5,5.7,11.1,9.9c2.7,4.2,4.5,9.2,5.4,14.9c1,5.7,1.4,11.9,1.4,18.6v54.7h-30.6V124
		c0-2.9-0.1-5.8-0.3-8.9s-0.8-5.9-1.8-8.5c-1-2.6-2.6-4.7-4.7-6.3c-2.1-1.6-5.1-2.4-9.1-2.4c-3.9,0-7.1,0.7-9.6,2.1
		c-2.5,1.4-4.3,3.3-5.6,5.7c-1.3,2.4-2.1,5.1-2.6,8.1c-0.4,3-0.6,6.1-0.6,9.4v49.4h-30.6V73.3z"/>
	<path d="M911.3,73.3h29.4v13.5h0.4c1-1.9,2.3-3.8,4.1-5.7c1.8-1.9,3.9-3.6,6.3-5.1c2.4-1.5,5.2-2.7,8.4-3.7c3.1-1,6.5-1.4,10.2-1.4
		c7.8,0,14,1.2,18.8,3.6c4.8,2.4,8.5,5.7,11.1,9.9c2.7,4.2,4.5,9.2,5.4,14.9c1,5.7,1.4,11.9,1.4,18.6v54.7h-30.6V124
		c0-2.9-0.1-5.8-0.3-8.9s-0.8-5.9-1.8-8.5c-1-2.6-2.6-4.7-4.7-6.3c-2.1-1.6-5.1-2.4-9.1-2.4c-3.9,0-7.1,0.7-9.6,2.1
		c-2.5,1.4-4.3,3.3-5.6,5.7c-1.3,2.4-2.1,5.1-2.6,8.1c-0.4,3-0.6,6.1-0.6,9.4v49.4h-30.6V73.3z"/>
	<path d="M1122.4,155.4c-4.9,6.3-11.1,11.1-18.6,14.5c-7.5,3.4-15.2,5.1-23.3,5.1c-7.6,0-14.8-1.2-21.5-3.7
		c-6.7-2.4-12.6-6-17.6-10.5c-5-4.6-8.9-10-11.7-16.4c-2.9-6.4-4.3-13.5-4.3-21.4c0-7.9,1.4-15,4.3-21.4c2.9-6.4,6.8-11.9,11.7-16.4
		c5-4.6,10.8-8.1,17.6-10.5c6.7-2.4,13.9-3.7,21.5-3.7c7.1,0,13.5,1.2,19.3,3.7c5.8,2.4,10.7,6,14.7,10.5c4,4.6,7.1,10,9.3,16.4
		c2.2,6.4,3.3,13.5,3.3,21.4v9.6h-71c1.2,5.9,3.9,10.5,8,14c4.1,3.5,9.1,5.2,15.1,5.2c5,0,9.3-1.1,12.8-3.4s6.5-5.1,9.1-8.7
		L1122.4,155.4z M1096.5,111.7c0.1-5.2-1.6-9.6-5.1-13.3c-3.5-3.7-8.1-5.5-13.7-5.5c-3.4,0-6.4,0.5-9,1.6c-2.6,1.1-4.8,2.5-6.6,4.2
		c-1.8,1.7-3.3,3.7-4.3,5.9c-1,2.2-1.6,4.6-1.7,7H1096.5z"/>
	<path d="M1212.9,105.4c-1.5-2.2-3.6-4-6.3-5.4c-2.7-1.4-5.6-2.1-8.8-2.1c-7.8,0-13.8,2.3-18.1,6.9c-4.3,4.6-6.4,10.7-6.4,18.2
		c0,7.5,2.1,13.5,6.4,18.2c4.3,4.6,10.3,6.9,18.1,6.9c3.4,0,6.3-0.7,8.8-2.2c2.5-1.5,4.6-3.3,6.3-5.3l20.2,21.2
		c-4.8,4.9-10.4,8.3-16.8,10.3c-6.5,2-12.6,3-18.5,3c-7.6,0-14.8-1.2-21.5-3.7c-6.7-2.4-12.6-6-17.6-10.5c-5-4.6-8.9-10-11.7-16.4
		c-2.9-6.4-4.3-13.5-4.3-21.4c0-7.9,1.4-15,4.3-21.4c2.9-6.4,6.8-11.9,11.7-16.4c5-4.6,10.8-8.1,17.6-10.5
		c6.7-2.4,13.9-3.7,21.5-3.7c5.9,0,12,1,18.5,3c6.5,2,12.1,5.4,16.8,10.3L1212.9,105.4z"/>
	<path d="M1311.7,97.8h-26.9v33.1c0,2.7,0.1,5.2,0.4,7.5c0.3,2.2,0.9,4.2,1.8,5.8c1,1.6,2.4,2.9,4.4,3.8c2,0.9,4.6,1.3,7.9,1.3
		c1.6,0,3.8-0.2,6.4-0.5c2.7-0.3,4.7-1.1,6-2.3v25.5c-3.4,1.2-6.9,2-10.6,2.4s-7.3,0.6-10.8,0.6c-5.2,0-9.9-0.5-14.3-1.6
		c-4.4-1.1-8.2-2.8-11.4-5.2c-3.3-2.4-5.8-5.5-7.7-9.3c-1.8-3.8-2.8-8.4-2.8-13.9V97.8h-19.6V73.3h19.6V43.9h30.6v29.4h26.9V97.8z"
		/>
	<path d="M1342.9,155c0-2.6,0.5-5,1.4-7.3c1-2.3,2.3-4.3,4-6c1.7-1.7,3.7-3,6-4c2.3-1,4.8-1.4,7.3-1.4c2.6,0,5,0.5,7.3,1.4
		c2.3,1,4.3,2.3,6,4c1.7,1.7,3,3.7,4,6c1,2.3,1.4,4.8,1.4,7.3c0,2.6-0.5,5-1.4,7.3c-1,2.3-2.3,4.3-4,6c-1.7,1.7-3.7,3-6,4
		c-2.3,1-4.8,1.4-7.3,1.4c-2.6,0-5-0.5-7.3-1.4c-2.3-1-4.3-2.3-6-4c-1.7-1.7-3-3.7-4-6C1343.4,160,1342.9,157.6,1342.9,155z
		 M1377,124.8h-30.6V28h30.6V124.8z"/>
</g>
<g>
	<path d="M75.2,225h4l6.3,22.6h0.1l6.7-22.6h4.4l6.7,22.6h0.1l6.3-22.6h4l-8.2,28.3h-4.1l-6.8-23.1h-0.1l-6.8,23.1h-4.1L75.2,225z"
		/>
	<path d="M116.3,223.1h3.6v14.2h0.1c0.5-1,1.2-1.8,2.4-2.5c1.1-0.6,2.4-0.9,3.9-0.9c0.9,0,1.8,0.1,2.6,0.4c0.8,0.3,1.6,0.7,2.2,1.3
		c0.6,0.6,1.1,1.3,1.5,2.3c0.4,0.9,0.6,2,0.6,3.3v12.2h-3.6v-11.2c0-0.9-0.1-1.6-0.4-2.3c-0.2-0.6-0.6-1.1-1-1.5
		c-0.4-0.4-0.9-0.7-1.4-0.8c-0.5-0.2-1.1-0.3-1.6-0.3c-0.7,0-1.4,0.1-2.1,0.4c-0.6,0.2-1.2,0.6-1.7,1.1c-0.5,0.5-0.9,1.2-1.1,2
		c-0.3,0.8-0.4,1.7-0.4,2.8v9.8h-3.6V223.1z"/>
	<path d="M141.3,245.2c0,0.8,0.2,1.6,0.5,2.3c0.4,0.7,0.8,1.3,1.4,1.7c0.6,0.5,1.3,0.9,2,1.1c0.8,0.3,1.6,0.4,2.4,0.4
		c1.1,0,2.1-0.3,2.9-0.8c0.8-0.5,1.6-1.2,2.3-2.1l2.7,2.1c-2,2.6-4.8,3.9-8.4,3.9c-1.5,0-2.8-0.3-4.1-0.8c-1.2-0.5-2.2-1.2-3.1-2.1
		c-0.8-0.9-1.5-1.9-1.9-3.2c-0.5-1.2-0.7-2.5-0.7-3.9c0-1.4,0.2-2.7,0.7-3.9c0.5-1.2,1.2-2.3,2-3.2c0.9-0.9,1.9-1.6,3.1-2.1
		s2.5-0.8,3.9-0.8c1.7,0,3.1,0.3,4.3,0.9c1.2,0.6,2.1,1.4,2.9,2.3c0.7,0.9,1.3,2,1.6,3.2c0.3,1.2,0.5,2.4,0.5,3.6v1.3H141.3z
		 M152.7,242.3c0-0.8-0.2-1.5-0.4-2.2c-0.2-0.7-0.6-1.2-1-1.7c-0.5-0.5-1-0.9-1.7-1.2c-0.7-0.3-1.5-0.4-2.4-0.4
		c-0.9,0-1.7,0.2-2.4,0.5c-0.7,0.3-1.4,0.8-1.9,1.3c-0.5,0.5-0.9,1.1-1.2,1.8c-0.3,0.7-0.4,1.3-0.4,1.9H152.7z"/>
	<path d="M171,237.5h-5.2v8.6c0,0.5,0,1.1,0,1.6c0,0.5,0.1,1,0.3,1.4c0.2,0.4,0.4,0.7,0.8,1c0.4,0.3,0.9,0.4,1.6,0.4
		c0.4,0,0.9,0,1.3-0.1c0.5-0.1,0.9-0.2,1.2-0.4v3.3c-0.4,0.2-1,0.4-1.7,0.5c-0.7,0.1-1.2,0.1-1.6,0.1c-1.4,0-2.5-0.2-3.2-0.6
		c-0.8-0.4-1.3-0.9-1.7-1.5c-0.4-0.6-0.6-1.3-0.6-2.1c-0.1-0.8-0.1-1.5-0.1-2.3v-9.9h-4.2v-3.1h4.2v-5.3h3.6v5.3h5.2V237.5z"/>
	<path d="M175.6,223.1h3.6v14.2h0.1c0.5-1,1.2-1.8,2.4-2.5c1.1-0.6,2.4-0.9,3.9-0.9c0.9,0,1.8,0.1,2.6,0.4c0.8,0.3,1.6,0.7,2.2,1.3
		c0.6,0.6,1.1,1.3,1.5,2.3c0.4,0.9,0.6,2,0.6,3.3v12.2h-3.6v-11.2c0-0.9-0.1-1.6-0.4-2.3c-0.2-0.6-0.6-1.1-1-1.5
		c-0.4-0.4-0.9-0.7-1.4-0.8c-0.5-0.2-1.1-0.3-1.6-0.3c-0.7,0-1.4,0.1-2.1,0.4c-0.6,0.2-1.2,0.6-1.7,1.1c-0.5,0.5-0.9,1.2-1.1,2
		c-0.3,0.8-0.4,1.7-0.4,2.8v9.8h-3.6V223.1z"/>
	<path d="M200.6,245.2c0,0.8,0.2,1.6,0.5,2.3c0.4,0.7,0.8,1.3,1.4,1.7c0.6,0.5,1.3,0.9,2,1.1c0.8,0.3,1.6,0.4,2.4,0.4
		c1.1,0,2.1-0.3,2.9-0.8c0.8-0.5,1.6-1.2,2.3-2.1l2.7,2.1c-2,2.6-4.8,3.9-8.4,3.9c-1.5,0-2.8-0.3-4.1-0.8c-1.2-0.5-2.2-1.2-3.1-2.1
		c-0.8-0.9-1.5-1.9-1.9-3.2c-0.5-1.2-0.7-2.5-0.7-3.9c0-1.4,0.2-2.7,0.7-3.9c0.5-1.2,1.2-2.3,2-3.2c0.9-0.9,1.9-1.6,3.1-2.1
		s2.5-0.8,3.9-0.8c1.7,0,3.1,0.3,4.3,0.9c1.2,0.6,2.1,1.4,2.9,2.3c0.7,0.9,1.3,2,1.6,3.2c0.3,1.2,0.5,2.4,0.5,3.6v1.3H200.6z
		 M211.9,242.3c0-0.8-0.2-1.5-0.4-2.2c-0.2-0.7-0.6-1.2-1-1.7c-0.5-0.5-1-0.9-1.7-1.2c-0.7-0.3-1.5-0.4-2.4-0.4
		c-0.9,0-1.7,0.2-2.4,0.5c-0.7,0.3-1.4,0.8-1.9,1.3c-0.5,0.5-0.9,1.1-1.2,1.8c-0.3,0.7-0.4,1.3-0.4,1.9H211.9z"/>
	<path d="M220.1,234.4h3.6v2.9h0.1c0.2-0.5,0.6-1,1-1.4c0.4-0.4,0.8-0.8,1.3-1.1c0.5-0.3,1-0.5,1.6-0.7c0.6-0.2,1.2-0.3,1.8-0.3
		c0.6,0,1.1,0.1,1.6,0.2l-0.2,3.9c-0.3-0.1-0.6-0.1-0.9-0.2c-0.3-0.1-0.6-0.1-0.9-0.1c-1.8,0-3.1,0.5-4,1.5c-0.9,1-1.4,2.5-1.4,4.6
		v9.5h-3.6V234.4z"/>
	<path d="M243.8,234.4h4.2l5.6,14.8h0.1l5.4-14.8h3.8l-9,23c-0.3,0.8-0.7,1.6-1,2.3c-0.3,0.7-0.8,1.3-1.2,1.7
		c-0.5,0.5-1.1,0.9-1.7,1.1c-0.7,0.3-1.5,0.4-2.5,0.4c-0.5,0-1.1,0-1.6-0.1s-1.1-0.2-1.6-0.4l0.4-3.3c0.7,0.3,1.4,0.4,2.1,0.4
		c0.6,0,1-0.1,1.4-0.2c0.4-0.1,0.7-0.4,1-0.6c0.3-0.3,0.5-0.6,0.7-1c0.2-0.4,0.4-0.8,0.6-1.3l1.2-3L243.8,234.4z"/>
	<path d="M265.1,243.9c0-1.4,0.3-2.7,0.8-3.9c0.5-1.2,1.2-2.3,2.1-3.2c0.9-0.9,2-1.6,3.2-2.1c1.2-0.5,2.5-0.8,4-0.8
		c1.4,0,2.7,0.3,4,0.8c1.2,0.5,2.3,1.2,3.2,2.1c0.9,0.9,1.6,2,2.1,3.2c0.5,1.2,0.8,2.5,0.8,3.9c0,1.4-0.3,2.7-0.8,3.9
		c-0.5,1.2-1.2,2.3-2.1,3.2c-0.9,0.9-2,1.6-3.2,2.1c-1.2,0.5-2.5,0.8-4,0.8c-1.4,0-2.7-0.3-4-0.8c-1.2-0.5-2.3-1.2-3.2-2.1
		c-0.9-0.9-1.6-1.9-2.1-3.2C265.4,246.6,265.1,245.3,265.1,243.9z M268.9,243.9c0,1,0.1,1.8,0.4,2.7c0.3,0.8,0.7,1.5,1.2,2.1
		c0.5,0.6,1.2,1,2,1.4c0.8,0.3,1.6,0.5,2.6,0.5s1.8-0.2,2.6-0.5c0.8-0.3,1.4-0.8,2-1.4c0.5-0.6,0.9-1.3,1.2-2.1
		c0.3-0.8,0.4-1.7,0.4-2.7c0-1-0.1-1.8-0.4-2.7c-0.3-0.8-0.7-1.5-1.2-2.1c-0.5-0.6-1.2-1-2-1.4c-0.8-0.3-1.6-0.5-2.6-0.5
		s-1.8,0.2-2.6,0.5c-0.8,0.3-1.4,0.8-2,1.4c-0.5,0.6-0.9,1.3-1.2,2.1C269.1,242,268.9,242.9,268.9,243.9z"/>
	<path d="M306.6,253.3H303v-2.9h-0.1c-0.5,1-1.2,1.8-2.4,2.5s-2.4,0.9-3.9,0.9c-0.9,0-1.8-0.1-2.6-0.4c-0.8-0.3-1.6-0.7-2.2-1.3
		c-0.6-0.6-1.1-1.3-1.5-2.3s-0.6-2-0.6-3.3v-12.2h3.6v11.2c0,0.9,0.1,1.6,0.4,2.3c0.2,0.6,0.6,1.1,1,1.5c0.4,0.4,0.9,0.7,1.4,0.8
		s1.1,0.3,1.6,0.3c0.7,0,1.4-0.1,2.1-0.4c0.6-0.2,1.2-0.6,1.7-1.1c0.5-0.5,0.9-1.2,1.1-2c0.3-0.8,0.4-1.7,0.4-2.8v-9.8h3.6V253.3z"
		/>
	<path d="M320.9,234.4h4l4.3,14.2h0.1l4.5-14.2h3.8l4.8,14.2h0.1l4-14.2h3.8l-6.1,19h-3.6l-5-14.2h-0.1l-4.6,14.2h-3.8L320.9,234.4z
		"/>
	<path d="M351.8,243.9c0-1.4,0.3-2.7,0.8-3.9c0.5-1.2,1.2-2.3,2.1-3.2s2-1.6,3.2-2.1c1.2-0.5,2.5-0.8,4-0.8c1.4,0,2.7,0.3,4,0.8
		c1.2,0.5,2.3,1.2,3.2,2.1c0.9,0.9,1.6,2,2.1,3.2c0.5,1.2,0.8,2.5,0.8,3.9c0,1.4-0.3,2.7-0.8,3.9c-0.5,1.2-1.2,2.3-2.1,3.2
		c-0.9,0.9-2,1.6-3.2,2.1c-1.2,0.5-2.5,0.8-4,0.8c-1.4,0-2.7-0.3-4-0.8c-1.2-0.5-2.3-1.2-3.2-2.1s-1.6-1.9-2.1-3.2
		C352,246.6,351.8,245.3,351.8,243.9z M355.6,243.9c0,1,0.1,1.8,0.4,2.7c0.3,0.8,0.7,1.5,1.2,2.1c0.5,0.6,1.2,1,2,1.4
		c0.8,0.3,1.6,0.5,2.6,0.5s1.8-0.2,2.6-0.5c0.8-0.3,1.4-0.8,2-1.4c0.5-0.6,0.9-1.3,1.2-2.1c0.3-0.8,0.4-1.7,0.4-2.7
		c0-1-0.1-1.8-0.4-2.7s-0.7-1.5-1.2-2.1c-0.5-0.6-1.2-1-2-1.4c-0.8-0.3-1.6-0.5-2.6-0.5s-1.8,0.2-2.6,0.5c-0.8,0.3-1.4,0.8-2,1.4
		c-0.5,0.6-0.9,1.3-1.2,2.1C355.8,242,355.6,242.9,355.6,243.9z"/>
	<path d="M392.5,253.3h-3.6v-2.9h-0.1c-0.5,1-1.2,1.8-2.4,2.5c-1.1,0.6-2.4,0.9-3.9,0.9c-0.9,0-1.8-0.1-2.6-0.4
		c-0.8-0.3-1.6-0.7-2.2-1.3c-0.6-0.6-1.1-1.3-1.5-2.3c-0.4-0.9-0.6-2-0.6-3.3v-12.2h3.6v11.2c0,0.9,0.1,1.6,0.4,2.3
		c0.2,0.6,0.6,1.1,1,1.5c0.4,0.4,0.9,0.7,1.4,0.8c0.5,0.2,1.1,0.3,1.6,0.3c0.7,0,1.4-0.1,2.1-0.4c0.6-0.2,1.2-0.6,1.7-1.1
		c0.5-0.5,0.9-1.2,1.1-2c0.3-0.8,0.4-1.7,0.4-2.8v-9.8h3.6V253.3z"/>
	<path d="M397.4,223.1h3.6v30.2h-3.6V223.1z"/>
	<path d="M425.7,253.3h-3.6v-2.7H422c-0.7,1-1.6,1.8-2.9,2.4c-1.2,0.6-2.5,0.8-3.7,0.8c-1.5,0-2.8-0.3-4-0.8c-1.2-0.5-2.2-1.2-3-2.1
		c-0.8-0.9-1.5-2-1.9-3.2c-0.5-1.2-0.7-2.5-0.7-3.9c0-1.4,0.2-2.7,0.7-3.9c0.5-1.2,1.1-2.3,1.9-3.2c0.8-0.9,1.9-1.6,3-2.1
		s2.5-0.8,4-0.8c1.4,0,2.6,0.3,3.8,0.9c1.2,0.6,2.1,1.4,2.8,2.3h0.1v-14h3.6V253.3z M415.9,250.5c1,0,1.8-0.2,2.6-0.5
		c0.8-0.3,1.4-0.8,2-1.4c0.5-0.6,0.9-1.3,1.2-2.1c0.3-0.8,0.4-1.7,0.4-2.7c0-1-0.1-1.8-0.4-2.7s-0.7-1.5-1.2-2.1
		c-0.5-0.6-1.2-1-2-1.4c-0.8-0.3-1.6-0.5-2.6-0.5s-1.8,0.2-2.6,0.5c-0.8,0.3-1.4,0.8-2,1.4c-0.5,0.6-0.9,1.3-1.2,2.1
		c-0.3,0.8-0.4,1.7-0.4,2.7c0,1,0.1,1.8,0.4,2.7c0.3,0.8,0.7,1.5,1.2,2.1c0.5,0.6,1.2,1,2,1.4C414,250.3,414.9,250.5,415.9,250.5z"
		/>
	<path d="M440.1,223.1h3.6v30.2h-3.6V223.1z"/>
	<path d="M448.9,227.6c0-0.7,0.3-1.3,0.8-1.9c0.5-0.5,1.1-0.8,1.9-0.8s1.3,0.3,1.9,0.8c0.5,0.5,0.8,1.1,0.8,1.9
		c0,0.7-0.3,1.3-0.8,1.9c-0.5,0.5-1.1,0.8-1.9,0.8s-1.3-0.3-1.9-0.8C449.2,228.9,448.9,228.3,448.9,227.6z M449.7,234.4h3.6v19h-3.6
		V234.4z"/>
	<path d="M459.1,223.1h3.6v19.5l8.2-8.2h5L467,243l9.6,10.3h-5.1l-8.8-9.8v9.8h-3.6V223.1z"/>
	<path d="M482.5,245.2c0,0.8,0.2,1.6,0.5,2.3c0.4,0.7,0.8,1.3,1.4,1.7c0.6,0.5,1.3,0.9,2,1.1c0.8,0.3,1.6,0.4,2.4,0.4
		c1.1,0,2.1-0.3,2.9-0.8c0.8-0.5,1.6-1.2,2.3-2.1l2.7,2.1c-2,2.6-4.8,3.9-8.4,3.9c-1.5,0-2.8-0.3-4.1-0.8c-1.2-0.5-2.2-1.2-3.1-2.1
		s-1.5-1.9-1.9-3.2c-0.5-1.2-0.7-2.5-0.7-3.9c0-1.4,0.2-2.7,0.7-3.9c0.5-1.2,1.2-2.3,2-3.2c0.9-0.9,1.9-1.6,3.1-2.1
		c1.2-0.5,2.5-0.8,3.9-0.8c1.7,0,3.1,0.3,4.3,0.9s2.1,1.4,2.9,2.3c0.7,0.9,1.3,2,1.6,3.2s0.5,2.4,0.5,3.6v1.3H482.5z M493.9,242.3
		c0-0.8-0.2-1.5-0.4-2.2c-0.2-0.7-0.6-1.2-1-1.7c-0.5-0.5-1-0.9-1.7-1.2c-0.7-0.3-1.5-0.4-2.4-0.4c-0.9,0-1.7,0.2-2.4,0.5
		c-0.7,0.3-1.4,0.8-1.9,1.3c-0.5,0.5-0.9,1.1-1.2,1.8c-0.3,0.7-0.4,1.3-0.4,1.9H493.9z"/>
	<path d="M520.9,237.5h-5.2v8.6c0,0.5,0,1.1,0,1.6c0,0.5,0.1,1,0.3,1.4c0.2,0.4,0.4,0.7,0.8,1c0.4,0.3,0.9,0.4,1.6,0.4
		c0.4,0,0.9,0,1.3-0.1s0.9-0.2,1.2-0.4v3.3c-0.4,0.2-1,0.4-1.7,0.5s-1.2,0.1-1.6,0.1c-1.4,0-2.5-0.2-3.2-0.6
		c-0.8-0.4-1.3-0.9-1.7-1.5c-0.4-0.6-0.6-1.3-0.6-2.1s-0.1-1.5-0.1-2.3v-9.9H508v-3.1h4.2v-5.3h3.6v5.3h5.2V237.5z"/>
	<path d="M523.9,243.9c0-1.4,0.3-2.7,0.8-3.9c0.5-1.2,1.2-2.3,2.1-3.2s2-1.6,3.2-2.1c1.2-0.5,2.5-0.8,4-0.8c1.4,0,2.7,0.3,4,0.8
		c1.2,0.5,2.3,1.2,3.2,2.1c0.9,0.9,1.6,2,2.1,3.2c0.5,1.2,0.8,2.5,0.8,3.9c0,1.4-0.3,2.7-0.8,3.9c-0.5,1.2-1.2,2.3-2.1,3.2
		c-0.9,0.9-2,1.6-3.2,2.1c-1.2,0.5-2.5,0.8-4,0.8c-1.4,0-2.7-0.3-4-0.8c-1.2-0.5-2.3-1.2-3.2-2.1s-1.6-1.9-2.1-3.2
		C524.1,246.6,523.9,245.3,523.9,243.9z M527.7,243.9c0,1,0.1,1.8,0.4,2.7c0.3,0.8,0.7,1.5,1.2,2.1c0.5,0.6,1.2,1,2,1.4
		c0.8,0.3,1.6,0.5,2.6,0.5s1.8-0.2,2.6-0.5c0.8-0.3,1.4-0.8,2-1.4c0.5-0.6,0.9-1.3,1.2-2.1c0.3-0.8,0.4-1.7,0.4-2.7
		c0-1-0.1-1.8-0.4-2.7s-0.7-1.5-1.2-2.1c-0.5-0.6-1.2-1-2-1.4c-0.8-0.3-1.6-0.5-2.6-0.5s-1.8,0.2-2.6,0.5c-0.8,0.3-1.4,0.8-2,1.4
		c-0.5,0.6-0.9,1.3-1.2,2.1C527.8,242,527.7,242.9,527.7,243.9z"/>
	<path d="M576.3,253.3h-3.6v-2.7h-0.1c-0.7,1-1.6,1.8-2.9,2.4c-1.2,0.6-2.5,0.8-3.7,0.8c-1.5,0-2.8-0.3-4-0.8
		c-1.2-0.5-2.2-1.2-3-2.1c-0.8-0.9-1.5-2-1.9-3.2c-0.5-1.2-0.7-2.5-0.7-3.9c0-1.4,0.2-2.7,0.7-3.9c0.5-1.2,1.1-2.3,1.9-3.2
		c0.8-0.9,1.9-1.6,3-2.1s2.5-0.8,4-0.8c1.4,0,2.6,0.3,3.8,0.9c1.2,0.6,2.1,1.4,2.8,2.3h0.1v-14h3.6V253.3z M566.4,250.5
		c1,0,1.8-0.2,2.6-0.5c0.8-0.3,1.4-0.8,2-1.4c0.5-0.6,0.9-1.3,1.2-2.1c0.3-0.8,0.4-1.7,0.4-2.7c0-1-0.1-1.8-0.4-2.7
		s-0.7-1.5-1.2-2.1c-0.5-0.6-1.2-1-2-1.4c-0.8-0.3-1.6-0.5-2.6-0.5s-1.8,0.2-2.6,0.5c-0.8,0.3-1.4,0.8-2,1.4
		c-0.5,0.6-0.9,1.3-1.2,2.1c-0.3,0.8-0.4,1.7-0.4,2.7c0,1,0.1,1.8,0.4,2.7c0.3,0.8,0.7,1.5,1.2,2.1c0.5,0.6,1.2,1,2,1.4
		C564.6,250.3,565.5,250.5,566.4,250.5z"/>
	<path d="M580.3,227.6c0-0.7,0.3-1.3,0.8-1.9c0.5-0.5,1.1-0.8,1.9-0.8s1.3,0.3,1.9,0.8c0.5,0.5,0.8,1.1,0.8,1.9
		c0,0.7-0.3,1.3-0.8,1.9c-0.5,0.5-1.1,0.8-1.9,0.8s-1.3-0.3-1.9-0.8C580.6,228.9,580.3,228.3,580.3,227.6z M581.2,234.4h3.6v19h-3.6
		V234.4z"/>
	<path d="M600.6,239.1c-0.4-0.5-1-1-1.6-1.3s-1.4-0.5-2.3-0.5c-0.9,0-1.6,0.2-2.2,0.5c-0.6,0.4-0.9,0.9-0.9,1.6c0,0.6,0.2,1,0.5,1.4
		c0.4,0.3,0.8,0.6,1.3,0.8c0.5,0.2,1,0.4,1.6,0.5c0.6,0.1,1,0.2,1.4,0.3c0.8,0.2,1.5,0.4,2.2,0.7c0.7,0.3,1.3,0.6,1.8,1
		c0.5,0.4,0.9,0.9,1.2,1.6s0.4,1.4,0.4,2.2c0,1.1-0.2,2-0.7,2.7c-0.5,0.8-1,1.4-1.8,1.9c-0.7,0.5-1.5,0.8-2.5,1s-1.8,0.3-2.8,0.3
		c-1.6,0-3-0.2-4.1-0.7c-1.2-0.5-2.2-1.4-3.2-2.6l2.7-2.2c0.6,0.6,1.2,1.1,2,1.6s1.6,0.7,2.6,0.7c0.5,0,0.9,0,1.4-0.1
		c0.5-0.1,0.9-0.2,1.2-0.4c0.4-0.2,0.7-0.5,0.9-0.8c0.2-0.3,0.3-0.7,0.3-1.1c0-0.5-0.2-1-0.5-1.3c-0.3-0.3-0.7-0.6-1.2-0.8
		c-0.5-0.2-1-0.4-1.5-0.5c-0.5-0.1-1-0.2-1.4-0.3c-0.8-0.2-1.5-0.4-2.2-0.6s-1.3-0.6-1.8-1c-0.5-0.4-1-0.9-1.3-1.5
		c-0.3-0.6-0.5-1.4-0.5-2.3c0-1,0.2-1.8,0.6-2.6c0.4-0.7,1-1.3,1.6-1.8c0.7-0.5,1.5-0.8,2.3-1.1c0.9-0.2,1.7-0.4,2.6-0.4
		c1.3,0,2.5,0.2,3.7,0.7c1.2,0.5,2.1,1.3,2.8,2.4L600.6,239.1z"/>
	<path d="M621.8,239.4c-0.7-0.7-1.4-1.2-2.1-1.6s-1.6-0.5-2.6-0.5c-1,0-1.8,0.2-2.6,0.5c-0.7,0.4-1.3,0.9-1.8,1.5
		c-0.5,0.6-0.9,1.3-1.1,2.2c-0.3,0.8-0.4,1.7-0.4,2.5s0.1,1.7,0.4,2.5c0.3,0.8,0.7,1.5,1.2,2.1c0.5,0.6,1.2,1,1.9,1.4
		c0.7,0.3,1.6,0.5,2.5,0.5c1,0,1.9-0.2,2.6-0.5c0.7-0.4,1.4-0.9,2-1.6l2.6,2.6c-0.9,1-2,1.8-3.3,2.2s-2.6,0.7-3.9,0.7
		c-1.5,0-2.8-0.2-4-0.7c-1.2-0.5-2.3-1.2-3.1-2c-0.9-0.9-1.6-1.9-2-3.1c-0.5-1.2-0.7-2.6-0.7-4c0-1.5,0.2-2.8,0.7-4
		c0.5-1.2,1.2-2.3,2-3.2c0.9-0.9,1.9-1.6,3.1-2.1c1.2-0.5,2.6-0.7,4.1-0.7c1.4,0,2.7,0.2,4,0.7c1.3,0.5,2.4,1.2,3.3,2.3L621.8,239.4
		z"/>
	<path d="M644.3,253.3h-3.6v-2.9h-0.1c-0.5,1-1.2,1.8-2.4,2.5c-1.1,0.6-2.4,0.9-3.9,0.9c-0.9,0-1.8-0.1-2.6-0.4
		c-0.8-0.3-1.6-0.7-2.2-1.3c-0.6-0.6-1.1-1.3-1.5-2.3c-0.4-0.9-0.6-2-0.6-3.3v-12.2h3.6v11.2c0,0.9,0.1,1.6,0.4,2.3
		c0.2,0.6,0.6,1.1,1,1.5c0.4,0.4,0.9,0.7,1.4,0.8c0.5,0.2,1.1,0.3,1.6,0.3c0.7,0,1.4-0.1,2.1-0.4c0.6-0.2,1.2-0.6,1.7-1.1
		c0.5-0.5,0.9-1.2,1.1-2c0.3-0.8,0.4-1.7,0.4-2.8v-9.8h3.6V253.3z"/>
	<path d="M659.9,239.1c-0.4-0.5-1-1-1.6-1.3s-1.4-0.5-2.3-0.5c-0.9,0-1.6,0.2-2.2,0.5c-0.6,0.4-0.9,0.9-0.9,1.6c0,0.6,0.2,1,0.5,1.4
		c0.4,0.3,0.8,0.6,1.3,0.8c0.5,0.2,1,0.4,1.6,0.5c0.6,0.1,1,0.2,1.4,0.3c0.8,0.2,1.5,0.4,2.2,0.7c0.7,0.3,1.3,0.6,1.8,1
		c0.5,0.4,0.9,0.9,1.2,1.6s0.4,1.4,0.4,2.2c0,1.1-0.2,2-0.7,2.7c-0.5,0.8-1,1.4-1.8,1.9c-0.7,0.5-1.5,0.8-2.5,1s-1.8,0.3-2.8,0.3
		c-1.6,0-3-0.2-4.1-0.7c-1.2-0.5-2.2-1.4-3.2-2.6l2.7-2.2c0.6,0.6,1.2,1.1,2,1.6s1.6,0.7,2.6,0.7c0.5,0,0.9,0,1.4-0.1
		c0.5-0.1,0.9-0.2,1.2-0.4c0.4-0.2,0.7-0.5,0.9-0.8c0.2-0.3,0.3-0.7,0.3-1.1c0-0.5-0.2-1-0.5-1.3c-0.3-0.3-0.7-0.6-1.2-0.8
		c-0.5-0.2-1-0.4-1.5-0.5c-0.5-0.1-1-0.2-1.4-0.3c-0.8-0.2-1.5-0.4-2.2-0.6s-1.3-0.6-1.8-1c-0.5-0.4-1-0.9-1.3-1.5
		c-0.3-0.6-0.5-1.4-0.5-2.3c0-1,0.2-1.8,0.6-2.6c0.4-0.7,1-1.3,1.6-1.8c0.7-0.5,1.5-0.8,2.3-1.1c0.9-0.2,1.7-0.4,2.6-0.4
		c1.3,0,2.5,0.2,3.7,0.7c1.2,0.5,2.1,1.3,2.8,2.4L659.9,239.1z"/>
	<path d="M677.6,239.1c-0.4-0.5-1-1-1.6-1.3s-1.4-0.5-2.3-0.5c-0.9,0-1.6,0.2-2.2,0.5c-0.6,0.4-0.9,0.9-0.9,1.6c0,0.6,0.2,1,0.5,1.4
		c0.4,0.3,0.8,0.6,1.3,0.8c0.5,0.2,1,0.4,1.6,0.5c0.6,0.1,1,0.2,1.4,0.3c0.8,0.2,1.5,0.4,2.2,0.7c0.7,0.3,1.3,0.6,1.8,1
		c0.5,0.4,0.9,0.9,1.2,1.6s0.4,1.4,0.4,2.2c0,1.1-0.2,2-0.7,2.7c-0.5,0.8-1,1.4-1.8,1.9c-0.7,0.5-1.5,0.8-2.5,1s-1.8,0.3-2.8,0.3
		c-1.6,0-3-0.2-4.1-0.7c-1.2-0.5-2.2-1.4-3.2-2.6l2.7-2.2c0.6,0.6,1.2,1.1,2,1.6s1.6,0.7,2.6,0.7c0.5,0,0.9,0,1.4-0.1
		c0.5-0.1,0.9-0.2,1.2-0.4c0.4-0.2,0.7-0.5,0.9-0.8c0.2-0.3,0.3-0.7,0.3-1.1c0-0.5-0.2-1-0.5-1.3c-0.3-0.3-0.7-0.6-1.2-0.8
		c-0.5-0.2-1-0.4-1.5-0.5c-0.5-0.1-1-0.2-1.4-0.3c-0.8-0.2-1.5-0.4-2.2-0.6s-1.3-0.6-1.8-1c-0.5-0.4-1-0.9-1.3-1.5
		c-0.3-0.6-0.5-1.4-0.5-2.3c0-1,0.2-1.8,0.6-2.6c0.4-0.7,1-1.3,1.6-1.8c0.7-0.5,1.5-0.8,2.3-1.1c0.9-0.2,1.7-0.4,2.6-0.4
		c1.3,0,2.5,0.2,3.7,0.7c1.2,0.5,2.1,1.3,2.8,2.4L677.6,239.1z"/>
	<path d="M694.1,236.7c1-0.9,2.2-1.6,3.5-2.1c1.3-0.5,2.7-0.7,4-0.7c1.4,0,2.6,0.2,3.6,0.5s1.8,0.8,2.5,1.4c0.6,0.6,1.1,1.3,1.4,2
		c0.3,0.8,0.5,1.6,0.5,2.4v9.7c0,0.7,0,1.3,0,1.8c0,0.6,0.1,1.1,0.1,1.6h-3.2c-0.1-1-0.1-1.9-0.1-2.9h-0.1c-0.8,1.2-1.7,2.1-2.8,2.6
		c-1.1,0.5-2.4,0.8-3.8,0.8c-0.9,0-1.7-0.1-2.5-0.4s-1.5-0.6-2.1-1.1c-0.6-0.5-1.1-1.1-1.4-1.8c-0.3-0.7-0.5-1.5-0.5-2.5
		c0-1.2,0.3-2.3,0.8-3.1c0.5-0.8,1.3-1.5,2.2-2c0.9-0.5,2.1-0.9,3.3-1.1s2.6-0.3,4.1-0.3h2.6v-0.8c0-0.5-0.1-1-0.3-1.4
		s-0.5-0.9-0.8-1.3s-0.8-0.7-1.4-0.9c-0.6-0.2-1.2-0.3-2-0.3c-0.7,0-1.3,0.1-1.8,0.2c-0.5,0.1-1,0.3-1.4,0.5
		c-0.4,0.2-0.8,0.4-1.2,0.7c-0.3,0.3-0.7,0.5-1,0.8L694.1,236.7z M704.3,244.2c-0.9,0-1.7,0-2.6,0.1c-0.9,0.1-1.7,0.3-2.4,0.5
		c-0.7,0.3-1.3,0.6-1.8,1.1c-0.5,0.5-0.7,1.1-0.7,1.8c0,1.1,0.4,1.9,1.1,2.4c0.7,0.5,1.7,0.7,3,0.7c1,0,1.8-0.2,2.5-0.5
		c0.7-0.3,1.3-0.8,1.7-1.3c0.4-0.5,0.7-1.1,0.9-1.8c0.2-0.7,0.3-1.3,0.3-1.9v-1.2H704.3z"/>
	<path d="M723.5,234.4h3.6v2.7h0.1c0.7-1,1.6-1.8,2.9-2.4c1.2-0.6,2.5-0.8,3.7-0.8c1.5,0,2.8,0.3,4,0.8c1.2,0.5,2.2,1.2,3,2.1
		c0.8,0.9,1.5,2,1.9,3.2c0.5,1.2,0.7,2.5,0.7,3.9c0,1.4-0.2,2.7-0.7,3.9c-0.5,1.2-1.1,2.3-1.9,3.2c-0.8,0.9-1.9,1.6-3,2.1
		c-1.2,0.5-2.5,0.8-4,0.8c-1.4,0-2.6-0.3-3.8-0.9s-2.1-1.4-2.8-2.3h-0.1v14h-3.6V234.4z M733.3,237.3c-1,0-1.8,0.2-2.6,0.5
		c-0.8,0.3-1.4,0.8-2,1.4c-0.5,0.6-0.9,1.3-1.2,2.1c-0.3,0.8-0.4,1.7-0.4,2.7c0,1,0.1,1.8,0.4,2.7c0.3,0.8,0.7,1.5,1.2,2.1
		c0.5,0.6,1.2,1,2,1.4c0.8,0.3,1.6,0.5,2.6,0.5s1.8-0.2,2.6-0.5c0.8-0.3,1.4-0.8,2-1.4c0.5-0.6,0.9-1.3,1.2-2.1
		c0.3-0.8,0.4-1.7,0.4-2.7c0-1-0.1-1.8-0.4-2.7c-0.3-0.8-0.7-1.5-1.2-2.1c-0.5-0.6-1.2-1-2-1.4C735.2,237.4,734.3,237.3,733.3,237.3
		z"/>
	<path d="M747.9,234.4h3.6v2.9h0.1c0.2-0.5,0.6-1,1-1.4c0.4-0.4,0.8-0.8,1.3-1.1c0.5-0.3,1-0.5,1.6-0.7c0.6-0.2,1.2-0.3,1.8-0.3
		c0.6,0,1.1,0.1,1.6,0.2l-0.2,3.9c-0.3-0.1-0.6-0.1-0.9-0.2c-0.3-0.1-0.6-0.1-0.9-0.1c-1.8,0-3.1,0.5-4,1.5c-0.9,1-1.4,2.5-1.4,4.6
		v9.5h-3.6V234.4z"/>
	<path d="M761.1,243.9c0-1.4,0.3-2.7,0.8-3.9c0.5-1.2,1.2-2.3,2.1-3.2s2-1.6,3.2-2.1c1.2-0.5,2.5-0.8,4-0.8c1.4,0,2.7,0.3,4,0.8
		c1.2,0.5,2.3,1.2,3.2,2.1c0.9,0.9,1.6,2,2.1,3.2c0.5,1.2,0.8,2.5,0.8,3.9c0,1.4-0.3,2.7-0.8,3.9c-0.5,1.2-1.2,2.3-2.1,3.2
		c-0.9,0.9-2,1.6-3.2,2.1c-1.2,0.5-2.5,0.8-4,0.8c-1.4,0-2.7-0.3-4-0.8c-1.2-0.5-2.3-1.2-3.2-2.1s-1.6-1.9-2.1-3.2
		C761.4,246.6,761.1,245.3,761.1,243.9z M764.9,243.9c0,1,0.1,1.8,0.4,2.7c0.3,0.8,0.7,1.5,1.2,2.1c0.5,0.6,1.2,1,2,1.4
		c0.8,0.3,1.6,0.5,2.6,0.5s1.8-0.2,2.6-0.5c0.8-0.3,1.4-0.8,2-1.4c0.5-0.6,0.9-1.3,1.2-2.1c0.3-0.8,0.4-1.7,0.4-2.7
		c0-1-0.1-1.8-0.4-2.7s-0.7-1.5-1.2-2.1c-0.5-0.6-1.2-1-2-1.4c-0.8-0.3-1.6-0.5-2.6-0.5s-1.8,0.2-2.6,0.5c-0.8,0.3-1.4,0.8-2,1.4
		c-0.5,0.6-0.9,1.3-1.2,2.1C765.1,242,764.9,242.9,764.9,243.9z"/>
	<path d="M789.7,234.4v21.7c0,0.5,0,1.1-0.1,1.9c-0.1,0.8-0.3,1.5-0.6,2.3c-0.4,0.7-0.9,1.4-1.7,1.9s-1.9,0.8-3.3,0.8
		c-0.4,0-0.8,0-1.2-0.1c-0.4-0.1-0.8-0.1-1.1-0.3l0.4-3.3c0.2,0.1,0.5,0.2,0.7,0.2c0.3,0.1,0.5,0.1,0.8,0.1c1,0,1.7-0.3,2.1-0.9
		c0.4-0.6,0.6-1.5,0.6-2.7v-21.5H789.7z M785.2,227.6c0-0.7,0.3-1.3,0.8-1.9c0.5-0.5,1.1-0.8,1.9-0.8s1.3,0.3,1.9,0.8
		c0.5,0.5,0.8,1.1,0.8,1.9c0,0.7-0.3,1.3-0.8,1.9c-0.5,0.5-1.1,0.8-1.9,0.8s-1.3-0.3-1.9-0.8C785.5,228.9,785.2,228.3,785.2,227.6z"
		/>
	<path d="M798.1,245.2c0,0.8,0.2,1.6,0.5,2.3c0.4,0.7,0.8,1.3,1.4,1.7c0.6,0.5,1.3,0.9,2,1.1c0.8,0.3,1.6,0.4,2.4,0.4
		c1.1,0,2.1-0.3,2.9-0.8c0.8-0.5,1.6-1.2,2.3-2.1l2.7,2.1c-2,2.6-4.8,3.9-8.4,3.9c-1.5,0-2.8-0.3-4.1-0.8c-1.2-0.5-2.2-1.2-3.1-2.1
		s-1.5-1.9-1.9-3.2c-0.5-1.2-0.7-2.5-0.7-3.9c0-1.4,0.2-2.7,0.7-3.9c0.5-1.2,1.2-2.3,2-3.2c0.9-0.9,1.9-1.6,3.1-2.1
		c1.2-0.5,2.5-0.8,3.9-0.8c1.7,0,3.1,0.3,4.3,0.9s2.1,1.4,2.9,2.3c0.7,0.9,1.3,2,1.6,3.2s0.5,2.4,0.5,3.6v1.3H798.1z M809.5,242.3
		c0-0.8-0.2-1.5-0.4-2.2c-0.2-0.7-0.6-1.2-1-1.7c-0.5-0.5-1-0.9-1.7-1.2c-0.7-0.3-1.5-0.4-2.4-0.4c-0.9,0-1.7,0.2-2.4,0.5
		c-0.7,0.3-1.4,0.8-1.9,1.3c-0.5,0.5-0.9,1.1-1.2,1.8c-0.3,0.7-0.4,1.3-0.4,1.9H809.5z"/>
	<path d="M831.2,239.4c-0.7-0.7-1.4-1.2-2.1-1.6s-1.6-0.5-2.6-0.5c-1,0-1.8,0.2-2.6,0.5c-0.7,0.4-1.3,0.9-1.8,1.5
		c-0.5,0.6-0.9,1.3-1.1,2.2c-0.3,0.8-0.4,1.7-0.4,2.5s0.1,1.7,0.4,2.5c0.3,0.8,0.7,1.5,1.2,2.1c0.5,0.6,1.2,1,1.9,1.4
		c0.7,0.3,1.6,0.5,2.5,0.5c1,0,1.9-0.2,2.6-0.5c0.7-0.4,1.4-0.9,2-1.6l2.6,2.6c-0.9,1-2,1.8-3.3,2.2s-2.6,0.7-3.9,0.7
		c-1.5,0-2.8-0.2-4-0.7c-1.2-0.5-2.3-1.2-3.1-2c-0.9-0.9-1.6-1.9-2-3.1c-0.5-1.2-0.7-2.6-0.7-4c0-1.5,0.2-2.8,0.7-4
		c0.5-1.2,1.2-2.3,2-3.2c0.9-0.9,1.9-1.6,3.1-2.1c1.2-0.5,2.6-0.7,4.1-0.7c1.4,0,2.7,0.2,4,0.7c1.3,0.5,2.4,1.2,3.3,2.3L831.2,239.4
		z"/>
	<path d="M847.1,237.5h-5.2v8.6c0,0.5,0,1.1,0,1.6c0,0.5,0.1,1,0.3,1.4c0.2,0.4,0.4,0.7,0.8,1c0.4,0.3,0.9,0.4,1.6,0.4
		c0.4,0,0.9,0,1.3-0.1s0.9-0.2,1.2-0.4v3.3c-0.4,0.2-1,0.4-1.7,0.5s-1.2,0.1-1.6,0.1c-1.4,0-2.5-0.2-3.2-0.6
		c-0.8-0.4-1.3-0.9-1.7-1.5c-0.4-0.6-0.6-1.3-0.6-2.1s-0.1-1.5-0.1-2.3v-9.9h-4.2v-3.1h4.2v-5.3h3.6v5.3h5.2V237.5z"/>
	<path d="M854.2,258.6h-3.3l2.8-9.8h3.8L854.2,258.6z"/>
	<path d="M873.4,227.6c0-0.7,0.3-1.3,0.8-1.9c0.5-0.5,1.1-0.8,1.9-0.8s1.3,0.3,1.9,0.8c0.5,0.5,0.8,1.1,0.8,1.9
		c0,0.7-0.3,1.3-0.8,1.9c-0.5,0.5-1.1,0.8-1.9,0.8s-1.3-0.3-1.9-0.8C873.6,228.9,873.4,228.3,873.4,227.6z M874.2,234.4h3.6v19h-3.6
		V234.4z"/>
	<path d="M883.5,234.4h3.6v2.9h0.1c0.5-1,1.2-1.8,2.4-2.5c1.1-0.6,2.4-0.9,3.9-0.9c0.9,0,1.8,0.1,2.6,0.4c0.8,0.3,1.6,0.7,2.2,1.3
		c0.6,0.6,1.1,1.3,1.5,2.3c0.4,0.9,0.6,2,0.6,3.3v12.2h-3.6v-11.2c0-0.9-0.1-1.6-0.4-2.3c-0.2-0.6-0.6-1.1-1-1.5
		c-0.4-0.4-0.9-0.7-1.4-0.8c-0.5-0.2-1.1-0.3-1.6-0.3c-0.7,0-1.4,0.1-2.1,0.4c-0.6,0.2-1.2,0.6-1.7,1.1c-0.5,0.5-0.9,1.2-1.1,2
		c-0.3,0.8-0.4,1.7-0.4,2.8v9.8h-3.6V234.4z"/>
	<path d="M924.8,262.5h-3.6v-11.8h-0.1c-0.6,1-1.6,1.8-2.8,2.3s-2.5,0.9-3.8,0.9c-1.5,0-2.8-0.3-4-0.8c-1.2-0.5-2.2-1.2-3-2.1
		s-1.5-1.9-1.9-3.2c-0.5-1.2-0.7-2.5-0.7-3.9c0-1.4,0.2-2.7,0.7-3.9c0.5-1.2,1.1-2.3,1.9-3.2s1.9-1.6,3-2.1s2.5-0.8,4-0.8
		c1.3,0,2.5,0.3,3.7,0.8c1.2,0.6,2.2,1.3,2.9,2.4h0.1v-2.7h3.6V262.5z M914.9,237.3c-1,0-1.8,0.2-2.6,0.5c-0.8,0.3-1.4,0.8-2,1.4
		c-0.5,0.6-0.9,1.3-1.2,2.1c-0.3,0.8-0.4,1.7-0.4,2.7c0,1,0.1,1.8,0.4,2.7c0.3,0.8,0.7,1.5,1.2,2.1c0.5,0.6,1.2,1,2,1.4
		c0.8,0.3,1.6,0.5,2.6,0.5s1.8-0.2,2.6-0.5c0.8-0.3,1.4-0.8,2-1.4c0.5-0.6,0.9-1.3,1.2-2.1c0.3-0.8,0.4-1.7,0.4-2.7
		c0-1-0.1-1.8-0.4-2.7s-0.7-1.5-1.2-2.1c-0.5-0.6-1.2-1-2-1.4C916.8,237.4,915.9,237.3,914.9,237.3z"/>
	<path d="M947,253.3h-3.6v-2.9h-0.1c-0.5,1-1.2,1.8-2.4,2.5c-1.1,0.6-2.4,0.9-3.9,0.9c-0.9,0-1.8-0.1-2.6-0.4
		c-0.8-0.3-1.6-0.7-2.2-1.3c-0.6-0.6-1.1-1.3-1.5-2.3c-0.4-0.9-0.6-2-0.6-3.3v-12.2h3.6v11.2c0,0.9,0.1,1.6,0.4,2.3
		c0.2,0.6,0.6,1.1,1,1.5c0.4,0.4,0.9,0.7,1.4,0.8c0.5,0.2,1.1,0.3,1.6,0.3c0.7,0,1.4-0.1,2.1-0.4c0.6-0.2,1.2-0.6,1.7-1.1
		c0.5-0.5,0.9-1.2,1.1-2c0.3-0.8,0.4-1.7,0.4-2.8v-9.8h3.6V253.3z"/>
	<path d="M951.9,227.6c0-0.7,0.3-1.3,0.8-1.9c0.5-0.5,1.1-0.8,1.9-0.8s1.3,0.3,1.9,0.8c0.5,0.5,0.8,1.1,0.8,1.9
		c0,0.7-0.3,1.3-0.8,1.9c-0.5,0.5-1.1,0.8-1.9,0.8s-1.3-0.3-1.9-0.8C952.2,228.9,951.9,228.3,951.9,227.6z M952.7,234.4h3.6v19h-3.6
		V234.4z"/>
	<path d="M962.1,234.4h3.6v2.9h0.1c0.2-0.5,0.6-1,1-1.4c0.4-0.4,0.8-0.8,1.3-1.1c0.5-0.3,1-0.5,1.6-0.7c0.6-0.2,1.2-0.3,1.8-0.3
		c0.6,0,1.1,0.1,1.6,0.2l-0.2,3.9c-0.3-0.1-0.6-0.1-0.9-0.2c-0.3-0.1-0.6-0.1-0.9-0.1c-1.8,0-3.1,0.5-4,1.5c-0.9,1-1.4,2.5-1.4,4.6
		v9.5h-3.6V234.4z"/>
	<path d="M978.9,245.2c0,0.8,0.2,1.6,0.5,2.3c0.4,0.7,0.8,1.3,1.4,1.7c0.6,0.5,1.3,0.9,2,1.1c0.8,0.3,1.6,0.4,2.4,0.4
		c1.1,0,2.1-0.3,2.9-0.8c0.8-0.5,1.6-1.2,2.3-2.1l2.7,2.1c-2,2.6-4.8,3.9-8.4,3.9c-1.5,0-2.8-0.3-4.1-0.8c-1.2-0.5-2.2-1.2-3.1-2.1
		s-1.5-1.9-1.9-3.2c-0.5-1.2-0.7-2.5-0.7-3.9c0-1.4,0.2-2.7,0.7-3.9c0.5-1.2,1.2-2.3,2-3.2c0.9-0.9,1.9-1.6,3.1-2.1
		c1.2-0.5,2.5-0.8,3.9-0.8c1.7,0,3.1,0.3,4.3,0.9s2.1,1.4,2.9,2.3c0.7,0.9,1.3,2,1.6,3.2s0.5,2.4,0.5,3.6v1.3H978.9z M990.2,242.3
		c0-0.8-0.2-1.5-0.4-2.2c-0.2-0.7-0.6-1.2-1-1.7c-0.5-0.5-1-0.9-1.7-1.2c-0.7-0.3-1.5-0.4-2.4-0.4c-0.9,0-1.7,0.2-2.4,0.5
		c-0.7,0.3-1.4,0.8-1.9,1.3c-0.5,0.5-0.9,1.1-1.2,1.8c-0.3,0.7-0.4,1.3-0.4,1.9H990.2z"/>
	<path d="M1009.6,236.7c1-0.9,2.2-1.6,3.5-2.1c1.3-0.5,2.7-0.7,4-0.7c1.4,0,2.6,0.2,3.6,0.5s1.8,0.8,2.5,1.4c0.6,0.6,1.1,1.3,1.4,2
		c0.3,0.8,0.5,1.6,0.5,2.4v9.7c0,0.7,0,1.3,0,1.8c0,0.6,0.1,1.1,0.1,1.6h-3.2c-0.1-1-0.1-1.9-0.1-2.9h-0.1c-0.8,1.2-1.7,2.1-2.8,2.6
		c-1.1,0.5-2.4,0.8-3.8,0.8c-0.9,0-1.7-0.1-2.5-0.4s-1.5-0.6-2.1-1.1c-0.6-0.5-1.1-1.1-1.4-1.8c-0.3-0.7-0.5-1.5-0.5-2.5
		c0-1.2,0.3-2.3,0.8-3.1c0.5-0.8,1.3-1.5,2.2-2c0.9-0.5,2.1-0.9,3.3-1.1s2.6-0.3,4.1-0.3h2.6v-0.8c0-0.5-0.1-1-0.3-1.4
		s-0.5-0.9-0.8-1.3s-0.8-0.7-1.4-0.9c-0.6-0.2-1.2-0.3-2-0.3c-0.7,0-1.3,0.1-1.8,0.2c-0.5,0.1-1,0.3-1.4,0.5
		c-0.4,0.2-0.8,0.4-1.2,0.7c-0.3,0.3-0.7,0.5-1,0.8L1009.6,236.7z M1019.7,244.2c-0.9,0-1.7,0-2.6,0.1c-0.9,0.1-1.7,0.3-2.4,0.5
		c-0.7,0.3-1.3,0.6-1.8,1.1c-0.5,0.5-0.7,1.1-0.7,1.8c0,1.1,0.4,1.9,1.1,2.4c0.7,0.5,1.7,0.7,3,0.7c1,0,1.8-0.2,2.5-0.5
		c0.7-0.3,1.3-0.8,1.7-1.3c0.4-0.5,0.7-1.1,0.9-1.8c0.2-0.7,0.3-1.3,0.3-1.9v-1.2H1019.7z"/>
	<path d="M1030.3,223.1h3.6v14h0.1c0.6-1,1.6-1.8,2.8-2.3c1.2-0.6,2.5-0.9,3.8-0.9c1.5,0,2.8,0.3,4,0.8c1.2,0.5,2.2,1.2,3,2.1
		c0.8,0.9,1.5,1.9,1.9,3.2c0.5,1.2,0.7,2.5,0.7,3.9c0,1.4-0.2,2.7-0.7,3.9c-0.5,1.2-1.1,2.3-1.9,3.2c-0.8,0.9-1.9,1.6-3,2.1
		c-1.2,0.5-2.5,0.8-4,0.8c-1.3,0-2.5-0.3-3.7-0.8c-1.2-0.6-2.2-1.3-2.9-2.4h-0.1v2.7h-3.6V223.1z M1040.1,250.5c1,0,1.8-0.2,2.6-0.5
		c0.8-0.3,1.4-0.8,2-1.4c0.5-0.6,0.9-1.3,1.2-2.1c0.3-0.8,0.4-1.7,0.4-2.7c0-1-0.1-1.8-0.4-2.7c-0.3-0.8-0.7-1.5-1.2-2.1
		c-0.5-0.6-1.2-1-2-1.4c-0.8-0.3-1.6-0.5-2.6-0.5s-1.8,0.2-2.6,0.5c-0.8,0.3-1.4,0.8-2,1.4c-0.5,0.6-0.9,1.3-1.2,2.1
		c-0.3,0.8-0.4,1.7-0.4,2.7c0,1,0.1,1.8,0.4,2.7c0.3,0.8,0.7,1.5,1.2,2.1c0.5,0.6,1.2,1,2,1.4
		C1038.3,250.3,1039.1,250.5,1040.1,250.5z"/>
	<path d="M1053.8,243.9c0-1.4,0.3-2.7,0.8-3.9c0.5-1.2,1.2-2.3,2.1-3.2s2-1.6,3.2-2.1c1.2-0.5,2.5-0.8,4-0.8c1.4,0,2.7,0.3,4,0.8
		c1.2,0.5,2.3,1.2,3.2,2.1c0.9,0.9,1.6,2,2.1,3.2c0.5,1.2,0.8,2.5,0.8,3.9c0,1.4-0.3,2.7-0.8,3.9c-0.5,1.2-1.2,2.3-2.1,3.2
		c-0.9,0.9-2,1.6-3.2,2.1c-1.2,0.5-2.5,0.8-4,0.8c-1.4,0-2.7-0.3-4-0.8c-1.2-0.5-2.3-1.2-3.2-2.1s-1.6-1.9-2.1-3.2
		C1054,246.6,1053.8,245.3,1053.8,243.9z M1057.6,243.9c0,1,0.1,1.8,0.4,2.7c0.3,0.8,0.7,1.5,1.2,2.1c0.5,0.6,1.2,1,2,1.4
		c0.8,0.3,1.6,0.5,2.6,0.5s1.8-0.2,2.6-0.5c0.8-0.3,1.4-0.8,2-1.4c0.5-0.6,0.9-1.3,1.2-2.1c0.3-0.8,0.4-1.7,0.4-2.7
		c0-1-0.1-1.8-0.4-2.7s-0.7-1.5-1.2-2.1c-0.5-0.6-1.2-1-2-1.4c-0.8-0.3-1.6-0.5-2.6-0.5s-1.8,0.2-2.6,0.5c-0.8,0.3-1.4,0.8-2,1.4
		c-0.5,0.6-0.9,1.3-1.2,2.1C1057.8,242,1057.6,242.9,1057.6,243.9z"/>
	<path d="M1095.3,253.3h-3.6v-2.9h-0.1c-0.5,1-1.2,1.8-2.4,2.5c-1.1,0.6-2.4,0.9-3.9,0.9c-0.9,0-1.8-0.1-2.6-0.4
		c-0.8-0.3-1.6-0.7-2.2-1.3c-0.6-0.6-1.1-1.3-1.5-2.3c-0.4-0.9-0.6-2-0.6-3.3v-12.2h3.6v11.2c0,0.9,0.1,1.6,0.4,2.3
		c0.2,0.6,0.6,1.1,1,1.5c0.4,0.4,0.9,0.7,1.4,0.8c0.5,0.2,1.1,0.3,1.6,0.3c0.7,0,1.4-0.1,2.1-0.4c0.6-0.2,1.2-0.6,1.7-1.1
		c0.5-0.5,0.9-1.2,1.1-2c0.3-0.8,0.4-1.7,0.4-2.8v-9.8h3.6V253.3z"/>
	<path d="M1110.9,237.5h-5.2v8.6c0,0.5,0,1.1,0,1.6c0,0.5,0.1,1,0.3,1.4c0.2,0.4,0.4,0.7,0.8,1c0.4,0.3,0.9,0.4,1.6,0.4
		c0.4,0,0.9,0,1.3-0.1s0.9-0.2,1.2-0.4v3.3c-0.4,0.2-1,0.4-1.7,0.5s-1.2,0.1-1.6,0.1c-1.4,0-2.5-0.2-3.2-0.6
		c-0.8-0.4-1.3-0.9-1.7-1.5c-0.4-0.6-0.6-1.3-0.6-2.1s-0.1-1.5-0.1-2.3v-9.9h-4.2v-3.1h4.2v-5.3h3.6v5.3h5.2V237.5z"/>
	<path d="M1126.6,234.4h3.4v3h0.1c0.1-0.3,0.3-0.6,0.6-1c0.3-0.4,0.8-0.8,1.3-1.1c0.5-0.4,1.1-0.7,1.8-0.9c0.7-0.3,1.5-0.4,2.3-0.4
		c1.4,0,2.6,0.3,3.6,0.9s1.7,1.5,2.4,2.6c0.6-1.2,1.5-2.1,2.6-2.6s2.3-0.9,3.4-0.9c1.5,0,2.7,0.2,3.6,0.7c0.9,0.5,1.7,1.1,2.2,1.9
		c0.5,0.8,0.9,1.7,1.1,2.7c0.2,1,0.3,2,0.3,3.1v11h-3.6v-10.6c0-0.7,0-1.4-0.1-2.1c-0.1-0.7-0.3-1.3-0.6-1.8
		c-0.3-0.5-0.7-0.9-1.2-1.2c-0.5-0.3-1.2-0.5-2.1-0.5c-1.7,0-3,0.5-3.7,1.6c-0.7,1.1-1.1,2.4-1.1,4.1v10.4h-3.6v-9.9
		c0-0.9,0-1.7-0.1-2.5c-0.1-0.7-0.3-1.4-0.6-1.9s-0.7-1-1.2-1.3c-0.5-0.3-1.2-0.5-2.1-0.5c-0.6,0-1.3,0.1-1.9,0.4
		c-0.6,0.3-1.1,0.6-1.6,1.1s-0.8,1.2-1.1,1.9c-0.3,0.8-0.4,1.7-0.4,2.8v9.8h-3.6V234.4z"/>
	<path d="M1158.5,234.4h4.2l5.6,14.8h0.1l5.4-14.8h3.8l-9,23c-0.3,0.8-0.7,1.6-1,2.3c-0.3,0.7-0.8,1.3-1.2,1.7
		c-0.5,0.5-1.1,0.9-1.7,1.1c-0.7,0.3-1.5,0.4-2.5,0.4c-0.5,0-1.1,0-1.6-0.1s-1.1-0.2-1.6-0.4l0.4-3.3c0.7,0.3,1.4,0.4,2.1,0.4
		c0.6,0,1-0.1,1.4-0.2s0.7-0.4,1-0.6c0.3-0.3,0.5-0.6,0.7-1c0.2-0.4,0.4-0.8,0.6-1.3l1.2-3L1158.5,234.4z"/>
	<path d="M1201.9,239.1c-0.4-0.5-1-1-1.6-1.3s-1.4-0.5-2.3-0.5c-0.9,0-1.6,0.2-2.2,0.5c-0.6,0.4-0.9,0.9-0.9,1.6
		c0,0.6,0.2,1,0.5,1.4c0.4,0.3,0.8,0.6,1.3,0.8c0.5,0.2,1,0.4,1.6,0.5c0.6,0.1,1,0.2,1.4,0.3c0.8,0.2,1.5,0.4,2.2,0.7
		c0.7,0.3,1.3,0.6,1.8,1c0.5,0.4,0.9,0.9,1.2,1.6s0.4,1.4,0.4,2.2c0,1.1-0.2,2-0.7,2.7c-0.5,0.8-1,1.4-1.8,1.9
		c-0.7,0.5-1.5,0.8-2.5,1s-1.8,0.3-2.8,0.3c-1.6,0-3-0.2-4.1-0.7c-1.2-0.5-2.2-1.4-3.2-2.6l2.7-2.2c0.6,0.6,1.2,1.1,2,1.6
		s1.6,0.7,2.6,0.7c0.5,0,0.9,0,1.4-0.1c0.5-0.1,0.9-0.2,1.2-0.4c0.4-0.2,0.7-0.5,0.9-0.8c0.2-0.3,0.3-0.7,0.3-1.1
		c0-0.5-0.2-1-0.5-1.3c-0.3-0.3-0.7-0.6-1.2-0.8c-0.5-0.2-1-0.4-1.5-0.5c-0.5-0.1-1-0.2-1.4-0.3c-0.8-0.2-1.5-0.4-2.2-0.6
		s-1.3-0.6-1.8-1c-0.5-0.4-1-0.9-1.3-1.5c-0.3-0.6-0.5-1.4-0.5-2.3c0-1,0.2-1.8,0.6-2.6c0.4-0.7,1-1.3,1.6-1.8
		c0.7-0.5,1.5-0.8,2.3-1.1c0.9-0.2,1.7-0.4,2.6-0.4c1.3,0,2.5,0.2,3.7,0.7c1.2,0.5,2.1,1.3,2.8,2.4L1201.9,239.1z"/>
	<path d="M1212.3,245.2c0,0.8,0.2,1.6,0.5,2.3c0.4,0.7,0.8,1.3,1.4,1.7c0.6,0.5,1.3,0.9,2,1.1c0.8,0.3,1.6,0.4,2.4,0.4
		c1.1,0,2.1-0.3,2.9-0.8c0.8-0.5,1.6-1.2,2.3-2.1l2.7,2.1c-2,2.6-4.8,3.9-8.4,3.9c-1.5,0-2.8-0.3-4.1-0.8c-1.2-0.5-2.2-1.2-3.1-2.1
		s-1.5-1.9-1.9-3.2c-0.5-1.2-0.7-2.5-0.7-3.9c0-1.4,0.2-2.7,0.7-3.9c0.5-1.2,1.2-2.3,2-3.2c0.9-0.9,1.9-1.6,3.1-2.1
		c1.2-0.5,2.5-0.8,3.9-0.8c1.7,0,3.1,0.3,4.3,0.9s2.1,1.4,2.9,2.3c0.7,0.9,1.3,2,1.6,3.2s0.5,2.4,0.5,3.6v1.3H1212.3z M1223.7,242.3
		c0-0.8-0.2-1.5-0.4-2.2c-0.2-0.7-0.6-1.2-1-1.7c-0.5-0.5-1-0.9-1.7-1.2c-0.7-0.3-1.5-0.4-2.4-0.4c-0.9,0-1.7,0.2-2.4,0.5
		c-0.7,0.3-1.4,0.8-1.9,1.3c-0.5,0.5-0.9,1.1-1.2,1.8c-0.3,0.7-0.4,1.3-0.4,1.9H1223.7z"/>
	<path d="M1231.8,234.4h3.6v2.9h0.1c0.2-0.5,0.6-1,1-1.4c0.4-0.4,0.8-0.8,1.3-1.1c0.5-0.3,1-0.5,1.6-0.7c0.6-0.2,1.2-0.3,1.8-0.3
		c0.6,0,1.1,0.1,1.6,0.2l-0.2,3.9c-0.3-0.1-0.6-0.1-0.9-0.2c-0.3-0.1-0.6-0.1-0.9-0.1c-1.8,0-3.1,0.5-4,1.5c-0.9,1-1.4,2.5-1.4,4.6
		v9.5h-3.6V234.4z"/>
	<path d="M1244.3,234.4h4.2l5.7,14.5l5.4-14.5h3.8l-7.4,19h-4L1244.3,234.4z"/>
	<path d="M1266.1,227.6c0-0.7,0.3-1.3,0.8-1.9c0.5-0.5,1.1-0.8,1.9-0.8s1.3,0.3,1.9,0.8c0.5,0.5,0.8,1.1,0.8,1.9
		c0,0.7-0.3,1.3-0.8,1.9c-0.5,0.5-1.1,0.8-1.9,0.8s-1.3-0.3-1.9-0.8C1266.3,228.9,1266.1,228.3,1266.1,227.6z M1266.9,234.4h3.6v19
		h-3.6V234.4z"/>
	<path d="M1289.8,239.4c-0.7-0.7-1.4-1.2-2.1-1.6s-1.6-0.5-2.6-0.5c-1,0-1.8,0.2-2.6,0.5c-0.7,0.4-1.3,0.9-1.8,1.5
		c-0.5,0.6-0.9,1.3-1.1,2.2c-0.3,0.8-0.4,1.7-0.4,2.5s0.1,1.7,0.4,2.5c0.3,0.8,0.7,1.5,1.2,2.1c0.5,0.6,1.2,1,1.9,1.4
		c0.7,0.3,1.6,0.5,2.5,0.5c1,0,1.9-0.2,2.6-0.5c0.7-0.4,1.4-0.9,2-1.6l2.6,2.6c-0.9,1-2,1.8-3.3,2.2s-2.6,0.7-3.9,0.7
		c-1.5,0-2.8-0.2-4-0.7c-1.2-0.5-2.3-1.2-3.1-2c-0.9-0.9-1.6-1.9-2-3.1c-0.5-1.2-0.7-2.6-0.7-4c0-1.5,0.2-2.8,0.7-4
		c0.5-1.2,1.2-2.3,2-3.2c0.9-0.9,1.9-1.6,3.1-2.1c1.2-0.5,2.6-0.7,4.1-0.7c1.4,0,2.7,0.2,4,0.7c1.3,0.5,2.4,1.2,3.3,2.3
		L1289.8,239.4z"/>
	<path d="M1298.2,245.2c0,0.8,0.2,1.6,0.5,2.3c0.4,0.7,0.8,1.3,1.4,1.7c0.6,0.5,1.3,0.9,2,1.1c0.8,0.3,1.6,0.4,2.4,0.4
		c1.1,0,2.1-0.3,2.9-0.8c0.8-0.5,1.6-1.2,2.3-2.1l2.7,2.1c-2,2.6-4.8,3.9-8.4,3.9c-1.5,0-2.8-0.3-4.1-0.8c-1.2-0.5-2.2-1.2-3.1-2.1
		s-1.5-1.9-1.9-3.2c-0.5-1.2-0.7-2.5-0.7-3.9c0-1.4,0.2-2.7,0.7-3.9c0.5-1.2,1.2-2.3,2-3.2c0.9-0.9,1.9-1.6,3.1-2.1
		c1.2-0.5,2.5-0.8,3.9-0.8c1.7,0,3.1,0.3,4.3,0.9s2.1,1.4,2.9,2.3c0.7,0.9,1.3,2,1.6,3.2s0.5,2.4,0.5,3.6v1.3H1298.2z M1309.6,242.3
		c0-0.8-0.2-1.5-0.4-2.2c-0.2-0.7-0.6-1.2-1-1.7c-0.5-0.5-1-0.9-1.7-1.2c-0.7-0.3-1.5-0.4-2.4-0.4c-0.9,0-1.7,0.2-2.4,0.5
		c-0.7,0.3-1.4,0.8-1.9,1.3c-0.5,0.5-0.9,1.1-1.2,1.8c-0.3,0.7-0.4,1.3-0.4,1.9H1309.6z"/>
	<path d="M1327.8,239.1c-0.4-0.5-1-1-1.6-1.3s-1.4-0.5-2.3-0.5c-0.9,0-1.6,0.2-2.2,0.5c-0.6,0.4-0.9,0.9-0.9,1.6
		c0,0.6,0.2,1,0.5,1.4c0.4,0.3,0.8,0.6,1.3,0.8c0.5,0.2,1,0.4,1.6,0.5c0.6,0.1,1,0.2,1.4,0.3c0.8,0.2,1.5,0.4,2.2,0.7
		c0.7,0.3,1.3,0.6,1.8,1c0.5,0.4,0.9,0.9,1.2,1.6s0.4,1.4,0.4,2.2c0,1.1-0.2,2-0.7,2.7c-0.5,0.8-1,1.4-1.8,1.9
		c-0.7,0.5-1.5,0.8-2.5,1s-1.8,0.3-2.8,0.3c-1.6,0-3-0.2-4.1-0.7c-1.2-0.5-2.2-1.4-3.2-2.6l2.7-2.2c0.6,0.6,1.2,1.1,2,1.6
		s1.6,0.7,2.6,0.7c0.5,0,0.9,0,1.4-0.1c0.5-0.1,0.9-0.2,1.2-0.4c0.4-0.2,0.7-0.5,0.9-0.8c0.2-0.3,0.3-0.7,0.3-1.1
		c0-0.5-0.2-1-0.5-1.3c-0.3-0.3-0.7-0.6-1.2-0.8c-0.5-0.2-1-0.4-1.5-0.5c-0.5-0.1-1-0.2-1.4-0.3c-0.8-0.2-1.5-0.4-2.2-0.6
		s-1.3-0.6-1.8-1c-0.5-0.4-1-0.9-1.3-1.5c-0.3-0.6-0.5-1.4-0.5-2.3c0-1,0.2-1.8,0.6-2.6c0.4-0.7,1-1.3,1.6-1.8
		c0.7-0.5,1.5-0.8,2.3-1.1c0.9-0.2,1.7-0.4,2.6-0.4c1.3,0,2.5,0.2,3.7,0.7c1.2,0.5,2.1,1.3,2.8,2.4L1327.8,239.1z"/>
	<path d="M76.9,291.9c0-1.4,0.3-2.7,0.8-3.9c0.5-1.2,1.2-2.3,2.1-3.2c0.9-0.9,2-1.6,3.2-2.1c1.2-0.5,2.5-0.8,4-0.8
		c1.4,0,2.7,0.3,4,0.8c1.2,0.5,2.3,1.2,3.2,2.1c0.9,0.9,1.6,2,2.1,3.2c0.5,1.2,0.8,2.5,0.8,3.9c0,1.4-0.3,2.7-0.8,3.9
		c-0.5,1.2-1.2,2.3-2.1,3.2c-0.9,0.9-2,1.6-3.2,2.1c-1.2,0.5-2.5,0.8-4,0.8c-1.4,0-2.7-0.3-4-0.8c-1.2-0.5-2.3-1.2-3.2-2.1
		c-0.9-0.9-1.6-1.9-2.1-3.2C77.2,294.6,76.9,293.3,76.9,291.9z M80.8,291.9c0,1,0.1,1.8,0.4,2.7c0.3,0.8,0.7,1.5,1.2,2.1
		c0.5,0.6,1.2,1,2,1.4c0.8,0.3,1.6,0.5,2.6,0.5s1.8-0.2,2.6-0.5c0.8-0.3,1.4-0.8,2-1.4c0.5-0.6,0.9-1.3,1.2-2.1
		c0.3-0.8,0.4-1.7,0.4-2.7c0-1-0.1-1.8-0.4-2.7c-0.3-0.8-0.7-1.5-1.2-2.1c-0.5-0.6-1.2-1-2-1.4c-0.8-0.3-1.6-0.5-2.6-0.5
		s-1.8,0.2-2.6,0.5c-0.8,0.3-1.4,0.8-2,1.4c-0.5,0.6-0.9,1.3-1.2,2.1C80.9,290,80.8,290.9,80.8,291.9z"/>
	<path d="M101.6,282.4h3.6v2.9h0.1c0.2-0.5,0.6-1,1-1.4c0.4-0.4,0.8-0.8,1.3-1.1c0.5-0.3,1-0.5,1.6-0.7c0.6-0.2,1.2-0.3,1.8-0.3
		c0.6,0,1.1,0.1,1.6,0.2l-0.2,3.9c-0.3-0.1-0.6-0.1-0.9-0.2c-0.3-0.1-0.6-0.1-0.9-0.1c-1.8,0-3.1,0.5-4,1.5c-0.9,1-1.4,2.5-1.4,4.6
		v9.5h-3.6V282.4z"/>
	<path d="M125.3,282.4h4l4.3,14.2h0.1l4.5-14.2h3.8l4.8,14.2h0.1l4-14.2h3.8l-6.1,19H145l-5-14.2h-0.1l-4.6,14.2h-3.8L125.3,282.4z"
		/>
	<path d="M157,291.9c0-1.4,0.3-2.7,0.8-3.9c0.5-1.2,1.2-2.3,2.1-3.2c0.9-0.9,2-1.6,3.2-2.1c1.2-0.5,2.5-0.8,4-0.8
		c1.4,0,2.7,0.3,4,0.8c1.2,0.5,2.3,1.2,3.2,2.1c0.9,0.9,1.6,2,2.1,3.2c0.5,1.2,0.8,2.5,0.8,3.9c0,1.4-0.3,2.7-0.8,3.9
		c-0.5,1.2-1.2,2.3-2.1,3.2c-0.9,0.9-2,1.6-3.2,2.1c-1.2,0.5-2.5,0.8-4,0.8c-1.4,0-2.7-0.3-4-0.8c-1.2-0.5-2.3-1.2-3.2-2.1
		c-0.9-0.9-1.6-1.9-2.1-3.2C157.2,294.6,157,293.3,157,291.9z M160.8,291.9c0,1,0.1,1.8,0.4,2.7c0.3,0.8,0.7,1.5,1.2,2.1
		c0.5,0.6,1.2,1,2,1.4c0.8,0.3,1.6,0.5,2.6,0.5s1.8-0.2,2.6-0.5c0.8-0.3,1.4-0.8,2-1.4c0.5-0.6,0.9-1.3,1.2-2.1
		c0.3-0.8,0.4-1.7,0.4-2.7c0-1-0.1-1.8-0.4-2.7c-0.3-0.8-0.7-1.5-1.2-2.1c-0.5-0.6-1.2-1-2-1.4c-0.8-0.3-1.6-0.5-2.6-0.5
		s-1.8,0.2-2.6,0.5c-0.8,0.3-1.4,0.8-2,1.4c-0.5,0.6-0.9,1.3-1.2,2.1C161,290,160.8,290.9,160.8,291.9z"/>
	<path d="M198.5,301.3h-3.6v-2.9h-0.1c-0.5,1-1.2,1.8-2.4,2.5s-2.4,0.9-3.9,0.9c-0.9,0-1.8-0.1-2.6-0.4c-0.8-0.3-1.6-0.7-2.2-1.3
		c-0.6-0.6-1.1-1.3-1.5-2.3s-0.6-2-0.6-3.3v-12.2h3.6v11.2c0,0.9,0.1,1.6,0.4,2.3c0.2,0.6,0.6,1.1,1,1.5c0.4,0.4,0.9,0.7,1.4,0.8
		s1.1,0.3,1.6,0.3c0.7,0,1.4-0.1,2.1-0.4c0.6-0.2,1.2-0.6,1.7-1.1c0.5-0.5,0.9-1.2,1.1-2c0.3-0.8,0.4-1.7,0.4-2.8v-9.8h3.6V301.3z"
		/>
	<path d="M204.2,271.1h3.6v30.2h-3.6V271.1z"/>
	<path d="M232.5,301.3h-3.6v-2.7h-0.1c-0.7,1-1.6,1.8-2.9,2.4c-1.2,0.6-2.5,0.8-3.7,0.8c-1.5,0-2.8-0.3-4-0.8
		c-1.2-0.5-2.2-1.2-3-2.1c-0.8-0.9-1.5-2-1.9-3.2c-0.5-1.2-0.7-2.5-0.7-3.9c0-1.4,0.2-2.7,0.7-3.9c0.5-1.2,1.1-2.3,1.9-3.2
		c0.8-0.9,1.9-1.6,3-2.1c1.2-0.5,2.5-0.8,4-0.8c1.4,0,2.6,0.3,3.8,0.9c1.2,0.6,2.1,1.4,2.8,2.3h0.1v-14h3.6V301.3z M222.7,298.5
		c1,0,1.8-0.2,2.6-0.5c0.8-0.3,1.4-0.8,2-1.4c0.5-0.6,0.9-1.3,1.2-2.1c0.3-0.8,0.4-1.7,0.4-2.7c0-1-0.1-1.8-0.4-2.7
		c-0.3-0.8-0.7-1.5-1.2-2.1c-0.5-0.6-1.2-1-2-1.4c-0.8-0.3-1.6-0.5-2.6-0.5s-1.8,0.2-2.6,0.5c-0.8,0.3-1.4,0.8-2,1.4
		c-0.5,0.6-0.9,1.3-1.2,2.1c-0.3,0.8-0.4,1.7-0.4,2.7c0,1,0.1,1.8,0.4,2.7c0.3,0.8,0.7,1.5,1.2,2.1c0.5,0.6,1.2,1,2,1.4
		C220.8,298.3,221.7,298.5,222.7,298.5z"/>
	<path d="M249.3,271.1h3.6v30.2h-3.6V271.1z"/>
	<path d="M258.1,275.6c0-0.7,0.3-1.3,0.8-1.9c0.5-0.5,1.1-0.8,1.9-0.8c0.7,0,1.3,0.3,1.9,0.8c0.5,0.5,0.8,1.1,0.8,1.9
		c0,0.7-0.3,1.3-0.8,1.9c-0.5,0.5-1.1,0.8-1.9,0.8c-0.7,0-1.3-0.3-1.9-0.8C258.4,276.9,258.1,276.3,258.1,275.6z M258.9,282.4h3.6
		v19h-3.6V282.4z"/>
	<path d="M268.3,271.1h3.6v19.5l8.2-8.2h5l-8.8,8.6l9.6,10.3h-5.1l-8.8-9.8v9.8h-3.6V271.1z"/>
	<path d="M291.7,293.2c0,0.8,0.2,1.6,0.5,2.3c0.4,0.7,0.8,1.3,1.4,1.7c0.6,0.5,1.3,0.9,2,1.1c0.8,0.3,1.6,0.4,2.4,0.4
		c1.1,0,2.1-0.3,2.9-0.8c0.8-0.5,1.6-1.2,2.3-2.1l2.7,2.1c-2,2.6-4.8,3.9-8.4,3.9c-1.5,0-2.8-0.3-4.1-0.8c-1.2-0.5-2.2-1.2-3.1-2.1
		c-0.8-0.9-1.5-1.9-1.9-3.2c-0.5-1.2-0.7-2.5-0.7-3.9c0-1.4,0.2-2.7,0.7-3.9c0.5-1.2,1.2-2.3,2-3.2c0.9-0.9,1.9-1.6,3.1-2.1
		s2.5-0.8,3.9-0.8c1.7,0,3.1,0.3,4.3,0.9c1.2,0.6,2.1,1.4,2.9,2.3c0.7,0.9,1.3,2,1.6,3.2c0.3,1.2,0.5,2.4,0.5,3.6v1.3H291.7z
		 M303.1,290.3c0-0.8-0.2-1.5-0.4-2.2c-0.2-0.7-0.6-1.2-1-1.7c-0.5-0.5-1-0.9-1.7-1.2c-0.7-0.3-1.5-0.4-2.4-0.4
		c-0.9,0-1.7,0.2-2.4,0.5c-0.7,0.3-1.4,0.8-1.9,1.3c-0.5,0.5-0.9,1.1-1.2,1.8c-0.3,0.7-0.4,1.3-0.4,1.9H303.1z"/>
	<path d="M332.5,285.5h-5.2v8.6c0,0.5,0,1.1,0,1.6c0,0.5,0.1,1,0.3,1.4c0.2,0.4,0.4,0.7,0.8,1c0.4,0.3,0.9,0.4,1.6,0.4
		c0.4,0,0.9,0,1.3-0.1s0.9-0.2,1.2-0.4v3.3c-0.4,0.2-1,0.4-1.7,0.5s-1.2,0.1-1.6,0.1c-1.4,0-2.5-0.2-3.2-0.6
		c-0.8-0.4-1.3-0.9-1.7-1.5s-0.6-1.3-0.6-2.1s-0.1-1.5-0.1-2.3v-9.9h-4.2v-3.1h4.2v-5.3h3.6v5.3h5.2V285.5z"/>
	<path d="M336.3,291.9c0-1.4,0.3-2.7,0.8-3.9c0.5-1.2,1.2-2.3,2.1-3.2s2-1.6,3.2-2.1c1.2-0.5,2.5-0.8,4-0.8c1.4,0,2.7,0.3,4,0.8
		c1.2,0.5,2.3,1.2,3.2,2.1c0.9,0.9,1.6,2,2.1,3.2c0.5,1.2,0.8,2.5,0.8,3.9c0,1.4-0.3,2.7-0.8,3.9c-0.5,1.2-1.2,2.3-2.1,3.2
		c-0.9,0.9-2,1.6-3.2,2.1c-1.2,0.5-2.5,0.8-4,0.8c-1.4,0-2.7-0.3-4-0.8c-1.2-0.5-2.3-1.2-3.2-2.1s-1.6-1.9-2.1-3.2
		C336.5,294.6,336.3,293.3,336.3,291.9z M340.1,291.9c0,1,0.1,1.8,0.4,2.7c0.3,0.8,0.7,1.5,1.2,2.1c0.5,0.6,1.2,1,2,1.4
		c0.8,0.3,1.6,0.5,2.6,0.5s1.8-0.2,2.6-0.5c0.8-0.3,1.4-0.8,2-1.4c0.5-0.6,0.9-1.3,1.2-2.1c0.3-0.8,0.4-1.7,0.4-2.7
		c0-1-0.1-1.8-0.4-2.7s-0.7-1.5-1.2-2.1c-0.5-0.6-1.2-1-2-1.4c-0.8-0.3-1.6-0.5-2.6-0.5s-1.8,0.2-2.6,0.5c-0.8,0.3-1.4,0.8-2,1.4
		c-0.5,0.6-0.9,1.3-1.2,2.1C340.2,290,340.1,290.9,340.1,291.9z"/>
	<path d="M382.1,287.1c-0.4-0.5-1-1-1.6-1.3s-1.4-0.5-2.3-0.5c-0.9,0-1.6,0.2-2.2,0.5c-0.6,0.4-0.9,0.9-0.9,1.6c0,0.6,0.2,1,0.5,1.4
		c0.4,0.3,0.8,0.6,1.3,0.8c0.5,0.2,1,0.4,1.6,0.5c0.6,0.1,1,0.2,1.4,0.3c0.8,0.2,1.5,0.4,2.2,0.7c0.7,0.3,1.3,0.6,1.8,1
		c0.5,0.4,0.9,0.9,1.2,1.6s0.4,1.4,0.4,2.2c0,1.1-0.2,2-0.7,2.7c-0.5,0.8-1,1.4-1.8,1.9c-0.7,0.5-1.5,0.8-2.5,1s-1.8,0.3-2.8,0.3
		c-1.6,0-3-0.2-4.1-0.7c-1.2-0.5-2.2-1.4-3.2-2.6l2.7-2.2c0.6,0.6,1.2,1.1,2,1.6s1.6,0.7,2.6,0.7c0.5,0,0.9,0,1.4-0.1
		c0.5-0.1,0.9-0.2,1.2-0.4c0.4-0.2,0.7-0.5,0.9-0.8c0.2-0.3,0.3-0.7,0.3-1.1c0-0.5-0.2-1-0.5-1.3c-0.3-0.3-0.7-0.6-1.2-0.8
		c-0.5-0.2-1-0.4-1.5-0.5c-0.5-0.1-1-0.2-1.4-0.3c-0.8-0.2-1.5-0.4-2.2-0.6s-1.3-0.6-1.8-1c-0.5-0.4-1-0.9-1.3-1.5
		c-0.3-0.6-0.5-1.4-0.5-2.3c0-1,0.2-1.8,0.6-2.6c0.4-0.7,1-1.3,1.6-1.8c0.7-0.5,1.5-0.8,2.3-1.1c0.9-0.2,1.7-0.4,2.6-0.4
		c1.3,0,2.5,0.2,3.7,0.7c1.2,0.5,2.1,1.3,2.8,2.4L382.1,287.1z"/>
	<path d="M400,285.5h-5.2v8.6c0,0.5,0,1.1,0,1.6c0,0.5,0.1,1,0.3,1.4c0.2,0.4,0.4,0.7,0.8,1c0.4,0.3,0.9,0.4,1.6,0.4
		c0.4,0,0.9,0,1.3-0.1s0.9-0.2,1.2-0.4v3.3c-0.4,0.2-1,0.4-1.7,0.5s-1.2,0.1-1.6,0.1c-1.4,0-2.5-0.2-3.2-0.6
		c-0.8-0.4-1.3-0.9-1.7-1.5c-0.4-0.6-0.6-1.3-0.6-2.1s-0.1-1.5-0.1-2.3v-9.9h-4.2v-3.1h4.2v-5.3h3.6v5.3h5.2V285.5z"/>
	<path d="M404.7,284.7c1-0.9,2.2-1.6,3.5-2.1c1.3-0.5,2.7-0.7,4-0.7c1.4,0,2.6,0.2,3.6,0.5s1.8,0.8,2.5,1.4c0.6,0.6,1.1,1.3,1.4,2
		c0.3,0.8,0.5,1.6,0.5,2.4v9.7c0,0.7,0,1.3,0,1.8c0,0.6,0.1,1.1,0.1,1.6h-3.2c-0.1-1-0.1-1.9-0.1-2.9h-0.1c-0.8,1.2-1.7,2.1-2.8,2.6
		c-1.1,0.5-2.4,0.8-3.8,0.8c-0.9,0-1.7-0.1-2.5-0.4s-1.5-0.6-2.1-1.1c-0.6-0.5-1.1-1.1-1.4-1.8c-0.3-0.7-0.5-1.5-0.5-2.5
		c0-1.2,0.3-2.3,0.8-3.1c0.5-0.8,1.3-1.5,2.2-2c0.9-0.5,2.1-0.9,3.3-1.1s2.6-0.3,4.1-0.3h2.6v-0.8c0-0.5-0.1-1-0.3-1.4
		s-0.5-0.9-0.8-1.3s-0.8-0.7-1.4-0.9c-0.6-0.2-1.2-0.3-2-0.3c-0.7,0-1.3,0.1-1.8,0.2c-0.5,0.1-1,0.3-1.4,0.5
		c-0.4,0.2-0.8,0.4-1.2,0.7c-0.3,0.3-0.7,0.5-1,0.8L404.7,284.7z M414.9,292.2c-0.9,0-1.7,0-2.6,0.1c-0.9,0.1-1.7,0.3-2.4,0.5
		c-0.7,0.3-1.3,0.6-1.8,1.1c-0.5,0.5-0.7,1.1-0.7,1.8c0,1.1,0.4,1.9,1.1,2.4c0.7,0.5,1.7,0.7,3,0.7c1,0,1.8-0.2,2.5-0.5
		c0.7-0.3,1.3-0.8,1.7-1.3c0.4-0.5,0.7-1.1,0.9-1.8c0.2-0.7,0.3-1.3,0.3-1.9v-1.2H414.9z"/>
	<path d="M425.4,282.4h3.6v2.9h0.1c0.2-0.5,0.6-1,1-1.4c0.4-0.4,0.8-0.8,1.3-1.1c0.5-0.3,1-0.5,1.6-0.7c0.6-0.2,1.2-0.3,1.8-0.3
		c0.6,0,1.1,0.1,1.6,0.2l-0.2,3.9c-0.3-0.1-0.6-0.1-0.9-0.2c-0.3-0.1-0.6-0.1-0.9-0.1c-1.8,0-3.1,0.5-4,1.5c-0.9,1-1.4,2.5-1.4,4.6
		v9.5h-3.6V282.4z"/>
	<path d="M450.3,285.5h-5.2v8.6c0,0.5,0,1.1,0,1.6c0,0.5,0.1,1,0.3,1.4c0.2,0.4,0.4,0.7,0.8,1c0.4,0.3,0.9,0.4,1.6,0.4
		c0.4,0,0.9,0,1.3-0.1s0.9-0.2,1.2-0.4v3.3c-0.4,0.2-1,0.4-1.7,0.5s-1.2,0.1-1.6,0.1c-1.4,0-2.5-0.2-3.2-0.6
		c-0.8-0.4-1.3-0.9-1.7-1.5c-0.4-0.6-0.6-1.3-0.6-2.1s-0.1-1.5-0.1-2.3v-9.9h-4.2v-3.1h4.2v-5.3h3.6v5.3h5.2V285.5z"/>
	<path d="M466.2,284.7c1-0.9,2.2-1.6,3.5-2.1c1.3-0.5,2.7-0.7,4-0.7c1.4,0,2.6,0.2,3.6,0.5s1.8,0.8,2.5,1.4c0.6,0.6,1.1,1.3,1.4,2
		c0.3,0.8,0.5,1.6,0.5,2.4v9.7c0,0.7,0,1.3,0,1.8c0,0.6,0.1,1.1,0.1,1.6h-3.2c-0.1-1-0.1-1.9-0.1-2.9h-0.1c-0.8,1.2-1.7,2.1-2.8,2.6
		c-1.1,0.5-2.4,0.8-3.8,0.8c-0.9,0-1.7-0.1-2.5-0.4s-1.5-0.6-2.1-1.1c-0.6-0.5-1.1-1.1-1.4-1.8c-0.3-0.7-0.5-1.5-0.5-2.5
		c0-1.2,0.3-2.3,0.8-3.1c0.5-0.8,1.3-1.5,2.2-2c0.9-0.5,2.1-0.9,3.3-1.1s2.6-0.3,4.1-0.3h2.6v-0.8c0-0.5-0.1-1-0.3-1.4
		s-0.5-0.9-0.8-1.3s-0.8-0.7-1.4-0.9c-0.6-0.2-1.2-0.3-2-0.3c-0.7,0-1.3,0.1-1.8,0.2c-0.5,0.1-1,0.3-1.4,0.5
		c-0.4,0.2-0.8,0.4-1.2,0.7c-0.3,0.3-0.7,0.5-1,0.8L466.2,284.7z M476.3,292.2c-0.9,0-1.7,0-2.6,0.1c-0.9,0.1-1.7,0.3-2.4,0.5
		c-0.7,0.3-1.3,0.6-1.8,1.1c-0.5,0.5-0.7,1.1-0.7,1.8c0,1.1,0.4,1.9,1.1,2.4c0.7,0.5,1.7,0.7,3,0.7c1,0,1.8-0.2,2.5-0.5
		c0.7-0.3,1.3-0.8,1.7-1.3c0.4-0.5,0.7-1.1,0.9-1.8c0.2-0.7,0.3-1.3,0.3-1.9v-1.2H476.3z"/>
	<path d="M517,301.3h-3.6v-2.7h-0.1c-0.7,1-1.6,1.8-2.9,2.4c-1.2,0.6-2.5,0.8-3.7,0.8c-1.5,0-2.8-0.3-4-0.8c-1.2-0.5-2.2-1.2-3-2.1
		c-0.8-0.9-1.5-2-1.9-3.2c-0.5-1.2-0.7-2.5-0.7-3.9c0-1.4,0.2-2.7,0.7-3.9c0.5-1.2,1.1-2.3,1.9-3.2c0.8-0.9,1.9-1.6,3-2.1
		s2.5-0.8,4-0.8c1.4,0,2.6,0.3,3.8,0.9c1.2,0.6,2.1,1.4,2.8,2.3h0.1v-14h3.6V301.3z M507.1,298.5c1,0,1.8-0.2,2.6-0.5
		c0.8-0.3,1.4-0.8,2-1.4c0.5-0.6,0.9-1.3,1.2-2.1c0.3-0.8,0.4-1.7,0.4-2.7c0-1-0.1-1.8-0.4-2.7s-0.7-1.5-1.2-2.1
		c-0.5-0.6-1.2-1-2-1.4c-0.8-0.3-1.6-0.5-2.6-0.5s-1.8,0.2-2.6,0.5c-0.8,0.3-1.4,0.8-2,1.4c-0.5,0.6-0.9,1.3-1.2,2.1
		c-0.3,0.8-0.4,1.7-0.4,2.7c0,1,0.1,1.8,0.4,2.7c0.3,0.8,0.7,1.5,1.2,2.1c0.5,0.6,1.2,1,2,1.4C505.3,298.3,506.2,298.5,507.1,298.5z
		"/>
	<path d="M521.9,275.6c0-0.7,0.3-1.3,0.8-1.9c0.5-0.5,1.1-0.8,1.9-0.8s1.3,0.3,1.9,0.8c0.5,0.5,0.8,1.1,0.8,1.9
		c0,0.7-0.3,1.3-0.8,1.9c-0.5,0.5-1.1,0.8-1.9,0.8s-1.3-0.3-1.9-0.8C522.1,276.9,521.9,276.3,521.9,275.6z M522.7,282.4h3.6v19h-3.6
		V282.4z"/>
	<path d="M542.1,287.1c-0.4-0.5-1-1-1.6-1.3s-1.4-0.5-2.3-0.5c-0.9,0-1.6,0.2-2.2,0.5c-0.6,0.4-0.9,0.9-0.9,1.6c0,0.6,0.2,1,0.5,1.4
		c0.4,0.3,0.8,0.6,1.3,0.8c0.5,0.2,1,0.4,1.6,0.5c0.6,0.1,1,0.2,1.4,0.3c0.8,0.2,1.5,0.4,2.2,0.7c0.7,0.3,1.3,0.6,1.8,1
		c0.5,0.4,0.9,0.9,1.2,1.6s0.4,1.4,0.4,2.2c0,1.1-0.2,2-0.7,2.7c-0.5,0.8-1,1.4-1.8,1.9c-0.7,0.5-1.5,0.8-2.5,1s-1.8,0.3-2.8,0.3
		c-1.6,0-3-0.2-4.1-0.7c-1.2-0.5-2.2-1.4-3.2-2.6l2.7-2.2c0.6,0.6,1.2,1.1,2,1.6s1.6,0.7,2.6,0.7c0.5,0,0.9,0,1.4-0.1
		c0.5-0.1,0.9-0.2,1.2-0.4c0.4-0.2,0.7-0.5,0.9-0.8c0.2-0.3,0.3-0.7,0.3-1.1c0-0.5-0.2-1-0.5-1.3c-0.3-0.3-0.7-0.6-1.2-0.8
		c-0.5-0.2-1-0.4-1.5-0.5c-0.5-0.1-1-0.2-1.4-0.3c-0.8-0.2-1.5-0.4-2.2-0.6s-1.3-0.6-1.8-1c-0.5-0.4-1-0.9-1.3-1.5
		c-0.3-0.6-0.5-1.4-0.5-2.3c0-1,0.2-1.8,0.6-2.6c0.4-0.7,1-1.3,1.6-1.8c0.7-0.5,1.5-0.8,2.3-1.1c0.9-0.2,1.7-0.4,2.6-0.4
		c1.3,0,2.5,0.2,3.7,0.7c1.2,0.5,2.1,1.3,2.8,2.4L542.1,287.1z"/>
	<path d="M563.3,287.4c-0.7-0.7-1.4-1.2-2.1-1.6s-1.6-0.5-2.6-0.5c-1,0-1.8,0.2-2.6,0.5c-0.7,0.4-1.3,0.9-1.8,1.5
		c-0.5,0.6-0.9,1.3-1.1,2.2c-0.3,0.8-0.4,1.7-0.4,2.5s0.1,1.7,0.4,2.5c0.3,0.8,0.7,1.5,1.2,2.1c0.5,0.6,1.2,1,1.9,1.4
		c0.7,0.3,1.6,0.5,2.5,0.5c1,0,1.9-0.2,2.6-0.5c0.7-0.4,1.4-0.9,2-1.6l2.6,2.6c-0.9,1-2,1.8-3.3,2.2s-2.6,0.7-3.9,0.7
		c-1.5,0-2.8-0.2-4-0.7c-1.2-0.5-2.3-1.2-3.1-2c-0.9-0.9-1.6-1.9-2-3.1c-0.5-1.2-0.7-2.6-0.7-4c0-1.5,0.2-2.8,0.7-4
		c0.5-1.2,1.2-2.3,2-3.2c0.9-0.9,1.9-1.6,3.1-2.1c1.2-0.5,2.6-0.7,4.1-0.7c1.4,0,2.7,0.2,4,0.7c1.3,0.5,2.4,1.2,3.3,2.3L563.3,287.4
		z"/>
	<path d="M585.9,301.3h-3.6v-2.9h-0.1c-0.5,1-1.2,1.8-2.4,2.5c-1.1,0.6-2.4,0.9-3.9,0.9c-0.9,0-1.8-0.1-2.6-0.4
		c-0.8-0.3-1.6-0.7-2.2-1.3c-0.6-0.6-1.1-1.3-1.5-2.3c-0.4-0.9-0.6-2-0.6-3.3v-12.2h3.6v11.2c0,0.9,0.1,1.6,0.4,2.3
		c0.2,0.6,0.6,1.1,1,1.5c0.4,0.4,0.9,0.7,1.4,0.8c0.5,0.2,1.1,0.3,1.6,0.3c0.7,0,1.4-0.1,2.1-0.4c0.6-0.2,1.2-0.6,1.7-1.1
		c0.5-0.5,0.9-1.2,1.1-2c0.3-0.8,0.4-1.7,0.4-2.8v-9.8h3.6V301.3z"/>
	<path d="M601.4,287.1c-0.4-0.5-1-1-1.6-1.3s-1.4-0.5-2.3-0.5c-0.9,0-1.6,0.2-2.2,0.5c-0.6,0.4-0.9,0.9-0.9,1.6c0,0.6,0.2,1,0.5,1.4
		c0.4,0.3,0.8,0.6,1.3,0.8c0.5,0.2,1,0.4,1.6,0.5c0.6,0.1,1,0.2,1.4,0.3c0.8,0.2,1.5,0.4,2.2,0.7c0.7,0.3,1.3,0.6,1.8,1
		c0.5,0.4,0.9,0.9,1.2,1.6s0.4,1.4,0.4,2.2c0,1.1-0.2,2-0.7,2.7c-0.5,0.8-1,1.4-1.8,1.9c-0.7,0.5-1.5,0.8-2.5,1s-1.8,0.3-2.8,0.3
		c-1.6,0-3-0.2-4.1-0.7c-1.2-0.5-2.2-1.4-3.2-2.6l2.7-2.2c0.6,0.6,1.2,1.1,2,1.6s1.6,0.7,2.6,0.7c0.5,0,0.9,0,1.4-0.1
		c0.5-0.1,0.9-0.2,1.2-0.4c0.4-0.2,0.7-0.5,0.9-0.8c0.2-0.3,0.3-0.7,0.3-1.1c0-0.5-0.2-1-0.5-1.3c-0.3-0.3-0.7-0.6-1.2-0.8
		c-0.5-0.2-1-0.4-1.5-0.5c-0.5-0.1-1-0.2-1.4-0.3c-0.8-0.2-1.5-0.4-2.2-0.6s-1.3-0.6-1.8-1c-0.5-0.4-1-0.9-1.3-1.5
		c-0.3-0.6-0.5-1.4-0.5-2.3c0-1,0.2-1.8,0.6-2.6c0.4-0.7,1-1.3,1.6-1.8c0.7-0.5,1.5-0.8,2.3-1.1c0.9-0.2,1.7-0.4,2.6-0.4
		c1.3,0,2.5,0.2,3.7,0.7c1.2,0.5,2.1,1.3,2.8,2.4L601.4,287.1z"/>
	<path d="M619.1,287.1c-0.4-0.5-1-1-1.6-1.3s-1.4-0.5-2.3-0.5c-0.9,0-1.6,0.2-2.2,0.5c-0.6,0.4-0.9,0.9-0.9,1.6c0,0.6,0.2,1,0.5,1.4
		c0.4,0.3,0.8,0.6,1.3,0.8c0.5,0.2,1,0.4,1.6,0.5c0.6,0.1,1,0.2,1.4,0.3c0.8,0.2,1.5,0.4,2.2,0.7c0.7,0.3,1.3,0.6,1.8,1
		c0.5,0.4,0.9,0.9,1.2,1.6s0.4,1.4,0.4,2.2c0,1.1-0.2,2-0.7,2.7c-0.5,0.8-1,1.4-1.8,1.9c-0.7,0.5-1.5,0.8-2.5,1s-1.8,0.3-2.8,0.3
		c-1.6,0-3-0.2-4.1-0.7c-1.2-0.5-2.2-1.4-3.2-2.6l2.7-2.2c0.6,0.6,1.2,1.1,2,1.6s1.6,0.7,2.6,0.7c0.5,0,0.9,0,1.4-0.1
		c0.5-0.1,0.9-0.2,1.2-0.4c0.4-0.2,0.7-0.5,0.9-0.8c0.2-0.3,0.3-0.7,0.3-1.1c0-0.5-0.2-1-0.5-1.3c-0.3-0.3-0.7-0.6-1.2-0.8
		c-0.5-0.2-1-0.4-1.5-0.5c-0.5-0.1-1-0.2-1.4-0.3c-0.8-0.2-1.5-0.4-2.2-0.6s-1.3-0.6-1.8-1c-0.5-0.4-1-0.9-1.3-1.5
		c-0.3-0.6-0.5-1.4-0.5-2.3c0-1,0.2-1.8,0.6-2.6c0.4-0.7,1-1.3,1.6-1.8c0.7-0.5,1.5-0.8,2.3-1.1c0.9-0.2,1.7-0.4,2.6-0.4
		c1.3,0,2.5,0.2,3.7,0.7c1.2,0.5,2.1,1.3,2.8,2.4L619.1,287.1z"/>
	<path d="M626.3,275.6c0-0.7,0.3-1.3,0.8-1.9c0.5-0.5,1.1-0.8,1.9-0.8s1.3,0.3,1.9,0.8c0.5,0.5,0.8,1.1,0.8,1.9
		c0,0.7-0.3,1.3-0.8,1.9c-0.5,0.5-1.1,0.8-1.9,0.8s-1.3-0.3-1.9-0.8C626.5,276.9,626.3,276.3,626.3,275.6z M627.1,282.4h3.6v19h-3.6
		V282.4z"/>
	<path d="M635.5,291.9c0-1.4,0.3-2.7,0.8-3.9c0.5-1.2,1.2-2.3,2.1-3.2s2-1.6,3.2-2.1c1.2-0.5,2.5-0.8,4-0.8c1.4,0,2.7,0.3,4,0.8
		c1.2,0.5,2.3,1.2,3.2,2.1c0.9,0.9,1.6,2,2.1,3.2c0.5,1.2,0.8,2.5,0.8,3.9c0,1.4-0.3,2.7-0.8,3.9c-0.5,1.2-1.2,2.3-2.1,3.2
		c-0.9,0.9-2,1.6-3.2,2.1c-1.2,0.5-2.5,0.8-4,0.8c-1.4,0-2.7-0.3-4-0.8c-1.2-0.5-2.3-1.2-3.2-2.1s-1.6-1.9-2.1-3.2
		C635.8,294.6,635.5,293.3,635.5,291.9z M639.3,291.9c0,1,0.1,1.8,0.4,2.7c0.3,0.8,0.7,1.5,1.2,2.1c0.5,0.6,1.2,1,2,1.4
		c0.8,0.3,1.6,0.5,2.6,0.5s1.8-0.2,2.6-0.5c0.8-0.3,1.4-0.8,2-1.4c0.5-0.6,0.9-1.3,1.2-2.1c0.3-0.8,0.4-1.7,0.4-2.7
		c0-1-0.1-1.8-0.4-2.7s-0.7-1.5-1.2-2.1c-0.5-0.6-1.2-1-2-1.4c-0.8-0.3-1.6-0.5-2.6-0.5s-1.8,0.2-2.6,0.5c-0.8,0.3-1.4,0.8-2,1.4
		c-0.5,0.6-0.9,1.3-1.2,2.1C639.5,290,639.3,290.9,639.3,291.9z"/>
	<path d="M660.2,282.4h3.6v2.9h0.1c0.5-1,1.2-1.8,2.4-2.5c1.1-0.6,2.4-0.9,3.9-0.9c0.9,0,1.8,0.1,2.6,0.4c0.8,0.3,1.6,0.7,2.2,1.3
		c0.6,0.6,1.1,1.3,1.5,2.3c0.4,0.9,0.6,2,0.6,3.3v12.2h-3.6v-11.2c0-0.9-0.1-1.6-0.4-2.3c-0.2-0.6-0.6-1.1-1-1.5
		c-0.4-0.4-0.9-0.7-1.4-0.8c-0.5-0.2-1.1-0.3-1.6-0.3c-0.7,0-1.4,0.1-2.1,0.4c-0.6,0.2-1.2,0.6-1.7,1.1c-0.5,0.5-0.9,1.2-1.1,2
		c-0.3,0.8-0.4,1.7-0.4,2.8v9.8h-3.6V282.4z"/>
	<path d="M685.3,301.6c-0.7,0-1.3-0.3-1.9-0.8c-0.5-0.5-0.8-1.1-0.8-1.9c0-0.7,0.3-1.3,0.8-1.9c0.5-0.5,1.1-0.8,1.9-0.8
		c0.7,0,1.3,0.3,1.9,0.8c0.5,0.5,0.8,1.1,0.8,1.9c0,0.7-0.3,1.3-0.8,1.9C686.6,301.3,686,301.6,685.3,301.6z"/>
	<path d="M716.7,273h3.8v28.3h-3.8V273z"/>
	<path d="M751.6,287.4c-0.7-0.7-1.4-1.2-2.1-1.6s-1.6-0.5-2.6-0.5c-1,0-1.8,0.2-2.6,0.5c-0.7,0.4-1.3,0.9-1.8,1.5
		c-0.5,0.6-0.9,1.3-1.1,2.2c-0.3,0.8-0.4,1.7-0.4,2.5s0.1,1.7,0.4,2.5c0.3,0.8,0.7,1.5,1.2,2.1c0.5,0.6,1.2,1,1.9,1.4
		c0.7,0.3,1.6,0.5,2.5,0.5c1,0,1.9-0.2,2.6-0.5c0.7-0.4,1.4-0.9,2-1.6l2.6,2.6c-0.9,1-2,1.8-3.3,2.2s-2.6,0.7-3.9,0.7
		c-1.5,0-2.8-0.2-4-0.7c-1.2-0.5-2.3-1.2-3.1-2c-0.9-0.9-1.6-1.9-2-3.1c-0.5-1.2-0.7-2.6-0.7-4c0-1.5,0.2-2.8,0.7-4
		c0.5-1.2,1.2-2.3,2-3.2c0.9-0.9,1.9-1.6,3.1-2.1c1.2-0.5,2.6-0.7,4.1-0.7c1.4,0,2.7,0.2,4,0.7c1.3,0.5,2.4,1.2,3.3,2.3L751.6,287.4
		z"/>
	<path d="M757.4,284.7c1-0.9,2.2-1.6,3.5-2.1c1.3-0.5,2.7-0.7,4-0.7c1.4,0,2.6,0.2,3.6,0.5s1.8,0.8,2.5,1.4c0.6,0.6,1.1,1.3,1.4,2
		c0.3,0.8,0.5,1.6,0.5,2.4v9.7c0,0.7,0,1.3,0,1.8c0,0.6,0.1,1.1,0.1,1.6h-3.2c-0.1-1-0.1-1.9-0.1-2.9h-0.1c-0.8,1.2-1.7,2.1-2.8,2.6
		c-1.1,0.5-2.4,0.8-3.8,0.8c-0.9,0-1.7-0.1-2.5-0.4s-1.5-0.6-2.1-1.1c-0.6-0.5-1.1-1.1-1.4-1.8c-0.3-0.7-0.5-1.5-0.5-2.5
		c0-1.2,0.3-2.3,0.8-3.1c0.5-0.8,1.3-1.5,2.2-2c0.9-0.5,2.1-0.9,3.3-1.1s2.6-0.3,4.1-0.3h2.6v-0.8c0-0.5-0.1-1-0.3-1.4
		s-0.5-0.9-0.8-1.3s-0.8-0.7-1.4-0.9c-0.6-0.2-1.2-0.3-2-0.3c-0.7,0-1.3,0.1-1.8,0.2c-0.5,0.1-1,0.3-1.4,0.5
		c-0.4,0.2-0.8,0.4-1.2,0.7c-0.3,0.3-0.7,0.5-1,0.8L757.4,284.7z M767.5,292.2c-0.9,0-1.7,0-2.6,0.1c-0.9,0.1-1.7,0.3-2.4,0.5
		c-0.7,0.3-1.3,0.6-1.8,1.1c-0.5,0.5-0.7,1.1-0.7,1.8c0,1.1,0.4,1.9,1.1,2.4c0.7,0.5,1.7,0.7,3,0.7c1,0,1.8-0.2,2.5-0.5
		c0.7-0.3,1.3-0.8,1.7-1.3c0.4-0.5,0.7-1.1,0.9-1.8c0.2-0.7,0.3-1.3,0.3-1.9v-1.2H767.5z"/>
	<path d="M778.1,282.4h3.6v2.9h0.1c0.5-1,1.2-1.8,2.4-2.5c1.1-0.6,2.4-0.9,3.9-0.9c0.9,0,1.8,0.1,2.6,0.4c0.8,0.3,1.6,0.7,2.2,1.3
		c0.6,0.6,1.1,1.3,1.5,2.3c0.4,0.9,0.6,2,0.6,3.3v12.2h-3.6v-11.2c0-0.9-0.1-1.6-0.4-2.3c-0.2-0.6-0.6-1.1-1-1.5
		c-0.4-0.4-0.9-0.7-1.4-0.8c-0.5-0.2-1.1-0.3-1.6-0.3c-0.7,0-1.4,0.1-2.1,0.4c-0.6,0.2-1.2,0.6-1.7,1.1c-0.5,0.5-0.9,1.2-1.1,2
		c-0.3,0.8-0.4,1.7-0.4,2.8v9.8h-3.6V282.4z"/>
	<path d="M811.4,271.1h3.6v14h0.1c0.6-1,1.6-1.8,2.8-2.3c1.2-0.6,2.5-0.9,3.8-0.9c1.5,0,2.8,0.3,4,0.8c1.2,0.5,2.2,1.2,3,2.1
		c0.8,0.9,1.5,1.9,1.9,3.2c0.5,1.2,0.7,2.5,0.7,3.9c0,1.4-0.2,2.7-0.7,3.9c-0.5,1.2-1.1,2.3-1.9,3.2c-0.8,0.9-1.9,1.6-3,2.1
		c-1.2,0.5-2.5,0.8-4,0.8c-1.3,0-2.5-0.3-3.7-0.8c-1.2-0.6-2.2-1.3-2.9-2.4H815v2.7h-3.6V271.1z M821.3,298.5c1,0,1.8-0.2,2.6-0.5
		c0.8-0.3,1.4-0.8,2-1.4c0.5-0.6,0.9-1.3,1.2-2.1c0.3-0.8,0.4-1.7,0.4-2.7c0-1-0.1-1.8-0.4-2.7c-0.3-0.8-0.7-1.5-1.2-2.1
		c-0.5-0.6-1.2-1-2-1.4c-0.8-0.3-1.6-0.5-2.6-0.5s-1.8,0.2-2.6,0.5c-0.8,0.3-1.4,0.8-2,1.4c-0.5,0.6-0.9,1.3-1.2,2.1
		c-0.3,0.8-0.4,1.7-0.4,2.7c0,1,0.1,1.8,0.4,2.7c0.3,0.8,0.7,1.5,1.2,2.1c0.5,0.6,1.2,1,2,1.4C819.4,298.3,820.3,298.5,821.3,298.5z
		"/>
	<path d="M838.6,293.2c0,0.8,0.2,1.6,0.5,2.3c0.4,0.7,0.8,1.3,1.4,1.7c0.6,0.5,1.3,0.9,2,1.1c0.8,0.3,1.6,0.4,2.4,0.4
		c1.1,0,2.1-0.3,2.9-0.8c0.8-0.5,1.6-1.2,2.3-2.1l2.7,2.1c-2,2.6-4.8,3.9-8.4,3.9c-1.5,0-2.8-0.3-4.1-0.8c-1.2-0.5-2.2-1.2-3.1-2.1
		s-1.5-1.9-1.9-3.2c-0.5-1.2-0.7-2.5-0.7-3.9c0-1.4,0.2-2.7,0.7-3.9c0.5-1.2,1.2-2.3,2-3.2c0.9-0.9,1.9-1.6,3.1-2.1
		c1.2-0.5,2.5-0.8,3.9-0.8c1.7,0,3.1,0.3,4.3,0.9s2.1,1.4,2.9,2.3c0.7,0.9,1.3,2,1.6,3.2s0.5,2.4,0.5,3.6v1.3H838.6z M849.9,290.3
		c0-0.8-0.2-1.5-0.4-2.2c-0.2-0.7-0.6-1.2-1-1.7c-0.5-0.5-1-0.9-1.7-1.2c-0.7-0.3-1.5-0.4-2.4-0.4c-0.9,0-1.7,0.2-2.4,0.5
		c-0.7,0.3-1.4,0.8-1.9,1.3c-0.5,0.5-0.9,1.1-1.2,1.8c-0.3,0.7-0.4,1.3-0.4,1.9H849.9z"/>
	<path d="M882.8,287.4c-0.7-0.7-1.4-1.2-2.1-1.6s-1.6-0.5-2.6-0.5c-1,0-1.8,0.2-2.6,0.5c-0.7,0.4-1.3,0.9-1.8,1.5
		c-0.5,0.6-0.9,1.3-1.1,2.2c-0.3,0.8-0.4,1.7-0.4,2.5s0.1,1.7,0.4,2.5c0.3,0.8,0.7,1.5,1.2,2.1c0.5,0.6,1.2,1,1.9,1.4
		c0.7,0.3,1.6,0.5,2.5,0.5c1,0,1.9-0.2,2.6-0.5c0.7-0.4,1.4-0.9,2-1.6l2.6,2.6c-0.9,1-2,1.8-3.3,2.2s-2.6,0.7-3.9,0.7
		c-1.5,0-2.8-0.2-4-0.7c-1.2-0.5-2.3-1.2-3.1-2c-0.9-0.9-1.6-1.9-2-3.1c-0.5-1.2-0.7-2.6-0.7-4c0-1.5,0.2-2.8,0.7-4
		c0.5-1.2,1.2-2.3,2-3.2c0.9-0.9,1.9-1.6,3.1-2.1c1.2-0.5,2.6-0.7,4.1-0.7c1.4,0,2.7,0.2,4,0.7c1.3,0.5,2.4,1.2,3.3,2.3L882.8,287.4
		z"/>
	<path d="M887.6,291.9c0-1.4,0.3-2.7,0.8-3.9c0.5-1.2,1.2-2.3,2.1-3.2s2-1.6,3.2-2.1c1.2-0.5,2.5-0.8,4-0.8c1.4,0,2.7,0.3,4,0.8
		c1.2,0.5,2.3,1.2,3.2,2.1c0.9,0.9,1.6,2,2.1,3.2c0.5,1.2,0.8,2.5,0.8,3.9c0,1.4-0.3,2.7-0.8,3.9c-0.5,1.2-1.2,2.3-2.1,3.2
		c-0.9,0.9-2,1.6-3.2,2.1c-1.2,0.5-2.5,0.8-4,0.8c-1.4,0-2.7-0.3-4-0.8c-1.2-0.5-2.3-1.2-3.2-2.1s-1.6-1.9-2.1-3.2
		C887.8,294.6,887.6,293.3,887.6,291.9z M891.4,291.9c0,1,0.1,1.8,0.4,2.7c0.3,0.8,0.7,1.5,1.2,2.1c0.5,0.6,1.2,1,2,1.4
		c0.8,0.3,1.6,0.5,2.6,0.5s1.8-0.2,2.6-0.5c0.8-0.3,1.4-0.8,2-1.4c0.5-0.6,0.9-1.3,1.2-2.1c0.3-0.8,0.4-1.7,0.4-2.7
		c0-1-0.1-1.8-0.4-2.7s-0.7-1.5-1.2-2.1c-0.5-0.6-1.2-1-2-1.4c-0.8-0.3-1.6-0.5-2.6-0.5s-1.8,0.2-2.6,0.5c-0.8,0.3-1.4,0.8-2,1.4
		c-0.5,0.6-0.9,1.3-1.2,2.1C891.6,290,891.4,290.9,891.4,291.9z"/>
	<path d="M912.3,282.4h3.6v2.9h0.1c0.5-1,1.2-1.8,2.4-2.5c1.1-0.6,2.4-0.9,3.9-0.9c0.9,0,1.8,0.1,2.6,0.4c0.8,0.3,1.6,0.7,2.2,1.3
		c0.6,0.6,1.1,1.3,1.5,2.3c0.4,0.9,0.6,2,0.6,3.3v12.2h-3.6v-11.2c0-0.9-0.1-1.6-0.4-2.3c-0.2-0.6-0.6-1.1-1-1.5
		c-0.4-0.4-0.9-0.7-1.4-0.8c-0.5-0.2-1.1-0.3-1.6-0.3c-0.7,0-1.4,0.1-2.1,0.4c-0.6,0.2-1.2,0.6-1.7,1.1c-0.5,0.5-0.9,1.2-1.1,2
		c-0.3,0.8-0.4,1.7-0.4,2.8v9.8h-3.6V282.4z"/>
	<path d="M944.7,285.5h-5.2v8.6c0,0.5,0,1.1,0,1.6c0,0.5,0.1,1,0.3,1.4c0.2,0.4,0.4,0.7,0.8,1c0.4,0.3,0.9,0.4,1.6,0.4
		c0.4,0,0.9,0,1.3-0.1s0.9-0.2,1.2-0.4v3.3c-0.4,0.2-1,0.4-1.7,0.5s-1.2,0.1-1.6,0.1c-1.4,0-2.5-0.2-3.2-0.6
		c-0.8-0.4-1.3-0.9-1.7-1.5c-0.4-0.6-0.6-1.3-0.6-2.1s-0.1-1.5-0.1-2.3v-9.9h-4.2v-3.1h4.2v-5.3h3.6v5.3h5.2V285.5z"/>
	<path d="M949.4,284.7c1-0.9,2.2-1.6,3.5-2.1c1.3-0.5,2.7-0.7,4-0.7c1.4,0,2.6,0.2,3.6,0.5s1.8,0.8,2.5,1.4c0.6,0.6,1.1,1.3,1.4,2
		c0.3,0.8,0.5,1.6,0.5,2.4v9.7c0,0.7,0,1.3,0,1.8c0,0.6,0.1,1.1,0.1,1.6h-3.2c-0.1-1-0.1-1.9-0.1-2.9h-0.1c-0.8,1.2-1.7,2.1-2.8,2.6
		c-1.1,0.5-2.4,0.8-3.8,0.8c-0.9,0-1.7-0.1-2.5-0.4s-1.5-0.6-2.1-1.1c-0.6-0.5-1.1-1.1-1.4-1.8c-0.3-0.7-0.5-1.5-0.5-2.5
		c0-1.2,0.3-2.3,0.8-3.1c0.5-0.8,1.3-1.5,2.2-2c0.9-0.5,2.1-0.9,3.3-1.1s2.6-0.3,4.1-0.3h2.6v-0.8c0-0.5-0.1-1-0.3-1.4
		s-0.5-0.9-0.8-1.3s-0.8-0.7-1.4-0.9c-0.6-0.2-1.2-0.3-2-0.3c-0.7,0-1.3,0.1-1.8,0.2c-0.5,0.1-1,0.3-1.4,0.5
		c-0.4,0.2-0.8,0.4-1.2,0.7c-0.3,0.3-0.7,0.5-1,0.8L949.4,284.7z M959.5,292.2c-0.9,0-1.7,0-2.6,0.1c-0.9,0.1-1.7,0.3-2.4,0.5
		c-0.7,0.3-1.3,0.6-1.8,1.1c-0.5,0.5-0.7,1.1-0.7,1.8c0,1.1,0.4,1.9,1.1,2.4c0.7,0.5,1.7,0.7,3,0.7c1,0,1.8-0.2,2.5-0.5
		c0.7-0.3,1.3-0.8,1.7-1.3c0.4-0.5,0.7-1.1,0.9-1.8c0.2-0.7,0.3-1.3,0.3-1.9v-1.2H959.5z"/>
	<path d="M983.6,287.4c-0.7-0.7-1.4-1.2-2.1-1.6s-1.6-0.5-2.6-0.5c-1,0-1.8,0.2-2.6,0.5c-0.7,0.4-1.3,0.9-1.8,1.5
		c-0.5,0.6-0.9,1.3-1.1,2.2c-0.3,0.8-0.4,1.7-0.4,2.5s0.1,1.7,0.4,2.5c0.3,0.8,0.7,1.5,1.2,2.1c0.5,0.6,1.2,1,1.9,1.4
		c0.7,0.3,1.6,0.5,2.5,0.5c1,0,1.9-0.2,2.6-0.5c0.7-0.4,1.4-0.9,2-1.6l2.6,2.6c-0.9,1-2,1.8-3.3,2.2s-2.6,0.7-3.9,0.7
		c-1.5,0-2.8-0.2-4-0.7c-1.2-0.5-2.3-1.2-3.1-2c-0.9-0.9-1.6-1.9-2-3.1c-0.5-1.2-0.7-2.6-0.7-4c0-1.5,0.2-2.8,0.7-4
		c0.5-1.2,1.2-2.3,2-3.2c0.9-0.9,1.9-1.6,3.1-2.1c1.2-0.5,2.6-0.7,4.1-0.7c1.4,0,2.7,0.2,4,0.7c1.3,0.5,2.4,1.2,3.3,2.3L983.6,287.4
		z"/>
	<path d="M999.5,285.5h-5.2v8.6c0,0.5,0,1.1,0,1.6c0,0.5,0.1,1,0.3,1.4c0.2,0.4,0.4,0.7,0.8,1c0.4,0.3,0.9,0.4,1.6,0.4
		c0.4,0,0.9,0,1.3-0.1s0.9-0.2,1.2-0.4v3.3c-0.4,0.2-1,0.4-1.7,0.5s-1.2,0.1-1.6,0.1c-1.4,0-2.5-0.2-3.2-0.6
		c-0.8-0.4-1.3-0.9-1.7-1.5c-0.4-0.6-0.6-1.3-0.6-2.1s-0.1-1.5-0.1-2.3v-9.9h-4.2v-3.1h4.2v-5.3h3.6v5.3h5.2V285.5z"/>
	<path d="M1006.9,293.2c0,0.8,0.2,1.6,0.5,2.3c0.4,0.7,0.8,1.3,1.4,1.7c0.6,0.5,1.3,0.9,2,1.1c0.8,0.3,1.6,0.4,2.4,0.4
		c1.1,0,2.1-0.3,2.9-0.8c0.8-0.5,1.6-1.2,2.3-2.1l2.7,2.1c-2,2.6-4.8,3.9-8.4,3.9c-1.5,0-2.8-0.3-4.1-0.8c-1.2-0.5-2.2-1.2-3.1-2.1
		s-1.5-1.9-1.9-3.2c-0.5-1.2-0.7-2.5-0.7-3.9c0-1.4,0.2-2.7,0.7-3.9c0.5-1.2,1.2-2.3,2-3.2c0.9-0.9,1.9-1.6,3.1-2.1
		c1.2-0.5,2.5-0.8,3.9-0.8c1.7,0,3.1,0.3,4.3,0.9s2.1,1.4,2.9,2.3c0.7,0.9,1.3,2,1.6,3.2s0.5,2.4,0.5,3.6v1.3H1006.9z M1018.2,290.3
		c0-0.8-0.2-1.5-0.4-2.2c-0.2-0.7-0.6-1.2-1-1.7c-0.5-0.5-1-0.9-1.7-1.2c-0.7-0.3-1.5-0.4-2.4-0.4c-0.9,0-1.7,0.2-2.4,0.5
		c-0.7,0.3-1.4,0.8-1.9,1.3c-0.5,0.5-0.9,1.1-1.2,1.8c-0.3,0.7-0.4,1.3-0.4,1.9H1018.2z"/>
	<path d="M1045.4,301.3h-3.6v-2.7h-0.1c-0.7,1-1.6,1.8-2.9,2.4c-1.2,0.6-2.5,0.8-3.7,0.8c-1.5,0-2.8-0.3-4-0.8
		c-1.2-0.5-2.2-1.2-3-2.1c-0.8-0.9-1.5-2-1.9-3.2c-0.5-1.2-0.7-2.5-0.7-3.9c0-1.4,0.2-2.7,0.7-3.9c0.5-1.2,1.1-2.3,1.9-3.2
		c0.8-0.9,1.9-1.6,3-2.1s2.5-0.8,4-0.8c1.4,0,2.6,0.3,3.8,0.9c1.2,0.6,2.1,1.4,2.8,2.3h0.1v-14h3.6V301.3z M1035.5,298.5
		c1,0,1.8-0.2,2.6-0.5c0.8-0.3,1.4-0.8,2-1.4c0.5-0.6,0.9-1.3,1.2-2.1c0.3-0.8,0.4-1.7,0.4-2.7c0-1-0.1-1.8-0.4-2.7
		s-0.7-1.5-1.2-2.1c-0.5-0.6-1.2-1-2-1.4c-0.8-0.3-1.6-0.5-2.6-0.5s-1.8,0.2-2.6,0.5c-0.8,0.3-1.4,0.8-2,1.4
		c-0.5,0.6-0.9,1.3-1.2,2.1c-0.3,0.8-0.4,1.7-0.4,2.7c0,1,0.1,1.8,0.4,2.7c0.3,0.8,0.7,1.5,1.2,2.1c0.5,0.6,1.2,1,2,1.4
		C1033.7,298.3,1034.6,298.5,1035.5,298.5z"/>
	<path d="M1059.7,282.4h4.2l5.7,14.5l5.4-14.5h3.8l-7.4,19h-4L1059.7,282.4z"/>
	<path d="M1081.4,275.6c0-0.7,0.3-1.3,0.8-1.9c0.5-0.5,1.1-0.8,1.9-0.8s1.3,0.3,1.9,0.8c0.5,0.5,0.8,1.1,0.8,1.9
		c0,0.7-0.3,1.3-0.8,1.9c-0.5,0.5-1.1,0.8-1.9,0.8s-1.3-0.3-1.9-0.8C1081.6,276.9,1081.4,276.3,1081.4,275.6z M1082.2,282.4h3.6v19
		h-3.6V282.4z"/>
	<path d="M1091.6,284.7c1-0.9,2.2-1.6,3.5-2.1c1.3-0.5,2.7-0.7,4-0.7c1.4,0,2.6,0.2,3.6,0.5s1.8,0.8,2.5,1.4c0.6,0.6,1.1,1.3,1.4,2
		c0.3,0.8,0.5,1.6,0.5,2.4v9.7c0,0.7,0,1.3,0,1.8c0,0.6,0.1,1.1,0.1,1.6h-3.2c-0.1-1-0.1-1.9-0.1-2.9h-0.1c-0.8,1.2-1.7,2.1-2.8,2.6
		c-1.1,0.5-2.4,0.8-3.8,0.8c-0.9,0-1.7-0.1-2.5-0.4s-1.5-0.6-2.1-1.1c-0.6-0.5-1.1-1.1-1.4-1.8c-0.3-0.7-0.5-1.5-0.5-2.5
		c0-1.2,0.3-2.3,0.8-3.1c0.5-0.8,1.3-1.5,2.2-2c0.9-0.5,2.1-0.9,3.3-1.1s2.6-0.3,4.1-0.3h2.6v-0.8c0-0.5-0.1-1-0.3-1.4
		s-0.5-0.9-0.8-1.3s-0.8-0.7-1.4-0.9c-0.6-0.2-1.2-0.3-2-0.3c-0.7,0-1.3,0.1-1.8,0.2c-0.5,0.1-1,0.3-1.4,0.5
		c-0.4,0.2-0.8,0.4-1.2,0.7c-0.3,0.3-0.7,0.5-1,0.8L1091.6,284.7z M1101.8,292.2c-0.9,0-1.7,0-2.6,0.1c-0.9,0.1-1.7,0.3-2.4,0.5
		c-0.7,0.3-1.3,0.6-1.8,1.1c-0.5,0.5-0.7,1.1-0.7,1.8c0,1.1,0.4,1.9,1.1,2.4c0.7,0.5,1.7,0.7,3,0.7c1,0,1.8-0.2,2.5-0.5
		c0.7-0.3,1.3-0.8,1.7-1.3c0.4-0.5,0.7-1.1,0.9-1.8c0.2-0.7,0.3-1.3,0.3-1.9v-1.2H1101.8z"/>
	<path d="M1124.3,273h3.8v24.7h13v3.6h-16.8V273z"/>
	<path d="M1143.6,275.6c0-0.7,0.3-1.3,0.8-1.9c0.5-0.5,1.1-0.8,1.9-0.8s1.3,0.3,1.9,0.8c0.5,0.5,0.8,1.1,0.8,1.9
		c0,0.7-0.3,1.3-0.8,1.9c-0.5,0.5-1.1,0.8-1.9,0.8s-1.3-0.3-1.9-0.8C1143.9,276.9,1143.6,276.3,1143.6,275.6z M1144.5,282.4h3.6v19
		h-3.6V282.4z"/>
	<path d="M1153.8,282.4h3.6v2.9h0.1c0.5-1,1.2-1.8,2.4-2.5c1.1-0.6,2.4-0.9,3.9-0.9c0.9,0,1.8,0.1,2.6,0.4c0.8,0.3,1.6,0.7,2.2,1.3
		c0.6,0.6,1.1,1.3,1.5,2.3c0.4,0.9,0.6,2,0.6,3.3v12.2h-3.6v-11.2c0-0.9-0.1-1.6-0.4-2.3c-0.2-0.6-0.6-1.1-1-1.5
		c-0.4-0.4-0.9-0.7-1.4-0.8c-0.5-0.2-1.1-0.3-1.6-0.3c-0.7,0-1.4,0.1-2.1,0.4c-0.6,0.2-1.2,0.6-1.7,1.1c-0.5,0.5-0.9,1.2-1.1,2
		c-0.3,0.8-0.4,1.7-0.4,2.8v9.8h-3.6V282.4z"/>
	<path d="M1176,271.1h3.6v19.5l8.2-8.2h5l-8.8,8.6l9.6,10.3h-5.1l-8.8-9.8v9.8h-3.6V271.1z"/>
	<path d="M1199.5,293.2c0,0.8,0.2,1.6,0.5,2.3c0.4,0.7,0.8,1.3,1.4,1.7c0.6,0.5,1.3,0.9,2,1.1c0.8,0.3,1.6,0.4,2.4,0.4
		c1.1,0,2.1-0.3,2.9-0.8c0.8-0.5,1.6-1.2,2.3-2.1l2.7,2.1c-2,2.6-4.8,3.9-8.4,3.9c-1.5,0-2.8-0.3-4.1-0.8c-1.2-0.5-2.2-1.2-3.1-2.1
		s-1.5-1.9-1.9-3.2c-0.5-1.2-0.7-2.5-0.7-3.9c0-1.4,0.2-2.7,0.7-3.9c0.5-1.2,1.2-2.3,2-3.2c0.9-0.9,1.9-1.6,3.1-2.1
		c1.2-0.5,2.5-0.8,3.9-0.8c1.7,0,3.1,0.3,4.3,0.9s2.1,1.4,2.9,2.3c0.7,0.9,1.3,2,1.6,3.2s0.5,2.4,0.5,3.6v1.3H1199.5z M1210.9,290.3
		c0-0.8-0.2-1.5-0.4-2.2c-0.2-0.7-0.6-1.2-1-1.7c-0.5-0.5-1-0.9-1.7-1.2c-0.7-0.3-1.5-0.4-2.4-0.4c-0.9,0-1.7,0.2-2.4,0.5
		c-0.7,0.3-1.4,0.8-1.9,1.3c-0.5,0.5-0.9,1.1-1.2,1.8c-0.3,0.7-0.4,1.3-0.4,1.9H1210.9z"/>
	<path d="M1238,301.3h-3.6v-2.7h-0.1c-0.7,1-1.6,1.8-2.9,2.4c-1.2,0.6-2.5,0.8-3.7,0.8c-1.5,0-2.8-0.3-4-0.8c-1.2-0.5-2.2-1.2-3-2.1
		c-0.8-0.9-1.5-2-1.9-3.2c-0.5-1.2-0.7-2.5-0.7-3.9c0-1.4,0.2-2.7,0.7-3.9c0.5-1.2,1.1-2.3,1.9-3.2c0.8-0.9,1.9-1.6,3-2.1
		s2.5-0.8,4-0.8c1.4,0,2.6,0.3,3.8,0.9c1.2,0.6,2.1,1.4,2.8,2.3h0.1v-14h3.6V301.3z M1228.2,298.5c1,0,1.8-0.2,2.6-0.5
		c0.8-0.3,1.4-0.8,2-1.4c0.5-0.6,0.9-1.3,1.2-2.1c0.3-0.8,0.4-1.7,0.4-2.7c0-1-0.1-1.8-0.4-2.7s-0.7-1.5-1.2-2.1
		c-0.5-0.6-1.2-1-2-1.4c-0.8-0.3-1.6-0.5-2.6-0.5s-1.8,0.2-2.6,0.5c-0.8,0.3-1.4,0.8-2,1.4c-0.5,0.6-0.9,1.3-1.2,2.1
		c-0.3,0.8-0.4,1.7-0.4,2.7c0,1,0.1,1.8,0.4,2.7c0.3,0.8,0.7,1.5,1.2,2.1c0.5,0.6,1.2,1,2,1.4
		C1226.3,298.3,1227.2,298.5,1228.2,298.5z"/>
	<path d="M1244.4,273h3.8v28.3h-3.8V273z"/>
	<path d="M1254.6,282.4h3.6v2.9h0.1c0.5-1,1.2-1.8,2.4-2.5c1.1-0.6,2.4-0.9,3.9-0.9c0.9,0,1.8,0.1,2.6,0.4c0.8,0.3,1.6,0.7,2.2,1.3
		c0.6,0.6,1.1,1.3,1.5,2.3c0.4,0.9,0.6,2,0.6,3.3v12.2h-3.6v-11.2c0-0.9-0.1-1.6-0.4-2.3c-0.2-0.6-0.6-1.1-1-1.5
		c-0.4-0.4-0.9-0.7-1.4-0.8c-0.5-0.2-1.1-0.3-1.6-0.3c-0.7,0-1.4,0.1-2.1,0.4c-0.6,0.2-1.2,0.6-1.7,1.1c-0.5,0.5-0.9,1.2-1.1,2
		c-0.3,0.8-0.4,1.7-0.4,2.8v9.8h-3.6V282.4z"/>
	<path d="M1287,291.9c0-1.4,0.3-2.7,0.8-3.9c0.5-1.2,1.2-2.3,2.1-3.2s2-1.6,3.2-2.1c1.2-0.5,2.5-0.8,4-0.8c1.4,0,2.7,0.3,4,0.8
		c1.2,0.5,2.3,1.2,3.2,2.1c0.9,0.9,1.6,2,2.1,3.2c0.5,1.2,0.8,2.5,0.8,3.9c0,1.4-0.3,2.7-0.8,3.9c-0.5,1.2-1.2,2.3-2.1,3.2
		c-0.9,0.9-2,1.6-3.2,2.1c-1.2,0.5-2.5,0.8-4,0.8c-1.4,0-2.7-0.3-4-0.8c-1.2-0.5-2.3-1.2-3.2-2.1s-1.6-1.9-2.1-3.2
		C1287.3,294.6,1287,293.3,1287,291.9z M1290.9,291.9c0,1,0.1,1.8,0.4,2.7c0.3,0.8,0.7,1.5,1.2,2.1c0.5,0.6,1.2,1,2,1.4
		c0.8,0.3,1.6,0.5,2.6,0.5s1.8-0.2,2.6-0.5c0.8-0.3,1.4-0.8,2-1.4c0.5-0.6,0.9-1.3,1.2-2.1c0.3-0.8,0.4-1.7,0.4-2.7
		c0-1-0.1-1.8-0.4-2.7s-0.7-1.5-1.2-2.1c-0.5-0.6-1.2-1-2-1.4c-0.8-0.3-1.6-0.5-2.6-0.5s-1.8,0.2-2.6,0.5c-0.8,0.3-1.4,0.8-2,1.4
		c-0.5,0.6-0.9,1.3-1.2,2.1C1291,290,1290.9,290.9,1290.9,291.9z"/>
	<path d="M1311.7,282.4h3.6v2.9h0.1c0.2-0.5,0.6-1,1-1.4c0.4-0.4,0.8-0.8,1.3-1.1c0.5-0.3,1-0.5,1.6-0.7c0.6-0.2,1.2-0.3,1.8-0.3
		c0.6,0,1.1,0.1,1.6,0.2l-0.2,3.9c-0.3-0.1-0.6-0.1-0.9-0.2c-0.3-0.1-0.6-0.1-0.9-0.1c-1.8,0-3.1,0.5-4,1.5c-0.9,1-1.4,2.5-1.4,4.6
		v9.5h-3.6V282.4z"/>
	<path d="M80.6,341.2c0,0.8,0.2,1.6,0.5,2.3c0.4,0.7,0.8,1.3,1.4,1.7c0.6,0.5,1.3,0.9,2,1.1c0.8,0.3,1.6,0.4,2.4,0.4
		c1.1,0,2.1-0.3,2.9-0.8c0.8-0.5,1.6-1.2,2.3-2.1l2.7,2.1c-2,2.6-4.8,3.9-8.4,3.9c-1.5,0-2.8-0.3-4.1-0.8c-1.2-0.5-2.2-1.2-3.1-2.1
		c-0.8-0.9-1.5-1.9-1.9-3.2c-0.5-1.2-0.7-2.5-0.7-3.9c0-1.4,0.2-2.7,0.7-3.9c0.5-1.2,1.2-2.3,2-3.2c0.9-0.9,1.9-1.6,3.1-2.1
		s2.5-0.8,3.9-0.8c1.7,0,3.1,0.3,4.3,0.9c1.2,0.6,2.1,1.4,2.9,2.3c0.7,0.9,1.3,2,1.6,3.2c0.3,1.2,0.5,2.4,0.5,3.6v1.3H80.6z
		 M91.9,338.3c0-0.8-0.2-1.5-0.4-2.2c-0.2-0.7-0.6-1.2-1-1.7c-0.5-0.5-1-0.9-1.7-1.2c-0.7-0.3-1.5-0.4-2.4-0.4
		c-0.9,0-1.7,0.2-2.4,0.5c-0.7,0.3-1.4,0.8-1.9,1.3c-0.5,0.5-0.9,1.1-1.2,1.8c-0.3,0.7-0.4,1.3-0.4,1.9H91.9z"/>
	<path d="M100.1,330.4h3.4v3h0.1c0.1-0.3,0.3-0.6,0.6-1s0.8-0.8,1.3-1.1c0.5-0.4,1.1-0.7,1.8-0.9c0.7-0.3,1.5-0.4,2.3-0.4
		c1.4,0,2.6,0.3,3.6,0.9s1.7,1.5,2.4,2.6c0.6-1.2,1.5-2.1,2.6-2.6c1.1-0.6,2.3-0.9,3.4-0.9c1.5,0,2.7,0.2,3.6,0.7
		c0.9,0.5,1.7,1.1,2.2,1.9c0.5,0.8,0.9,1.7,1.1,2.7c0.2,1,0.3,2,0.3,3.1v11h-3.6v-10.6c0-0.7,0-1.4-0.1-2.1
		c-0.1-0.7-0.3-1.3-0.6-1.8c-0.3-0.5-0.7-0.9-1.2-1.2c-0.5-0.3-1.2-0.5-2.1-0.5c-1.7,0-3,0.5-3.7,1.6c-0.7,1.1-1.1,2.4-1.1,4.1v10.4
		h-3.6v-9.9c0-0.9,0-1.7-0.1-2.5c-0.1-0.7-0.3-1.4-0.6-1.9c-0.3-0.5-0.7-1-1.2-1.3c-0.5-0.3-1.2-0.5-2.1-0.5c-0.6,0-1.3,0.1-1.9,0.4
		c-0.6,0.3-1.1,0.6-1.6,1.1c-0.5,0.5-0.8,1.2-1.1,1.9c-0.3,0.8-0.4,1.7-0.4,2.8v9.8h-3.6V330.4z"/>
	<path d="M134.3,332.7c1-0.9,2.2-1.6,3.5-2.1c1.3-0.5,2.7-0.7,4-0.7c1.4,0,2.6,0.2,3.6,0.5s1.8,0.8,2.5,1.4c0.6,0.6,1.1,1.3,1.4,2
		s0.5,1.6,0.5,2.4v9.7c0,0.7,0,1.3,0,1.8c0,0.6,0.1,1.1,0.1,1.6h-3.2c-0.1-1-0.1-1.9-0.1-2.9h-0.1c-0.8,1.2-1.7,2.1-2.8,2.6
		c-1.1,0.5-2.4,0.8-3.8,0.8c-0.9,0-1.7-0.1-2.5-0.4c-0.8-0.2-1.5-0.6-2.1-1.1c-0.6-0.5-1.1-1.1-1.4-1.8c-0.3-0.7-0.5-1.5-0.5-2.5
		c0-1.2,0.3-2.3,0.8-3.1c0.5-0.8,1.3-1.5,2.2-2c0.9-0.5,2.1-0.9,3.3-1.1c1.3-0.2,2.6-0.3,4.1-0.3h2.6v-0.8c0-0.5-0.1-1-0.3-1.4
		c-0.2-0.5-0.5-0.9-0.8-1.3s-0.8-0.7-1.4-0.9s-1.2-0.3-2-0.3c-0.7,0-1.3,0.1-1.8,0.2c-0.5,0.1-1,0.3-1.4,0.5
		c-0.4,0.2-0.8,0.4-1.2,0.7c-0.3,0.3-0.7,0.5-1,0.8L134.3,332.7z M144.4,340.2c-0.9,0-1.7,0-2.6,0.1c-0.9,0.1-1.7,0.3-2.4,0.5
		c-0.7,0.3-1.3,0.6-1.8,1.1c-0.5,0.5-0.7,1.1-0.7,1.8c0,1.1,0.4,1.9,1.1,2.4c0.7,0.5,1.7,0.7,3,0.7c1,0,1.8-0.2,2.5-0.5
		c0.7-0.3,1.3-0.8,1.7-1.3c0.4-0.5,0.7-1.1,0.9-1.8c0.2-0.7,0.3-1.3,0.3-1.9v-1.2H144.4z"/>
	<path d="M154.4,323.6c0-0.7,0.3-1.3,0.8-1.9c0.5-0.5,1.1-0.8,1.9-0.8c0.7,0,1.3,0.3,1.9,0.8c0.5,0.5,0.8,1.1,0.8,1.9
		c0,0.7-0.3,1.3-0.8,1.9c-0.5,0.5-1.1,0.8-1.9,0.8c-0.7,0-1.3-0.3-1.9-0.8C154.6,324.9,154.4,324.3,154.4,323.6z M155.2,330.4h3.6
		v19h-3.6V330.4z"/>
	<path d="M164.8,319.1h3.6v30.2h-3.6V319.1z"/>
	<path d="M185.3,332.7c1-0.9,2.2-1.6,3.5-2.1c1.3-0.5,2.7-0.7,4-0.7c1.4,0,2.6,0.2,3.6,0.5s1.8,0.8,2.5,1.4c0.6,0.6,1.1,1.3,1.4,2
		s0.5,1.6,0.5,2.4v9.7c0,0.7,0,1.3,0,1.8c0,0.6,0.1,1.1,0.1,1.6h-3.2c-0.1-1-0.1-1.9-0.1-2.9h-0.1c-0.8,1.2-1.7,2.1-2.8,2.6
		c-1.1,0.5-2.4,0.8-3.8,0.8c-0.9,0-1.7-0.1-2.5-0.4c-0.8-0.2-1.5-0.6-2.1-1.1c-0.6-0.5-1.1-1.1-1.4-1.8c-0.3-0.7-0.5-1.5-0.5-2.5
		c0-1.2,0.3-2.3,0.8-3.1c0.5-0.8,1.3-1.5,2.2-2c0.9-0.5,2.1-0.9,3.3-1.1c1.3-0.2,2.6-0.3,4.1-0.3h2.6v-0.8c0-0.5-0.1-1-0.3-1.4
		c-0.2-0.5-0.5-0.9-0.8-1.3s-0.8-0.7-1.4-0.9s-1.2-0.3-2-0.3c-0.7,0-1.3,0.1-1.8,0.2c-0.5,0.1-1,0.3-1.4,0.5
		c-0.4,0.2-0.8,0.4-1.2,0.7c-0.3,0.3-0.7,0.5-1,0.8L185.3,332.7z M195.5,340.2c-0.9,0-1.7,0-2.6,0.1c-0.9,0.1-1.7,0.3-2.4,0.5
		c-0.7,0.3-1.3,0.6-1.8,1.1c-0.5,0.5-0.7,1.1-0.7,1.8c0,1.1,0.4,1.9,1.1,2.4c0.7,0.5,1.7,0.7,3,0.7c1,0,1.8-0.2,2.5-0.5
		c0.7-0.3,1.3-0.8,1.7-1.3c0.4-0.5,0.7-1.1,0.9-1.8c0.2-0.7,0.3-1.3,0.3-1.9v-1.2H195.5z"/>
	<path d="M216.2,333.5H211v8.6c0,0.5,0,1.1,0,1.6c0,0.5,0.1,1,0.3,1.4c0.2,0.4,0.4,0.7,0.8,1c0.4,0.3,0.9,0.4,1.6,0.4
		c0.4,0,0.9,0,1.3-0.1c0.5-0.1,0.9-0.2,1.2-0.4v3.3c-0.4,0.2-1,0.4-1.7,0.5c-0.7,0.1-1.2,0.1-1.6,0.1c-1.4,0-2.5-0.2-3.2-0.6
		c-0.8-0.4-1.3-0.9-1.7-1.5c-0.4-0.6-0.6-1.3-0.6-2.1c-0.1-0.8-0.1-1.5-0.1-2.3v-9.9h-4.2v-3.1h4.2v-5.3h3.6v5.3h5.2V333.5z"/>
	<path d="M231.3,329.9h6v3.1h0.1c0.6-1.2,1.4-2.1,2.3-2.7c0.9-0.6,2-0.9,3.3-0.9c0.3,0,0.7,0,1,0c0.3,0,0.7,0.1,1,0.2v5.5
		c-0.4-0.1-0.8-0.2-1.3-0.3c-0.4-0.1-0.8-0.1-1.3-0.1c-1.1,0-2.1,0.2-2.7,0.5c-0.7,0.3-1.2,0.8-1.5,1.3c-0.4,0.6-0.6,1.3-0.7,2.1
		s-0.2,1.7-0.2,2.6v8.1h-6V329.9z"/>
	<path d="M247.2,323.8c0-1,0.3-1.8,1-2.5c0.7-0.7,1.5-1,2.5-1s1.8,0.3,2.5,1c0.7,0.7,1,1.5,1,2.5s-0.3,1.8-1,2.5
		c-0.7,0.7-1.5,1-2.5,1s-1.8-0.3-2.5-1C247.6,325.6,247.2,324.7,247.2,323.8z M247.7,329.9h6v19.4h-6V329.9z"/>
	<path d="M271.2,336.2c-0.3-0.4-0.7-0.8-1.2-1.1c-0.5-0.3-1.1-0.4-1.7-0.4c-1.5,0-2.7,0.5-3.5,1.4c-0.8,0.9-1.3,2.1-1.3,3.6
		s0.4,2.7,1.3,3.6c0.8,0.9,2,1.4,3.5,1.4c0.7,0,1.2-0.1,1.7-0.4c0.5-0.3,0.9-0.6,1.2-1l4,4.2c-0.9,1-2,1.6-3.3,2
		c-1.3,0.4-2.5,0.6-3.6,0.6c-1.5,0-2.9-0.2-4.2-0.7c-1.3-0.5-2.5-1.2-3.4-2.1c-1-0.9-1.7-2-2.3-3.2c-0.6-1.3-0.8-2.7-0.8-4.2
		s0.3-2.9,0.8-4.2c0.6-1.3,1.3-2.3,2.3-3.2c1-0.9,2.1-1.6,3.4-2.1c1.3-0.5,2.7-0.7,4.2-0.7c1.1,0,2.4,0.2,3.6,0.6
		c1.3,0.4,2.4,1.1,3.3,2L271.2,336.2z"/>
	<path d="M277.3,319.1h6v18.5l6.6-7.7h7.4l-7.7,8.8l7.9,10.7h-7.6l-6.6-9.8h-0.1v9.8h-6V319.1z"/>
	<path d="M319.9,349.3h-5.5v-2.6h-0.1c-0.2,0.3-0.6,0.7-0.9,1.1c-0.4,0.4-0.8,0.7-1.4,1c-0.5,0.3-1.1,0.5-1.7,0.7
		c-0.6,0.2-1.3,0.3-1.9,0.3c-1.4,0-2.7-0.2-3.9-0.7c-1.2-0.5-2.2-1.2-3-2.1s-1.5-2-1.9-3.2c-0.5-1.2-0.7-2.6-0.7-4
		c0-1.4,0.2-2.7,0.6-3.9c0.4-1.2,1-2.3,1.8-3.3c0.8-1,1.7-1.7,2.8-2.3c1.1-0.6,2.3-0.9,3.7-0.9c1.3,0,2.4,0.2,3.5,0.6
		c1.1,0.4,2,1,2.7,2h0.1v-12.9h6V349.3z M314.4,339.6c0-1.5-0.4-2.7-1.3-3.6c-0.8-0.9-2-1.4-3.5-1.4s-2.7,0.5-3.5,1.4
		c-0.8,0.9-1.3,2.1-1.3,3.6s0.4,2.7,1.3,3.6c0.8,0.9,2,1.4,3.5,1.4s2.7-0.5,3.5-1.4C314,342.3,314.4,341.1,314.4,339.6z"/>
	<path d="M343.1,346c-1,1.2-2.2,2.2-3.6,2.8c-1.5,0.7-3,1-4.6,1c-1.5,0-2.9-0.2-4.2-0.7c-1.3-0.5-2.5-1.2-3.4-2.1
		c-1-0.9-1.7-2-2.3-3.2c-0.6-1.3-0.8-2.7-0.8-4.2s0.3-2.9,0.8-4.2c0.6-1.3,1.3-2.3,2.3-3.2c1-0.9,2.1-1.6,3.4-2.1
		c1.3-0.5,2.7-0.7,4.2-0.7c1.4,0,2.6,0.2,3.8,0.7c1.1,0.5,2.1,1.2,2.9,2.1c0.8,0.9,1.4,2,1.8,3.2c0.4,1.3,0.6,2.7,0.6,4.2v1.9h-13.9
		c0.2,1.1,0.8,2.1,1.6,2.7c0.8,0.7,1.8,1,3,1c1,0,1.8-0.2,2.5-0.7c0.7-0.4,1.3-1,1.8-1.7L343.1,346z M338.1,337.4c0-1-0.3-1.9-1-2.6
		c-0.7-0.7-1.6-1.1-2.7-1.1c-0.7,0-1.3,0.1-1.8,0.3c-0.5,0.2-0.9,0.5-1.3,0.8c-0.4,0.3-0.6,0.7-0.8,1.2c-0.2,0.4-0.3,0.9-0.3,1.4
		H338.1z"/>
	<path d="M359.9,346.9L359.9,346.9c-0.7,1-1.6,1.8-2.7,2.2c-1.1,0.5-2.3,0.7-3.5,0.7c-0.9,0-1.8-0.1-2.6-0.4
		c-0.8-0.3-1.6-0.6-2.2-1.1c-0.6-0.5-1.1-1.1-1.5-1.9c-0.4-0.7-0.6-1.6-0.6-2.6c0-1.1,0.2-2.1,0.6-2.8c0.4-0.8,1-1.4,1.7-1.9
		c0.7-0.5,1.5-0.9,2.4-1.2c0.9-0.3,1.8-0.5,2.8-0.6c1-0.1,1.9-0.2,2.9-0.2c1,0,1.9,0,2.7,0c0-1.1-0.4-1.9-1.1-2.5
		c-0.8-0.6-1.7-0.9-2.7-0.9c-1,0-1.9,0.2-2.7,0.6c-0.8,0.4-1.5,1-2.2,1.7l-3.2-3.3c1.1-1,2.4-1.8,3.9-2.3c1.5-0.5,3-0.8,4.6-0.8
		c1.8,0,3.2,0.2,4.3,0.7c1.1,0.4,2,1.1,2.7,1.9c0.7,0.9,1.2,1.9,1.4,3.1c0.3,1.2,0.4,2.7,0.4,4.3v9.9h-5.5V346.9z M358.4,340.8
		c-0.5,0-1,0-1.7,0.1c-0.7,0-1.3,0.2-2,0.3s-1.2,0.5-1.6,0.8c-0.4,0.4-0.7,0.9-0.7,1.6c0,0.7,0.3,1.3,0.9,1.6
		c0.6,0.3,1.3,0.5,1.9,0.5c0.6,0,1.2-0.1,1.7-0.2c0.5-0.2,1-0.4,1.5-0.7c0.4-0.3,0.8-0.7,1-1.1c0.3-0.5,0.4-1,0.4-1.6v-1.3H358.4z"
		/>
	<path d="M369.2,319.1h6v18.5l6.6-7.7h7.4l-7.7,8.8l7.9,10.7h-7.6l-6.6-9.8h-0.1v9.8h-6V319.1z"/>
	<path d="M391,323.8c0-1,0.3-1.8,1-2.5c0.7-0.7,1.5-1,2.5-1s1.8,0.3,2.5,1c0.7,0.7,1,1.5,1,2.5s-0.3,1.8-1,2.5c-0.7,0.7-1.5,1-2.5,1
		s-1.8-0.3-2.5-1C391.4,325.6,391,324.7,391,323.8z M391.5,329.9h6v19.4h-6V329.9z"/>
	<path d="M401.8,329.9h5.8v2.6h0.1c0.2-0.4,0.5-0.7,0.8-1.1c0.3-0.4,0.8-0.7,1.2-1c0.5-0.3,1-0.5,1.6-0.7s1.3-0.3,2-0.3
		c1.5,0,2.7,0.2,3.7,0.7c0.9,0.5,1.7,1.1,2.2,1.9c0.5,0.8,0.9,1.8,1.1,2.9s0.3,2.3,0.3,3.6v10.7h-6v-9.5c0-0.6,0-1.1-0.1-1.7
		c0-0.6-0.2-1.2-0.4-1.7c-0.2-0.5-0.5-0.9-0.9-1.2c-0.4-0.3-1-0.5-1.8-0.5s-1.4,0.1-1.9,0.4c-0.5,0.3-0.8,0.7-1.1,1.1
		c-0.3,0.5-0.4,1-0.5,1.6c-0.1,0.6-0.1,1.2-0.1,1.8v9.7h-6V329.9z"/>
	<path d="M435.8,335.6c-0.9-1.1-2-1.6-3.5-1.6c-0.5,0-1,0.1-1.5,0.4c-0.5,0.2-0.7,0.7-0.7,1.2c0,0.5,0.2,0.8,0.7,1.1
		c0.5,0.2,1.1,0.4,1.9,0.6c0.8,0.2,1.6,0.4,2.4,0.6c0.9,0.2,1.7,0.5,2.4,0.9c0.8,0.4,1.4,1,1.9,1.7c0.5,0.7,0.7,1.7,0.7,2.9
		c0,1.3-0.3,2.3-0.8,3.1c-0.5,0.8-1.2,1.5-2.1,2c-0.9,0.5-1.8,0.8-2.9,1c-1.1,0.2-2.1,0.3-3.2,0.3c-1.4,0-2.7-0.2-4.1-0.6
		c-1.4-0.4-2.6-1.1-3.5-2.1l3.6-4c0.6,0.7,1.2,1.2,1.9,1.6s1.5,0.5,2.4,0.5c0.7,0,1.3-0.1,1.9-0.3c0.6-0.2,0.8-0.6,0.8-1.1
		c0-0.5-0.2-0.9-0.7-1.1c-0.5-0.3-1.1-0.5-1.9-0.6c-0.8-0.2-1.6-0.4-2.4-0.6c-0.9-0.2-1.7-0.5-2.4-0.9c-0.8-0.4-1.4-1-1.9-1.7
		s-0.7-1.7-0.7-2.9c0-1.1,0.2-2.1,0.7-3c0.5-0.8,1.1-1.5,1.8-2c0.8-0.5,1.6-0.9,2.6-1.2c1-0.3,2-0.4,3-0.4c1.3,0,2.6,0.2,3.9,0.6
		c1.3,0.4,2.4,1,3.3,2L435.8,335.6z"/>
	<path d="M449.4,350.8c0,1.3-0.1,2.4-0.4,3.4s-0.6,1.9-1.2,2.6c-0.6,0.7-1.3,1.3-2.2,1.6s-2.1,0.6-3.4,0.6c-0.5,0-0.9,0-1.4-0.1
		c-0.5,0-0.9-0.1-1.4-0.3l0.3-5.3c0.5,0.2,1,0.4,1.6,0.4c0.5,0,0.9-0.1,1.2-0.4c0.3-0.3,0.5-0.6,0.6-1c0.1-0.4,0.2-0.8,0.2-1.3
		c0-0.5,0-0.9,0-1.2v-19.8h6V350.8z M442.9,323.8c0-1,0.3-1.8,1-2.5c0.7-0.7,1.5-1,2.5-1s1.8,0.3,2.5,1c0.7,0.7,1,1.5,1,2.5
		s-0.3,1.8-1,2.5c-0.7,0.7-1.5,1-2.5,1s-1.8-0.3-2.5-1C443.2,325.6,442.9,324.7,442.9,323.8z"/>
	<path d="M453.7,329.9h6v3.1h0.1c0.6-1.2,1.4-2.1,2.3-2.7c0.9-0.6,2-0.9,3.3-0.9c0.3,0,0.7,0,1,0s0.7,0.1,1,0.2v5.5
		c-0.4-0.1-0.8-0.2-1.3-0.3c-0.4-0.1-0.8-0.1-1.3-0.1c-1.1,0-2.1,0.2-2.7,0.5c-0.7,0.3-1.2,0.8-1.5,1.3c-0.4,0.6-0.6,1.3-0.7,2.1
		c-0.1,0.8-0.2,1.7-0.2,2.6v8.1h-6V329.9z"/>
	<path d="M490.6,335.9c-0.1,0.4-0.2,0.8-0.2,1.3c-0.1,0.5-0.1,0.9-0.1,1.3c0,0.3,0.1,0.6,0.2,0.8s0.4,0.3,0.9,0.3
		c0.4,0,0.8-0.1,1.3-0.3c0.4-0.2,0.8-0.6,1.1-1.1c0.3-0.5,0.6-1.1,0.8-1.9c0.2-0.7,0.3-1.6,0.3-2.7c0-1.6-0.3-3-0.8-4.2
		c-0.5-1.2-1.2-2.2-2.2-3.1c-0.9-0.8-2-1.4-3.3-1.9c-1.3-0.4-2.7-0.6-4.2-0.6c-1.7,0-3.2,0.3-4.5,0.8c-1.4,0.6-2.5,1.3-3.5,2.4
		c-1,1-1.7,2.2-2.3,3.6c-0.5,1.4-0.8,2.9-0.8,4.5c0,1.8,0.3,3.3,0.9,4.7c0.6,1.4,1.4,2.6,2.5,3.5c1.1,1,2.3,1.7,3.7,2.2
		c1.4,0.5,3,0.8,4.7,0.8c1.5,0,2.9-0.2,4.2-0.6s2.4-1,3.4-1.8h4.4c-1.4,2-3.2,3.5-5.4,4.5c-2.1,1-4.4,1.5-6.9,1.5
		c-2.1,0-4.1-0.4-6-1.1s-3.5-1.8-4.9-3.1c-1.4-1.3-2.5-2.9-3.3-4.7s-1.2-3.8-1.2-6c0-2.1,0.4-4.1,1.2-5.9c0.8-1.8,1.9-3.4,3.3-4.7
		c1.4-1.3,3-2.4,4.9-3.1c1.9-0.8,3.8-1.1,5.9-1.1c1.8,0,3.5,0.3,5.2,0.9c1.7,0.6,3.2,1.4,4.5,2.5c1.3,1.1,2.4,2.5,3.2,4.1
		s1.2,3.5,1.2,5.6c0,1.4-0.2,2.6-0.5,3.7s-0.8,1.9-1.3,2.6c-0.5,0.7-1.1,1.3-1.8,1.8s-1.3,0.8-2,1s-1.3,0.4-1.9,0.5
		c-0.6,0.1-1.1,0.1-1.5,0.1c-1.1,0-1.9-0.2-2.4-0.7c-0.5-0.5-0.7-0.9-0.8-1.5h-0.1c-0.5,0.5-1.2,1-2,1.5c-0.8,0.5-1.8,0.7-3.1,0.7
		c-0.9,0-1.6-0.2-2.3-0.5c-0.7-0.3-1.3-0.8-1.8-1.4c-0.5-0.6-0.9-1.3-1.2-2.1c-0.3-0.8-0.4-1.7-0.4-2.7c0-1.2,0.2-2.3,0.6-3.4
		c0.4-1.1,0.9-2,1.6-2.9c0.7-0.8,1.5-1.5,2.5-2c1-0.5,2.1-0.7,3.4-0.7c1.1,0,2,0.2,2.7,0.5c0.7,0.3,1.3,0.9,1.7,1.8h0.1l0.3-1.8h3.8
		L490.6,335.9z M486.9,334.8c0-1.1-0.2-1.9-0.7-2.6c-0.5-0.7-1.2-1-2.2-1c-1.2,0-2.2,0.5-2.9,1.4s-1.1,2.1-1.1,3.5
		c0,0.4,0,0.9,0.1,1.3c0.1,0.4,0.2,0.8,0.4,1.1c0.2,0.3,0.5,0.6,0.8,0.8c0.4,0.2,0.8,0.3,1.4,0.3c0.8,0,1.5-0.1,2.1-0.4
		c0.5-0.3,1-0.7,1.3-1.1s0.5-1,0.7-1.6C486.8,335.9,486.9,335.3,486.9,334.8z"/>
	<path d="M522.4,347.7c0,3.7-0.9,6.5-2.8,8.4c-1.9,1.9-4.7,2.9-8.5,2.9c-1.7,0-3.4-0.2-5.1-0.6s-3.2-1.1-4.6-2.3l3.3-5
		c0.9,0.8,1.9,1.4,2.9,1.8c1,0.5,2.2,0.7,3.4,0.7c1.8,0,3.2-0.4,4.1-1.3c0.9-0.9,1.3-2,1.3-3.4V347h-0.1c-0.7,0.9-1.6,1.6-2.6,2
		c-1,0.4-2,0.6-2.9,0.6c-1.4,0-2.7-0.2-3.9-0.7c-1.2-0.5-2.2-1.2-3-2.1c-0.8-0.9-1.5-2-1.9-3.2c-0.5-1.2-0.7-2.6-0.7-4
		c0-1.3,0.2-2.5,0.6-3.8c0.4-1.2,1-2.3,1.8-3.2c0.8-0.9,1.7-1.7,2.8-2.3s2.3-0.9,3.7-0.9c0.9,0,1.6,0.1,2.3,0.3
		c0.7,0.2,1.3,0.4,1.9,0.7c0.6,0.3,1,0.6,1.4,1c0.4,0.4,0.7,0.7,1,1.1h0.1v-2.6h5.5V347.7z M507.3,339.5c0,0.6,0.1,1.2,0.4,1.8
		s0.6,1.1,1,1.5c0.4,0.4,0.9,0.8,1.5,1.1c0.6,0.3,1.2,0.4,1.9,0.4c0.7,0,1.3-0.1,1.9-0.4c0.6-0.3,1.1-0.6,1.5-1.1
		c0.4-0.4,0.8-0.9,1-1.5c0.2-0.6,0.4-1.2,0.4-1.8c0-0.6-0.1-1.2-0.4-1.8c-0.2-0.6-0.6-1.1-1-1.5c-0.4-0.4-1-0.8-1.5-1.1
		c-0.6-0.3-1.2-0.4-1.9-0.4c-0.7,0-1.3,0.1-1.9,0.4c-0.6,0.3-1.1,0.6-1.5,1.1c-0.4,0.4-0.8,0.9-1,1.5
		C507.4,338.3,507.3,338.9,507.3,339.5z"/>
	<path d="M527.2,329.9h5.8v2.6h0.1c0.2-0.4,0.5-0.7,0.8-1.1c0.3-0.4,0.8-0.7,1.2-1c0.5-0.3,1-0.5,1.6-0.7s1.3-0.3,2-0.3
		c1.4,0,2.6,0.3,3.6,0.8c1.1,0.6,1.8,1.4,2.4,2.6c0.7-1.3,1.5-2.1,2.5-2.7c1-0.5,2.2-0.8,3.6-0.8c1.3,0,2.4,0.2,3.3,0.7
		c0.9,0.4,1.6,1,2.1,1.8c0.5,0.8,0.9,1.7,1.1,2.7c0.2,1,0.3,2.1,0.3,3.3v11.5h-6V338c0-0.9-0.2-1.7-0.6-2.3c-0.4-0.7-1.1-1-2.1-1
		c-0.7,0-1.3,0.1-1.7,0.3s-0.8,0.5-1.1,0.9c-0.3,0.4-0.5,0.9-0.6,1.4c-0.1,0.5-0.2,1.1-0.2,1.7v10.3h-6v-10.3c0-0.3,0-0.8,0-1.3
		c0-0.5-0.1-1-0.3-1.4c-0.2-0.5-0.4-0.8-0.8-1.2c-0.4-0.3-0.9-0.5-1.6-0.5c-0.8,0-1.4,0.1-1.9,0.4c-0.5,0.3-0.8,0.7-1.1,1.1
		c-0.3,0.5-0.4,1-0.5,1.6c-0.1,0.6-0.1,1.2-0.1,1.8v9.7h-6V329.9z"/>
	<path d="M574.2,346.9L574.2,346.9c-0.7,1-1.6,1.8-2.7,2.2c-1.1,0.5-2.3,0.7-3.5,0.7c-0.9,0-1.8-0.1-2.6-0.4
		c-0.8-0.3-1.6-0.6-2.2-1.1c-0.6-0.5-1.1-1.1-1.5-1.9c-0.4-0.7-0.6-1.6-0.6-2.6c0-1.1,0.2-2.1,0.6-2.8c0.4-0.8,1-1.4,1.7-1.9
		c0.7-0.5,1.5-0.9,2.4-1.2c0.9-0.3,1.8-0.5,2.8-0.6c1-0.1,1.9-0.2,2.9-0.2c1,0,1.9,0,2.7,0c0-1.1-0.4-1.9-1.1-2.5
		c-0.8-0.6-1.7-0.9-2.7-0.9c-1,0-1.9,0.2-2.7,0.6c-0.8,0.4-1.5,1-2.2,1.7l-3.2-3.3c1.1-1,2.4-1.8,3.9-2.3c1.5-0.5,3-0.8,4.6-0.8
		c1.8,0,3.2,0.2,4.3,0.7c1.1,0.4,2,1.1,2.7,1.9c0.7,0.9,1.2,1.9,1.4,3.1c0.3,1.2,0.4,2.7,0.4,4.3v9.9h-5.5V346.9z M572.7,340.8
		c-0.5,0-1,0-1.7,0.1c-0.7,0-1.3,0.2-2,0.3s-1.2,0.5-1.6,0.8c-0.4,0.4-0.7,0.9-0.7,1.6c0,0.7,0.3,1.3,0.9,1.6
		c0.6,0.3,1.3,0.5,1.9,0.5c0.6,0,1.2-0.1,1.7-0.2c0.5-0.2,1-0.4,1.5-0.7c0.4-0.3,0.8-0.7,1-1.1c0.3-0.5,0.4-1,0.4-1.6v-1.3H572.7z"
		/>
	<path d="M583.1,323.8c0-1,0.3-1.8,1-2.5c0.7-0.7,1.5-1,2.5-1s1.8,0.3,2.5,1c0.7,0.7,1,1.5,1,2.5s-0.3,1.8-1,2.5
		c-0.7,0.7-1.5,1-2.5,1s-1.8-0.3-2.5-1C583.4,325.6,583.1,324.7,583.1,323.8z M583.5,329.9h6v19.4h-6V329.9z"/>
	<path d="M593.9,319.1h6v30.2h-6V319.1z"/>
	<path d="M604.4,345.9c0-0.5,0.1-1,0.3-1.4c0.2-0.5,0.4-0.8,0.8-1.2c0.3-0.3,0.7-0.6,1.2-0.8c0.5-0.2,0.9-0.3,1.4-0.3
		c0.5,0,1,0.1,1.4,0.3c0.5,0.2,0.8,0.4,1.2,0.8c0.3,0.3,0.6,0.7,0.8,1.2c0.2,0.5,0.3,0.9,0.3,1.4c0,0.5-0.1,1-0.3,1.4
		c-0.2,0.5-0.4,0.8-0.8,1.2c-0.3,0.3-0.7,0.6-1.2,0.8c-0.5,0.2-0.9,0.3-1.4,0.3c-0.5,0-1-0.1-1.4-0.3c-0.5-0.2-0.8-0.4-1.2-0.8
		c-0.3-0.3-0.6-0.7-0.8-1.2C604.5,346.9,604.4,346.4,604.4,345.9z"/>
	<path d="M629.3,336.2c-0.3-0.4-0.7-0.8-1.2-1.1c-0.5-0.3-1.1-0.4-1.7-0.4c-1.5,0-2.7,0.5-3.5,1.4c-0.8,0.9-1.3,2.1-1.3,3.6
		s0.4,2.7,1.3,3.6c0.8,0.9,2,1.4,3.5,1.4c0.7,0,1.2-0.1,1.7-0.4c0.5-0.3,0.9-0.6,1.2-1l4,4.2c-0.9,1-2,1.6-3.3,2
		c-1.3,0.4-2.5,0.6-3.6,0.6c-1.5,0-2.9-0.2-4.2-0.7c-1.3-0.5-2.5-1.2-3.4-2.1c-1-0.9-1.7-2-2.3-3.2c-0.6-1.3-0.8-2.7-0.8-4.2
		s0.3-2.9,0.8-4.2c0.6-1.3,1.3-2.3,2.3-3.2c1-0.9,2.1-1.6,3.4-2.1c1.3-0.5,2.7-0.7,4.2-0.7c1.1,0,2.4,0.2,3.6,0.6
		c1.3,0.4,2.4,1.1,3.3,2L629.3,336.2z"/>
	<path d="M634.7,339.6c0-1.5,0.3-2.9,0.8-4.2c0.6-1.3,1.3-2.3,2.3-3.2c1-0.9,2.1-1.6,3.4-2.1c1.3-0.5,2.7-0.7,4.2-0.7
		c1.5,0,2.9,0.2,4.2,0.7c1.3,0.5,2.5,1.2,3.4,2.1c1,0.9,1.7,2,2.3,3.2c0.6,1.3,0.8,2.7,0.8,4.2s-0.3,2.9-0.8,4.2
		c-0.6,1.3-1.3,2.3-2.3,3.2c-1,0.9-2.1,1.6-3.4,2.1c-1.3,0.5-2.7,0.7-4.2,0.7c-1.5,0-2.9-0.2-4.2-0.7c-1.3-0.5-2.5-1.2-3.4-2.1
		c-1-0.9-1.7-2-2.3-3.2C634.9,342.6,634.7,341.2,634.7,339.6z M640.7,339.6c0,1.5,0.4,2.7,1.3,3.6c0.8,0.9,2,1.4,3.5,1.4
		c1.5,0,2.7-0.5,3.5-1.4c0.8-0.9,1.3-2.1,1.3-3.6s-0.4-2.7-1.3-3.6c-0.8-0.9-2-1.4-3.5-1.4c-1.5,0-2.7,0.5-3.5,1.4
		C641.1,337,640.7,338.2,640.7,339.6z"/>
	<path d="M659.8,329.9h5.8v2.6h0.1c0.2-0.4,0.5-0.7,0.8-1.1c0.3-0.4,0.8-0.7,1.2-1c0.5-0.3,1-0.5,1.6-0.7s1.3-0.3,2-0.3
		c1.4,0,2.6,0.3,3.6,0.8c1.1,0.6,1.8,1.4,2.4,2.6c0.7-1.3,1.5-2.1,2.5-2.7c1-0.5,2.2-0.8,3.6-0.8c1.3,0,2.4,0.2,3.3,0.7
		c0.9,0.4,1.6,1,2.1,1.8c0.5,0.8,0.9,1.7,1.1,2.7c0.2,1,0.3,2.1,0.3,3.3v11.5h-6V338c0-0.9-0.2-1.7-0.6-2.3c-0.4-0.7-1.1-1-2.1-1
		c-0.7,0-1.3,0.1-1.7,0.3s-0.8,0.5-1.1,0.9c-0.3,0.4-0.5,0.9-0.6,1.4c-0.1,0.5-0.2,1.1-0.2,1.7v10.3h-6v-10.3c0-0.3,0-0.8,0-1.3
		c0-0.5-0.1-1-0.3-1.4c-0.2-0.5-0.4-0.8-0.8-1.2c-0.4-0.3-0.9-0.5-1.6-0.5c-0.8,0-1.4,0.1-1.9,0.4c-0.5,0.3-0.8,0.7-1.1,1.1
		c-0.3,0.5-0.4,1-0.5,1.6c-0.1,0.6-0.1,1.2-0.1,1.8v9.7h-6V329.9z"/>
	<path d="M698,349.6c-0.7,0-1.3-0.3-1.9-0.8c-0.5-0.5-0.8-1.1-0.8-1.9c0-0.7,0.3-1.3,0.8-1.9c0.5-0.5,1.1-0.8,1.9-0.8
		c0.7,0,1.3,0.3,1.9,0.8c0.5,0.5,0.8,1.1,0.8,1.9c0,0.7-0.3,1.3-0.8,1.9C699.4,349.3,698.7,349.6,698,349.6z"/>
</g>
</svg>
