<?xml version="1.0" encoding="utf-8"?>
<!-- Generator: Adobe Illustrator 28.3.0, SVG Export Plug-In . SVG Version: 6.00 Build 0)  -->
<svg version="1.1" id="Layer_1" xmlns="http://www.w3.org/2000/svg" xmlns:xlink="http://www.w3.org/1999/xlink" x="0px" y="0px"
	 viewBox="0 0 997.3 975" style="enable-background:new 0 0 997.3 975;" xml:space="preserve">
<style type="text/css">
	.st0{fill-rule:evenodd;clip-rule:evenodd;fill:#1B1F23;}
</style>
<path class="st0" d="M498.6,2.3C223.1,2.3,0,225.5,0,501C0,721.6,142.7,908,340.9,974c24.9,4.4,34.3-10.6,34.3-23.7
	c0-11.8-0.6-51.1-0.6-92.9c-125.3,23.1-157.7-30.5-167.7-58.6c-5.6-14.3-29.9-58.6-51.1-70.4c-17.5-9.3-42.4-32.4-0.6-33
	c39.3-0.6,67.3,36.2,76.7,51.1c44.9,75.4,116.6,54.2,145.2,41.1c4.4-32.4,17.5-54.2,31.8-66.7C297.9,708.5,182,665.5,182,474.8
	c0-54.2,19.3-99.1,51.1-134c-5-12.5-22.4-63.6,5-132.1c0,0,41.8-13.1,137.1,51.1c39.9-11.2,82.3-16.8,124.7-16.8
	c42.4,0,84.8,5.6,124.7,16.8c95.4-64.8,137.1-51.1,137.1-51.1c27.4,68.6,10,119.7,5,132.1c31.8,34.9,51.1,79.2,51.1,134
	c0,191.3-116.6,233.7-227.5,246.2c18.1,15.6,33.7,45.5,33.7,92.2c0,66.7-0.6,120.3-0.6,137.1c0,13.1,9.3,28.7,34.3,23.7
	C854.5,908,997.3,721,997.3,501C997.3,225.5,774.1,2.3,498.6,2.3z"/>
</svg>
