<?xml version="1.0" encoding="utf-8"?>
<!-- Generator: Adobe Illustrator 28.1.0, SVG Export Plug-In . SVG Version: 6.00 Build 0)  -->
<svg version="1.1" id="Layer_1" xmlns="http://www.w3.org/2000/svg" xmlns:xlink="http://www.w3.org/1999/xlink" x="0px" y="0px"
	 viewBox="0 0 216 56" style="enable-background:new 0 0 216 56;" xml:space="preserve">
<g>
	<path d="M28.34,35.88c-0.65,1.68-1.57,3.11-2.77,4.28c-1.2,1.17-2.66,2.08-4.38,2.71c-1.72,0.63-3.65,0.95-5.8,0.95
		c-2.33,0-4.43-0.38-6.29-1.14c-1.86-0.76-3.43-1.85-4.73-3.27c-1.3-1.42-2.29-3.15-2.99-5.2c-0.7-2.04-1.04-4.35-1.04-6.92
		c0-2.52,0.35-4.8,1.04-6.84c0.7-2.04,1.69-3.77,2.98-5.19c1.29-1.42,2.85-2.51,4.69-3.28c1.83-0.77,3.9-1.15,6.19-1.15
		c1.86,0,3.57,0.26,5.15,0.77c1.58,0.51,2.97,1.24,4.18,2.19c1.2,0.94,2.19,2.08,2.96,3.41s1.27,2.81,1.5,4.44H22.5
		c-0.49-1.59-1.37-2.83-2.62-3.71c-1.25-0.88-2.8-1.32-4.64-1.32c-1.26,0-2.4,0.24-3.41,0.73c-1.01,0.49-1.87,1.18-2.58,2.1
		c-0.7,0.91-1.24,2.03-1.62,3.34s-0.57,2.79-0.57,4.45c0,1.68,0.2,3.19,0.59,4.52c0.39,1.33,0.95,2.47,1.69,3.4
		c0.73,0.94,1.62,1.65,2.66,2.14c1.04,0.49,2.21,0.74,3.5,0.74c1.07,0,2.06-0.15,2.96-0.46c0.9-0.3,1.67-0.73,2.32-1.28
		c0.65-0.55,1.16-1.22,1.53-2c0.38-0.78,0.58-1.64,0.61-2.59l0.02-0.57h-6.81V26.2h13.18v4C29.31,32.3,28.99,34.2,28.34,35.88z"/>
	<path d="M34.96,19.02h6.13v3.83h0.39c0.16-0.59,0.43-1.15,0.8-1.66c0.38-0.51,0.83-0.96,1.37-1.34c0.54-0.38,1.14-0.67,1.82-0.89
		c0.67-0.22,1.39-0.33,2.16-0.33c0.44,0,0.89,0.03,1.36,0.08c0.47,0.05,0.84,0.13,1.12,0.23v5.76c-0.13-0.04-0.31-0.09-0.54-0.14
		s-0.49-0.09-0.76-0.13c-0.28-0.04-0.56-0.07-0.86-0.09c-0.3-0.02-0.58-0.03-0.84-0.03c-0.87,0-1.66,0.12-2.37,0.37
		c-0.71,0.25-1.32,0.61-1.84,1.08c-0.51,0.47-0.91,1.04-1.2,1.71c-0.28,0.67-0.42,1.42-0.42,2.26v13.29h-6.33V19.02z"/>
	<path d="M73.96,36.18c-0.25,1.13-0.68,2.15-1.29,3.06c-0.62,0.91-1.4,1.68-2.34,2.32c-0.94,0.64-2.03,1.13-3.27,1.47
		c-1.24,0.34-2.59,0.51-4.06,0.51c-1.83,0-3.46-0.28-4.89-0.84c-1.44-0.56-2.65-1.37-3.65-2.44s-1.76-2.37-2.28-3.9
		c-0.52-1.54-0.78-3.28-0.78-5.22c0-1.96,0.26-3.71,0.79-5.27c0.53-1.56,1.29-2.88,2.29-3.97c1-1.09,2.21-1.92,3.63-2.51
		c1.42-0.59,3.02-0.88,4.81-0.88c1.77,0,3.35,0.28,4.74,0.83c1.39,0.55,2.57,1.34,3.53,2.38c0.96,1.04,1.7,2.31,2.21,3.81
		c0.51,1.5,0.76,3.2,0.76,5.1v1.94H57.69v0.33c0.01,0.9,0.16,1.7,0.42,2.41c0.27,0.71,0.64,1.32,1.11,1.82
		c0.47,0.5,1.04,0.88,1.71,1.15c0.67,0.27,1.41,0.4,2.24,0.4c1.26,0,2.31-0.21,3.14-0.64c0.83-0.43,1.42-1.04,1.75-1.84H73.96z
		 M62.93,23.35c-0.74,0-1.41,0.12-2.02,0.37s-1.14,0.59-1.6,1.04c-0.46,0.45-0.82,0.99-1.1,1.62c-0.28,0.63-0.44,1.34-0.5,2.12
		h10.22c-0.07-1.59-0.55-2.85-1.44-3.77C65.61,23.81,64.43,23.35,62.93,23.35z"/>
	<path d="M98.95,36.18c-0.25,1.13-0.68,2.15-1.29,3.06c-0.62,0.91-1.4,1.68-2.34,2.32c-0.94,0.64-2.03,1.13-3.27,1.47
		c-1.24,0.34-2.59,0.51-4.06,0.51c-1.83,0-3.46-0.28-4.89-0.84c-1.44-0.56-2.65-1.37-3.65-2.44c-1-1.07-1.76-2.37-2.28-3.9
		c-0.52-1.54-0.78-3.28-0.78-5.22c0-1.96,0.26-3.71,0.79-5.27c0.53-1.56,1.29-2.88,2.29-3.97c1-1.09,2.21-1.92,3.63-2.51
		c1.42-0.59,3.02-0.88,4.81-0.88c1.77,0,3.35,0.28,4.74,0.83c1.39,0.55,2.57,1.34,3.53,2.38c0.96,1.04,1.7,2.31,2.21,3.81
		c0.51,1.5,0.76,3.2,0.76,5.1v1.94H82.68v0.33c0.01,0.9,0.16,1.7,0.42,2.41c0.27,0.71,0.64,1.32,1.11,1.82
		c0.47,0.5,1.04,0.88,1.71,1.15c0.67,0.27,1.41,0.4,2.24,0.4c1.26,0,2.31-0.21,3.14-0.64c0.83-0.43,1.42-1.04,1.75-1.84H98.95z
		 M87.92,23.35c-0.74,0-1.41,0.12-2.02,0.37c-0.61,0.25-1.14,0.59-1.6,1.04c-0.46,0.45-0.82,0.99-1.1,1.62
		c-0.28,0.63-0.44,1.34-0.5,2.12h10.22c-0.07-1.59-0.55-2.85-1.44-3.77C90.6,23.81,89.41,23.35,87.92,23.35z"/>
	<path d="M111.56,13.33v5.94h4.98v4.98h-4.98v10.79c0,1.04,0.25,1.81,0.74,2.31c0.49,0.49,1.28,0.74,2.37,0.74
		c0.42,0,0.76-0.01,1.02-0.02c0.26-0.01,0.54-0.04,0.85-0.07v4.83c-0.39,0.07-0.87,0.14-1.42,0.2c-0.56,0.06-1.14,0.09-1.75,0.09
		c-1.47,0-2.71-0.12-3.74-0.37c-1.03-0.25-1.87-0.63-2.52-1.16c-0.65-0.53-1.13-1.21-1.42-2.03c-0.3-0.83-0.45-1.83-0.45-3V24.24
		h-3.74v-4.98h3.74v-5.94H111.56z"/>
	<path d="M124.13,15.67c-0.57,0-1.08-0.08-1.54-0.24s-0.86-0.38-1.18-0.66c-0.33-0.28-0.58-0.62-0.75-1.01
		c-0.17-0.39-0.26-0.82-0.26-1.28c0-0.48,0.09-0.91,0.26-1.31c0.17-0.39,0.42-0.73,0.75-1.01c0.33-0.28,0.72-0.5,1.18-0.65
		c0.46-0.15,0.98-0.23,1.54-0.23c0.57,0,1.08,0.08,1.53,0.23c0.46,0.15,0.85,0.37,1.17,0.65c0.33,0.28,0.58,0.62,0.76,1.01
		c0.18,0.39,0.27,0.83,0.27,1.31c0,0.46-0.09,0.89-0.27,1.28c-0.18,0.39-0.44,0.73-0.76,1.01c-0.33,0.28-0.72,0.5-1.17,0.66
		C125.21,15.6,124.7,15.67,124.13,15.67z M120.96,19.02h6.33v23.99h-6.33V19.02z"/>
	<path d="M131.9,19.02h6.13v3.85h0.39c0.55-1.36,1.43-2.43,2.62-3.21c1.2-0.78,2.69-1.16,4.47-1.16c2.67,0,4.7,0.78,6.1,2.35
		c1.4,1.57,2.1,3.78,2.1,6.66v15.51h-6.33v-14c0-1.67-0.36-2.93-1.08-3.77c-0.72-0.85-1.83-1.27-3.34-1.27
		c-0.74,0-1.4,0.12-1.98,0.37s-1.08,0.6-1.49,1.05c-0.41,0.46-0.73,1.01-0.95,1.65c-0.22,0.65-0.33,1.36-0.33,2.14v13.83h-6.33
		V19.02z"/>
	<path d="M168.63,52.1c-1.6,0-3.04-0.17-4.35-0.5c-1.3-0.33-2.43-0.81-3.38-1.42c-0.95-0.62-1.7-1.36-2.26-2.22
		c-0.56-0.86-0.89-1.82-0.99-2.88h6.26c0.16,0.74,0.66,1.33,1.51,1.76c0.85,0.44,1.96,0.65,3.34,0.65c1.71,0,3.03-0.37,3.97-1.11
		c0.94-0.74,1.4-1.79,1.4-3.15v-4.44h-0.39c-0.67,1.28-1.61,2.24-2.84,2.89c-1.22,0.65-2.69,0.98-4.38,0.98
		c-1.49,0-2.84-0.28-4.03-0.84c-1.2-0.56-2.21-1.35-3.06-2.38c-0.84-1.03-1.49-2.27-1.93-3.73c-0.45-1.46-0.67-3.09-0.67-4.9
		c0-1.86,0.22-3.53,0.67-5.03c0.45-1.5,1.1-2.78,1.95-3.84c0.85-1.06,1.88-1.87,3.1-2.45s2.59-0.86,4.11-0.86
		c0.81,0,1.59,0.1,2.33,0.29c0.74,0.2,1.42,0.48,2.05,0.84c0.63,0.36,1.19,0.81,1.69,1.34c0.49,0.53,0.9,1.12,1.22,1.77h0.39v-3.85
		h6.13v23.9c0,1.41-0.27,2.68-0.83,3.81c-0.55,1.13-1.34,2.09-2.37,2.89c-1.03,0.8-2.27,1.41-3.73,1.84
		C172.08,51.89,170.44,52.1,168.63,52.1z M174.2,30.81c0-1.06-0.13-2.01-0.38-2.86c-0.25-0.85-0.62-1.57-1.09-2.16
		c-0.47-0.59-1.04-1.05-1.72-1.37c-0.67-0.32-1.44-0.48-2.29-0.48s-1.62,0.16-2.28,0.48c-0.67,0.32-1.23,0.78-1.7,1.37
		c-0.46,0.59-0.82,1.32-1.05,2.16c-0.24,0.85-0.36,1.79-0.36,2.84c0,1.06,0.12,2.01,0.36,2.86c0.24,0.85,0.59,1.57,1.04,2.16
		c0.46,0.59,1.02,1.05,1.7,1.37c0.68,0.32,1.44,0.48,2.29,0.48s1.62-0.16,2.31-0.48c0.68-0.32,1.26-0.78,1.73-1.37
		c0.47-0.59,0.83-1.31,1.08-2.15C174.07,32.82,174.2,31.87,174.2,30.81z"/>
	<path d="M183.59,26.07c0-1.13,0.24-2.16,0.72-3.1c0.48-0.94,1.16-1.73,2.03-2.39c0.88-0.66,1.93-1.17,3.15-1.53
		c1.22-0.36,2.58-0.54,4.08-0.54c3.06,0,5.45,0.61,7.18,1.84c1.73,1.23,2.68,2.99,2.85,5.3h-5.85c-0.16-0.78-0.6-1.4-1.31-1.84
		c-0.71-0.44-1.65-0.66-2.83-0.66c-0.57,0-1.09,0.06-1.57,0.18c-0.48,0.12-0.9,0.3-1.25,0.52c-0.36,0.23-0.63,0.49-0.83,0.8
		c-0.19,0.31-0.29,0.66-0.29,1.03c0,0.59,0.26,1.08,0.78,1.46c0.52,0.38,1.34,0.69,2.46,0.94l4.5,0.98
		c1.16,0.26,2.16,0.58,3.01,0.96c0.85,0.38,1.55,0.83,2.1,1.37c0.55,0.54,0.96,1.15,1.23,1.85s0.4,1.49,0.4,2.39
		c0,1.2-0.26,2.29-0.77,3.26c-0.51,0.97-1.24,1.8-2.16,2.49c-0.93,0.69-2.04,1.22-3.34,1.6c-1.3,0.38-2.73,0.56-4.3,0.56
		c-1.58,0-3-0.16-4.26-0.48c-1.26-0.32-2.34-0.78-3.24-1.39c-0.9-0.61-1.61-1.36-2.14-2.25c-0.53-0.89-0.84-1.92-0.95-3.08h6.18
		c0.25,0.83,0.75,1.46,1.5,1.9c0.75,0.44,1.77,0.66,3.04,0.66c0.61,0,1.17-0.06,1.69-0.18c0.51-0.12,0.95-0.3,1.32-0.52
		c0.36-0.22,0.65-0.49,0.85-0.8c0.2-0.31,0.3-0.66,0.3-1.05c0-0.59-0.24-1.08-0.72-1.45c-0.48-0.37-1.25-0.67-2.31-0.9l-4.35-0.98
		c-2.33-0.51-4.07-1.33-5.21-2.46C184.16,29.42,183.59,27.93,183.59,26.07z"/>
	<path d="M212.15,43.6c-0.58,0-1.11-0.09-1.58-0.28c-0.47-0.19-0.88-0.45-1.22-0.78c-0.34-0.33-0.6-0.73-0.78-1.2
		c-0.18-0.46-0.27-0.97-0.27-1.52c0-0.55,0.09-1.05,0.27-1.51s0.44-0.85,0.78-1.19c0.34-0.33,0.75-0.59,1.22-0.78
		c0.47-0.19,1-0.28,1.58-0.28c0.58,0,1.11,0.09,1.59,0.28c0.48,0.19,0.88,0.45,1.22,0.78c0.33,0.33,0.59,0.73,0.77,1.19
		c0.18,0.46,0.27,0.96,0.27,1.51c0,0.55-0.09,1.06-0.27,1.52c-0.18,0.46-0.44,0.86-0.77,1.2c-0.33,0.33-0.74,0.59-1.22,0.78
		C213.26,43.5,212.73,43.6,212.15,43.6z"/>
</g>
</svg>
