<?xml version="1.0" encoding="utf-8"?>
<!-- Generator: Adobe Illustrator 28.3.0, SVG Export Plug-In . SVG Version: 6.00 Build 0)  -->
<svg version="1.1" id="Layer_1" xmlns="http://www.w3.org/2000/svg" xmlns:xlink="http://www.w3.org/1999/xlink" x="0px" y="0px"
	 viewBox="0 0 998.8 1002.4" style="enable-background:new 0 0 998.8 1002.4;" xml:space="preserve">
<path d="M790.7,3.6H208.1C93.2,3.6,0,96.8,0,211.7v582.6c0,114.9,93.2,208.1,208.1,208.1h582.6c114.9,0,208.1-93.2,208.1-208.1
	V211.7C998.8,96.8,905.7,3.6,790.7,3.6z M332.9,794.4H208.1V336.6h124.9V794.4z M270.5,283.8c-40.2,0-72.8-32.9-72.8-73.4
	s32.6-73.4,72.8-73.4s72.8,32.9,72.8,73.4S310.8,283.8,270.5,283.8z M832.3,794.4H707.5V561.1c0-140.2-166.5-129.6-166.5,0v233.2
	H416.2V336.6H541V410c58.1-107.6,291.3-115.6,291.3,103V794.4z"/>
</svg>
