<?xml version="1.0" encoding="UTF-8"?>
<svg id="Layer_1" xmlns="http://www.w3.org/2000/svg" version="1.1" viewBox="0 0 245.3 47.1">
  <!-- Generator: Adobe Illustrator 29.8.6, SVG Export Plug-In . SVG Version: 2.1.1 Build 1)  -->
  <defs>
    <style>
      .st0 {
        font-family: AvenirNext-Bold, 'Avenir Next';
        font-weight: 700;
      }

      .st1 {
        fill: #231f20;
        font-size: 18px;
      }

      .st2, .st3 {
        font-family: AvenirNext-Regular, 'Avenir Next';
      }

      .st3 {
        letter-spacing: 0em;
      }
    </style>
  </defs>
  <g>
    <path d="M40.5,25.8h3.2v-5.5c0,0,.2,0,.3,0,.6,0,1.6,0,2.2,0s.3,0,.4.2c.8,1.4,1.4,2.8,2.2,4.2s.5,1.1.7,1.1c.2.1,1.3,0,1.6,0s.2,0,.3,0c.6,0,1.2,0,1.7,0l-3.2-6c0-.1.5-.3.6-.4,1.2-.7,2-2,2.2-3.4,0,0,0,0,.1,0,.7.8,1.7,2.7,2.1,3.8,3.4,9.4-3.5,19-13.3,19.5-8.8.4-16.3-6.9-15.8-15.7s6.5-13,13.6-13.5.6,0,.7,0,.1.2.1.3c.2,1.4,0,3,0,4.5,0,.7,0,1.4,0,2.1,0,2.5,0,4.9.2,7.4s0,1,0,1.5Z"/>
    <path d="M43.8,12.8h3.4c2.8.3,2.9,4.6,0,4.9s-2.5.2-3.2,0-.2,0-.2-.2v-4.7s.1,0,.1,0Z"/>
  </g>
  <text class="st1" transform="translate(61.2 29.6)"><tspan class="st0" x="0" y="0">R Deakins</tspan><tspan class="st3" x="87.1" y="0"> </tspan><tspan class="st2" x="93.1" y="0">Consulting</tspan></text>
</svg>