<?xml version="1.0" encoding="utf-8"?>
<!-- Generator: Adobe Illustrator 28.3.0, SVG Export Plug-In . SVG Version: 6.00 Build 0)  -->
<svg version="1.1" id="Layer_1" xmlns="http://www.w3.org/2000/svg" xmlns:xlink="http://www.w3.org/1999/xlink" x="0px" y="0px"
	 viewBox="0 0 657.8 649.8" style="enable-background:new 0 0 657.8 649.8;" xml:space="preserve">
<style type="text/css">
	.st0{fill:#FFFFFF;}
</style>
<g id="_x31_lwh5P.tif">
	<g>
		<g>
			<path class="st0" d="M326,191.6c-53.9,0-107.8,0-161.7,0c-2.7,0-5.3-0.1-8,0.3c-15.6,2-23.3,20-14,32.6c5,6.9,12,8.8,20.1,8.8
				c108.9,0,217.9,0,326.8,0c1.7,0,3.3,0,5-0.2c8.5-1.1,14.7-5.6,17.5-13.6c2.9-8.3,1.2-16.1-5.5-22.4c-4.8-4.5-10.7-5.5-17.1-5.5
				C434.8,191.6,380.4,191.6,326,191.6z M325.5,483.1c54.2,0,108.4,0,162.7,0c2.2,0,4.3,0,6.5-0.2c9.3-1,16.6-8,18-16.8
				c2.2-14.4-7.4-24.6-23.4-24.6c-108.9,0-217.9,0-326.8,0c-3,0-6,0.2-8.9,0.9c-8.3,2-14.1,9.2-15,17.9c-0.9,8.7,3,16.7,10.8,20.1
				c4.1,1.8,8.9,2.6,13.5,2.6C217,483.2,271.3,483.1,325.5,483.1z M325.7,358.2c53.9,0,107.8,0,161.7,0c2.3,0,4.7,0,7-0.3
				c8.3-1,14.4-5.4,17.2-13.2c2.7-7.5,1.6-14.7-3.8-21c-5.1-6-12-7.3-19.3-7.3c-108.4,0-216.9,0-325.3,0c-2.8,0-5.7,0.1-8.4,0.7
				c-14.8,3-21.3,20.3-12.4,32.4c5.1,6.9,12.2,8.6,20.2,8.6C217,358.2,271.3,358.2,325.7,358.2z"/>
			<path d="M326,191.6c54.4,0,108.8,0,163.2,0c6.4,0,12.3,1,17.1,5.5c6.7,6.2,8.4,14,5.5,22.4c-2.8,8-9,12.5-17.5,13.6
				c-1.6,0.2-3.3,0.2-5,0.2c-108.9,0-217.9,0-326.8,0c-8.1,0-15.1-2-20.1-8.8c-9.2-12.6-1.6-30.6,14-32.6c2.6-0.3,5.3-0.3,8-0.3
				C218.2,191.6,272.1,191.6,326,191.6z"/>
			<path d="M325.5,483.1c-54.2,0-108.4,0.1-162.7-0.1c-4.5,0-9.3-0.8-13.5-2.6c-7.9-3.4-11.7-11.4-10.8-20.1
				c0.9-8.7,6.7-15.9,15-17.9c2.9-0.7,5.9-0.9,8.9-0.9c108.9,0,217.9,0,326.8,0c15.9,0,25.5,10.2,23.4,24.6
				c-1.3,8.8-8.7,15.7-18,16.8c-2.1,0.2-4.3,0.2-6.5,0.2C433.9,483.1,379.7,483.1,325.5,483.1z"/>
			<path d="M325.7,358.2c-54.4,0-108.8,0-163.2,0c-8,0-15.1-1.7-20.2-8.6c-8.9-12.1-2.4-29.5,12.4-32.4c2.7-0.6,5.6-0.7,8.4-0.7
				c108.4,0,216.9,0,325.3,0c7.4,0,14.2,1.3,19.3,7.3c5.4,6.3,6.5,13.5,3.8,21c-2.9,7.8-8.9,12.2-17.2,13.2c-2.3,0.3-4.6,0.3-7,0.3
				C433.5,358.2,379.6,358.2,325.7,358.2z"/>
		</g>
	</g>
</g>
</svg>
