<?xml version="1.0" encoding="utf-8"?>
<!-- Generator: Adobe Illustrator 28.1.0, SVG Export Plug-In . SVG Version: 6.00 Build 0)  -->
<svg version="1.1" id="Layer_1" xmlns="http://www.w3.org/2000/svg" xmlns:xlink="http://www.w3.org/1999/xlink" x="0px" y="0px"
	 viewBox="0 0 216 56" style="enable-background:new 0 0 216 56;" xml:space="preserve">
<g>
	<path d="M37.12,12.46c1.67,0,3.2,0.27,4.58,0.82s2.57,1.31,3.57,2.3c0.99,0.99,1.76,2.18,2.31,3.59c0.55,1.41,0.82,2.96,0.82,4.66
		c0,1.69-0.28,3.22-0.85,4.61c-0.56,1.39-1.36,2.58-2.39,3.58s-2.26,1.76-3.68,2.3s-2.99,0.81-4.71,0.81h-6.43v10.21h-6.82V12.46
		H37.12z M30.35,29.55h4.94c1.97,0,3.5-0.49,4.57-1.46s1.61-2.39,1.61-4.24c0-1.88-0.53-3.31-1.6-4.28
		c-1.07-0.97-2.59-1.46-4.56-1.46h-4.97V29.55z"/>
	<path d="M61.37,45.89c-1.91,0-3.63-0.3-5.15-0.89c-1.52-0.59-2.81-1.45-3.86-2.59c-1.05-1.13-1.86-2.51-2.42-4.14
		s-0.84-3.46-0.84-5.52c0-2.04,0.28-3.86,0.85-5.48c0.56-1.62,1.38-2.99,2.44-4.12c1.06-1.13,2.35-2,3.86-2.6
		c1.51-0.6,3.22-0.9,5.11-0.9c1.9,0,3.6,0.3,5.11,0.9c1.51,0.6,2.8,1.47,3.86,2.6c1.06,1.13,1.87,2.51,2.44,4.12
		c0.56,1.62,0.85,3.45,0.85,5.48c0,2.05-0.28,3.89-0.84,5.52c-0.56,1.63-1.36,3-2.42,4.14s-2.34,1.99-3.86,2.59
		C65,45.6,63.28,45.89,61.37,45.89z M61.37,40.47c1.76,0,3.12-0.67,4.08-2.02c0.96-1.34,1.43-3.24,1.43-5.69
		c0-1.2-0.12-2.28-0.37-3.24c-0.25-0.96-0.61-1.76-1.08-2.42c-0.47-0.65-1.05-1.15-1.73-1.5c-0.68-0.35-1.45-0.52-2.33-0.52
		c-0.87,0-1.65,0.17-2.34,0.52s-1.26,0.85-1.73,1.5c-0.47,0.65-0.82,1.46-1.07,2.42c-0.25,0.96-0.37,2.04-0.37,3.24
		c0,2.46,0.47,4.36,1.42,5.7C58.23,39.8,59.6,40.47,61.37,40.47z"/>
	<path d="M76.21,20.21h6.37v4.01h0.41c0.17-0.62,0.44-1.2,0.84-1.74c0.39-0.54,0.87-1.01,1.42-1.4c0.56-0.4,1.19-0.71,1.89-0.93
		s1.45-0.34,2.25-0.34c0.45,0,0.92,0.03,1.41,0.08c0.49,0.05,0.88,0.13,1.16,0.24v6.04c-0.14-0.05-0.32-0.09-0.56-0.15
		c-0.24-0.05-0.5-0.1-0.79-0.14c-0.29-0.04-0.58-0.07-0.89-0.09c-0.31-0.02-0.6-0.03-0.87-0.03c-0.9,0-1.72,0.13-2.46,0.39
		s-1.37,0.63-1.91,1.13c-0.53,0.49-0.95,1.09-1.24,1.79s-0.44,1.49-0.44,2.37v13.92h-6.57V20.21z"/>
	<path d="M104.77,14.24v6.22h5.17v5.22h-5.17v11.3c0,1.09,0.26,1.9,0.77,2.42c0.51,0.52,1.33,0.77,2.46,0.77
		c0.44,0,0.79-0.01,1.06-0.02c0.27-0.02,0.56-0.04,0.88-0.07v5.06c-0.41,0.08-0.9,0.14-1.48,0.21c-0.58,0.06-1.19,0.09-1.82,0.09
		c-1.52,0-2.81-0.13-3.88-0.39s-1.94-0.66-2.62-1.22s-1.17-1.26-1.48-2.13c-0.31-0.87-0.46-1.91-0.46-3.14V25.68h-3.88v-5.22h3.88
		v-6.22H104.77z"/>
	<path d="M116.4,25.68h-4.02v-5.22h4.02V18c0-2.54,0.75-4.37,2.24-5.49c1.49-1.12,3.7-1.69,6.62-1.69c0.65,0,1.2,0.02,1.66,0.07
		c0.46,0.05,0.93,0.11,1.41,0.18v4.76c-0.21-0.05-0.51-0.09-0.89-0.13c-0.38-0.04-0.8-0.06-1.25-0.06c-1.16,0-2.01,0.24-2.54,0.71
		c-0.53,0.47-0.8,1.22-0.8,2.26v1.85h5.28v5.22h-5.15v19.67h-6.57V25.68z"/>
	<path d="M140.69,45.89c-1.91,0-3.63-0.3-5.15-0.89c-1.52-0.59-2.81-1.45-3.86-2.59c-1.05-1.13-1.86-2.51-2.42-4.14
		s-0.84-3.46-0.84-5.52c0-2.04,0.28-3.86,0.85-5.48c0.56-1.62,1.38-2.99,2.44-4.12s2.35-2,3.86-2.6c1.51-0.6,3.22-0.9,5.11-0.9
		s3.6,0.3,5.11,0.9c1.51,0.6,2.8,1.47,3.86,2.6c1.06,1.13,1.87,2.51,2.44,4.12c0.56,1.62,0.85,3.45,0.85,5.48
		c0,2.05-0.28,3.89-0.84,5.52s-1.36,3-2.42,4.14c-1.05,1.13-2.34,1.99-3.86,2.59C144.32,45.6,142.61,45.89,140.69,45.89z
		 M140.69,40.47c1.76,0,3.12-0.67,4.08-2.02c0.96-1.34,1.43-3.24,1.43-5.69c0-1.2-0.12-2.28-0.37-3.24
		c-0.25-0.96-0.61-1.76-1.08-2.42c-0.47-0.65-1.05-1.15-1.73-1.5c-0.68-0.35-1.45-0.52-2.33-0.52s-1.65,0.17-2.34,0.52
		s-1.26,0.85-1.73,1.5c-0.47,0.65-0.82,1.46-1.07,2.42c-0.25,0.96-0.37,2.04-0.37,3.24c0,2.46,0.47,4.36,1.42,5.7
		C137.56,39.8,138.92,40.47,140.69,40.47z"/>
	<path d="M155.76,10.62h6.57v34.73h-6.57V10.62z"/>
	<path d="M170.64,16.7c-0.59,0-1.12-0.08-1.6-0.25c-0.48-0.17-0.89-0.4-1.23-0.7c-0.34-0.3-0.6-0.65-0.78-1.06
		c-0.18-0.41-0.27-0.86-0.27-1.34c0-0.5,0.09-0.96,0.27-1.37c0.18-0.41,0.44-0.76,0.78-1.06c0.34-0.3,0.75-0.52,1.23-0.68
		s1.02-0.24,1.6-0.24s1.12,0.08,1.59,0.24c0.47,0.16,0.88,0.39,1.22,0.68c0.34,0.3,0.6,0.65,0.79,1.06
		c0.19,0.41,0.28,0.87,0.28,1.37c0,0.49-0.09,0.93-0.28,1.34c-0.19,0.41-0.45,0.76-0.79,1.06c-0.34,0.3-0.75,0.53-1.22,0.7
		C171.75,16.62,171.22,16.7,170.64,16.7z M167.34,20.21h6.57v25.14h-6.57V20.21z"/>
	<path d="M189.74,45.89c-1.91,0-3.63-0.3-5.15-0.89c-1.52-0.59-2.81-1.45-3.86-2.59c-1.05-1.13-1.86-2.51-2.42-4.14
		s-0.84-3.46-0.84-5.52c0-2.04,0.28-3.86,0.85-5.48c0.56-1.62,1.38-2.99,2.44-4.12s2.35-2,3.86-2.6c1.51-0.6,3.22-0.9,5.11-0.9
		s3.6,0.3,5.11,0.9c1.51,0.6,2.8,1.47,3.86,2.6s1.87,2.51,2.44,4.12c0.56,1.62,0.85,3.45,0.85,5.48c0,2.05-0.28,3.89-0.84,5.52
		s-1.36,3-2.42,4.14c-1.05,1.13-2.34,1.99-3.86,2.59C193.37,45.6,191.65,45.89,189.74,45.89z M189.74,40.47
		c1.76,0,3.12-0.67,4.07-2.02c0.96-1.34,1.43-3.24,1.43-5.69c0-1.2-0.12-2.28-0.37-3.24c-0.25-0.96-0.61-1.76-1.08-2.42
		c-0.47-0.65-1.05-1.15-1.73-1.5c-0.68-0.35-1.45-0.52-2.33-0.52c-0.87,0-1.65,0.17-2.34,0.52s-1.26,0.85-1.73,1.5
		c-0.47,0.65-0.82,1.46-1.07,2.42c-0.25,0.96-0.37,2.04-0.37,3.24c0,2.46,0.47,4.36,1.42,5.7C186.6,39.8,187.96,40.47,189.74,40.47z
		"/>
</g>
</svg>
