<?xml version="1.0" encoding="utf-8"?>
<!-- Generator: Adobe Illustrator 28.1.0, SVG Export Plug-In . SVG Version: 6.00 Build 0)  -->
<svg version="1.1" id="Layer_1" xmlns="http://www.w3.org/2000/svg" xmlns:xlink="http://www.w3.org/1999/xlink" x="0px" y="0px"
	 viewBox="0 0 216 56" style="enable-background:new 0 0 216 56;" xml:space="preserve">
<g>
	<path d="M29.21,43.67h-6.86V12h13.76c1.8,0,3.42,0.23,4.86,0.7c1.44,0.47,2.66,1.14,3.66,2.02c1,0.88,1.77,1.94,2.3,3.19
		c0.54,1.25,0.81,2.67,0.81,4.25c0,1.01-0.13,1.98-0.4,2.91c-0.26,0.93-0.65,1.79-1.16,2.57c-0.51,0.78-1.13,1.47-1.87,2.07
		c-0.74,0.6-1.58,1.08-2.52,1.45l6.9,12.51h-7.77l-6.11-11.48h-5.61V43.67z M29.21,27.1h6.02c1.74,0,3.09-0.42,4.04-1.27
		c0.95-0.85,1.43-2.04,1.43-3.58c0-0.75-0.13-1.42-0.39-2.03s-0.62-1.12-1.1-1.55s-1.06-0.75-1.75-0.98
		c-0.69-0.23-1.46-0.34-2.3-0.34h-5.95V27.1z"/>
	<path d="M73.53,36.78c-0.26,1.14-0.71,2.17-1.35,3.08c-0.64,0.91-1.46,1.69-2.44,2.34c-0.98,0.64-2.12,1.14-3.42,1.48
		c-1.29,0.34-2.71,0.52-4.23,0.52c-1.91,0-3.61-0.28-5.11-0.84c-1.5-0.56-2.77-1.38-3.81-2.46c-1.04-1.08-1.84-2.39-2.38-3.94
		c-0.55-1.55-0.82-3.31-0.82-5.27c0-1.98,0.28-3.75,0.83-5.32c0.55-1.57,1.35-2.91,2.4-4c1.04-1.1,2.31-1.94,3.79-2.53
		c1.48-0.59,3.16-0.89,5.02-0.89c1.85,0,3.5,0.28,4.95,0.83c1.45,0.56,2.68,1.36,3.69,2.4c1.01,1.05,1.77,2.33,2.3,3.84
		c0.53,1.51,0.79,3.23,0.79,5.15v1.95H56.55v0.33c0.01,0.91,0.16,1.72,0.44,2.44c0.28,0.72,0.67,1.33,1.16,1.83
		c0.49,0.5,1.09,0.89,1.78,1.16c0.7,0.27,1.48,0.41,2.34,0.41c1.32,0,2.41-0.22,3.28-0.65c0.87-0.43,1.48-1.05,1.83-1.85H73.53z
		 M62.02,23.83c-0.77,0-1.48,0.12-2.11,0.37c-0.64,0.25-1.19,0.6-1.67,1.05c-0.48,0.45-0.86,1-1.15,1.63
		c-0.29,0.64-0.46,1.35-0.52,2.14h10.67c-0.08-1.61-0.58-2.88-1.5-3.81C64.82,24.29,63.58,23.83,62.02,23.83z"/>
	<path d="M76.71,26.57c0-1.14,0.25-2.18,0.75-3.13c0.5-0.94,1.21-1.75,2.12-2.41c0.92-0.67,2.01-1.18,3.29-1.55
		c1.28-0.37,2.7-0.55,4.26-0.55c3.19,0,5.69,0.62,7.49,1.85c1.8,1.24,2.79,3.02,2.97,5.34H91.5c-0.17-0.79-0.62-1.41-1.36-1.85
		c-0.74-0.45-1.73-0.67-2.95-0.67c-0.59,0-1.14,0.06-1.63,0.19c-0.5,0.12-0.94,0.3-1.31,0.53c-0.37,0.23-0.66,0.5-0.86,0.81
		c-0.2,0.31-0.31,0.66-0.31,1.04c0,0.6,0.27,1.09,0.82,1.47c0.55,0.38,1.4,0.69,2.57,0.94l4.7,0.99c1.21,0.26,2.26,0.59,3.14,0.97
		c0.89,0.38,1.62,0.84,2.19,1.38c0.57,0.54,1,1.16,1.28,1.87c0.28,0.7,0.42,1.51,0.42,2.41c0,1.21-0.27,2.31-0.81,3.29
		c-0.54,0.98-1.29,1.82-2.26,2.51c-0.97,0.69-2.13,1.23-3.49,1.61c-1.36,0.38-2.85,0.57-4.48,0.57c-1.65,0-3.13-0.16-4.45-0.48
		c-1.32-0.32-2.45-0.79-3.38-1.4c-0.94-0.61-1.68-1.37-2.24-2.27c-0.55-0.9-0.88-1.93-0.99-3.11h6.45c0.26,0.83,0.78,1.47,1.57,1.92
		c0.79,0.45,1.85,0.67,3.18,0.67c0.64,0,1.22-0.06,1.76-0.19c0.54-0.12,0.99-0.3,1.37-0.53c0.38-0.23,0.67-0.5,0.89-0.81
		c0.21-0.31,0.32-0.67,0.32-1.06c0-0.6-0.25-1.09-0.75-1.46c-0.5-0.37-1.3-0.68-2.41-0.91l-4.54-0.99
		c-2.44-0.51-4.25-1.34-5.44-2.48C77.31,29.95,76.71,28.44,76.71,26.57z"/>
	<path d="M124.42,43.67h-6.4v-3.88h-0.41c-0.59,1.42-1.48,2.51-2.67,3.27c-1.19,0.76-2.74,1.14-4.64,1.14c-1.35,0-2.56-0.2-3.64-0.6
		s-2-0.99-2.76-1.76c-0.76-0.77-1.34-1.71-1.75-2.82c-0.41-1.11-0.61-2.37-0.61-3.77V19.46h6.61v14.13c0,3.37,1.54,5.05,4.61,5.05
		c1.65,0,2.91-0.46,3.77-1.39c0.86-0.93,1.29-2.21,1.29-3.83V19.46h6.61V43.67z"/>
	<path d="M129.19,19.46h6.4v3.95h0.41c0.26-0.69,0.61-1.31,1.06-1.87c0.45-0.56,0.97-1.03,1.56-1.42s1.25-0.68,1.99-0.89
		c0.73-0.2,1.51-0.31,2.33-0.31c1.77,0,3.24,0.39,4.42,1.17c1.17,0.78,2.01,1.88,2.51,3.3h0.41c0.29-0.67,0.68-1.28,1.17-1.83
		c0.49-0.55,1.06-1.02,1.71-1.42c0.65-0.4,1.37-0.7,2.16-0.91c0.79-0.21,1.62-0.32,2.5-0.32c1.24,0,2.36,0.19,3.37,0.57
		c1.01,0.38,1.86,0.92,2.55,1.62c0.7,0.7,1.23,1.55,1.61,2.56c0.38,1,0.57,2.12,0.57,3.37v16.61h-6.61V28.74
		c0-2.87-1.39-4.3-4.18-4.3c-0.67,0-1.27,0.11-1.82,0.33c-0.55,0.22-1.01,0.52-1.4,0.91c-0.39,0.39-0.68,0.85-0.89,1.39
		c-0.2,0.54-0.31,1.13-0.31,1.78v14.81h-6.36V28.48c0-1.29-0.36-2.28-1.09-2.98c-0.73-0.7-1.74-1.05-3.04-1.05
		c-0.65,0-1.25,0.12-1.78,0.35c-0.54,0.23-1,0.56-1.4,0.97c-0.39,0.41-0.7,0.9-0.92,1.47c-0.22,0.57-0.33,1.19-0.33,1.87v14.57
		h-6.61V19.46z"/>
	<path d="M192.8,36.78c-0.26,1.14-0.71,2.17-1.35,3.08c-0.64,0.91-1.46,1.69-2.44,2.34c-0.98,0.64-2.12,1.14-3.42,1.48
		c-1.29,0.34-2.71,0.52-4.24,0.52c-1.91,0-3.61-0.28-5.11-0.84c-1.5-0.56-2.77-1.38-3.81-2.46c-1.04-1.08-1.84-2.39-2.38-3.94
		c-0.54-1.55-0.82-3.31-0.82-5.27c0-1.98,0.28-3.75,0.83-5.32c0.55-1.57,1.35-2.91,2.4-4c1.04-1.1,2.31-1.94,3.79-2.53
		c1.48-0.59,3.16-0.89,5.02-0.89c1.85,0,3.5,0.28,4.95,0.83c1.45,0.56,2.68,1.36,3.69,2.4c1.01,1.05,1.77,2.33,2.3,3.84
		c0.53,1.51,0.79,3.23,0.79,5.15v1.95h-17.19v0.33c0.01,0.91,0.16,1.72,0.44,2.44c0.28,0.72,0.67,1.33,1.16,1.83
		c0.49,0.5,1.09,0.89,1.78,1.16c0.7,0.27,1.48,0.41,2.34,0.41c1.32,0,2.41-0.22,3.28-0.65c0.87-0.43,1.48-1.05,1.83-1.85H192.8z
		 M181.28,23.83c-0.77,0-1.48,0.12-2.11,0.37c-0.64,0.25-1.19,0.6-1.67,1.05c-0.48,0.45-0.86,1-1.15,1.63
		c-0.29,0.64-0.46,1.35-0.52,2.14h10.67c-0.08-1.61-0.58-2.88-1.5-3.81C184.08,24.29,182.84,23.83,181.28,23.83z"/>
</g>
</svg>
