<?xml version="1.0" encoding="utf-8"?>
<!-- Generator: Adobe Illustrator 28.1.0, SVG Export Plug-In . SVG Version: 6.00 Build 0)  -->
<svg version="1.1" id="Layer_1" xmlns="http://www.w3.org/2000/svg" xmlns:xlink="http://www.w3.org/1999/xlink" x="0px" y="0px"
	 viewBox="0 0 188 55" style="enable-background:new 0 0 188 55;" xml:space="preserve">
<style type="text/css">
	.st0{fill:#FFFFFF;}
</style>
<g>
	<path d="M59.93,19.78c0.92,0,1.75,0.14,2.47,0.43s1.3,0.67,1.73,1.15c0.43,0.48,0.75,1.02,0.97,1.62s0.33,1.25,0.33,1.95
		c0,1.3-0.31,2.36-0.94,3.15s-1.39,1.36-2.31,1.7l3.56,7.42H63.4l-3.23-7h-4.39v7h-2.05V19.78H59.93z M55.78,28.37h3.81
		c1.23,0,2.17-0.29,2.8-0.86s0.95-1.38,0.95-2.44c0-1.12-0.32-1.98-0.97-2.58s-1.54-0.89-2.68-0.89h-3.9L55.78,28.37L55.78,28.37z"
		/>
	<path d="M66.6,19.63c0-0.44,0.15-0.8,0.44-1.08s0.65-0.43,1.07-0.43c0.44,0,0.8,0.14,1.08,0.43s0.43,0.65,0.43,1.08
		c0,0.3-0.06,0.56-0.19,0.79s-0.31,0.4-0.54,0.52s-0.49,0.18-0.77,0.18c-0.42,0-0.78-0.14-1.07-0.42S66.6,20.06,66.6,19.63z
		 M67.11,37.2V23.8h2v13.4H67.11z"/>
	<path d="M70.61,31.66v-2.34c0-1.74,0.49-3.13,1.47-4.17s2.32-1.56,4.01-1.56c1.55,0,2.76,0.4,3.64,1.2s1.34,1.71,1.38,2.73h-2
		c-0.05-0.23-0.12-0.45-0.23-0.66s-0.26-0.44-0.47-0.69s-0.52-0.44-0.91-0.58s-0.86-0.22-1.38-0.22c-1.14,0-2.01,0.36-2.61,1.08
		s-0.9,1.7-0.9,2.94v2.3c0,0.78,0.14,1.46,0.42,2.04s0.68,1.03,1.22,1.34s1.16,0.46,1.88,0.46c1.74,0,2.77-0.62,3.09-1.88h2
		c-0.05,1.01-0.51,1.89-1.38,2.64s-2.12,1.12-3.74,1.12c-1.7,0-3.03-0.52-4.01-1.56S70.61,33.41,70.61,31.66z"/>
	<path d="M84.63,32.19v5h-2V18.86h2v11.1h0.07l5.66-6.15h2.37l-5.37,5.84l5.71,7.56h-2.41l-4.73-6.29L84.63,32.19z"/>
	<path d="M102.33,20.27c1.26,0,2.38,0.19,3.36,0.56s1.81,0.91,2.49,1.63s1.19,1.59,1.55,2.62s0.53,2.21,0.53,3.53
		c0,1.38-0.18,2.6-0.53,3.66s-0.87,1.96-1.54,2.69s-1.51,1.28-2.49,1.66s-2.11,0.57-3.38,0.57h-6.66V20.27H102.33z M99.22,34.17
		h2.55c1.57,0,2.78-0.47,3.62-1.4s1.27-2.3,1.27-4.1c0-0.85-0.11-1.61-0.33-2.28s-0.54-1.23-0.96-1.69s-0.93-0.81-1.54-1.05
		s-1.29-0.36-2.06-0.36h-2.55V34.17z"/>
	<path d="M123.36,33.52c-0.13,0.61-0.37,1.16-0.7,1.65s-0.75,0.9-1.26,1.25s-1.1,0.61-1.76,0.79s-1.4,0.28-2.19,0.28
		c-0.98,0-1.86-0.15-2.64-0.45s-1.43-0.74-1.97-1.31s-0.95-1.28-1.23-2.1s-0.42-1.77-0.42-2.81c0-1.05,0.14-2,0.43-2.84
		s0.7-1.55,1.24-2.14s1.19-1.04,1.96-1.35s1.63-0.47,2.59-0.47c0.95,0,1.8,0.15,2.55,0.45s1.38,0.72,1.9,1.28s0.92,1.24,1.19,2.05
		s0.41,1.72,0.41,2.75v1.04h-8.87v0.18c0.01,0.48,0.08,0.92,0.23,1.3s0.34,0.71,0.6,0.98s0.56,0.48,0.92,0.62s0.76,0.22,1.21,0.22
		c0.68,0,1.24-0.12,1.69-0.35s0.76-0.56,0.94-0.99h3.18V33.52z M117.42,26.6c-0.4,0-0.76,0.07-1.09,0.2s-0.62,0.32-0.86,0.56
		s-0.44,0.53-0.59,0.87s-0.24,0.72-0.27,1.14h5.51c-0.04-0.86-0.3-1.54-0.77-2.03S118.22,26.6,117.42,26.6z"/>
	<path d="M128.83,37.39c-0.62,0-1.2-0.09-1.71-0.28s-0.96-0.45-1.34-0.79s-0.67-0.75-0.87-1.22s-0.31-1.01-0.31-1.61
		c0-1.18,0.43-2.1,1.29-2.76s2.1-1.04,3.71-1.13l3.13-0.19v-1.05c0-0.54-0.19-0.96-0.56-1.25s-0.91-0.44-1.62-0.44
		c-0.62,0-1.12,0.1-1.52,0.3s-0.67,0.5-0.81,0.89h-3.14c0.05-0.59,0.23-1.13,0.52-1.61s0.69-0.89,1.18-1.23s1.07-0.6,1.74-0.78
		c0.67-0.18,1.41-0.27,2.22-0.27c0.85,0,1.61,0.1,2.28,0.3s1.23,0.49,1.68,0.86s0.8,0.83,1.04,1.38s0.36,1.16,0.36,1.85v8.82h-3.3
		v-1.69h-0.21c-0.34,0.59-0.83,1.06-1.49,1.39S129.67,37.39,128.83,37.39z M129.96,34.83c0.4,0,0.77-0.06,1.1-0.18
		s0.63-0.28,0.88-0.49s0.45-0.46,0.59-0.74s0.21-0.59,0.21-0.91v-0.95l-2.61,0.16c-1.45,0.1-2.18,0.62-2.18,1.56
		c0,0.48,0.19,0.86,0.56,1.14S129.36,34.83,129.96,34.83z"/>
	<path d="M145.11,24.27h3.88l-4.92,5.54l5.26,7.38h-4.04l-3.77-5.25l-0.94,0.96v4.29h-3.41V19.34h3.41v9.98h0.21L145.11,24.27z"/>
	<path d="M151.3,22.46c-0.3,0-0.58-0.04-0.83-0.13s-0.46-0.21-0.64-0.36c-0.18-0.15-0.31-0.33-0.4-0.54s-0.14-0.44-0.14-0.69
		c0-0.26,0.05-0.49,0.14-0.7s0.23-0.39,0.4-0.54c0.18-0.15,0.39-0.27,0.64-0.35s0.53-0.12,0.83-0.12s0.58,0.04,0.83,0.12
		s0.46,0.2,0.63,0.35s0.31,0.33,0.41,0.54s0.15,0.45,0.15,0.7s-0.05,0.48-0.15,0.69s-0.23,0.39-0.41,0.54s-0.39,0.27-0.63,0.36
		S151.61,22.46,151.3,22.46z M149.59,24.27H153V37.2h-3.41V24.27z"/>
	<path d="M155,24.27h3.3v2.07h0.21c0.3-0.73,0.77-1.31,1.41-1.73s1.45-0.63,2.41-0.63c1.44,0,2.53,0.42,3.29,1.27
		s1.13,2.04,1.13,3.59v8.36h-3.41v-7.55c0-0.9-0.19-1.58-0.58-2.03s-0.99-0.69-1.8-0.69c-0.4,0-0.75,0.07-1.07,0.2
		s-0.58,0.32-0.8,0.57s-0.39,0.54-0.51,0.89s-0.18,0.73-0.18,1.15v7.45H155V24.27z"/>
	<path d="M167.85,28.07c0-0.61,0.13-1.17,0.39-1.67s0.62-0.93,1.1-1.29s1.04-0.63,1.7-0.83s1.39-0.29,2.2-0.29
		c1.65,0,2.94,0.33,3.87,0.99s1.44,1.61,1.54,2.85h-3.15c-0.09-0.42-0.32-0.75-0.7-0.99s-0.89-0.36-1.52-0.36
		c-0.3,0-0.59,0.03-0.84,0.1s-0.48,0.16-0.67,0.28s-0.34,0.27-0.45,0.43s-0.16,0.35-0.16,0.56c0,0.32,0.14,0.58,0.42,0.79
		s0.72,0.37,1.32,0.5l2.43,0.53c0.62,0.14,1.17,0.31,1.62,0.52s0.83,0.45,1.13,0.74s0.52,0.62,0.66,1s0.22,0.8,0.22,1.29
		c0,0.65-0.14,1.23-0.42,1.76s-0.67,0.97-1.17,1.34s-1.1,0.66-1.8,0.86s-1.47,0.3-2.31,0.3c-0.85,0-1.62-0.09-2.3-0.26
		s-1.26-0.42-1.75-0.75s-0.87-0.73-1.15-1.21s-0.46-1.03-0.51-1.66h3.33c0.13,0.45,0.4,0.79,0.81,1.03s0.95,0.36,1.64,0.36
		c0.33,0,0.63-0.03,0.91-0.1s0.51-0.16,0.71-0.28s0.35-0.27,0.46-0.43s0.16-0.36,0.16-0.57c0-0.32-0.13-0.58-0.39-0.78
		s-0.67-0.36-1.24-0.49l-2.34-0.53c-1.26-0.27-2.19-0.71-2.81-1.32S167.85,29.07,167.85,28.07z"/>
</g>
<g>
	<g>
		<path class="st0" d="M44.58,30.84c-0.14,0.02-0.23,0.04-0.31,0.04c-1.47,0-2.93,0-4.4-0.02c-0.12,0-0.3-0.11-0.36-0.22
			c-0.55-1.01-1.09-2.03-1.63-3.05c-0.7-1.33-1.39-2.66-2.09-3.99c-0.06-0.11-0.24-0.2-0.37-0.2c-1.01,0-2.02,0.02-3.03,0.03
			c-0.22,0-0.32,0.07-0.32,0.31c0.02,1.2,0.02,2.41,0.03,3.61c0.01,1.1,0.02,2.2,0.03,3.29c0,0.19-0.07,0.26-0.26,0.26
			c-1.26,0-2.53,0-3.79,0.01c-0.2,0-0.28-0.05-0.28-0.26c-0.02-1.42-0.05-2.84-0.07-4.25c-0.02-1.78-0.03-3.56-0.06-5.33
			c-0.06-3.14-0.13-6.28-0.19-9.41c-0.01-0.48-0.01-0.95-0.02-1.43c0-0.25-0.09-0.4-0.39-0.36c-0.4,0.05-0.81,0.05-1.22,0.1
			c-0.78,0.11-1.55,0.21-2.32,0.36c-1.46,0.29-2.85,0.79-4.19,1.43c-1.2,0.57-2.34,1.25-3.4,2.05c-1.21,0.91-2.32,1.93-3.27,3.13
			c-0.51,0.64-1.01,1.3-1.47,1.98c-0.35,0.52-0.64,1.08-0.93,1.64c-0.21,0.39-0.39,0.79-0.57,1.2c-0.22,0.51-0.44,1.01-0.61,1.53
			c-0.17,0.52-0.3,1.06-0.4,1.6c-0.18,1.03-0.41,2.06-0.47,3.09c-0.11,1.89,0.05,3.78,0.51,5.63c0.32,1.29,0.72,2.55,1.32,3.74
			c0.46,0.91,0.95,1.83,1.54,2.66c0.69,0.98,1.44,1.93,2.27,2.79c0.88,0.92,1.85,1.78,2.94,2.46c0.78,0.49,1.55,0.99,2.37,1.41
			c1.33,0.69,2.73,1.26,4.21,1.57c0.85,0.18,1.7,0.39,2.57,0.49c1.36,0.16,2.73,0.2,4.1,0.08c1.56-0.13,3.1-0.39,4.58-0.92
			c1.1-0.39,2.2-0.83,3.23-1.37c1.04-0.55,2.03-1.22,2.97-1.92c1.12-0.83,2.12-1.79,2.97-2.9c0.48-0.63,1-1.24,1.42-1.91
			c0.84-1.33,1.54-2.73,2.02-4.23c0.51-1.58,0.85-3.19,0.93-4.86c0.07-1.53,0.04-3.07-0.24-4.58c-0.19-0.99-0.45-1.98-0.78-2.94
			c-0.63-1.81-1.52-3.5-2.66-5.05c-0.09-0.12-0.2-0.22-0.33-0.36c-0.07,0.25-0.12,0.45-0.17,0.64c-0.28,1.15-0.86,2.13-1.69,2.97
			c-0.52,0.52-1.12,0.92-1.8,1.21c-0.18,0.08-0.25,0.17-0.13,0.38c0.35,0.6,0.68,1.22,1,1.83c0.87,1.63,1.74,3.26,2.61,4.9
			C44.17,30.06,44.36,30.42,44.58,30.84z M32.04,16.77C32.05,16.77,32.05,16.77,32.04,16.77c0.01,0.5,0.01,0.99,0.01,1.49
			c0,0.5,0.02,1.01,0.01,1.51c-0.01,0.25,0.09,0.32,0.32,0.31c0.88-0.01,1.77,0,2.65-0.02c0.69-0.02,1.39,0.01,2.06-0.13
			c1.33-0.28,2.28-1.16,2.46-2.63c0.15-1.2-0.07-2.27-1.04-3.11c-0.63-0.54-1.38-0.75-2.17-0.78c-1.32-0.04-2.64,0-3.96,0
			c-0.25,0-0.34,0.1-0.34,0.35C32.05,14.77,32.04,15.77,32.04,16.77z"/>
		<path d="M44.58,30.84c-0.22-0.42-0.4-0.78-0.59-1.13c-0.87-1.63-1.74-3.27-2.61-4.9c-0.33-0.61-0.66-1.23-1-1.83
			c-0.12-0.21-0.05-0.3,0.13-0.38c0.68-0.29,1.28-0.69,1.8-1.21c0.83-0.83,1.4-1.82,1.69-2.97c0.05-0.2,0.1-0.39,0.17-0.64
			c0.13,0.14,0.24,0.24,0.33,0.36c1.13,1.55,2.02,3.24,2.66,5.05c0.33,0.95,0.59,1.94,0.78,2.94c0.28,1.51,0.31,3.04,0.24,4.58
			c-0.08,1.66-0.42,3.27-0.93,4.86c-0.48,1.51-1.19,2.9-2.02,4.23c-0.42,0.67-0.93,1.28-1.42,1.91c-0.85,1.11-1.85,2.07-2.97,2.9
			c-0.95,0.7-1.93,1.37-2.97,1.92c-1.03,0.55-2.13,0.98-3.23,1.37c-1.48,0.52-3.01,0.78-4.58,0.92c-1.37,0.12-2.74,0.08-4.1-0.08
			c-0.86-0.1-1.72-0.3-2.57-0.49c-1.48-0.32-2.87-0.88-4.21-1.57c-0.81-0.42-1.59-0.92-2.37-1.41c-1.09-0.68-2.05-1.54-2.94-2.46
			c-0.83-0.86-1.58-1.81-2.27-2.79c-0.59-0.83-1.08-1.75-1.54-2.66c-0.6-1.19-0.99-2.45-1.32-3.74c-0.46-1.85-0.62-3.74-0.51-5.63
			c0.06-1.04,0.29-2.07,0.47-3.09c0.1-0.54,0.23-1.08,0.4-1.6c0.17-0.52,0.39-1.03,0.61-1.53c0.18-0.41,0.36-0.81,0.57-1.2
			c0.29-0.55,0.58-1.12,0.93-1.64c0.46-0.68,0.96-1.33,1.47-1.98c0.94-1.19,2.05-2.22,3.27-3.13c1.06-0.8,2.2-1.47,3.4-2.05
			c1.34-0.64,2.73-1.14,4.19-1.43c0.77-0.15,1.55-0.26,2.32-0.36c0.4-0.05,0.81-0.05,1.22-0.1c0.3-0.04,0.38,0.11,0.39,0.36
			c0.01,0.48,0.01,0.95,0.02,1.43c0.06,3.14,0.14,6.28,0.19,9.41c0.03,1.78,0.03,3.56,0.06,5.33c0.02,1.42,0.05,2.84,0.07,4.25
			c0,0.21,0.08,0.26,0.28,0.26c1.26-0.01,2.53-0.01,3.79-0.01c0.19,0,0.26-0.07,0.26-0.26c-0.01-1.1-0.02-2.2-0.03-3.29
			c-0.01-1.2-0.02-2.41-0.03-3.61c0-0.23,0.1-0.3,0.32-0.31c1.01-0.01,2.02-0.04,3.03-0.03c0.13,0,0.31,0.1,0.37,0.2
			c0.71,1.32,1.4,2.66,2.09,3.99c0.54,1.02,1.07,2.04,1.63,3.05c0.06,0.11,0.23,0.22,0.36,0.22c1.47,0.02,2.93,0.02,4.4,0.02
			C44.35,30.88,44.43,30.86,44.58,30.84z"/>
		<path d="M32.04,16.77c0-1,0.01-2,0-3c0-0.25,0.09-0.35,0.34-0.35c1.32,0,2.64-0.04,3.96,0c0.79,0.02,1.54,0.24,2.17,0.78
			c0.97,0.83,1.19,1.91,1.04,3.11c-0.18,1.47-1.13,2.35-2.46,2.63c-0.67,0.14-1.37,0.11-2.06,0.13c-0.88,0.02-1.77,0.01-2.65,0.02
			c-0.23,0-0.33-0.07-0.32-0.31c0.01-0.5,0-1.01-0.01-1.51C32.05,17.76,32.05,17.27,32.04,16.77
			C32.05,16.77,32.05,16.77,32.04,16.77z"/>
	</g>
</g>
</svg>
