<?xml version="1.0" encoding="utf-8"?>
<!-- Generator: Adobe Illustrator 28.3.0, SVG Export Plug-In . SVG Version: 6.00 Build 0)  -->
<svg version="1.1" xmlns="http://www.w3.org/2000/svg" xmlns:xlink="http://www.w3.org/1999/xlink" x="0px" y="0px"
	 viewBox="0 0 612 792" style="enable-background:new 0 0 612 792;" xml:space="preserve">
<style type="text/css">
	.st0{opacity:0.5;fill:#E2F7F3;}
	.st1{opacity:0.54;fill:#EDF9F9;}
	.st2{opacity:0.5;fill:#D3F2EC;}
	.st3{fill:#414242;}
	.st4{fill-rule:evenodd;clip-rule:evenodd;fill:none;}
	.st5{font-family:'Galvji';}
	.st6{font-size:8px;}
	.st7{font-size:9px;}
	.st8{font-size:18px;}
	.st9{letter-spacing:-1;}
	.st10{font-size:14px;}
	.st11{fill:none;}
	.st12{font-size:8.75px;}
	.st13{font-size:12px;}
	.st14{font-family:'Galvji-Bold';}
	.st15{font-family:'Galvji-Oblique';}
	.st16{font-family:'Galvji-BoldOblique';}
	.st17{font-size:13px;}
</style>
<g id="Layer_3">
	<rect x="431" y="73" class="st0" width="180" height="718"/>
</g>
<g id="Layer_2">
	<rect x="0" class="st1" width="612" height="74"/>
	<rect x="436" y="84" class="st2" width="175" height="151"/>
	<rect x="436" y="242" class="st2" width="176" height="187"/>
	<rect x="436" y="437" class="st2" width="175" height="142"/>
	<rect x="436" y="587" class="st2" width="175" height="175"/>
</g>
<g id="Layer_1">
	<g>
		<path class="st3" d="M48.1,23.3c1.3,0,2.5,0.2,3.5,0.6c1,0.4,1.9,1,2.5,1.6c0.6,0.7,1.1,1.5,1.4,2.3c0.3,0.9,0.5,1.8,0.5,2.8
			c0,1.9-0.4,3.4-1.3,4.5c-0.9,1.1-2,1.9-3.3,2.4l5.1,10.6h-3.3l-4.6-10h-6.3v10h-2.9V23.3H48.1z M42.2,35.5h5.4
			c1.8,0,3.1-0.4,4-1.2c0.9-0.8,1.4-2,1.4-3.5c0-1.6-0.5-2.8-1.4-3.7c-0.9-0.9-2.2-1.3-3.8-1.3h-5.6L42.2,35.5L42.2,35.5z"/>
		<path class="st3" d="M57.6,23.1c0-0.6,0.2-1.1,0.6-1.5c0.4-0.4,0.9-0.6,1.5-0.6c0.6,0,1.1,0.2,1.5,0.6c0.4,0.4,0.6,0.9,0.6,1.5
			c0,0.4-0.1,0.8-0.3,1.1c-0.2,0.3-0.4,0.6-0.8,0.7c-0.3,0.2-0.7,0.3-1.1,0.3c-0.6,0-1.1-0.2-1.5-0.6C57.9,24.2,57.6,23.7,57.6,23.1
			z M58.4,48.1V29h2.9v19.1H58.4z"/>
		<path class="st3" d="M63.4,40.2v-3.3c0-2.5,0.7-4.5,2.1-6c1.4-1.5,3.3-2.2,5.7-2.2c2.2,0,3.9,0.6,5.2,1.7s1.9,2.4,2,3.9h-2.9
			c-0.1-0.3-0.2-0.6-0.3-0.9s-0.4-0.6-0.7-1c-0.3-0.4-0.7-0.6-1.3-0.8c-0.6-0.2-1.2-0.3-2-0.3c-1.6,0-2.9,0.5-3.7,1.5
			s-1.3,2.4-1.3,4.2v3.3c0,1.1,0.2,2.1,0.6,2.9c0.4,0.8,1,1.5,1.7,1.9s1.7,0.7,2.7,0.7c2.5,0,4-0.9,4.4-2.7h2.9
			c-0.1,1.4-0.7,2.7-2,3.8s-3,1.6-5.3,1.6c-2.4,0-4.3-0.7-5.7-2.2S63.4,42.7,63.4,40.2z"/>
		<path class="st3" d="M83.4,41v7.1h-2.9V22h2.9v15.8h0.1l8.1-8.8h3.4l-7.7,8.3l8.1,10.8H92l-6.8-9L83.4,41z"/>
		<path class="st3" d="M108.6,24c1.8,0,3.4,0.3,4.8,0.8s2.6,1.3,3.6,2.3c1,1,1.7,2.3,2.2,3.7c0.5,1.5,0.8,3.2,0.8,5
			c0,2-0.3,3.7-0.8,5.2S118,43.9,117,45c-1,1-2.2,1.8-3.6,2.4s-3,0.8-4.8,0.8h-9.5V24H108.6z M104.2,43.8h3.6c2.2,0,4-0.7,5.2-2
			c1.2-1.3,1.8-3.3,1.8-5.9c0-1.2-0.2-2.3-0.5-3.3c-0.3-1-0.8-1.8-1.4-2.4c-0.6-0.7-1.3-1.2-2.2-1.5s-1.8-0.5-2.9-0.5h-3.6V43.8z"/>
		<path class="st3" d="M138.6,42.9c-0.2,0.9-0.5,1.7-1,2.4c-0.5,0.7-1.1,1.3-1.8,1.8c-0.7,0.5-1.6,0.9-2.5,1.1s-2,0.4-3.1,0.4
			c-1.4,0-2.7-0.2-3.8-0.6s-2-1.1-2.8-1.9s-1.4-1.8-1.8-3c-0.4-1.2-0.6-2.5-0.6-4c0-1.5,0.2-2.9,0.6-4.1s1-2.2,1.8-3.1
			s1.7-1.5,2.8-1.9c1.1-0.4,2.3-0.7,3.7-0.7c1.4,0,2.6,0.2,3.6,0.6c1.1,0.4,2,1,2.7,1.8c0.7,0.8,1.3,1.8,1.7,2.9
			c0.4,1.2,0.6,2.5,0.6,3.9v1.5h-12.7v0.3c0,0.7,0.1,1.3,0.3,1.9c0.2,0.5,0.5,1,0.9,1.4s0.8,0.7,1.3,0.9s1.1,0.3,1.7,0.3
			c1,0,1.8-0.2,2.4-0.5s1.1-0.8,1.3-1.4L138.6,42.9L138.6,42.9z M130.2,33c-0.6,0-1.1,0.1-1.6,0.3c-0.5,0.2-0.9,0.5-1.2,0.8
			c-0.3,0.3-0.6,0.8-0.8,1.2s-0.3,1-0.4,1.6h7.9c-0.1-1.2-0.4-2.2-1.1-2.9C132.3,33.4,131.3,33,130.2,33z"/>
		<path class="st3" d="M146.5,48.4c-0.9,0-1.7-0.1-2.4-0.4c-0.7-0.3-1.4-0.6-1.9-1.1c-0.5-0.5-1-1.1-1.2-1.7
			c-0.3-0.7-0.4-1.4-0.4-2.3c0-1.7,0.6-3,1.8-3.9s3-1.5,5.3-1.6L152,37v-1.5c0-0.8-0.3-1.4-0.8-1.8c-0.5-0.4-1.3-0.6-2.3-0.6
			c-0.9,0-1.6,0.1-2.2,0.4s-1,0.7-1.2,1.3h-4.5c0.1-0.8,0.3-1.6,0.7-2.3c0.4-0.7,1-1.3,1.7-1.8c0.7-0.5,1.5-0.9,2.5-1.1
			s2-0.4,3.2-0.4c1.2,0,2.3,0.1,3.3,0.4s1.8,0.7,2.4,1.2c0.6,0.5,1.1,1.2,1.5,2c0.3,0.8,0.5,1.7,0.5,2.6v12.6h-4.7v-2.4h-0.3
			c-0.5,0.8-1.2,1.5-2.1,2C148.8,48.2,147.7,48.4,146.5,48.4z M148.1,44.8c0.6,0,1.1-0.1,1.6-0.3s0.9-0.4,1.3-0.7
			c0.4-0.3,0.6-0.7,0.8-1.1s0.3-0.8,0.3-1.3v-1.4l-3.7,0.2c-2.1,0.1-3.1,0.9-3.1,2.2c0,0.7,0.3,1.2,0.8,1.6
			C146.5,44.6,147.2,44.8,148.1,44.8z"/>
		<path class="st3" d="M169.7,29.7h5.5l-7,7.9l7.5,10.5h-5.8l-5.4-7.5l-1.3,1.4v6.1h-4.9V22.7h4.9v14.2h0.3L169.7,29.7z"/>
		<path class="st3" d="M178.5,27.1c-0.4,0-0.8-0.1-1.2-0.2c-0.4-0.1-0.7-0.3-0.9-0.5c-0.3-0.2-0.4-0.5-0.6-0.8
			c-0.1-0.3-0.2-0.6-0.2-1c0-0.4,0.1-0.7,0.2-1c0.1-0.3,0.3-0.6,0.6-0.8c0.3-0.2,0.6-0.4,0.9-0.5c0.4-0.1,0.8-0.2,1.2-0.2
			c0.4,0,0.8,0.1,1.2,0.2c0.4,0.1,0.7,0.3,0.9,0.5s0.4,0.5,0.6,0.8c0.1,0.3,0.2,0.6,0.2,1c0,0.4-0.1,0.7-0.2,1
			c-0.1,0.3-0.3,0.6-0.6,0.8c-0.3,0.2-0.6,0.4-0.9,0.5S179,27.1,178.5,27.1z M176.1,29.7h4.9v18.5h-4.9V29.7z"/>
		<path class="st3" d="M183.8,29.7h4.7v3h0.3c0.4-1,1.1-1.9,2-2.5c0.9-0.6,2.1-0.9,3.4-0.9c2.1,0,3.6,0.6,4.7,1.8
			c1.1,1.2,1.6,2.9,1.6,5.1v11.9h-4.9V37.4c0-1.3-0.3-2.3-0.8-2.9c-0.6-0.6-1.4-1-2.6-1c-0.6,0-1.1,0.1-1.5,0.3
			c-0.5,0.2-0.8,0.5-1.1,0.8c-0.3,0.4-0.6,0.8-0.7,1.3s-0.3,1-0.3,1.6v10.6h-4.9V29.7z"/>
		<path class="st3" d="M202.1,35.1c0-0.9,0.2-1.7,0.6-2.4c0.4-0.7,0.9-1.3,1.6-1.8s1.5-0.9,2.4-1.2c0.9-0.3,2-0.4,3.1-0.4
			c2.4,0,4.2,0.5,5.5,1.4c1.3,0.9,2.1,2.3,2.2,4.1h-4.5c-0.1-0.6-0.5-1.1-1-1.4c-0.5-0.3-1.3-0.5-2.2-0.5c-0.4,0-0.8,0-1.2,0.1
			c-0.4,0.1-0.7,0.2-1,0.4s-0.5,0.4-0.6,0.6c-0.2,0.2-0.2,0.5-0.2,0.8c0,0.5,0.2,0.8,0.6,1.1c0.4,0.3,1,0.5,1.9,0.7l3.5,0.8
			c0.9,0.2,1.7,0.4,2.3,0.7c0.6,0.3,1.2,0.6,1.6,1.1c0.4,0.4,0.7,0.9,0.9,1.4c0.2,0.5,0.3,1.1,0.3,1.8c0,0.9-0.2,1.8-0.6,2.5
			c-0.4,0.8-1,1.4-1.7,1.9c-0.7,0.5-1.6,0.9-2.6,1.2c-1,0.3-2.1,0.4-3.3,0.4c-1.2,0-2.3-0.1-3.3-0.4c-1-0.2-1.8-0.6-2.5-1.1
			c-0.7-0.5-1.2-1-1.6-1.7c-0.4-0.7-0.7-1.5-0.7-2.4h4.8c0.2,0.6,0.6,1.1,1.2,1.5c0.6,0.3,1.4,0.5,2.3,0.5c0.5,0,0.9,0,1.3-0.1
			c0.4-0.1,0.7-0.2,1-0.4c0.3-0.2,0.5-0.4,0.7-0.6c0.2-0.2,0.2-0.5,0.2-0.8c0-0.5-0.2-0.8-0.6-1.1c-0.4-0.3-1-0.5-1.8-0.7l-3.3-0.8
			c-1.8-0.4-3.1-1-4-1.9S202.1,36.5,202.1,35.1z"/>
	</g>
	<rect x="386" y="20" class="st4" width="188" height="58"/>
	<text transform="matrix(1 0 0 1 473.6172 26.8184)"><tspan x="0" y="0" class="st3 st5 st6">rickdeakinsjr@gmail.com</tspan><tspan x="44.6" y="10" class="st3 st5 st6">216-334-4334</tspan><tspan x="5.9" y="20" class="st3 st5 st6">github.com/rickdeakins</tspan><tspan x="9" y="30" class="st3 st5 st6">rickdeakins.netlify.app</tspan><tspan x="-60.6" y="40" class="st3 st5 st6">linkedin.com/in/rick-deakins-14940315</tspan><tspan x="95.8" y="40" class="st3 st5 st6">a</tspan></text>
	<rect x="36.3" y="86.4" class="st4" width="322.7" height="57.6"/>
	<text transform="matrix(1 0 0 1 36.3123 94.0395)"><tspan x="0" y="0" class="st3 st5 st7">Web Developer experienced with Frontend and Fullstack websites and </tspan><tspan x="0" y="11" class="st3 st5 st7">applications. E</tspan><tspan x="65.6" y="11" class="st3 st5 st7">d</tspan><tspan x="71.2" y="11" class="st3 st5 st7">ucation backg</tspan><tspan x="134" y="11" class="st3 st5 st7">ro</tspan><tspan x="142.9" y="11" class="st3 st5 st7">un</tspan><tspan x="154.4" y="11" class="st3 st5 st7">d</tspan><tspan x="159.9" y="11" class="st3 st5 st7"> </tspan><tspan x="161.8" y="11" class="st3 st5 st7">and freelance work experience </tspan><tspan x="0" y="22" class="st3 st5 st7">r</tspan><tspan x="3.8" y="22" class="st3 st5 st7">o</tspan><tspan x="8.7" y="22" class="st3 st5 st7">oted in</tspan><tspan x="37.1" y="22" class="st3 st5 st7"> </tspan><tspan x="38.8" y="22" class="st3 st5 st7">Gra</tspan><tspan x="53.7" y="22" class="st3 st5 st7">ph</tspan><tspan x="64.5" y="22" class="st3 st5 st7">i</tspan><tspan x="67.1" y="22" class="st3 st5 st7">c</tspan><tspan x="71.7" y="22" class="st3 st5 st7"> Desig</tspan><tspan x="98.8" y="22" class="st3 st5 st7">n</tspan><tspan x="103.9" y="22" class="st3 st5 st7"> and</tspan><tspan x="122.9" y="22" class="st3 st5 st7"> </tspan><tspan x="124.7" y="22" class="st3 st5 st7">Creativ</tspan><tspan x="156.6" y="22" class="st3 st5 st7">e</tspan><tspan x="161.5" y="22" class="st3 st5 st7"> </tspan><tspan x="163.8" y="22" class="st3 st5 st7">F</tspan><tspan x="168.7" y="22" class="st3 st5 st7">u</tspan><tspan x="174.1" y="22" class="st3 st5 st7">ndamenta</tspan><tspan x="218" y="22" class="st3 st5 st7">l</tspan><tspan x="220.5" y="22" class="st3 st5 st7">s</tspan><tspan x="225.3" y="22" class="st3 st5 st7">. Recent work </tspan><tspan x="0" y="33" class="st3 st5 st7">experience in Business Operations, Client and Internal Facing Reporting </tspan><tspan x="0" y="44" class="st3 st5 st7">and Data Management solutions</tspan><tspan x="143.6" y="44" class="st3 st5 st7"> w</tspan><tspan x="152.2" y="44" class="st3 st5 st7">ith a fo</tspan><tspan x="182" y="44" class="st3 st5 st7">cus</tspan><tspan x="197.8" y="44" class="st3 st5 st7"> </tspan><tspan x="199.7" y="44" class="st3 st5 st7">o</tspan><tspan x="205" y="44" class="st3 st5 st7">n</tspan><tspan x="210.8" y="44" class="st3 st5 st7"> loss </tspan><tspan x="232.1" y="44" class="st3 st5 st7">mitigation. </tspan></text>
	<text transform="matrix(1 0 0 1 37.4136 67.9844)"><tspan x="0" y="0" class="st3 st5 st8 st9">W</tspan><tspan x="15" y="0" class="st3 st5 st8 st9">e</tspan><tspan x="24.5" y="0" class="st3 st5 st8 st9">b</tspan><tspan x="34.2" y="0" class="st3 st5 st8"> </tspan><tspan x="37.9" y="0" class="st3 st5 st8 st9">Dev</tspan><tspan x="67.9" y="0" class="st3 st5 st8">elope</tspan><tspan x="113.2" y="0" class="st3 st5 st8">r</tspan></text>
	<g>
		<text transform="matrix(1 0 0 1 441.9941 100.584)" class="st3 st5 st10">Skills</text>
	</g>
	<g>
		<text transform="matrix(1.0174 0 0 1 439.4526 456.4648)" class="st3 st5 st10">Education</text>
	</g>
	<g>
		<rect x="451.5" y="108.3" class="st11" width="139.5" height="124.7"/>
		<text transform="matrix(1 0 0 1 451.4649 115.7599)"><tspan x="0" y="0" class="st3 st5 st12">Frontend Development</tspan><tspan x="0" y="14" class="st3 st5 st12">Fullstack Development</tspan><tspan x="0" y="28" class="st3 st5 st12">Database Management</tspan><tspan x="0" y="42" class="st3 st5 st12">Graphic Design</tspan><tspan x="0" y="56" class="st3 st5 st12">Business Operations</tspan><tspan x="0" y="70" class="st3 st5 st12">Project Management</tspan><tspan x="0" y="84" class="st3 st5 st12">Documentation</tspan><tspan x="-0.7" y="98" class="st3 st5 st12">Lo</tspan><tspan x="8.8" y="98" class="st3 st5 st12">g</tspan><tspan x="14" y="98" class="st3 st5 st12">i</tspan><tspan x="16.3" y="98" class="st3 st5 st12">c</tspan><tspan x="21.2" y="98" class="st3 st5 st12 st9"> </tspan><tspan x="21.9" y="98" class="st3 st5 st12">Based</tspan><tspan x="46.8" y="98" class="st3 st5 st12 st9"> </tspan><tspan x="47.9" y="98" class="st3 st5 st12">Analytica</tspan><tspan x="85.1" y="98" class="st3 st5 st12">l</tspan><tspan x="86.9" y="98" class="st3 st5 st12"> </tspan><tspan x="88.5" y="98" class="st3 st5 st12">Thinki</tspan><tspan x="113" y="98" class="st3 st5 st12">n</tspan><tspan x="118.4" y="98" class="st3 st5 st12">g</tspan></text>
	</g>
	<ellipse class="st3" cx="445.1" cy="110" rx="1.8" ry="2"/>
	<ellipse class="st3" cx="444.9" cy="124.5" rx="1.8" ry="2"/>
	<ellipse class="st3" cx="445" cy="138.2" rx="1.8" ry="2"/>
	<ellipse class="st3" cx="444.8" cy="151.7" rx="1.8" ry="2"/>
	<ellipse class="st3" cx="445" cy="166.7" rx="1.8" ry="2"/>
	<ellipse class="st3" cx="444.8" cy="180.2" rx="1.8" ry="2"/>
	<ellipse class="st3" cx="444.7" cy="194.8" rx="1.8" ry="2"/>
	<ellipse class="st3" cx="444.6" cy="209.3" rx="1.8" ry="2"/>
	<text transform="matrix(1 0 0 1 35.9121 158.7095)" class="st3 st5 st13">Notable Projects</text>
	<rect x="36" y="166.3" class="st11" width="387.8" height="222.7"/>
	<text transform="matrix(1 0 0 1 36 172.999)"><tspan x="0" y="0" class="st3 st14 st7">Company Website - Developer </tspan><tspan x="0" y="13" class="st3 st15 st7">Contract Developer for Whol</tspan><tspan x="121.8" y="13" class="st3 st15 st7">e</tspan><tspan x="126.8" y="13" class="st3 st15 st7"> Practice Feeding Therapy</tspan><tspan x="0" y="26" class="st3 st14 st7">Technologies Used: React.js, Javascript, Bootstrap, CSS, HTML </tspan><tspan x="0" y="39" class="st3 st5 st7">Leading the creation of a client-facing website to replace an existing web presence.    </tspan><tspan x="0" y="52" class="st3 st5 st7">Close collaboration with the proprietor to ensure ensure essential information is </tspan><tspan x="0" y="65" class="st3 st5 st7">shared.</tspan><tspan x="33.7" y="65" class="st3 st5 st7"> </tspan><tspan x="35.2" y="65" class="st3 st5 st7"> Designed a clean intuitive User Interface utilizing a mobile-first approach to </tspan><tspan x="0" y="78" class="st3 st5 st7">ensure performace optimization across various devices  to ensure accessibility for all </tspan><tspan x="0" y="91" class="st3 st5 st7">visitors. Deployment of new website estimated for May 2024.</tspan><tspan x="0" y="104" class="st3 st14 st7">Repository: https://github.com/rickdeakins/wp-external </tspan><tspan x="0" y="130" class="st3 st14 st7">Flourish - Frontend Developer/Scrum Master</tspan><tspan x="0" y="143" class="st3 st15 st7">Collaboration with Developer Team</tspan><tspan x="0" y="156" class="st3 st14 st7">Technologies Used: MERN Stack (MongoDB, Express, ReactJS, NodeJS)</tspan><tspan x="-0.4" y="169" class="st3 st5 st7">Spearheaded the application vision with wireframe and visualizing the interface</tspan><tspan x="0" y="182" class="st3 st5 st7">elements utilizing sound design fundamentals. Implemented user interface theme</tspan><tspan x="0" y="195" class="st3 st5 st7">within React framework utilizing Javascript, Vanilla CSS and Bootstrap.</tspan><tspan x="0" y="208" class="st3 st14 st7">Repository: https://github.com/rickdeakins/flourish</tspan></text>
	<text transform="matrix(1 0 0 1 35.4365 404.8007)" class="st3 st5 st13">Work Experience</text>
	<rect x="38.7" y="413.3" class="st11" width="395.3" height="641.7"/>
	<text transform="matrix(1 0 0 1 38.7261 420.0337)"><tspan x="0" y="0" class="st3 st14 st7">Whole Practice Feeding Therapy</tspan><tspan x="0" y="14" class="st3 st15 st7">Fullstack Developer, Contract - Cleveland, OH </tspan><tspan x="198.4" y="14" class="st3 st5 st7">| </tspan><tspan x="204" y="14" class="st3 st15 st7">April 2023-present</tspan><tspan x="0" y="28" class="st3 st5 st7">Contract responsibilities range from development of a new web identity, </tspan><tspan x="0" y="42" class="st3 st5 st7">m</tspan><tspan x="8.2" y="42" class="st3 st5 st7">ain</tspan><tspan x="21.4" y="42" class="st3 st5 st7">t</tspan><tspan x="25" y="42" class="st3 st5 st7">ena</tspan><tspan x="40.9" y="42" class="st3 st5 st7">n</tspan><tspan x="46.6" y="42" class="st3 st5 st7">c</tspan><tspan x="51.6" y="42" class="st3 st5 st7">e</tspan><tspan x="56.4" y="42" class="st3 st5 st7"> o</tspan><tspan x="63.8" y="42" class="st3 st5 st7">f</tspan><tspan x="67.2" y="42" class="st3 st5 st7"> current</tspan><tspan x="101" y="42" class="st3 st5 st7"> we</tspan><tspan x="114.6" y="42" class="st3 st5 st7">b</tspan><tspan x="120.2" y="42" class="st3 st5 st7"> </tspan><tspan x="121.9" y="42" class="st3 st5 st7">presence</tspan><tspan x="161.7" y="42" class="st3 st5 st7">,</tspan><tspan x="163.4" y="42" class="st3 st5 st7"> maintenance of </tspan><tspan x="237.9" y="42" class="st3 st5 st7"> </tspan><tspan x="239.9" y="42" class="st3 st5 st7">internal </tspan><tspan x="277" y="42" class="st3 st5 st7">business</tspan><tspan x="315.6" y="42" class="st3 st5 st7"> </tspan><tspan x="317.3" y="42" class="st3 st5 st7">system</tspan><tspan x="348.6" y="42" class="st3 st5 st7">s and</tspan><tspan x="372.6" y="42" class="st3 st5 st7"> </tspan><tspan x="0" y="56" class="st3 st5 st7">vi</tspan><tspan x="7.3" y="56" class="st3 st5 st7">s</tspan><tspan x="12.2" y="56" class="st3 st5 st7">ual identity </tspan><tspan x="62.6" y="56" class="st3 st5 st7">m</tspan><tspan x="71.1" y="56" class="st3 st5 st7">ainta</tspan><tspan x="93" y="56" class="st3 st5 st7">ining professional presence in the healthcare industry.</tspan><tspan x="0" y="70" class="st3 st16 st7">Technologies Used: Javascript, mySQL, Express, NodeJS, ReactJS, Bootstrap, CSS, </tspan><tspan x="0" y="84" class="st3 st16 st7">Adobe Illustrator (Digital design, Identity, Documentation) </tspan><tspan x="0" y="98" class="st3 st14 st7">Notable Accomplisments</tspan><tspan x="0" y="112" class="st3 st5 st7">    Creation </tspan><tspan x="49.3" y="112" class="st3 st5 st7">o</tspan><tspan x="54.5" y="112" class="st3 st5 st7">f </tspan><tspan x="60.1" y="112" class="st3 st5 st7">n</tspan><tspan x="65.9" y="112" class="st3 st5 st7">ew</tspan><tspan x="78" y="112" class="st3 st5 st7"> </tspan><tspan x="79.7" y="112" class="st3 st5 st7">stre</tspan><tspan x="96.6" y="112" class="st3 st5 st7">amlined</tspan><tspan x="132.5" y="112" class="st3 st5 st7"> website to</tspan><tspan x="178.9" y="112" class="st3 st5 st7"> </tspan><tspan x="180.4" y="112" class="st3 st5 st7">be</tspan><tspan x="191.1" y="112" class="st3 st5 st7"> </tspan><tspan x="192.8" y="112" class="st3 st5 st7">d</tspan><tspan x="198.3" y="112" class="st3 st5 st7">e</tspan><tspan x="203.6" y="112" class="st3 st5 st7">ploye</tspan><tspan x="227" y="112" class="st3 st5 st7">d</tspan><tspan x="232" y="112" class="st3 st5 st7"> in </tspan><tspan x="244.3" y="112" class="st3 st5 st7">M</tspan><tspan x="251.7" y="112" class="st3 st5 st7">a</tspan><tspan x="257" y="112" class="st3 st5 st7">y 2</tspan><tspan x="269.3" y="112" class="st3 st5 st7">024</tspan><tspan x="0" y="126" class="st3 st5 st7">    Development of</tspan><tspan x="79.4" y="126" class="st3 st5 st7"> </tspan><tspan x="81.2" y="126" class="st3 st5 st7">comp</tspan><tspan x="105.4" y="126" class="st3 st5 st7">an</tspan><tspan x="116.5" y="126" class="st3 st5 st7">y</tspan><tspan x="121.4" y="126" class="st3 st5 st7"> </tspan><tspan x="123" y="126" class="st3 st5 st7">databas</tspan><tspan x="157.6" y="126" class="st3 st5 st7">e</tspan><tspan x="162.5" y="126" class="st3 st5 st7"> </tspan><tspan x="163.8" y="126" class="st3 st5 st7">u</tspan><tspan x="169.6" y="126" class="st3 st5 st7">ilizing</tspan><tspan x="195.3" y="126" class="st3 st5 st7"> </tspan><tspan x="196.8" y="126" class="st3 st5 st7">my</tspan><tspan x="210.1" y="126" class="st3 st5 st7">SQ</tspan><tspan x="222.4" y="126" class="st3 st5 st7">L</tspan><tspan x="226.6" y="126" class="st3 st5 st7"> t</tspan><tspan x="232.5" y="126" class="st3 st5 st7">o</tspan><tspan x="237.4" y="126" class="st3 st5 st7"> tra</tspan><tspan x="252.3" y="126" class="st3 st5 st7">c</tspan><tspan x="257.1" y="126" class="st3 st5 st7">k</tspan><tspan x="261.9" y="126" class="st3 st5 st7"> </tspan><tspan x="263.5" y="126" class="st3 st5 st7">all </tspan><tspan x="276.1" y="126" class="st3 st5 st7">busines</tspan><tspan x="310" y="126" class="st3 st5 st7">s</tspan><tspan x="314.9" y="126" class="st3 st5 st7"> </tspan><tspan x="316.9" y="126" class="st3 st5 st7">information</tspan><tspan x="0" y="140" class="st3 st5 st7">    Implementation of a mem</tspan><tspan x="123.4" y="140" class="st3 st5 st7">o</tspan><tspan x="128.7" y="140" class="st3 st5 st7">rable visual identity to be used on all business materials </tspan><tspan x="0" y="168" class="st3 st14 st7">Safeguard Properties Management Inc.</tspan><tspan x="0" y="182" class="st3 st15 st7">Resolution Specialist III - Valley View, OH/Remote</tspan><tspan x="210.4" y="182" class="st3 st5 st7"> | February 2013-present</tspan><tspan x="0" y="196" class="st3 st5 st7">Responsible for business operations support, monthly audits, creation and ongoing</tspan><tspan x="0" y="210" class="st3 st5 st7">maintenance of reporting, analysis of data and management of multiple projects.</tspan><tspan x="0" y="224" class="st3 st5 st7">Ongoin</tspan><tspan x="30.8" y="224" class="st3 st5 st7">g </tspan><tspan x="38.6" y="224" class="st3 st5 st7">deve</tspan><tspan x="59.1" y="224" class="st3 st5 st7">lop</tspan><tspan x="71.8" y="224" class="st3 st5 st7">m</tspan><tspan x="80.2" y="224" class="st3 st5 st7">ent of data solutions, efficient operational improvements and design </tspan><tspan x="0" y="238" class="st3 st5 st7">of applicable automation reporting development with a goal of loss mitigation.</tspan><tspan x="0" y="252" class="st3 st16 st7">Technologies Used: </tspan><tspan x="92.2" y="252" class="st3 st16 st7">Micro</tspan><tspan x="117.2" y="252" class="st3 st16 st7">s</tspan><tspan x="121.9" y="252" class="st3 st16 st7">of</tspan><tspan x="130.9" y="252" class="st3 st16 st7">t</tspan><tspan x="134.3" y="252" class="st3 st16 st7"> </tspan><tspan x="136.4" y="252" class="st3 st16 st7">VBA, Microsoft Access (SQL), IBM Cognos Analytics </tspan><tspan x="0" y="266" class="st3 st16 st7">with Watson</tspan><tspan x="0" y="280" class="st3 st14 st7">Notable Accomplisments</tspan><tspan x="0" y="294" class="st3 st5 st7">    Implementation of data management systems using Microsoft Access relational </tspan><tspan x="0" y="308" class="st3 st5 st7">    databases to store data, allowing a much easier means of querying data locally</tspan><tspan x="0" y="322" class="st3 st5 st7">    Implementing a formulaic-based approach to isolation of key data points from </tspan><tspan x="0" y="336" class="st3 st5 st7">    spreadsheet collections into datasets in order to manage a live data population  </tspan></text>
	<ellipse class="st3" cx="41.7" cy="529.5" rx="1.8" ry="2"/>
	<ellipse class="st3" cx="41.6" cy="543.7" rx="1.8" ry="2"/>
	<ellipse class="st3" cx="41.6" cy="557.7" rx="1.8" ry="2"/>
	<g>
		<text transform="matrix(1 0 0 1 440.7259 263.5798)" class="st3 st5 st10">Technology</text>
	</g>
	<ellipse class="st3" cx="41.2" cy="711" rx="1.8" ry="2"/>
	<ellipse class="st3" cx="40.2" cy="740.1" rx="1.8" ry="2"/>
	<g>
		<rect x="448" y="271" class="st11" width="127" height="182"/>
		<text transform="matrix(1 0 0 1 448.0002 278.4577)"><tspan x="0" y="0" class="st3 st5 st12">Javascript ES6+ </tspan><tspan x="0" y="14" class="st3 st5 st12">CSS3 </tspan><tspan x="0" y="28" class="st3 st5 st12">HTML5 </tspan><tspan x="0" y="42" class="st3 st5 st12">Bootstrap</tspan><tspan x="0" y="56" class="st3 st5 st12">NodeJS</tspan><tspan x="0" y="70" class="st3 st5 st12">Express </tspan><tspan x="0" y="84" class="st3 st5 st12">mySQL </tspan><tspan x="0" y="98" class="st3 st5 st12">MongoDB</tspan><tspan x="0" y="112" class="st3 st5 st12">React </tspan><tspan x="0" y="126" class="st3 st5 st12">MERN Stack</tspan><tspan x="0" y="140" class="st3 st5 st12">D</tspan><tspan x="6.2" y="140" class="st3 st5 st12">igital Design (SVG</tspan><tspan x="79.7" y="140" class="st3 st5 st12"> </tspan><tspan x="81.3" y="140" class="st3 st5 st12">Format</tspan><tspan x="111.2" y="140" class="st3 st5 st12">)</tspan></text>
	</g>
	<g>
		<text transform="matrix(1.0174 0 0 1 440.2314 533.8213)"><tspan x="0" y="0" class="st3 st14 st6">B.S. Majoring in Graphic Design</tspan><tspan x="0" y="14" class="st3 st5 st6">The Art Institute of Pittsburgh</tspan><tspan x="0" y="28" class="st3 st5 st6">Completion April 2008</tspan></text>
	</g>
	<ellipse class="st3" cx="442.5" cy="276.1" rx="1.8" ry="2"/>
	<ellipse class="st3" cx="442.3" cy="290.7" rx="1.8" ry="2"/>
	<ellipse class="st3" cx="442.4" cy="304.4" rx="1.8" ry="2"/>
	<ellipse class="st3" cx="442.2" cy="317.9" rx="1.8" ry="2"/>
	<ellipse class="st3" cx="442.4" cy="332.9" rx="1.8" ry="2"/>
	<ellipse class="st3" cx="442.2" cy="346.4" rx="1.8" ry="2"/>
	<ellipse class="st3" cx="442.1" cy="360" rx="1.8" ry="2"/>
	<ellipse class="st3" cx="442" cy="374.5" rx="1.8" ry="2"/>
	<ellipse class="st3" cx="442.1" cy="388.2" rx="1.8" ry="2"/>
	<ellipse class="st3" cx="441.9" cy="401.8" rx="1.8" ry="2"/>
	<ellipse class="st3" cx="442.1" cy="415.7" rx="1.8" ry="2"/>
	<g>
		<text transform="matrix(1.0174 0 0 1 440.3242 470.8096)"><tspan x="0" y="0" class="st3 st14 st6">Full Stack Web Development</tspan><tspan x="0" y="14" class="st3 st15 st6">Certification</tspan><tspan x="0" y="28" class="st3 st5 st6">The Ohio State University/EdX</tspan><tspan x="0" y="42" class="st3 st5 st6">Completion February 2024</tspan></text>
	</g>
	<g>
		<text transform="matrix(1.0174 0 0 1 439.9205 606.7674)"><tspan x="0" y="0" class="st5 st17">Additional Relevant</tspan><tspan x="0" y="15" class="st5 st17">Work Experience</tspan></text>
	</g>
	<g>
		<text transform="matrix(1.0174 0 0 1 441.9924 636.9476)"><tspan x="0" y="0" class="st3 st14 st6">Freelance Graphic Design</tspan><tspan x="0" y="14" class="st3 st15 st6">Multiple Clients | 2016-2023</tspan><tspan x="0" y="28" class="st3 st5 st6">Designed SVG illustrations and </tspan><tspan x="0" y="42" class="st3 st5 st6">typographic original works for</tspan><tspan x="0" y="56" class="st3 st5 st6">multiple Etsy shops including </tspan><tspan x="0" y="70" class="st3 st5 st6">custom client requests. </tspan><tspan x="0" y="84" class="st3 st16 st6">Notable Clients: </tspan><tspan x="0" y="98" class="st3 st16 st6">Little Dude Thread Shop</tspan><tspan x="0" y="112" class="st3 st16 st6">Mom &amp; Pop Craft Shop</tspan></text>
	</g>
</g>
</svg>
