<?xml version="1.0" encoding="utf-8"?>
<!-- Generator: Adobe Illustrator 28.3.0, SVG Export Plug-In . SVG Version: 6.00 Build 0)  -->
<svg version="1.1" id="Layer_1" xmlns="http://www.w3.org/2000/svg" xmlns:xlink="http://www.w3.org/1999/xlink" x="0px" y="0px"
	 viewBox="0 0 1002 1000.7" style="enable-background:new 0 0 1002 1000.7;" xml:space="preserve">
<style type="text/css">
	.st0{fill:#FFFFFF;}
</style>
<g>
	<g>
		<path class="st0" d="M910.3,539.7c-3.5,0.5-5.7,1-7.7,1c-36.7,0-73.2,0-109.9-0.5c-3,0-7.5-2.7-9-5.5
			c-13.7-25.2-27.2-50.7-40.7-76.2c-17.5-33.2-34.7-66.5-52.2-99.7c-1.5-2.7-6-5-9.2-5c-25.2,0-50.5,0.5-75.7,0.7
			c-5.5,0-8,1.7-8,7.7c0.5,30,0.5,60.2,0.7,90.2c0.2,27.5,0.5,55,0.7,82.2c0,4.7-1.7,6.5-6.5,6.5c-31.5,0-63.2,0-94.7,0.2
			c-5,0-7-1.2-7-6.5c-0.5-35.5-1.2-71-1.7-106.2c-0.5-44.5-0.7-88.9-1.5-133.2c-1.5-78.5-3.2-156.9-4.7-235.1
			c-0.2-12-0.2-23.7-0.5-35.7c0-6.2-2.2-10-9.7-9c-10,1.2-20.2,1.2-30.5,2.5c-19.5,2.7-38.7,5.2-58,9C347.9,34.5,313.1,47,279.7,63
			c-30,14.2-58.5,31.2-84.9,51.2c-30.2,22.7-58,48.2-81.7,78.2c-12.7,16-25.2,32.5-36.7,49.5c-8.7,13-16,27-23.2,41
			c-5.2,9.7-9.7,19.7-14.2,30c-5.5,12.7-11,25.2-15.2,38.2c-4.2,13-7.5,26.5-10,40c-4.5,25.7-10.2,51.5-11.7,77.2
			c-2.7,47.2,1.2,94.4,12.7,140.7c8,32.2,18,63.7,33,93.4C59,725.1,71.3,748.1,86,768.8c17.2,24.5,36,48.2,56.7,69.7
			c22,23,46.2,44.5,73.5,61.5c19.5,12.2,38.7,24.7,59.2,35.2c33.2,17.2,68.2,31.5,105.2,39.2c21.2,4.5,42.5,9.7,64.2,12.2
			c34,4,68.2,5,102.4,2c39-3.2,77.5-9.7,114.4-23c27.5-9.7,55-20.7,80.7-34.2c26-13.7,50.7-30.5,74.2-48c28-20.7,53-44.7,74.2-72.5
			c12-15.7,25-31,35.5-47.7c21-33.2,38.5-68.2,50.5-105.7c12.7-39.5,21.2-79.7,23.2-121.4c1.7-38.2,1-76.7-6-114.4
			c-4.7-24.7-11.2-49.5-19.5-73.5c-15.7-45.2-38-87.4-66.5-126.2c-2.2-3-5-5.5-8.2-9c-1.7,6.2-3,11.2-4.2,16
			c-7,28.7-21.5,53.2-42.2,74.2c-13,13-28,23-45,30.2c-4.5,2-6.2,4.2-3.2,9.5c8.7,15,17,30.5,25,45.7
			c21.7,40.7,43.5,81.5,65.2,122.4C900.3,520.2,904.8,529.2,910.3,539.7z M597.2,188.2L597.2,188.2c0.2,12.5,0.2,24.7,0.2,37.2
			s0.5,25.2,0.2,37.7c-0.2,6.2,2.2,8,8,7.7c22-0.2,44.2,0,66.2-0.5c17.2-0.5,34.7,0.2,51.5-3.2c33.2-7,57-29,61.5-65.7
			c3.7-30-1.7-56.7-26-77.7c-15.7-13.5-34.5-18.7-54.2-19.5c-33-1-66,0-98.9,0c-6.2,0-8.5,2.5-8.5,8.7
			C597.2,138.2,597.2,163.2,597.2,188.2z"/>
		<path d="M910.3,539.7c-5.5-10.5-10-19.5-14.7-28.2c-21.7-40.7-43.5-81.7-65.2-122.4c-8.2-15.2-16.5-30.7-25-45.7
			c-3-5.2-1.2-7.5,3.2-9.5c17-7.2,32-17.2,45-30.2c20.7-20.7,35-45.5,42.2-74.2c1.2-5,2.5-9.7,4.2-16c3.2,3.5,6,6,8.2,9
			c28.2,38.7,50.5,81,66.5,126.2c8.2,23.7,14.7,48.5,19.5,73.5c7,37.7,7.7,76,6,114.4c-2,41.5-10.5,81.7-23.2,121.4
			c-12,37.7-29.7,72.5-50.5,105.7c-10.5,16.7-23.2,32-35.5,47.7c-21.2,27.7-46.2,51.7-74.2,72.5c-23.7,17.5-48.2,34.2-74.2,48
			c-25.7,13.7-53.2,24.5-80.7,34.2c-37,13-75.2,19.5-114.4,23c-34.2,3-68.5,2-102.4-2c-21.5-2.5-43-7.5-64.2-12.2
			c-37-8-71.7-22-105.2-39.2c-20.2-10.5-39.7-23-59.2-35.2c-27.2-17-51.2-38.5-73.5-61.5c-20.7-21.5-39.5-45.2-56.7-69.7
			c-14.7-20.7-27-43.7-38.5-66.5c-15-29.7-24.7-61.2-33-93.4C3.3,562.9-0.7,515.7,2.1,468.5c1.5-26,7.2-51.7,11.7-77.2
			c2.5-13.5,5.7-27,10-40c4.2-13,9.7-25.7,15.2-38.2c4.5-10.2,9-20.2,14.2-30c7.2-13.7,14.5-28,23.2-41c11.5-17,24-33.2,36.7-49.5
			c23.5-29.7,51.2-55.5,81.7-78.2c26.5-20,55-36.7,84.9-51.2c33.5-16,68.2-28.5,104.7-35.7c19.2-3.7,38.7-6.5,58-9
			c10-1.2,20.2-1.2,30.5-2.5c7.5-1,9.5,2.7,9.7,9c0.2,12,0.2,23.7,0.5,35.7c1.5,78.5,3.5,156.9,4.7,235.1
			c0.7,44.5,0.7,88.9,1.5,133.2c0.5,35.5,1.2,71,1.7,106.2c0,5.2,2,6.5,7,6.5c31.5-0.2,63.2-0.2,94.7-0.2c4.7,0,6.5-1.7,6.5-6.5
			c-0.2-27.5-0.5-55-0.7-82.2c-0.2-30-0.5-60.2-0.7-90.2c0-5.7,2.5-7.5,8-7.7c25.2-0.2,50.5-1,75.7-0.7c3.2,0,7.7,2.5,9.2,5
			c17.7,33,35,66.5,52.2,99.7c13.5,25.5,26.7,51,40.7,76.2c1.5,2.7,5.7,5.5,9,5.5c36.7,0.5,73.2,0.5,109.9,0.5
			C904.5,540.7,906.8,540.2,910.3,539.7z"/>
		<path d="M597.2,188.2c0-25,0.2-50,0-75c0-6.2,2.2-8.7,8.5-8.7c33,0,66-1,98.9,0c19.7,0.5,38.5,6,54.2,19.5
			c24.2,20.7,29.7,47.7,26,77.7c-4.5,36.7-28.2,58.7-61.5,65.7c-16.7,3.5-34.2,2.7-51.5,3.2c-22,0.5-44.2,0.2-66.2,0.5
			c-5.7,0-8.2-1.7-8-7.7c0.2-12.5,0-25.2-0.2-37.7C597.5,212.9,597.5,200.6,597.2,188.2L597.2,188.2z"/>
	</g>
</g>
</svg>
