<?xml version="1.0" encoding="utf-8"?>
<!-- Generator: Adobe Illustrator 28.1.0, SVG Export Plug-In . SVG Version: 6.00 Build 0)  -->
<svg version="1.1" id="Layer_1" xmlns="http://www.w3.org/2000/svg" xmlns:xlink="http://www.w3.org/1999/xlink" x="0px" y="0px"
	 viewBox="0 0 44 45" style="enable-background:new 0 0 44 45;" xml:space="preserve">
<style type="text/css">
	.st0{fill:#FFFFFF;}
</style>
<g>
	<g>
		<path class="st0" d="M38.38,24.87c-0.14,0.02-0.23,0.04-0.31,0.04c-1.47,0-2.93,0-4.4-0.02c-0.12,0-0.3-0.11-0.36-0.22
			c-0.55-1.01-1.09-2.03-1.63-3.05c-0.7-1.33-1.39-2.66-2.09-3.99c-0.06-0.11-0.24-0.2-0.37-0.2c-1.01,0-2.02,0.02-3.03,0.03
			c-0.22,0-0.32,0.07-0.32,0.31c0.02,1.2,0.02,2.41,0.03,3.61c0.01,1.1,0.02,2.2,0.03,3.29c0,0.19-0.07,0.26-0.26,0.26
			c-1.26,0-2.53,0-3.79,0.01c-0.2,0-0.28-0.05-0.28-0.26c-0.02-1.42-0.05-2.84-0.07-4.25c-0.02-1.78-0.03-3.56-0.06-5.33
			c-0.06-3.14-0.13-6.28-0.19-9.41c-0.01-0.48-0.01-0.95-0.02-1.43c0-0.25-0.09-0.4-0.39-0.36c-0.4,0.05-0.81,0.05-1.22,0.1
			c-0.78,0.11-1.55,0.21-2.32,0.36c-1.46,0.29-2.85,0.79-4.19,1.43c-1.2,0.57-2.34,1.25-3.4,2.05c-1.21,0.91-2.32,1.93-3.27,3.13
			c-0.51,0.64-1.01,1.3-1.47,1.98c-0.35,0.52-0.64,1.08-0.93,1.64c-0.21,0.39-0.39,0.79-0.57,1.2c-0.22,0.51-0.44,1.01-0.61,1.53
			c-0.17,0.52-0.3,1.06-0.4,1.6c-0.18,1.03-0.41,2.06-0.47,3.09c-0.11,1.89,0.05,3.78,0.51,5.63c0.32,1.29,0.72,2.55,1.32,3.74
			c0.46,0.91,0.95,1.83,1.54,2.66c0.69,0.98,1.44,1.93,2.27,2.79c0.88,0.92,1.85,1.78,2.94,2.46c0.78,0.49,1.55,0.99,2.37,1.41
			c1.33,0.69,2.73,1.26,4.21,1.57c0.85,0.18,1.7,0.39,2.57,0.49c1.36,0.16,2.73,0.2,4.1,0.08c1.56-0.13,3.1-0.39,4.58-0.92
			c1.1-0.39,2.2-0.83,3.23-1.37c1.04-0.55,2.03-1.22,2.97-1.92c1.12-0.83,2.12-1.79,2.97-2.9c0.48-0.63,1-1.24,1.42-1.91
			c0.84-1.33,1.54-2.73,2.02-4.23c0.51-1.58,0.85-3.19,0.93-4.86c0.07-1.53,0.04-3.07-0.24-4.58c-0.19-0.99-0.45-1.98-0.78-2.94
			c-0.63-1.81-1.52-3.5-2.66-5.05c-0.09-0.12-0.2-0.22-0.33-0.36c-0.07,0.25-0.12,0.45-0.17,0.64c-0.28,1.15-0.86,2.13-1.69,2.97
			c-0.52,0.52-1.12,0.92-1.8,1.21c-0.18,0.08-0.25,0.17-0.13,0.38c0.35,0.6,0.68,1.22,1,1.83c0.87,1.63,1.74,3.26,2.61,4.9
			C37.98,24.09,38.16,24.45,38.38,24.87z M25.85,10.8C25.85,10.8,25.85,10.8,25.85,10.8c0.01,0.5,0.01,0.99,0.01,1.49
			c0,0.5,0.02,1.01,0.01,1.51c-0.01,0.25,0.09,0.32,0.32,0.31c0.88-0.01,1.77,0,2.65-0.02c0.69-0.02,1.39,0.01,2.06-0.13
			c1.33-0.28,2.28-1.16,2.46-2.63c0.15-1.2-0.07-2.27-1.04-3.11c-0.63-0.54-1.38-0.75-2.17-0.78c-1.32-0.04-2.64,0-3.96,0
			c-0.25,0-0.34,0.1-0.34,0.35C25.85,8.8,25.85,9.8,25.85,10.8z"/>
		<path d="M38.38,24.87c-0.22-0.42-0.4-0.78-0.59-1.13c-0.87-1.63-1.74-3.27-2.61-4.9c-0.33-0.61-0.66-1.23-1-1.83
			c-0.12-0.21-0.05-0.3,0.13-0.38c0.68-0.29,1.28-0.69,1.8-1.21c0.83-0.83,1.4-1.82,1.69-2.97c0.05-0.2,0.1-0.39,0.17-0.64
			c0.13,0.14,0.24,0.24,0.33,0.36c1.13,1.55,2.02,3.24,2.66,5.05c0.33,0.95,0.59,1.94,0.78,2.94c0.28,1.51,0.31,3.04,0.24,4.58
			c-0.08,1.66-0.42,3.27-0.93,4.86c-0.48,1.51-1.19,2.9-2.02,4.23c-0.42,0.67-0.93,1.28-1.42,1.91c-0.85,1.11-1.85,2.07-2.97,2.9
			c-0.95,0.7-1.93,1.37-2.97,1.92c-1.03,0.55-2.13,0.98-3.23,1.37c-1.48,0.52-3.01,0.78-4.58,0.92c-1.37,0.12-2.74,0.08-4.1-0.08
			c-0.86-0.1-1.72-0.3-2.57-0.49c-1.48-0.32-2.87-0.88-4.21-1.57c-0.81-0.42-1.59-0.92-2.37-1.41c-1.09-0.68-2.05-1.54-2.94-2.46
			c-0.83-0.86-1.58-1.81-2.27-2.79c-0.59-0.83-1.08-1.75-1.54-2.66c-0.6-1.19-0.99-2.45-1.32-3.74c-0.46-1.85-0.62-3.74-0.51-5.63
			c0.06-1.04,0.29-2.07,0.47-3.09c0.1-0.54,0.23-1.08,0.4-1.6c0.17-0.52,0.39-1.03,0.61-1.53c0.18-0.41,0.36-0.81,0.57-1.2
			c0.29-0.55,0.58-1.12,0.93-1.64c0.46-0.68,0.96-1.33,1.47-1.98c0.94-1.19,2.05-2.22,3.27-3.13c1.06-0.8,2.2-1.47,3.4-2.05
			c1.34-0.64,2.73-1.14,4.19-1.43c0.77-0.15,1.55-0.26,2.32-0.36c0.4-0.05,0.81-0.05,1.22-0.1c0.3-0.04,0.38,0.11,0.39,0.36
			c0.01,0.48,0.01,0.95,0.02,1.43c0.06,3.14,0.14,6.28,0.19,9.41c0.03,1.78,0.03,3.56,0.06,5.33c0.02,1.42,0.05,2.84,0.07,4.25
			c0,0.21,0.08,0.26,0.28,0.26c1.26-0.01,2.53-0.01,3.79-0.01c0.19,0,0.26-0.07,0.26-0.26c-0.01-1.1-0.02-2.2-0.03-3.29
			c-0.01-1.2-0.02-2.41-0.03-3.61c0-0.23,0.1-0.3,0.32-0.31c1.01-0.01,2.02-0.04,3.03-0.03c0.13,0,0.31,0.1,0.37,0.2
			c0.71,1.32,1.4,2.66,2.09,3.99c0.54,1.02,1.07,2.04,1.63,3.05c0.06,0.11,0.23,0.22,0.36,0.22c1.47,0.02,2.93,0.02,4.4,0.02
			C38.15,24.91,38.24,24.89,38.38,24.87z"/>
		<path d="M25.85,10.8c0-1,0.01-2,0-3c0-0.25,0.09-0.35,0.34-0.35c1.32,0,2.64-0.04,3.96,0c0.79,0.02,1.54,0.24,2.17,0.78
			c0.97,0.83,1.19,1.91,1.04,3.11c-0.18,1.47-1.13,2.35-2.46,2.63c-0.67,0.14-1.37,0.11-2.06,0.13c-0.88,0.02-1.77,0.01-2.65,0.02
			c-0.23,0-0.33-0.07-0.32-0.31c0.01-0.5,0-1.01-0.01-1.51C25.86,11.79,25.86,11.3,25.85,10.8C25.85,10.8,25.85,10.8,25.85,10.8z"/>
	</g>
</g>
</svg>
